<svg xmlns="http://www.w3.org/2000/svg" xmlns:xlink="http://www.w3.org/1999/xlink" viewBox="0 0 900 50" xmlns:v="https://vecta.io/nano"><style><![CDATA[.B{fill:gray}.C{fill-opacity:1}.D{fill-rule:evenodd}]]></style><g class="B"><path d="M54.684 19.7l-1.095 3.333h-4.062l-3.062 9.346h-4.098l3.062-9.346h-4.186l1.095-3.333h12.346zm12.044 0l-.996 3.033h-6.44l-.543 1.693h5.428l-.96 2.9H57.79l-.636 1.957h6.687l-1.004 3.086H52.035l4.157-12.68H66.73zM76 29.01l-1.1 3.368H64.86l4.157-12.68h4.098l-3.056 9.31H76zm14.906-9.31l-1.095 3.333h-4.062l-3.062 9.346H78.59l3.062-9.346h-4.186L78.56 19.7h12.346zm12.62 4.814l-.15.81-.226.723c-.693 2.058-1.83 3.683-3.407 4.876s-3.407 1.8-5.49 1.8c-1.786 0-3.108-.46-3.966-1.384s-1.164-2.2-.917-3.8c.065-.423.187-.917.368-1.48.676-2.022 1.817-3.642 3.422-4.858s3.43-1.825 5.477-1.825c1.786 0 3.108.456 3.968 1.367s1.167 2.172.92 3.783zm-4.18.3c.106-.694.045-1.223-.183-1.587-.275-.447-.796-.67-1.565-.67-.97 0-1.78.353-2.432 1.058-.512.564-.944 1.376-1.295 2.434l-.183.617a5.88 5.88 0 0 0-.13.617c-.106.694-.045 1.223.183 1.587.275.447.796.67 1.565.67.958 0 1.763-.353 2.415-1.058.524-.564.96-1.376 1.312-2.434.158-.494.263-.905.313-1.234zm20.08-5.114l-4.157 12.68h-3.885l-1.8-5.855-.2-1.13-.143-.688-.032.212c-.072.47-.197.976-.374 1.516L106.9 32.38h-3.885l4.157-12.68h3.885l1.777 5.9a1.63 1.63 0 0 1 .081.397l.04.432.22.987.032-.212c.068-.447.193-.952.374-1.517l1.96-5.978h3.885zm6.81 0l-4.157 12.68h-4.186l4.157-12.68h4.186zm15.965 0l-6.533 4.673 3.015 8.006h-5.038l-1.866-5.08-1.702 1.04-1.327 4.04h-4.044l4.157-12.68h4.045l-1.37 4.197 5.733-4.197h4.93zm9.697 12.68h-4.062l.026-1.675h-4.754l-1.1 1.675h-4.01l9.017-12.68h4.15l.72 12.68zm-3.966-4.338l-.126-4.39-2.996 4.39h3.122zM18.865 34.94l.005-.004-9.7-9.7.01-.01-.007-.006 9.564-9.854-.005-.004 4.007-4.13 4.12 3.998 3.678-3.79 4.054 3.934 3.95-4.072 4.13 4.007-4.007 4.128-3.354-3.254-8.837 9.106 8.968 8.968 3.304-3.304 4.068 4.068-4.068 4.068-4.068-4.068.005-.005-9.71-9.71.01-.01-.006-.006 5.612-5.782-3.284-3.186-8.837 9.106 8.968 8.968 3.304-3.304 4.068 4.068-4.068 4.068L26.73 35.2l-3.796 3.796-4.068-4.068zm3.983-15.587l-3.35-3.25-8.837 9.105 8.968 8.968 3.037-3.037-5.707-5.707.01-.01-.007-.006 5.885-6.064z" class="D"/><g transform="matrix(.725407 0 0 .725407 433.58355 9.914939)"><path d="M59.824 24.6v-2.86h8.1v6.672c-.762.762-1.906 1.334-3.43 1.906-1.43.477-2.954.762-4.48.762-2 0-3.62-.38-5.146-1.144-1.43-.667-2.478-1.81-3.24-3.145a10 10 0 0 1-1.048-4.48c0-1.81.38-3.336 1.24-4.67.762-1.43 2-2.478 3.526-3.145 1.144-.572 2.668-.858 4.48-.858 2.287 0 4.098.477 5.432 1.334 1.24.858 2.097 2.097 2.478 3.622l-3.717.667c-.286-.858-.762-1.525-1.525-2s-1.62-.667-2.668-.667c-1.715 0-2.954.38-3.907 1.334-1.048.953-1.525 2.383-1.525 4.194 0 2 .572 3.526 1.525 4.575.953.953 2.287 1.43 3.812 1.43.858 0 1.62-.095 2.382-.38s1.43-.667 2-1.048V24.6h-4.288zm28.4 6.195h-4.098l-1.62-3.812h-7.433l-1.525 3.812h-4.003l7.243-16.87h3.907l7.53 16.87zm-6.957-6.672l-2.573-6.3-2.478 6.3h5.05zm9.053 6.672v-16.68h3.717v13.82h9.34v2.86H90.32zm15.63 0v-16.87h3.717v16.87h-3.717zm7.433 0v-16.68h3.812v13.82h9.34v2.86h-13.15zm15.82 0v-16.87h13.723v2.86h-10.006v3.717h9.34v2.86h-9.34v4.575h10.387v2.86H129.2zm16.486-8.292c0-1.716.286-3.24.858-4.384.476-.858 1.048-1.62 1.81-2.287.667-.667 1.525-1.24 2.382-1.525 1.144-.477 2.478-.667 4.003-.667 2.764 0 4.955.762 6.576 2.287s2.478 3.717 2.478 6.48c0 2.67-.858 4.86-2.478 6.386s-3.812 2.287-6.576 2.287-4.955-.762-6.576-2.287-2.478-3.622-2.478-6.29zm3.907-.19c0 1.906.476 3.43 1.43 4.384a5.34 5.34 0 0 0 3.717 1.43c1.525 0 2.764-.477 3.717-1.43s1.43-2.478 1.43-4.384-.476-3.43-1.334-4.29c-.953-.953-2.192-1.43-3.812-1.43-1.525 0-2.764.477-3.717 1.43s-1.43 2.383-1.43 4.29z"/><path d="M59.633 24.6v-3.05H68.2v7.054h-.095c-.38.38-.953.667-1.525 1.048a21.04 21.04 0 0 1-2.001.858 10.03 10.03 0 0 1-2.287.572c-.762.2-1.525.2-2.287.2-1.048 0-1.906-.095-2.764-.286s-1.715-.477-2.478-.858c-.667-.38-1.334-.762-1.906-1.334a9.12 9.12 0 0 1-1.43-1.906 8.77 8.77 0 0 1-.858-2.192c-.2-.762-.286-1.62-.286-2.383 0-.953.2-1.716.38-2.573.2-.762.476-1.525.953-2.192.38-.762.858-1.334 1.525-1.906.572-.572 1.334-.953 2.097-1.334.572-.286 1.334-.572 2.097-.667.762-.2 1.525-.2 2.478-.2 2.287 0 4.193.38 5.527 1.334.667.477 1.24.953 1.62 1.62.476.667.762 1.334.953 2.097l.095.286h-.286l-3.717.667h-.2l-.095-.2c-.095-.38-.286-.667-.476-1.048-.286-.286-.572-.572-.858-.762-.38-.2-.762-.38-1.144-.477-.476-.2-.953-.2-1.43-.2-.858 0-1.525.095-2.192.286-.572.286-1.144.572-1.62 1.048s-.762 1.048-1.048 1.716c-.2.667-.286 1.43-.286 2.287 0 1.048.095 1.906.286 2.573.286.762.667 1.334 1.048 1.8.476.477 1.048.858 1.62 1.048.667.286 1.334.38 2.097.38.38 0 .762 0 1.144-.095l1.144-.286c.38-.2.762-.286 1.144-.477.286-.095.476-.286.762-.477v-1.8h-4.3v-.2zm.477-2.67v2.47h4.288v2.383l-.095.095-.953.572c-.38.2-.762.38-1.144.477-.38.2-.858.286-1.24.38-.38 0-.762.095-1.24.095-.762 0-1.525-.2-2.192-.38a5.59 5.59 0 0 1-1.811-1.239c-.476-.477-.858-1.144-1.144-1.906s-.38-1.716-.38-2.764c0-.953.095-1.716.38-2.478s.667-1.334 1.144-1.8 1.144-.858 1.8-1.144c.667-.2 1.43-.38 2.287-.38.572 0 1.048.095 1.525.2.476.2.858.286 1.24.572s.762.572.953.953c.286.286.476.572.572.953l3.335-.572c-.2-.667-.476-1.24-.858-1.716a3.91 3.91 0 0 0-1.525-1.525c-1.24-.858-3.05-1.334-5.24-1.334-.953 0-1.715.095-2.478.2-.667.2-1.334.38-1.906.667-.762.38-1.43.762-2 1.24-.572.572-1.048 1.144-1.43 1.8-.476.667-.762 1.334-.953 2.097a10.37 10.37 0 0 0-.286 2.478 9.38 9.38 0 0 0 .286 2.287 18.6 18.6 0 0 0 .762 2.097c.38.667.858 1.24 1.334 1.716.572.572 1.144.953 1.8 1.334.762.38 1.525.667 2.382.858.762.2 1.715.286 2.668.286.762 0 1.525-.095 2.192-.2l2.287-.667a11.48 11.48 0 0 0 1.906-.762c.476-.286.953-.572 1.334-.953v-6.386H60.1zm28.113 9.055H84.03l-.095-.095-1.525-3.717h-7.243l-1.43 3.717-.095.095h-4.48l.2-.286 7.243-16.87v-.095h4.3l.095.095 7.433 16.87.095.286h-.287zm-3.908-.477h3.526L80.598 14.2H76.88l-7.05 16.3h3.526l1.525-3.622v-.2h7.815v.2l1.62 3.622zm-3.335-6.672l-2.287-5.433-2.192 5.433h4.48zm-2.097-6.1l2.668 6.3.095.286h-5.813l.2-.286 2.668-6.777.2.477zm11.15 13.057V13.82h4.3v13.915h9.34v3.24h-13.63v-.2zm.477-16.5V30.5h12.675v-2.383h-9.34v-13.82H90.5zm15.247 16.5v-17.06h4.194v17.252h-4.194v-.2zm.382-16.584V30.5h3.335V14.2h-3.335zm7.052 16.584V13.82h4.194v13.915h9.34v3.24h-13.533v-.2zm.38-16.5V30.5h12.675v-2.383h-9.34v-13.82h-3.336zm15.343 16.5v-17.06H143.2v3.24h-10.006V20.3h9.244v3.24h-9.244v4.194h10.293v3.24h-14.58v-.192zm.476-16.584V30.5h13.723v-2.383h-10.388V23.16h9.34v-2.383h-9.34v-4.194h10.007V14.2H129.4zm16.106 8.292c0-.953.095-1.716.2-2.478.2-.762.38-1.43.667-2 .286-.38.476-.858.762-1.24s.667-.762 1.048-1.144c.38-.286.762-.667 1.144-.858.476-.286.858-.477 1.334-.667.572-.286 1.24-.38 1.906-.572.667-.095 1.43-.095 2.192-.095 1.43 0 2.668.2 3.812.572 1.048.38 2.097.953 2.954 1.8.858.762 1.43 1.716 1.906 2.764.38 1.144.572 2.383.572 3.812 0 1.334-.2 2.573-.572 3.717-.476 1.048-1.048 2-1.906 2.764-.858.858-1.8 1.43-2.954 1.8s-2.382.572-3.812.572c-1.334 0-2.668-.2-3.717-.572-1.144-.38-2.192-.953-2.954-1.716-.858-.858-1.525-1.8-1.906-2.86-.477-1.05-.667-2.288-.667-3.622zm.667-2.383c-.2.762-.2 1.525-.2 2.383 0 1.24.2 2.478.572 3.43a6.36 6.36 0 0 0 1.81 2.67c.762.762 1.715 1.334 2.764 1.716s2.287.572 3.62.572c1.43 0 2.573-.2 3.62-.572 1.144-.38 2-.953 2.86-1.716a7.14 7.14 0 0 0 1.715-2.669c.476-1.048.667-2.192.667-3.526s-.2-2.573-.667-3.622a6.36 6.36 0 0 0-1.81-2.67c-.762-.762-1.715-1.334-2.764-1.716s-2.287-.572-3.62-.572c-.762 0-1.43.095-2.097.2s-1.24.286-1.8.477c-.476.2-.858.38-1.24.667-.38.2-.762.477-1.144.858-.38.286-.667.667-.953 1.048s-.477.762-.762 1.144c-.2.572-.475 1.24-.57 1.906zm3.62 2.192c0 .953.2 1.8.38 2.478.286.667.572 1.24 1.048 1.716s.953.858 1.62 1.048c.572.286 1.24.38 1.906.38.762 0 1.43-.095 2-.38.572-.2 1.144-.572 1.62-1.048.38-.477.762-1.048.953-1.716.286-.667.38-1.525.38-2.478s-.095-1.8-.38-2.478c-.2-.667-.476-1.24-.953-1.716s-.953-.762-1.525-1.048c-.667-.2-1.334-.286-2.097-.286-.667 0-1.43.095-2 .286-.572.286-1.144.572-1.525 1.048-.476.477-.858 1.048-1.048 1.716-.2.763-.38 1.525-.38 2.478zm0 2.574c-.286-.667-.38-1.525-.38-2.573 0-.953.095-1.8.38-2.573.2-.762.572-1.43 1.048-1.906.572-.477 1.144-.858 1.715-1.144.667-.2 1.43-.38 2.192-.38.858 0 1.525.2 2.192.38.667.286 1.24.667 1.715 1.144s.858 1.144 1.144 1.906c.2.667.38 1.525.38 2.573 0 .953-.2 1.906-.38 2.573a6.84 6.84 0 0 1-1.144 2.001c-.476.477-1.048.858-1.715 1.144-.667.2-1.334.38-2.192.38-.762 0-1.43-.2-2.097-.38-.667-.286-1.24-.667-1.715-1.24-.57-.477-.952-1.144-1.143-1.906zm15.917.468l3.717-.38c.2 1.144.667 1.906 1.334 2.478.667.477 1.525.762 2.668.762 1.24 0 2.192-.286 2.764-.667.572-.477.953-1.048.953-1.62 0-.477-.2-.762-.38-1.048-.286-.286-.762-.572-1.43-.762l-2.954-.667c-2-.477-3.43-1.048-4.193-1.716-1.144-.953-1.715-2.097-1.715-3.43 0-.858.286-1.62.762-2.383.572-.762 1.334-1.334 2.287-1.716 1.048-.38 2.287-.572 3.717-.572 2.287 0 4.098.477 5.24 1.43s1.8 2.192 1.8 3.717l-3.717.095c-.2-.858-.477-1.43-1.048-1.8-.477-.38-1.334-.572-2.382-.572s-1.906.2-2.478.572c-.476.286-.667.572-.667 1.048 0 .38.2.762.572 1.048.476.38 1.62.667 3.43 1.144 1.906.38 3.24.762 4.098 1.144.858.477 1.525 1.048 2 1.716.572.762.762 1.62.762 2.67 0 .953-.286 1.906-.858 2.764s-1.43 1.43-2.573 1.8c-1.048.477-2.382.667-4.003.667-2.382 0-4.193-.477-5.432-1.525-1.24-.953-2.002-2.383-2.288-4.194zm18.392 5.433v-16.87h3.812v7.434l7.53-7.434h5.05l-6.957 6.576 7.338 10.293h-4.86l-5.05-7.9-3.05 2.764v5.147h-3.812zm23.634 0v-7.148l-6.86-9.722h4.48l4.384 6.672 4.288-6.672h4.288l-6.86 9.817v7.053h-3.717z"/><path d="M165.7 25.066l3.717-.286h.19v.19c.095.477.286.953.476 1.334s.476.667.762.953c.38.19.667.38 1.144.572a6.5 6.5 0 0 0 1.429.191 6.59 6.59 0 0 0 1.525-.191c.477-.095.858-.286 1.144-.477.19-.286.477-.477.572-.667.19-.286.19-.572.19-.762s0-.38-.095-.477c0-.19-.095-.286-.19-.477-.095-.095-.286-.19-.477-.286s-.476-.19-.762-.38c-.286 0-.572-.095-1.048-.286l-2-.38-2.573-.762c-.667-.286-1.24-.667-1.715-.953-.572-.477-1.048-1.048-1.334-1.62a4.43 4.43 0 0 1-.476-2.001 2.93 2.93 0 0 1 .286-1.239c.095-.477.286-.858.572-1.24s.667-.762 1.048-1.048.858-.572 1.43-.762a7.41 7.41 0 0 1 1.715-.477c.572-.095 1.24-.095 2-.095 1.144 0 2.192.095 3.145.286.858.286 1.62.667 2.192 1.144.667.477 1.144 1.048 1.43 1.716.38.667.476 1.334.572 2.192v.19h-.286l-3.717.19h-.19v-.19c-.095-.477-.19-.762-.38-1.048s-.38-.572-.572-.762c-.286-.095-.572-.286-.953-.38s-.762-.095-1.334-.095c-1.048 0-1.81.19-2.382.572a.74.74 0 0 0-.381.381c-.095.095-.095.286-.095.477 0 .286.095.572.476.858.19.19.572.286 1.144.477s1.24.38 2.192.572c.858.19 1.715.38 2.382.667l1.715.572c.476.19.858.477 1.24.762.286.286.667.667.858 1.048.286.38.476.762.572 1.24.19.477.19 1.048.19 1.525 0 .572 0 1.048-.19 1.525s-.38.953-.667 1.334c-.38.477-.762.858-1.144 1.144-.476.38-.953.572-1.525.858-.572.19-1.144.38-1.81.477-.762.095-1.43.095-2.287.095-1.24 0-2.287-.095-3.145-.38-.953-.19-1.715-.572-2.382-1.144-.667-.477-1.24-1.144-1.62-1.81-.38-.762-.667-1.62-.762-2.573v-.286h.19zm3.526.19l-3.24.286c.095.762.38 1.525.667 2.097a5.5 5.5 0 0 0 1.429 1.811c.667.477 1.43.762 2.287 1.048.858.19 1.906.38 3.05.38.762 0 1.525-.095 2.192-.19s1.24-.286 1.81-.477c.476-.19.953-.38 1.334-.667.38-.38.762-.667 1.048-1.144.286-.38.476-.762.667-1.24a5.64 5.64 0 0 0 .191-1.334c0-.477-.095-.953-.19-1.334-.095-.477-.286-.858-.572-1.144-.19-.38-.476-.667-.762-.953-.38-.286-.762-.572-1.144-.762l-1.62-.572-2.382-.572-2.287-.572c-.572-.19-.953-.38-1.24-.572-.476-.38-.667-.762-.667-1.24 0-.286.095-.477.19-.667.095-.286.286-.38.476-.572.667-.38 1.525-.667 2.668-.667.572 0 1.048.095 1.43.19.476.095.762.286 1.048.477s.572.477.762.762.286.667.38 1.048l3.335-.095c-.095-.667-.19-1.24-.476-1.81s-.762-1.144-1.334-1.525c-.476-.477-1.24-.858-2.097-1.048-.858-.286-1.81-.38-2.954-.38-.762 0-1.334.095-2 .19-.572.095-1.144.19-1.62.38s-.858.477-1.24.762c-.38.19-.667.572-.953.858-.286.38-.476.762-.572 1.144s-.19.762-.19 1.144c0 .667.095 1.24.38 1.81.286.477.667 1.048 1.24 1.43.38.38.953.667 1.62.858a12.71 12.71 0 0 0 2.478.762l2 .477c.476.095.858.19 1.048.286.38.095.667.19.858.38.286.095.476.286.572.38.19.19.286.38.38.572 0 .19.095.38.095.667s-.095.667-.286.953-.38.572-.762.762c-.286.286-.667.477-1.144.572-.477.19-1.048.19-1.715.19-.572 0-1.048-.095-1.525-.19s-.953-.38-1.334-.572c-.286-.286-.572-.667-.858-1.144-.188-.38-.38-.762-.474-1.24zm14.675 5.528v-17.06h4.194v7.15l7.243-7.053v-.095h10.1v.095l4.288 6.386 4.098-6.386v-.095h4.86l-.19.38-6.766 9.626v7.244h-4.194v-7.244l-6.86-9.626-6.86 6.386 7.243 10.103.286.38h-5.43l-.095-.095-4.955-7.72-2.764 2.573v5.242h-4.194v-.19zm.477-16.584V30.5h3.24v-4.956h.095l3.05-2.86.19-.19.095.286 5.146 7.72h4.288l-7.147-9.912-.095-.095.095-.19 6.67-6.1h-4.48L188 21.54l-.38.38V14.2h-3.24zm23.54 9.436V30.5h3.335v-6.862l.095-.095 6.576-9.34h-3.812l-4.193 6.48-.19.286-.19-.286-4.384-6.48h-3.812l6.576 9.34v.095h.001z"/><g class="D"><path d="M29.996 22.302c0 12.4-4.48 22.398-10.006 22.398S9.983 34.693 9.983 22.302C9.983 10.007 14.462 0 19.99 0s10.007 10.007 10.007 22.302zm-1.144 0c0 11.437-3.526 20.587-8.005 20.587-4.384 0-8.005-9.15-8.005-20.587 0-11.342 3.62-20.492 8.005-20.492 4.48.001 8.005 9.15 8.005 20.492z"/><path d="M14.94 13.63c10.673-6.1 21.633-7.244 24.396-2.478 2.764 4.86-3.717 13.725-14.4 19.92-10.673 6.1-21.537 7.244-24.3 2.478-2.764-4.86 3.62-13.725 14.295-19.92zm.57 1.05c9.816-5.72 19.63-7.244 21.823-3.43S33.33 22.78 23.515 28.498s-19.63 7.148-21.823 3.335S5.695 20.3 15.5 14.678z"/><path d="M14.94 31.07C4.265 24.876-2.12 16.012.644 11.15c2.764-4.765 13.628-3.622 24.3 2.478 10.673 6.195 17.154 15.06 14.4 19.92-2.764 4.765-13.723 3.622-24.396-2.478zm.57-1.05C5.695 24.4-.5 16.68 1.692 12.867s12.008-2.383 21.823 3.336 16 13.343 13.818 17.25c-2.2 3.812-12.007 2.287-21.823-3.432zM20 28.593c3.43 0 6.194-2.86 6.194-6.3S23.42 16.098 20 16.098s-6.3 2.764-6.3 6.195a6.35 6.35 0 0 0 6.29 6.29z"/><path d="M20 16.965a5.33 5.33 0 0 1 5.337 5.337c-.762-1.906-2.668-3.24-4.86-3.24-3.05 0-5.432 2.383-5.432 5.433-.286-.667-.476-1.334-.476-2.192-.001-2.954 2.477-5.337 5.43-5.337zm5.336 5.91c-.286 2.764-2.573 4.86-5.337 4.86a5.32 5.32 0 0 1-3.907-1.716c.858.38 1.8.572 2.86.572 2.764 0 5.146-1.43 6.385-3.717z"/></g><path d="M222.5 7.434c.858 0 1.62.38 2.192.953s.953 1.334.953 2.097c0 .858-.38 1.62-.953 2.192s-1.334.858-2.192.858c-.762 0-1.525-.286-2.097-.858s-.953-1.334-.953-2.192c0-.762.38-1.525.953-2.097s1.335-.953 2.097-.953zm1.906 1.24c-.476-.477-1.144-.858-1.906-.858-.667 0-1.334.38-1.81.858s-.858 1.144-.858 1.81c0 .762.38 1.43.858 1.906s1.144.762 1.81.762c.762 0 1.43-.286 1.906-.762s.762-1.144.762-1.906c0-.667-.285-1.334-.762-1.81z"/><path d="M221.26 12.104V8.96h2.096c.095.095.286.19.38.38.095.095.095.286.095.477s-.095.38-.19.572c-.19.095-.38.286-.667.286.095.095.19.095.19.19a.74.74 0 0 1 .381.381l.572.858h-.572l-.38-.667-.38-.38c0-.095-.095-.19-.19-.286 0 0-.095 0-.19-.095h-.763v1.43h-.38zm.38-1.81h1.43c.095-.095.19-.095.19-.19.095-.095.095-.19.095-.286 0-.19 0-.286-.095-.38-.19-.095-.286-.19-.572-.19h-1.048v1.05z"/></g><g class="D"><path d="M753.562 30.013c-2.978.062-2.606-1.365-1.86-3.6.62-1.862-.248-1.5 3.413-1.365-.435.744-1.303 3.91-1.55 4.964zm-85.866-.062l.186.868c.434 1.5 1.924 1.427 3.722 1.427 1.675 0 3.102-.186 3.847-1.303.372.434.248 1.055 1.738 1.24.93.186 2.172.062 3.102.062 2.544 0 3.35.31 5.398-.807l-1.86 6.206c5.894.062 4.84.93 5.956-2.978l3.04-9.68c3.536 0 3.6 3.103 1.675 4.406-.93.62-1.18.56-2.047.93-.248 1.18.682 1.862 1.924 1.924l8.004-.062c1.24-.248 1.86-.62 2.482-1.55-.062 2.234 3.66 1.613 6.577 1.613 6.02 0 4.715-.62 6.267-2.172.807 2.172 5.77 2.172 8.625 2.172 3.165 0 8.004.683 8.935-1.924-.062 2.482 2.234 1.924 5.336 1.924 2.73 0 4.22.124 5.522-1.8 1.24 2.67 4.9 2.792 7.073.31.745 1.055.248 1.303 2.172 1.5 1.303.124 6.142.124 7.26-.31 1.49-.56 1.117-1.117 1.86-1.924l-5.956-.062 1.613-5.4c.248-.745.56-1.055.62-1.924-3.474 0-7.446-.31-10.548.497-1.427.372-2.668 1.365-3.35 2.234-.993 1.365-1.055 2.482-.93 4.592h-5.522c.124-1.055 3.91-12.783 4.53-14.77h-4.964c-.31 1.5-.807 2.42-1.117 3.723-.434 1.676-1.924 5.77-2.295 7.323l-1.117 3.723c-2.047-.124-7.446 0-10.052 0-3.6 0-3.102-.745-2.295-2.917.93-2.482-.062-2.047 3.474-2.047l-1.24 2.917c2.606 0 4.467.497 5.398-.682 1.055-1.365.56-3.35-1.303-3.97-3.04-1.055-7.756-.807-10.3.868-.745.497-1.49 1.55-1.8 2.42-.56 1.427-.31 2.1.186 3.413h-7.57c.186-.745.62-1.676.807-2.544.186-.62.56-1.738.807-2.358 2.234-.31 3.6-.31 4.095-2.42h-3.35c.248-1.18 1.427-4.282 1.613-5.647h-2.668c-1.18 3.165-2.668 4.468-5.522 5.523-.745.248-1.117 1.676-1.24 2.42l2.047.062-1.49 4.964h-7.384c1.18-.807 1.18-.372 2.358-1.924.93-1.18 1.24-3.29-.682-4.592-1.24-.745-4.405-.682-5.832-.807.31-1.24.56-1.303 1.055-3.29h-4.84c-.56.807-.682 1.55-.93 2.544-.124.497-.248.745-.434 1.24-.496 1.5-1.055 3.6-1.675 5.336-.248.56-.186.868-.372 1.427l-5.398.062c.124-.993 2.234-6.206 2.482-7.323-5.832 0-4.964-.497-5.646 1.676-.186.745-.496 1.18-.682 1.924-.248.807-.496 1.18-.682 1.924-.124.434-.186.56-.31.993-.434 1.055-.372.807-3.226.807l2.668-7.323H670.3c-.124.745-.868 2.917-1.24 3.723l-1.365 3.602z"/><path d="M667.88 30.82l-.186-.868h-5.398L659.7 24.43c3.226-1.613 8.252-3.35 7.942-7.82-.248-3.103-3.66-4.096-6.267-4.22-3.722-.186-11.788-.124-15.573-.063l-2.295 3.66c3.35.124 14.333-.3 16.505.248.993.248 1.675 1.24 1.55 2.42-.3 3.103-5.088 4.22-7.57 5.15.682 1.24 2.295 5.275 3.35 7.074.496.93.682 1.117 1.8 1.303.745.124 1.613.186 2.544.186 1.924 0 3.9-.186 4.467-.434 1.612-.62 1.115-1.365 1.736-1.116zm-22.15 1.426h4.964c.124-.56.434-1.117.56-1.676.62-2.42 3.97-11.976 3.847-12.845l-4.84.062c-.187.3-4.406 13.343-4.53 14.46zm-38.16-16.754c.372.186 8.5-.186 10.052-.062 3.6.372 7.384 4.654 11.168 5.027 2.916.248 10.114-3.35 11.293-4.902-.807 0-3.04.93-3.97 1.24-6.205 1.985-7.88 1.5-12.223-1.18-2.916-1.8-4.592-2.792-8.128-2.42-2.048.124-6.825 1.427-8.2 2.296zm0 6.205c.372.124 8.5-.248 10.052-.062 3.6.372 7.384 4.654 11.168 4.964 2.916.248 10.114-3.3 11.293-4.902-.807.062-3.04.993-3.97 1.24-6.205 1.986-7.88 1.55-12.223-1.18-2.916-1.738-4.592-2.73-8.128-2.42-2.048.186-6.825 1.428-8.2 2.358zm0 6.143c.372.186 8.5-.248 10.052-.062 3.6.372 7.384 4.654 11.168 4.964 2.916.3 10.114-3.3 11.293-4.84-.807 0-3.04.93-3.97 1.24-6.205 1.986-7.88 1.5-12.223-1.18-2.916-1.8-4.592-2.792-8.128-2.482-2.048.187-6.825 1.5-8.2 2.36zm195.5-8.107h12.797c1.22 0 2.54 1.026 2.198 2.15l-2.442 8.5v.098h11.673a1.42 1.42 0 0 0 1.417-1.417 1.42 1.42 0 0 0-1.417-1.417h-6.594c-.4 0-.78-.195-1.026-.537s-.293-.733-.195-1.123l1.172-4.103c.293-1.123.977-2.15 2.15-2.15h31.992c1.172 0 2.5 1.026 2.15 2.15l-.537 2.003h2.833l1.856-6.448c.293-1.172.977-2.15 2.15-2.15h8.547c.83 0 .78 1.417.293 2.247h-3.907c-1.172 0-1.807 1.026-2.15 2.15l-1.22 4.2h2.5l.586-2.003c.293-1.123.977-2.15 2.15-2.15h12.797c1.22 0 2.5 1.026 2.198 2.15l-1.417 4.885h-10.5c-.4 0-.635.342-.733.733l-.537 2.15c-.098.4.342.733.733.733H882.6c-.293 1.172-.977 2.198-2.15 2.198h-12.846c-1.172 0-2.5-1.026-2.15-2.198l1.22-4.3h-2.442l-1.856 6.497h-5.52c-1.22 0 .195-1.026.537-2.198l1.22-4.3h-2.833l-1.22 4.3c-.342 1.172.5 2.198-.684 2.198H848.2l.146-.928h-.44c-.4.586-.928.928-1.66.928h-6.692c-1.22 0-2.5-1.026-2.15-2.198l1.026-3.712.146-.44c.342-1.172.977-2.198 2.15-2.198h9.036c.586 0 1.026-.44 1.026-1.074a1 1 0 0 0-1.026-1.026h-22.516c-.83 0-1.514.684-1.514 1.515s.684 1.515 1.514 1.515h6.8c.44 0 .78.195 1.026.5.293.342.342.733.244 1.172l-1.074 3.76c-.342 1.172-.977 2.198-2.198 2.198h-31.406c-1.172 0-2.5-1.026-2.15-2.198l2.424-8.5c.293-1.124.977-2.15 2.15-2.15zm85.18-4.885c.684 0 1.368.293 1.807.782.5.44.78 1.123.78 1.856 0 .684-.293 1.368-.78 1.856-.44.44-1.123.733-1.807.733-.733 0-1.417-.293-1.856-.733a2.67 2.67 0 0 1-.781-1.856c0-.733.293-1.368.78-1.856.437-.5 1.118-.782 1.852-.782zm-1.123 4.006V16.07h1.22a1.84 1.84 0 0 1 .586.098c.098.05.195.146.293.244.05.146.098.293.098.44 0 .195-.05.342-.195.5-.098.146-.293.195-.586.244.098.05.195.098.244.146.098.098.195.244.293.4l.5.733h-.5l-.342-.586-.244-.4c-.098-.05-.146-.146-.195-.146-.05-.05-.098-.098-.195-.098h-.586v1.22h-.392zm.4-1.563h.78c.146 0 .293 0 .4-.05.05 0 .146-.098.195-.146.05-.098.05-.146.05-.244 0-.146-.05-.244-.098-.342a1.05 1.05 0 0 0-.489-.098h-.83v.88zm2.345-1.417c-.44-.44-1.026-.684-1.612-.684-.635 0-1.22.244-1.66.684-.4.4-.635.977-.635 1.612a2.38 2.38 0 0 0 .635 1.612 2.51 2.51 0 0 0 1.66.635c.586 0 1.172-.244 1.612-.635a2.38 2.38 0 0 0 .635-1.612c0-.635-.244-1.22-.635-1.612zm-101.837 16.61h-8.4c-1.22 0-2.54-1.026-2.198-2.15l3.712-12.994c.342-1.123.977-2.15 2.15-2.15h19.44c1.22 0 .586 2.882-.586 2.882h-13.676c-.733 0-1.172.684-1.32 1.368l-2.247 9.28c-.195.684.586 1.32 1.32 1.32h3.126l1.417-4.933h-3.272l.78-2.784h9.67c.684 0-.244.83-.342 1.22l-1.954 6.74c-.342 1.172.5 2.198-.684 2.198h-5.03l.195-.928h-.5c-.342.537-.88.928-1.612.928zm57.88-6.008h3.468l-1.026 2.686c-.195.586-.5 1.123-1.123 1.123h-2.1a.9.9 0 0 1-.879-1.123l.5-1.563c.195-.586.537-1.123 1.172-1.123zm29.012-4.7h4.005c1.172 0 1.172.928.83 1.954l-.05.195h-6.594l.05-.195c.342-1.026.537-1.954 1.758-1.954zm-67.108.098h2.735c.733 0 1.514.635 1.32 1.32l-1.66 5.57c-.195.733-.586 1.32-1.32 1.32h-2.686c-.733 0-1.514-.586-1.32-1.32l1.66-5.57c.195-.684.586-1.32 1.27-1.32zm-632.895 8.593c-3.888 0-.183-11.527 2.424-12.992.55-.32 1.235-.457 1.784-.046 2.242 1.647-1.28 13.037-4.208 13.037zm-6.45-5.855c0 2.196-.23 2.882.778 4.53 1.647 2.745 1.784.87 5.306 2.7 2.56 1.372 6.22-.64 7.867-3.065 2.424-3.477 3.522-8.783.274-11.665-1.738-1.555-4.894-2.15-7.318-1.6-.915.183-1.647.55-2.287.96-2.56 1.74-4.62 5.123-4.62 8.143zm84.756-6.04c.96 1.372 1.2.457-.1 4.53l-2.333 7.594c-.183.595-.412.96-.412 1.692h4.162c.137-.732 1.143-4.483 1.555-4.803l1.052 3.705c.412 1.464-.366 1.098 4.986 1.098 0-1.144-2.058-6.404-2.424-8.005.274-.412 5.26-4.346 5.534-4.803-.823 0-2.333-.23-2.973.137l-3.385 2.8c-.366.32-1.372 1.235-1.784 1.326l1.555-5.032c.503-1.784 1.372-1.418-4.528-1.418-.457 0-.503.1-.64.366-.1.092-.228.64-.274.823zm-16.513 13.815c4.3 0 3.66.32 4.117-1.052l2.973-9.56 2.195-.137c.686 0 1.555.732 1.555 1.464 0 .503-1.83 6.267-2.104 7.182-.915 2.653-1.326 2.104 3.156 2.104.595 0 1.098-2.38 1.418-3.34.55-1.692 2.24-6.13 1.784-7.502-.412-1.235-1.875-1.83-2.973-1.83h-6.815c-1.83 0-2.104.732-2.516 2.15l-3.02 9.8c-.137.458-.228.732.23.732zm-49.627 0c2.195 0 5.397.23 7.272-.457 1.967-.778 2.927-2.104 3.567-4.2l1.235-3.934c.23-.915 1.098-3.294 1.098-4.07-4.574 0-3.98-.366-4.483 1.372l-1.6 4.986c-.595 1.784-.732 3.888-3.293 4.3l-2.15-.046c.046-.87 3.064-9.698 3.1-10.613H187.7l-1.143 3.522c-.503 1.6-1.875 5.764-2.15 7.136-.32 1.74 1.235 2.013 2.653 2.013zm21.45-7.64h-4.254c.32-.686.778-2.836 1.006-3.34.732 0 .915.137 1.692.137 2.8-.046 2.012 1.235 1.555 3.202zm-9.97 5.032c0 1.647 2.012 2.608 3.75 2.608h7.776c.595 0 .778-1.326.778-1.92h-6.084c-3.156 0-1.28-2.882-1.052-3.888h8.416c.137-.686.366-1.28.595-2.013.274-.823.55-1.555.55-2.38 0-1.098-1.5-2.47-2.698-2.47h-7.776c-1.83 0-1.738 1.875-2.56 4.53l-.87 2.745c-.183.503-.823 2.333-.823 2.8zm14.087-.64c0 1.098-.137 2.013 1.143 2.745 1.28.778 6.403.503 8.28.503.457 0 .457-.366.55-.778.1-.457.23-.64.23-1.144-1.372 0-4.986.23-5.626-.32-.137-.1-.412-.595-.412-.732 0-.686 2.24-7.044 2.287-7.868h6.632c.137-.32.457-1.418.503-1.83h-5.672c-6.495 0-4.757-.778-7.272 7.1-.137.458-.64 1.83-.64 2.334zm11.253 3.247h3.614c.55 0 .595-.732.87-1.6l.595-1.967 1.2-3.888 2.104-6.816c.366-1.006.1-.732-3.476-.732-.55 0-.823 1.555-1.098 2.516l-.915 2.836c-.183.732-.412 1.235-.64 1.967l-1.692 5.627c-.183.55-.55 1.464-.55 2.058zm6.6 0c4.483 0 3.522.32 4.07-1.372l1.418-4.757.96-3.202c.23-.732.915-2.608.915-3.34-5.03 0-3.614-.686-4.848 3.02l-2.516 8.234c-.137.366-.686 1.418 0 1.418zm2.055-17.337c0 3.843 4.254 5.078 6.403 3.02 3.614-3.522-1.2-9.057-5.17-5.672-.595.503-1.235 1.6-1.235 2.653zm-66.55 16.422v1.052c1.372-.32 1.967-.55 3.842 0 .64.23 1.052.457 1.6.778.503.32.823.595 1.326.96 3.248 2.242 3.888 2.8 8.096 2.8 1.098 0 4.665-.823 4.665-1.692v-1.053c-1.83 0-3.476.457-5.443.046-3.02-.64-4.162-1.5-6.586-2.47-2.24-.87-5.306-1.555-7.5-.4zm60.603-23.375c0 .686.915 1.235 1.92.23.32-.32.55-.503.915-.778a17.94 17.94 0 0 1 1.92-1.326c5.352-2.882 11.07-.96 13.95 3.705.915 1.5 1.098 2.8 1.875 2.8 1.967 0 0-3.065-.457-3.797-.32-.457-.595-.823-.96-1.235-1.418-1.74-.96-1.006-1.784-1.83-.046 0-.046-.046-.1-.046l-1.692-1.2c-3.522-1.875-7.684-2.013-11.252-.1l-2.15 1.326c-.503.366-2.196 1.6-2.196 2.242zm3.615 3.1c0 .686.64 1.235 1.235.823.366-.183.32-.366.64-.686 2.698-2.745 7.593-2.47 9.56 1.235.32.595.366 1.6 1.235 1.6 1.647 0 .32-2.38-.1-3.02s-.732-1.098-1.372-1.6c-.732-.55-.96-.732-1.83-1.144-4.575-2.15-9.377 1.602-9.377 2.8zm-.64 23.513h2.104v1.692h-2.104V34.72zm-.64-.503c-.183.915-.137.96-.137 2.058s1.2.778 3.522.778c.23-.96.137-1.326.137-2.47 0-.915-2.88-.458-3.522-.366zm20.948.503h2.058v1.692h-2.058V34.72zm-.777-.137c0 3.065-.686 2.47 3.1 2.47.686 0 .64-2.104.274-2.836-.55-.137-3.384-.503-3.384.366zm-60.376 2.47h.686c.1-.457.412-1.555.778-1.83 0 .183.366 1.83.87 1.83.412 0 .55-.55.823-1.28.137-.412.457-1.235.503-1.692-1.143 0-.595.778-1.326 1.784-.1-.412-.23-.55-.366-1.006-.183-.503-.1-.64-.64-.778-.366.23-.732 1.2-.778 1.647h-.274c-.366-1.5-.503-1.647-1.28-1.647.046.87.824 2.058 1.006 2.973zm28.588-2.836c-.503 2.058.23 1.647 2.333 1.647v.55c-.366 0-1.098 0-1.418-.046-.64-.1-.23-.32-1.2-.1.457.915-.64.778 2.836.778.823 0 .412-1.464.412-1.692-.96-.23-1.2-.137-2.333-.137v-.503c2.287 0 1.692.412 2.47 0-.457-.823-.595-.64-2.195-.64-.457-.001-.503.1-.915.137zm6.995 0c-.503 2.058.137 1.647 2.287 1.647v.55c-.366 0-1.098 0-1.418-.046-.64-.1-.183-.32-1.143-.1.23 1.006-.046.778 2.836.778.686 0 .87-1.83-.366-1.83h-1.692v-.503c1.967 0 1.83.274 2.424.137 0-1.006-.595-.778-2.287-.778-.23-.001-.503.045-.64.137zm-11.523 0c-.503 2.058.137 1.647 2.333 1.647v.55h-1.555c-.64 0 .046-.412-1.052-.137.23 1.006 0 .778 2.88.778.64 0 .87-1.83-.412-1.83h-1.68v-.503c2.012 0 1.83.274 2.47.137 0-1.006-.64-.778-2.333-.778-.183 0-.503.045-.64.137zm46.793 1.647c2.012 0 2.24-.23 2.333.55-1.418 0-.87.1-2.012-.183-.457-.1-.1-.1-.595.046 0 .366.1.457.137.778 3.34 0 3.1.274 3.1-1.326 0-.732-1.5-.503-2.47-.503v-.503h1.418c.96.137.046.366 1.052.137-.1-1.006-.823-.778-2.333-.778-1.052-.001-.96 1.097-.64 1.783zm-63.214-1.144h1.692v.64h-1.692v-.64zm-.777-.274v2.608h.778c0-1.098-.046-.778.137-1.2.595.046.732.412 1.052.778.55.55.503.412 1.5.412-.23-.366-.686-.503-1.143-1.2 1.052 0 1.052-.412.778-1.647-.96-.23-1.555-.137-2.698-.137-.32 0-.413.092-.413.366zm4.528 0v2.608h3.1v-.64h-2.333v-.55h1.28v-.64h-1.28v-.503c2.058 0 2.15.183 2.333-.412-.137-.183 0-.23-.412-.23-1.692 0-2.698-.275-2.698.366zm8.278 0v2.608h2.973v-.64h-2.195v-.55h1.28v-.64h-1.28v-.503h2.195v-.64c-1.784 0-2.973-.275-2.973.366zm45.878 2.607h.64v-1.83c1.5 1.006 1.647 1.83 2.745 1.83V34.08c-.87 0-.686.1-.686 1.92l-1.235-1.052c-.64-.595-.778-.87-1.464-.87v2.974zm-16.287-2.607c0 3.1-.503 2.608 2.836 2.608.732 0 .55-1.6.55-2.608 0-.457-.274-.366-.778-.366v2.333h-1.83c0-1.555.23-2.333-.366-2.333-.32 0-.412.092-.412.366zm4.394-.366v.64h1.283v2.333h.773V34.72h1.328v-.64zm-37.873.366v2.608h2.973c0-.823.1-.64-2.195-.64 0-1.555.23-2.333-.366-2.333-.32 0-.412.1-.412.366zm29.457 0v2.608h2.973c0-.823.1-.64-2.195-.64V34.08c-.503 0-.778-.092-.778.366zm12.668 0v2.608h.778V34.08h-.366c-.32 0-.412.092-.412.366zm-53.24 0v2.608h.778v-2.608c0-.274-.1-.366-.366-.366-.32 0-.412.092-.412.366z"/></g><g transform="matrix(.279417 0 0 .279417 280.19953 16.272387)"><clipPath id="A"><path d="M0 0h500v58.5H0z"/></clipPath><g clip-path="url(#A)"><symbol id="B" class="B C"><path d="M.72.58A.13.13 0 0 0 .816.539.13.13 0 0 0 .857.442V0h-.13v.442L.5.45.495 0H.363v.442L.138.45.13 0H0v.58h.72z"/></symbol><symbol id="C" class="B C"><path d="M0 0v.58h.13V0H0m0 .77h.13V.638H0V.77z"/></symbol><symbol id="D" class="B C"><path d="M.45.58A.13.13 0 0 0 .548.539.13.13 0 0 0 .589.442V0h-.13v.442L.138.45.13 0H0v.58h.45z"/></symbol><symbol id="E" class="B C"><path d="M.138.638L.13.58h.226V.45H.13V0H0v.632C0 .67.013.702.04.73S.1.77.138.77h.22V.638h-.22z"/></symbol><symbol id="F" class="B C"><path d="M.46.77H.6V0H.138C.1 0 .067.013.04.04S0 .1 0 .138v.304C0 .48.013.512.04.54S.1.58.138.58h.32v.2M.138.13h.314l.007.31-.32.007-.006-.31z"/></symbol><symbol id="G" class="B C"><path d="M.45.58A.13.13 0 0 0 .548.539.13.13 0 0 0 .589.442V.224H.13V.138L.59.13V0h-.45C.1 0 .067.013.04.04S0 .1 0 .138v.304C0 .48.013.512.04.54S.1.58.138.58H.45M.13.356h.327v.086L.138.45.13.356z"/></symbol><symbol id="H" class="B C"><path d="M.138.58H.46V.45H.138L.13 0H0v.442C0 .48.013.512.04.54S.1.58.138.58z"/></symbol><use transform="matrix(75.4819 0 0 -75.4819 .076023 58.291)" xlink:href="#B"/><use transform="matrix(75.4819 0 0 -75.4819 74.50118 58.291)" xlink:href="#C"/><use transform="matrix(75.4819 0 0 -75.4819 92.99425 58.291)" xlink:href="#D"/><use transform="matrix(75.4819 0 0 -75.4819 146.13352 58.291)" xlink:href="#C"/><use transform="matrix(75.4819 0 0 -75.4819 164.55109 58.291)" xlink:href="#E"/><use transform="matrix(75.4819 0 0 -75.4819 198.21602 58.291)" xlink:href="#C"/><use transform="matrix(75.4819 0 0 -75.4819 216.70908 58.291)" xlink:href="#D"/><use transform="matrix(75.4819 0 0 -75.4819 267.65937 58.291)" xlink:href="#F"/><use transform="matrix(75.4819 0 0 -75.4819 319.13804 58.291)" xlink:href="#G"/><use transform="matrix(75.4819 0 0 -75.4819 370.31474 58.291)" xlink:href="#H"/><path d="M471.785 36.434a21.6 21.6 0 0 0-21.597-21.598c-11.927 0-21.598 9.67-21.598 21.598s9.67 21.598 21.598 21.598 21.597-9.67 21.597-21.598m7.478.576c0 8.433-3.584 16.023-9.308 21.347h12.322a38.42 38.42 0 0 0 6.44-21.347 38.43 38.43 0 0 0-7.201-22.456H468.7c6.454 5.35 10.563 13.422 10.563 22.456m-48.99 21.346c-5.724-5.323-9.308-12.914-9.308-21.347 0-9.035 4.112-17.1 10.565-22.456H418.7a38.43 38.43 0 0 0-7.2 22.456 38.42 38.42 0 0 0 6.44 21.347zm62.848-39.02h.55c.64 0 1.157-.213 1.157-.73 0-.458-.335-.762-1.066-.762-.304 0-.518.03-.64.06zm-.03 2.834h-1.157v-4.997c.457-.1 1.096-.152 1.918-.152.946 0 1.373.152 1.738.365.274.214.487.6.487 1.097 0 .548-.427.975-1.036 1.16v.06c.487.183.762.55.914 1.22.152.762.244 1.066.365 1.25h-1.25c-.152-.183-.244-.64-.395-1.22-.092-.548-.397-.792-1.036-.792h-.55zm-3.077-2.62c0 2.224 1.645 4 3.9 4 2.193 0 3.8-1.767 3.8-3.96 0-2.223-1.616-4.022-3.84-4.022s-3.87 1.8-3.87 3.992m8.988 0c0 2.833-2.225 5.057-5.118 5.057-2.865 0-5.15-2.224-5.15-5.057 0-2.773 2.286-4.997 5.15-4.997 2.893 0 5.118 2.224 5.118 4.997"/></g></g></g></svg>