<svg width="320" height="128" viewBox="0 0 320 128" fill="none" xmlns="http://www.w3.org/2000/svg">
<path d="M0.994141 0.369385H319.994V127.169H0.994141V0.369385Z" fill="#A334FB"/>
<mask id="mask0" mask-type="alpha" maskUnits="userSpaceOnUse" x="0" y="0" width="320" height="128">
<path d="M0.994141 22.3694C0.994141 10.2191 10.8439 0.369385 22.9941 0.369385H297.994C310.144 0.369385 319.994 10.2191 319.994 22.3694V127.169H0.994141V22.3694Z" fill="#474DFF"/>
</mask>
<g mask="url(#mask0)">
<path fill-rule="evenodd" clip-rule="evenodd" d="M273.238 -62.6441C264.701 -67.6085 254.182 -67.6085 245.645 -62.6441L203.846 -38.3389C195.308 -33.3745 190.049 -24.1999 190.049 -14.2711V34.3394C190.049 44.2682 195.308 53.4428 203.846 58.4072L245.645 82.7124C254.182 87.6768 264.701 87.6768 273.238 82.7124L315.037 58.4072C323.574 53.4428 328.834 44.2682 328.834 34.3394V-14.2711C328.834 -24.1999 323.574 -33.3745 315.037 -38.3389L273.238 -62.6441ZM101.092 34.8219C93.0686 30.1563 83.1832 30.1563 75.1597 34.8219L35.8772 57.664C27.8537 62.3295 22.911 70.9518 22.911 80.2828V125.967C22.911 135.298 27.8537 143.92 35.8772 148.586L75.1597 171.428C83.1832 176.094 93.0686 176.094 101.092 171.428L140.375 148.586C148.398 143.92 153.341 135.298 153.341 125.967V80.2828C153.341 70.9518 148.398 62.3295 140.375 57.664L101.092 34.8219Z" fill="black" fill-opacity="0.09"/>
</g>
<rect x="126.171" y="29.6973" width="68.647" height="68.647" rx="18" fill="white"/>
<rect x="130.939" y="34.4658" width="59.11" height="59.11" rx="29.555" fill="#A334FB"/>
<rect width="3.91158" height="3.91158" rx="1.95579" transform="matrix(1 0 0 -1 158.538 88.1714)" fill="white"/>
</svg>
