<svg width="320" height="128" viewBox="0 0 320 128" fill="none" xmlns="http://www.w3.org/2000/svg">
<path d="M0.0963135 0.369385H319.096V127.169H0.0963135V0.369385Z" fill="#20DEB1"/>
<mask id="mask0" mask-type="alpha" maskUnits="userSpaceOnUse" x="0" y="0" width="320" height="128">
<path d="M0.0963135 22.3694C0.0963135 10.2191 9.94605 0.369385 22.0963 0.369385H297.096C309.247 0.369385 319.096 10.2191 319.096 22.3694V127.169H0.0963135V22.3694Z" fill="#20DEB1"/>
</mask>
<g mask="url(#mask0)">
<path d="M121.069 -83.1547C138.192 -112.7 181 -112.7 198.124 -83.1547L329.117 142.868C346.24 172.414 324.836 209.346 290.589 209.346H28.6034C-5.64313 209.346 -27.0473 172.414 -9.924 142.868L121.069 -83.1547Z" fill="black" fill-opacity="0.03"/>
<path d="M136.537 -13.3699C146.786 -31.053 172.407 -31.053 182.655 -13.3699L261.055 121.906C271.303 139.589 258.493 161.693 237.996 161.693H81.1966C60.6999 161.693 47.8895 139.589 58.1378 121.906L136.537 -13.3699Z" fill="black" fill-opacity="0.06"/>
</g>
<path d="M152.542 42.1125C155.677 36.7027 163.515 36.7027 166.651 42.1125L190.636 83.4975C193.771 88.9073 189.852 95.6696 183.581 95.6696H135.611C129.341 95.6696 125.422 88.9073 128.557 83.4975L152.542 42.1125Z" fill="white"/>
</svg>
