<svg width="320" height="128" viewBox="0 0 320 128" fill="none" xmlns="http://www.w3.org/2000/svg">
<path d="M0.330322 0.369385H319.33V127.169H0.330322V0.369385Z" fill="#EE694B"/>
<mask id="mask0" mask-type="alpha" maskUnits="userSpaceOnUse" x="0" y="0" width="320" height="128">
<path d="M0.330322 0.369385H319.33V127.169H0.330322V0.369385Z" fill="#EE694B"/>
</mask>
<g mask="url(#mask0)">
<path opacity="0.1" fill-rule="evenodd" clip-rule="evenodd" d="M346.143 30.2337C346.143 72.1708 312.147 106.167 270.209 106.167C228.272 106.167 194.276 72.1708 194.276 30.2337C194.276 -11.7035 228.272 -45.7002 270.209 -45.7002C312.147 -45.7002 346.143 -11.7035 346.143 30.2337ZM94.5858 76.6196C127.786 76.6196 154.701 49.7051 154.701 16.5045C154.701 -16.6962 127.786 -43.6106 94.5858 -43.6106C61.3851 -43.6106 34.4707 -16.6962 34.4707 16.5045C34.4707 49.7051 61.3851 76.6196 94.5858 76.6196ZM167.188 112.174C180.555 112.174 191.391 101.338 191.391 87.9714C191.391 74.6048 180.555 63.769 167.188 63.769C153.822 63.769 142.986 74.6048 142.986 87.9714C142.986 101.338 153.822 112.174 167.188 112.174ZM94.5858 160.335C114.093 160.335 129.907 144.521 129.907 125.014C129.907 105.507 114.093 89.6929 94.5858 89.6929C75.0784 89.6929 59.2646 105.507 59.2646 125.014C59.2646 144.521 75.0784 160.335 94.5858 160.335Z" fill="white"/>
</g>
<path d="M132.833 50.4064C134.468 48.772 137.129 48.772 138.764 50.4064C140.398 52.0408 140.398 54.7017 138.764 56.3361C137.817 57.2828 136.521 57.7113 135.205 57.522C135.145 57.512 135.076 57.512 135.016 57.522C134.627 57.4722 134.218 57.522 133.83 57.7014C133.281 57.9505 132.893 58.409 132.703 58.9371C132.514 59.4554 132.524 60.0434 132.773 60.5716C134.179 63.6111 133.531 67.2487 131.158 69.6205C128.786 71.9924 125.148 72.6402 122.108 71.235C121.56 70.9859 120.971 70.9759 120.443 71.1752C119.925 71.3646 119.486 71.7532 119.237 72.2914C119.078 72.6402 119.018 72.999 119.038 73.3577C119.028 73.4275 119.028 73.4973 119.038 73.567C119.257 74.9025 118.818 76.2678 117.862 77.2245C116.227 78.8589 113.566 78.8589 111.931 77.2245C111.133 76.4272 110.705 75.3808 110.705 74.2547C110.705 73.1385 111.143 72.0821 111.931 71.2848C112.878 70.3381 114.174 69.9096 115.489 70.0989C115.509 70.0989 115.529 70.0989 115.559 70.0989C115.699 70.1288 115.838 70.1487 115.988 70.1487C116.297 70.1487 116.606 70.0889 116.895 69.9494C117.433 69.7003 117.812 69.2618 118.011 68.7535C118.21 68.2253 118.21 67.6274 117.951 67.0793C116.546 64.0397 117.194 60.4021 119.566 58.0303C121.938 55.6584 125.576 55.0106 128.617 56.4158C129.155 56.6649 129.753 56.6749 130.271 56.4855C130.79 56.2962 131.238 55.9075 131.487 55.3694C131.677 54.9508 131.727 54.5023 131.657 54.0738V54.0638C131.437 52.7284 131.876 51.3631 132.833 50.4064ZM128.686 67.149C130.5 65.3352 130.5 62.3953 128.686 60.5815C126.872 58.7677 123.932 58.7677 122.118 60.5815C120.304 62.3953 120.304 65.3352 122.118 67.149C123.932 68.9628 126.872 68.9628 128.686 67.149ZM125.367 35.8064C140.867 35.8064 153.436 48.3733 153.436 63.8703C153.436 79.3672 140.877 91.9441 125.367 91.9441C109.858 91.9441 97.2983 79.3771 97.2983 63.8703C97.2983 48.3634 109.868 35.8064 125.367 35.8064ZM140.329 57.9007C142.811 55.4192 142.811 51.403 140.329 48.9215C137.847 46.44 133.83 46.44 131.348 48.9215C130.431 49.8383 129.853 50.9744 129.613 52.1604C125.118 50.4662 119.955 51.5425 116.516 54.9807C113.077 58.4189 112.001 63.5812 113.705 68.0858C112.509 68.325 111.373 68.903 110.446 69.8298C107.964 72.3113 107.964 76.3276 110.446 78.8091C112.928 81.2906 116.945 81.2906 119.426 78.8091C120.353 77.8822 120.942 76.7262 121.171 75.5303C122.566 76.0485 124.022 76.3076 125.467 76.3076C128.686 76.3076 131.866 75.0619 134.228 72.7C137.647 69.2817 138.734 64.1493 137.069 59.6547C138.255 59.4055 139.402 58.8275 140.329 57.9007Z" fill="white"/>
<path d="M224.363 41.0553C212.146 41.4218 202.355 51.4404 202.355 63.7457C202.355 76.051 212.146 86.0696 224.363 86.4361V76.5582C217.599 76.198 212.225 70.5994 212.225 63.7457C212.225 56.892 217.599 51.2935 224.363 50.9332V41.0553Z" fill="white"/>
<path d="M176.043 86.4359C188.26 86.0694 198.051 76.0508 198.051 63.7455C198.051 51.4402 188.26 41.4216 176.043 41.0551L176.043 50.933C182.807 51.2933 188.181 56.8919 188.181 63.7455C188.181 70.5992 182.807 76.1978 176.043 76.558L176.043 86.4359Z" fill="white"/>
</svg>
