<?xml version="1.0" encoding="utf-8"?>
<!-- Generator: Adobe Illustrator 25.3.0, SVG Export Plug-In . SVG Version: 6.00 Build 0)  -->
<svg version="1.1" id="Capa_1" xmlns="http://www.w3.org/2000/svg" xmlns:xlink="http://www.w3.org/1999/xlink" x="0px" y="0px"
	 viewBox="0 0 512 512" style="enable-background:new 0 0 512 512;" xml:space="preserve">
<style type="text/css">
	.st0{fill:#428DCC;}
	.st1{fill:#225E7D;}
	.st2{fill:#101324;}
	.st3{fill:#266489;}
	.st4{fill:#8DD0E0;}
	.st5{fill:url(#SVGID_1_);}
	.st6{fill:url(#SVGID_2_);}
</style>
<g>
	<g>
		<g>
			<g>
				<path class="st0" d="M7.4,506.1h29.5v6.2H7.7c-2.1,0-3.9-0.6-5.4-1.9S0,507.6,0,505.8V483c0-1.8,0.7-3.3,2.2-4.6
					c1.5-1.2,3.3-1.9,5.4-1.9h29.2v6.2H7.4L7.4,506.1L7.4,506.1z"/>
			</g>
		</g>
		<g>
			<g>
				<path class="st0" d="M81.7,483v22.8c0,1.8-0.7,3.3-2.2,4.6c-1.5,1.2-3.3,1.9-5.4,1.9H46.5c-2.1,0-3.9-0.6-5.4-1.9
					c-1.5-1.3-2.3-2.8-2.3-4.5V483c0-1.8,0.7-3.3,2.2-4.6c1.5-1.2,3.3-1.9,5.4-1.9h27.8c2.1,0,3.9,0.6,5.3,1.9
					C81,479.7,81.7,481.2,81.7,483z M74.3,506.1v-23.4H46.2v23.4H74.3z"/>
			</g>
		</g>
		<g>
			<g>
				<path class="st0" d="M116.6,501.3v-24.8h7.4v35.7h-7.4l-22.1-24.9v24.9h-7.4v-35.7h7.4L116.6,501.3z"/>
			</g>
		</g>
		<g>
			<g>
				<path class="st0" d="M166.4,482.7h-14.8v29.5h-7.3v-29.5h-14.8v-6.2h36.8L166.4,482.7L166.4,482.7z"/>
			</g>
		</g>
		<g>
			<g>
				<path class="st0" d="M206.5,512.3h-10.3L183.3,498H177v14.2h-7.4v-35.7h29.2c2.1,0,4,0.6,5.4,1.9c1.5,1.2,2.2,2.8,2.2,4.6v8.6
					c0,1.8-0.7,3.3-2.2,4.5c-1.5,1.3-3.3,1.9-5.4,1.9h-4.9L206.5,512.3z M199.1,482.7H177v9.1h22.1V482.7z"/>
			</g>
		</g>
		<g>
			<g>
				<path class="st0" d="M254.7,483v22.8c0,1.8-0.7,3.3-2.2,4.6c-1.5,1.2-3.3,1.9-5.4,1.9h-27.6c-2.1,0-3.9-0.6-5.4-1.9
					c-1.5-1.3-2.3-2.8-2.3-4.5V483c0-1.8,0.7-3.3,2.2-4.6c1.5-1.2,3.3-1.9,5.4-1.9h27.8c2.1,0,3.9,0.6,5.3,1.9
					C253.9,479.7,254.7,481.2,254.7,483z M247.3,506.1v-23.4h-28.2v23.4H247.3z"/>
			</g>
		</g>
		<g>
			<g>
				<path class="st0" d="M268.8,505.1h22.1v7.2h-23c-2.1,0-3.9-0.6-5.4-1.9c-1.5-1.3-2.3-2.8-2.3-4.5v-29.3h8.6V505.1z"/>
			</g>
		</g>
		<g>
			<g>
				<path class="st0" d="M348.3,482.7h-14.8v29.5h-7.3v-29.5h-14.8v-6.2h36.8L348.3,482.7L348.3,482.7z"/>
			</g>
		</g>
		<g>
			<g>
				<path class="st0" d="M380.8,476.6c2.1,0,4,0.6,5.4,1.9c1.5,1.2,2.2,2.8,2.2,4.6v29.3h-7.4v-12.2H359v12.2h-7.4V483
					c0-1.8,0.7-3.3,2.2-4.6c1.5-1.2,3.3-1.9,5.4-1.9H380.8z M381.1,493.9v-11.2H359v11.2H381.1z"/>
			</g>
		</g>
		<g>
			<g>
				<path class="st0" d="M430.8,512.3h-8.6l-13.7-14.8h-7.1v14.8H394v-35.7h7.4v14.8h7.1l13.7-14.8h8.6l-16.5,17.8L430.8,512.3z"/>
			</g>
		</g>
		<g>
			<g>
				<path class="st0" d="M471.9,512.3h-29.2c-2.1,0-3.9-0.6-5.4-1.9c-1.5-1.3-2.3-2.8-2.3-4.5V483c0-1.8,0.7-3.3,2.2-4.6
					c1.5-1.2,3.3-1.9,5.4-1.9h29.2v6.2h-29.5v8.6h29.5v6.2h-29.5v8.6h29.5L471.9,512.3L471.9,512.3z"/>
			</g>
		</g>
		<g>
			<g>
				<path class="st0" d="M504.6,501.3v-24.8h7.4v35.7h-7.4l-22.1-24.9v24.9h-7.4v-35.7h7.4L504.6,501.3z"/>
			</g>
		</g>
	</g>
</g>
<g>
	<g>
		<path class="st1" d="M103.7,267h109.1v22.9h-108c-7.7,0-14.4-2.3-20-7c-5.6-4.7-8.4-10.3-8.4-16.8v-84.6c0-6.7,2.7-12.4,8.2-17
			c5.5-4.6,12.2-6.9,20.2-6.9h108v22.8H103.7L103.7,267z"/>
		<path class="st1" d="M428.1,289.9h-32l-50.9-54.7H319v54.7h-27.2V157.6H319v54.7h26.2l50.9-54.7h32l-61.2,66.1L428.1,289.9z"/>
		<path class="st2" d="M111.5,267h109.1v22.9h-108c-7.7,0-14.4-2.3-20-7c-5.6-4.7-8.4-10.3-8.4-16.8v-84.6c0-6.7,2.7-12.4,8.2-17
			c5.5-4.6,12.2-6.9,20.2-6.9h108v22.8H111.5L111.5,267z"/>
		<path class="st2" d="M435.6,289.9h-32l-50.9-54.7h-26.2v54.7h-27.2V157.6h27.2v54.7h26.2l50.9-54.7h32l-61.2,66.1L435.6,289.9z"/>
		<polygon class="st1" points="321.8,180.5 267.1,180.5 267.1,289.9 240.1,289.9 240.1,180.5 185.4,180.5 185.4,157.7 321.8,157.7 
					"/>
		<path class="st0" d="M326.9,180.5h-54.7v109.4h-27V180.5h-54.7v-22.8h136.4V180.5z"/>
		<g>
			<g>
				<ellipse class="st3" cx="209.4" cy="278.1" rx="3.7" ry="3.1"/>
				<ellipse class="st3" cx="409" cy="281.2" rx="3.7" ry="3.1"/>
				<ellipse class="st3" cx="255.9" cy="278.1" rx="3.7" ry="3.1"/>
				<ellipse class="st3" cx="310.2" cy="278.1" rx="3.7" ry="3.1"/>
				<ellipse class="st3" cx="407.6" cy="168.3" rx="3.7" ry="3.1"/>
				<polygon class="st3" points="360,223.6 408.5,168.8 406.8,167.7 358,222.9 311.3,222.9 311.3,167.4 93.1,167.4 93.1,279 
					209.4,279 209.4,277.2 95.3,277.2 95.3,169.2 254.8,169.2 254.8,278.1 257,278.1 257,169.2 309.1,169.2 309.1,223.8 
					309.1,223.8 309.1,278.1 311.3,278.1 311.3,224.7 358.2,224.7 408.1,281.7 409.9,280.6 				"/>
			</g>
		</g>
		<g>
			<ellipse class="st4" cx="210.8" cy="278.1" rx="3.7" ry="3.1"/>
			<ellipse class="st4" cx="410.4" cy="281.2" rx="3.7" ry="3.1"/>
			<ellipse class="st4" cx="257.3" cy="278.1" rx="3.7" ry="3.1"/>
			<ellipse class="st4" cx="311.6" cy="278.1" rx="3.7" ry="3.1"/>
			<ellipse class="st4" cx="409" cy="168.3" rx="3.7" ry="3.1"/>
			<polygon class="st4" points="361.4,223.6 409.9,168.8 408.2,167.7 359.4,222.9 312.7,222.9 312.7,167.4 94.6,167.4 94.6,279 
				210.8,279 210.8,277.2 96.7,277.2 96.7,169.2 256.2,169.2 256.2,278.1 258.4,278.1 258.4,169.2 310.5,169.2 310.5,223.8 
				310.5,223.8 310.5,278.1 312.7,278.1 312.7,224.7 359.6,224.7 409.5,281.7 411.3,280.6 			"/>
		</g>
	</g>
	<g>
		
			<linearGradient id="SVGID_1_" gradientUnits="userSpaceOnUse" x1="281.5676" y1="-1244.0457" x2="102.9596" y2="-1065.4376" gradientTransform="matrix(1 0 0 -1 0 -1024)">
			<stop  offset="0" style="stop-color:#428DCC"/>
			<stop  offset="0.1125" style="stop-color:#3978AF"/>
			<stop  offset="0.3271" style="stop-color:#2B547E"/>
			<stop  offset="0.5301" style="stop-color:#1F3857"/>
			<stop  offset="0.7159" style="stop-color:#17243B"/>
			<stop  offset="0.8785" style="stop-color:#12172A"/>
			<stop  offset="1" style="stop-color:#101324"/>
		</linearGradient>
		<path class="st5" d="M424.6,0.3l-32.4,40.1l-23.3,28.9c-19.6-9.9-43.6-18.9-67.1-23.3C185.7,24.8,71.1,86.7,45.8,184.4
			c-17.7,68.4,13.1,136.2,73.1,178c2.9,2,5.9,4,9,5.9l-23,28.4c-8.3-5.1-16.1-10.6-23.6-16.4C17.7,330.2-13.9,254,6,177.1
			C36,60.9,172.4-12.8,310.5,12.5c19.8,3.6,38.6,9.1,56.1,16.1v0L424.6,0.3z"/>
		
			<linearGradient id="SVGID_2_" gradientUnits="userSpaceOnUse" x1="365.6179" y1="-1444.762" x2="216.3305" y2="-1186.1885" gradientTransform="matrix(1 0 0 -1 0 -1024)">
			<stop  offset="0" style="stop-color:#428DCC"/>
			<stop  offset="0.1674" style="stop-color:#418AC8"/>
			<stop  offset="0.3219" style="stop-color:#3E82BD"/>
			<stop  offset="0.4714" style="stop-color:#3875AA"/>
			<stop  offset="0.6177" style="stop-color:#306290"/>
			<stop  offset="0.7618" style="stop-color:#26496E"/>
			<stop  offset="0.9022" style="stop-color:#1A2B45"/>
			<stop  offset="1" style="stop-color:#101324"/>
		</linearGradient>
		<path class="st6" d="M506.1,268.7C476,384.9,339.7,458.6,201.6,433.3c-15.8-2.9-31-7-45.4-12.1l-64.4,26.1l31.7-39.5l23.2-29
			c19.8,10.1,39.8,16.6,63.6,20.9c116.1,21.3,230.7-40.7,256-138.3c17.2-66.4-11.3-132.2-67.8-174.2c-4.1-3.1-7.3-5.3-11.7-8.1
			l22.8-28.5c2.7,1.7,5.4,3.4,8,5.2C490,105.5,527.3,186.7,506.1,268.7z"/>
	</g>
	<g>
		<path class="st4" d="M91.8,447.3L91.8,447.3l57.2-48.5l1,0.4c33,14.2,68.7,21.3,106,21.3c129,0,233.9-88.3,233.9-196.8
			c0-59.4-31.5-115.1-86.3-152.7l2-2.1c55.6,38.1,87.5,94.5,87.5,154.7c0,110-106.3,199.4-237.1,199.4c-37.5,0-73.3-7.1-106.5-21.2
			L91.8,447.3z"/>
	</g>
	<g>
		<path class="st4" d="M107.4,379.1C51.2,341,19,284.4,19,223.8C19,113.8,125.3,24.3,256,24.3c38.7,0,77.1,8,111.1,23.2l57.5-47.3
			l0,0l-56.9,50.6l-1-0.5C332.9,35.1,294.7,27,256,27c-129,0-233.9,88.3-233.9,196.8c0,59.8,31.8,115.7,87.2,153.3L107.4,379.1z"/>
	</g>
	<ellipse class="st4" cx="404.6" cy="70.3" rx="5.8" ry="4.9"/>
	<ellipse class="st4" cx="108.4" cy="378.2" rx="5.8" ry="4.9"/>
</g>
</svg>
