<?xml version="1.0" encoding="utf-8"?>
<!-- Generator: Adobe Illustrator 26.0.0, SVG Export Plug-In . SVG Version: 6.00 Build 0)  -->
<svg version="1.1" id="Capa_1" xmlns="http://www.w3.org/2000/svg" xmlns:xlink="http://www.w3.org/1999/xlink" x="0px" y="0px"
	 viewBox="0 0 150 150" enable-background="new 0 0 150 150" xml:space="preserve">
<g>
	<g>
		<path fill="#DFEBFA" d="M127.54-47.86v188.61"/>
	</g>
	<path fill="#AFCDFB" d="M129.45,52.45"/>
	<path fill="#F99746" d="M70.14,8.18c-9.98,0-18.07,8.89-18.07,19.85s18.07,32.52,18.07,32.52S88.2,38.99,88.2,28.03
		S80.11,8.18,70.14,8.18z M70.14,36.13c-5.02,0-9.1-4.26-9.1-9.53c0-5.26,4.07-9.53,9.1-9.53c5.02,0,9.1,4.27,9.1,9.53
		C79.23,31.87,75.16,36.13,70.14,36.13z"/>
	<path fill="#415DA5" d="M98.57,60.77c-0.49-1.57,0.45-3.21,2.12-3.68c1.66-0.47,3.41,0.43,3.91,1.99c0.49,1.57-0.45,3.21-2.12,3.68
		C100.81,63.23,99.06,62.34,98.57,60.77z"/>
	<g>
		<path fill="#233862" d="M62.07,116.7l1.24,0.74c0.46,0.19,0.84,0.26,1.3,0.46c0.7,0.31,0.83,0.73,0.85,0.83c0,0.01,0,0.02,0,0.02
			l5.28,3.14c0.25-0.1,0.4-0.59,0.48-0.97c0.05-0.26-0.02-0.52-0.21-0.72c-0.46-0.49-1.47-1.28-1.9-2.74
			c-0.24-0.82-1.55-3.41-1.55-3.41l-0.01-0.01c-0.05-0.03-0.32-0.1-1.84,0.1c-0.79,0.1-1-1.4-1-1.4s-0.25,0.03-0.53,0.19
			c-0.22,0.13-0.47,0.34-0.63,0.7c-0.22,0.49-1.04,1.17-1.62,1.62c-0.35,0.27-0.62,0.45-0.62,0.45S61.09,115.94,62.07,116.7z"/>
		<path fill="#233862" d="M64.2,112.93c0.16,0.37,0.53,1.13,0.91,1.43c0.51,0.4,2.47-0.32,2.47-0.32l-0.01-0.01
			c-0.05-0.03-0.32-0.1-1.84,0.1c-0.79,0.1-1-1.4-1-1.4S64.48,112.77,64.2,112.93z"/>
		<path fill="#233862" d="M62.07,116.7l1.24,0.74c0.46,0.19,0.84,0.26,1.3,0.46c0.7,0.31,0.83,0.73,0.85,0.83c0,0.01,0,0.02,0,0.02
			l5.28,3.14c0.25-0.1,0.4-0.59,0.48-0.97c-0.07-0.23-0.6,0.46-0.76,0.52c-0.17,0.06-4.34-2.52-4.47-2.83
			c-0.13-0.31-0.67-1.04-1.84-1.42c-1.02-0.33-1.98-1.62-2.22-1.95c-0.35,0.27-0.62,0.45-0.62,0.45S61.09,115.94,62.07,116.7z"/>
	</g>
	<g>
		<polygon fill="#415DA5" points="68.58,119.83 54.4,78.1 56.79,77.38 70.97,119.11 		"/>
	</g>
	<g>
		<polygon fill="#F99746" points="67.39,119.94 33.92,117.21 95.99,77.73 92.44,84.57 41.19,115.43 67.61,117.59 		"/>
	</g>
	<g>
		<polygon fill="#F99746" points="71.9,118.1 69.79,116.82 95.55,78.01 98.55,80.92 		"/>
	</g>
	<path fill="#415DA5" d="M75.42,112.56l4.71,2.56c0.55,0.3,0.75,0.97,0.43,1.49l0,0c-0.32,0.52-1.03,0.7-1.59,0.4l-4.71-2.56
		c-0.55-0.3-0.75-0.97-0.43-1.49l0,0C74.15,112.44,74.86,112.26,75.42,112.56z"/>
	<g>
		<polygon fill="#415DA5" points="76.35,114.21 70.41,120.4 69.86,119.95 75.8,113.76 		"/>
	</g>
	<g>
		<path fill="#F99746" d="M57.22,93.03c-0.35,0.12-0.74,0.08-1.07-0.1l0,0c-11.29-6.42-26.91-4.01-31.43-3.11l-0.01,0
			c-0.25,0.05-0.48-0.13-0.48-0.37v-0.83c0-0.63,0.49-1.17,1.16-1.27c2.44-0.34,8.16-1.08,11.35-1.09c0.09,0,0.17,0,0.26,0
			c7.15,0,13.32,1.2,18.39,3.58c1.04,0.49,2.24,0.55,3.33,0.19l1.39-0.46c0.79-0.26,1.67,0.13,1.95,0.88l0,0
			c0.18,0.48-0.09,1.01-0.6,1.18L57.22,93.03z"/>
	</g>
	<path fill="#415DA5" d="M46.73,76.86c0,0-0.45-1.94,0.84-2.07c1.29-0.13,6,0.82,7.25,0.69c1.26-0.13,7.81-1.15,8.96-0.1
		c1.15,1.05,0.66,1.97-1.64,2.17c-2.3,0.2-5.37,0.56-6.24,1.25C55.03,79.48,48.71,81.52,46.73,76.86z"/>
	<ellipse fill="#415DA5" cx="69.78" cy="119.47" rx="6.28" ry="5.9"/>
	<g>
		<g>
			<polygon fill="#AFCDFB" points="35.62,116.19 28.64,97.91 29.17,97.73 36.14,116.01 			"/>
		</g>
		<g>
			<polygon fill="#AFCDFB" points="16.37,124.61 16.15,124.13 35.88,116.15 48.86,98.72 49.31,99.02 36.25,116.57 36.18,116.6 			
				"/>
		</g>
		<g>
			<path fill="#AFCDFB" d="M28.24,136.52l-0.53-0.17c0.14-0.39,7.77-19.28,8.09-20.09l0.2-0.49l12.29,18.29l-0.47,0.28l-11.7-17.4
				C33.33,123.86,28.35,136.22,28.24,136.52z"/>
		</g>
		<g>
			<polygon fill="#AFCDFB" points="36.02,115.31 14.12,111.77 14.21,111.25 36.11,114.79 			"/>
		</g>
		<g>
			<polygon fill="#AFCDFB" points="37.73,115 37.2,114.84 43.61,96.73 44.14,96.9 			"/>
		</g>
		<g>
			<polygon fill="#AFCDFB" points="36.02,116.64 35.94,116.6 15.85,107.02 16.11,106.55 36.11,116.09 57.64,112.69 57.73,113.21 			
				"/>
		</g>
		<g>
			<path fill="#AFCDFB" d="M44.17,135.86c-0.12-0.33-5.27-12.26-8.16-18.93l-11.15,16.5l-0.47-0.28l11.73-17.36l0.2,0.47
				c0.34,0.78,8.23,19.04,8.38,19.44L44.17,135.86z"/>
		</g>
		<g>
			<polygon fill="#AFCDFB" points="14.49,119.64 14.4,119.12 36.03,116.1 36.11,116.62 			"/>
		</g>
		<g>
			<polygon fill="#AFCDFB" points="34.74,113.65 22.74,100.66 23.17,100.31 35.16,113.3 			"/>
		</g>
		<g>
			<polygon fill="#AFCDFB" points="35.37,136.85 34.81,136.81 36.49,117.78 37.04,117.83 			"/>
		</g>
		<g>
			<polygon fill="#AFCDFB" points="54.04,127.99 34.93,115.53 35.25,115.1 54.36,127.56 			"/>
		</g>
		<g>
			<polygon fill="#AFCDFB" points="20.22,130.46 19.83,130.09 35.79,114.94 35.79,95.24 36.35,95.24 36.35,115.16 			"/>
		</g>
	</g>
	<path fill="#699DEE" d="M31.95,116.36c0-2.14,1.84-3.87,4.11-3.87c2.27,0,4.11,1.73,4.11,3.87c0,2.14-1.84,3.87-4.11,3.87
		C33.79,120.23,31.95,118.5,31.95,116.36z"/>
	<g>
		<path fill="#415DA5" d="M36.07,139.06c-13.31,0-24.13-10.18-24.13-22.7s10.83-22.7,24.13-22.7c13.31,0,24.13,10.18,24.13,22.7
			c0,4.01-1.13,7.96-3.26,11.41c-2.09,3.37-5.08,6.2-8.66,8.18C44.59,137.98,40.37,139.06,36.07,139.06z M36.07,96.81
			c-11.46,0-20.78,8.77-20.78,19.55s9.32,19.55,20.78,19.55c3.7,0,7.34-0.93,10.51-2.68c3.08-1.7,5.66-4.14,7.46-7.05
			c1.84-2.97,2.81-6.36,2.81-9.82C56.85,105.58,47.53,96.81,36.07,96.81z"/>
	</g>
	<g>
		<path fill="#F99746" d="M36.25,136.49c-11.72,0-21.26-8.97-21.26-19.99c0-11.02,9.54-19.99,21.26-19.99
			c11.72,0,21.26,8.97,21.26,19.99C57.51,127.52,47.97,136.49,36.25,136.49z M36.25,97.31c-11.25,0-20.4,8.61-20.4,19.19
			c0,10.58,9.15,19.19,20.4,19.19c11.25,0,20.4-8.61,20.4-19.19C56.65,105.92,47.5,97.31,36.25,97.31z"/>
	</g>
	<g>
		<g>
			<polygon fill="#AFCDFB" points="114.31,116.19 107.34,97.91 107.86,97.73 114.84,116.01 			"/>
		</g>
		<g>
			<polygon fill="#AFCDFB" points="95.06,124.61 94.84,124.13 114.58,116.15 127.55,98.72 128.01,99.02 114.94,116.57 114.87,116.6 
							"/>
		</g>
		<g>
			<path fill="#AFCDFB" d="M106.93,136.52l-0.53-0.17c0.14-0.39,7.77-19.28,8.09-20.09l0.2-0.49l12.29,18.29l-0.47,0.28l-11.7-17.4
				C112.03,123.86,107.04,136.22,106.93,136.52z"/>
		</g>
		<g>
			<polygon fill="#AFCDFB" points="114.71,115.31 92.81,111.77 92.91,111.25 114.81,114.79 			"/>
		</g>
		<g>
			<polygon fill="#AFCDFB" points="116.42,115 115.89,114.84 122.31,96.73 122.84,96.9 			"/>
		</g>
		<g>
			<polygon fill="#AFCDFB" points="114.71,116.64 114.63,116.6 94.55,107.02 94.8,106.55 114.8,116.09 136.33,112.69 136.43,113.21 
							"/>
		</g>
		<g>
			<path fill="#AFCDFB" d="M122.86,135.86c-0.12-0.33-5.27-12.26-8.16-18.93l-11.15,16.5l-0.47-0.28l11.73-17.36l0.2,0.47
				c0.34,0.78,8.23,19.04,8.38,19.44L122.86,135.86z"/>
		</g>
		<g>
			<polygon fill="#AFCDFB" points="93.18,119.64 93.1,119.12 114.72,116.1 114.8,116.62 			"/>
		</g>
		<g>
			<polygon fill="#AFCDFB" points="113.43,113.65 101.44,100.66 101.86,100.31 113.85,113.3 			"/>
		</g>
		<g>
			<polygon fill="#AFCDFB" points="114.06,136.85 113.5,136.81 115.18,117.78 115.73,117.83 			"/>
		</g>
		<g>
			<polygon fill="#AFCDFB" points="132.73,127.99 113.62,115.53 113.94,115.1 133.05,127.56 			"/>
		</g>
		<g>
			<polygon fill="#AFCDFB" points="98.92,130.46 98.52,130.09 114.48,114.94 114.48,95.24 115.04,95.24 115.04,115.16 			"/>
		</g>
	</g>
	<g>
		<path fill="#415DA5" d="M114.76,139.06c-13.31,0-24.13-10.18-24.13-22.7s10.83-22.7,24.13-22.7c13.31,0,24.13,10.18,24.13,22.7
			c0,4.01-1.13,7.96-3.26,11.41c-2.09,3.37-5.08,6.2-8.66,8.18C123.28,137.98,119.06,139.06,114.76,139.06z M114.76,96.81
			c-11.46,0-20.78,8.77-20.78,19.55s9.32,19.55,20.78,19.55c3.7,0,7.34-0.93,10.51-2.68c3.08-1.7,5.66-4.14,7.46-7.05
			c1.84-2.97,2.81-6.36,2.81-9.82C135.54,105.58,126.22,96.81,114.76,96.81z"/>
	</g>
	<g>
		<path fill="#F99746" d="M114.94,136.49c-11.72,0-21.26-8.97-21.26-19.99c0-11.02,9.54-19.99,21.26-19.99
			c11.72,0,21.26,8.97,21.26,19.99C136.2,127.52,126.66,136.49,114.94,136.49z M114.94,97.31c-11.25,0-20.4,8.61-20.4,19.19
			c0,10.58,9.15,19.19,20.4,19.19c11.25,0,20.4-8.61,20.4-19.19C135.34,105.92,126.19,97.31,114.94,97.31z"/>
	</g>
	<g>
		<path fill="#233862" d="M71.94,112.11l1.33,0.6c0.48,0.13,0.87,0.16,1.35,0.31c0.74,0.23,0.92,0.64,0.95,0.73
			c0,0.01,0.01,0.02,0.01,0.02l5.63,2.54c0.24-0.13,0.33-0.63,0.36-1.01c0.02-0.26-0.09-0.52-0.3-0.69
			c-0.51-0.43-1.62-1.11-2.23-2.51c-0.34-0.79-1.96-3.22-1.96-3.22l-0.01-0.01c-0.05-0.02-0.33-0.06-1.82,0.3
			c-0.77,0.19-1.16-1.28-1.16-1.28s-0.24,0.06-0.5,0.25c-0.21,0.15-0.42,0.39-0.54,0.76c-0.16,0.52-0.88,1.28-1.41,1.78
			c-0.32,0.3-0.56,0.51-0.56,0.51S70.86,111.46,71.94,112.11z"/>
		<path fill="#233862" d="M73.58,108.14c0.21,0.35,0.67,1.07,1.08,1.32c0.56,0.34,2.41-0.59,2.41-0.59l-0.01-0.01
			c-0.05-0.02-0.33-0.06-1.82,0.3c-0.77,0.19-1.16-1.28-1.16-1.28S73.84,107.94,73.58,108.14z"/>
		<path fill="#233862" d="M71.94,112.11l1.33,0.6c0.48,0.13,0.87,0.16,1.35,0.31c0.74,0.23,0.92,0.64,0.95,0.73
			c0,0.01,0.01,0.02,0.01,0.02l5.63,2.54c0.24-0.13,0.33-0.63,0.36-1.01c-0.1-0.22-0.54,0.52-0.69,0.6
			c-0.16,0.08-4.62-2.03-4.79-2.33c-0.17-0.3-0.79-0.96-2-1.21c-1.05-0.21-2.17-1.39-2.44-1.69c-0.32,0.3-0.56,0.51-0.56,0.51
			S70.86,111.46,71.94,112.11z"/>
	</g>
	<path fill="#415DA5" d="M103.94,86.96c-0.36-0.85-1.2-1.38-2.11-1.43C91.42,63.02,91.31,62.84,91.15,62.6l-1.51,2.81
		c-0.08-0.12,5.69,11.94,9.8,20.78l-0.59,0.22l14.34,28.88l2.32-0.89L103.94,86.96z"/>
	<g>
		<polygon fill="#415DA5" points="100.92,62.76 82.62,67.08 82.3,63.61 100.6,59.28 		"/>
	</g>
	<path fill="#415DA5" d="M76.86,65.91c-0.45-1.6,16.34-2.64,17.87-3.11c1.53-0.47-12.8-0.21-12.35,1.39
		c0.45,1.6-0.42,3.28-1.94,3.75C78.92,68.41,77.31,67.5,76.86,65.91z"/>
	<path fill="#699DEE" d="M110.64,116.36c0-2.14,1.84-3.87,4.11-3.87c2.27,0,4.11,1.73,4.11,3.87c0,2.14-1.84,3.87-4.11,3.87
		C112.49,120.23,110.64,118.5,110.64,116.36z"/>
</g>
</svg>
