<?xml version="1.0" encoding="utf-8"?>
<!-- Generator: Adobe Illustrator 26.0.0, SVG Export Plug-In . SVG Version: 6.00 Build 0)  -->
<svg version="1.1" id="Layer_1_1_" xmlns="http://www.w3.org/2000/svg" xmlns:xlink="http://www.w3.org/1999/xlink" x="0px" y="0px"
	 viewBox="0 0 150 130" enable-background="new 0 0 150 130" xml:space="preserve">
<g id="XMLID_12669_">
	<g id="XMLID_3996_">
		<g id="XMLID_3997_">
			<polygon id="XMLID_9004_" fill="#B2B2B2" points="146.31,58.17 148.1,57.41 115.98,42.15 114.18,42.91 			"/>
			<polygon id="XMLID_9003_" fill="#888888" points="146.31,62.36 148.1,61.6 148.1,57.41 146.31,58.17 			"/>
			<polygon id="XMLID_3998_" fill="#5A5C54" points="114.18,42.91 146.31,58.17 146.31,62.36 114.18,47.1 			"/>
		</g>
		<g id="XMLID_3999_">
			<g id="XMLID_4000_">
				
					<linearGradient id="XMLID_00000181061184213981226940000006975812804513888668_" gradientUnits="userSpaceOnUse" x1="103.015" y1="-16294.5195" x2="92.7107" y2="-16312.3672" gradientTransform="matrix(1 0 0 -1 0 -16252)">
					<stop  offset="0.1261" style="stop-color:#68737B"/>
					<stop  offset="0.1272" style="stop-color:#6C7880"/>
					<stop  offset="0.4378" style="stop-color:#6C7880"/>
					<stop  offset="0.4407" style="stop-color:#50585E"/>
					<stop  offset="0.8367" style="stop-color:#50585E"/>
					<stop  offset="0.8387" style="stop-color:#3B4145"/>
				</linearGradient>
				<path id="XMLID_9000_" fill="url(#XMLID_00000181061184213981226940000006975812804513888668_)" d="M87.85,55.09
					c0,1.69,0.71,2.91,1.91,3.57c1.6,0.88,5.02,2.41,5.02,2.41c4.81-2.29,14.26-10.22,14.26-14.18c0-1.72-4.51-3.02-5.74-3.68
					c-1.6-0.85-4.03-0.72-6.74,0.57C91.75,46.07,87.85,51.13,87.85,55.09z"/>
				
					<ellipse id="XMLID_8999_" transform="matrix(0.7424 -0.6699 0.6699 0.7424 -9.5629 81.5542)" fill="#424852" cx="101.28" cy="53.21" rx="10.41" ry="6"/>
				
					<linearGradient id="XMLID_00000170957371575498359750000005244261355868460200_" gradientUnits="userSpaceOnUse" x1="108.5796" y1="-16297.1035" x2="98.2753" y2="-16314.9512" gradientTransform="matrix(1 0 0 -1 0 -16252)">
					<stop  offset="0.1261" style="stop-color:#68737B"/>
					<stop  offset="0.1272" style="stop-color:#6C7880"/>
					<stop  offset="0.4378" style="stop-color:#6C7880"/>
					<stop  offset="0.4407" style="stop-color:#50585E"/>
					<stop  offset="0.8367" style="stop-color:#50585E"/>
					<stop  offset="0.8387" style="stop-color:#3B4145"/>
				</linearGradient>
				<path id="XMLID_8998_" fill="url(#XMLID_00000170957371575498359750000005244261355868460200_)" d="M93.42,57.68
					c0,1.69,0.71,2.91,1.91,3.57c1.6,0.88,5.02,2.41,5.02,2.41c4.81-2.29,14.26-10.22,14.26-14.18c0-1.72-4.51-3.02-5.74-3.68
					c-1.6-0.85-4.03-0.72-6.74,0.57C97.32,48.66,93.42,53.72,93.42,57.68z"/>
				<path id="XMLID_8997_" fill="#424852" d="M98.13,59.94c0,3.96,3.9,5.31,8.71,3.03c4.81-2.28,8.71-7.35,8.71-11.3
					c0-3.96-3.9-5.31-8.71-3.03C102.03,50.92,98.13,55.98,98.13,59.94z"/>
				
					<linearGradient id="XMLID_00000039126322860107724490000008668788074199487377_" gradientUnits="userSpaceOnUse" x1="109.0067" y1="-16310.6768" x2="103.9621" y2="-16304.4912" gradientTransform="matrix(1 0 0 -1 0 -16252)">
					<stop  offset="0.1261" style="stop-color:#DBE0E3"/>
					<stop  offset="0.1272" style="stop-color:#E0E5E8"/>
					<stop  offset="0.4378" style="stop-color:#E0E5E8"/>
					<stop  offset="0.4407" style="stop-color:#C0C4C6"/>
					<stop  offset="0.8367" style="stop-color:#C0C4C6"/>
					<stop  offset="0.8387" style="stop-color:#A8ABAD"/>
				</linearGradient>
				<path id="XMLID_8996_" fill="url(#XMLID_00000039126322860107724490000008668788074199487377_)" d="M100.7,58.33
					c0,2.63,2.59,3.53,5.78,2.01c3.19-1.52,5.78-4.88,5.78-7.5c0-2.63-2.59-3.53-5.78-2.01C103.29,52.34,100.7,55.7,100.7,58.33z"/>
				<path id="XMLID_8995_" fill="#D7D9DB" d="M101.06,58.54c0,2.63,2.59,3.53,5.78,2.01c3.19-1.52,5.78-4.88,5.78-7.5
					s-2.59-3.53-5.78-2.01C103.65,52.56,101.06,55.92,101.06,58.54z"/>
				
					<linearGradient id="XMLID_00000065050637072702790350000009060230436691371949_" gradientUnits="userSpaceOnUse" x1="109.7926" y1="-16302.6885" x2="103.8187" y2="-16313.0352" gradientTransform="matrix(1 0 0 -1 0 -16252)">
					<stop  offset="0.1613" style="stop-color:#797B7D"/>
					<stop  offset="0.1633" style="stop-color:#919496"/>
					<stop  offset="0.5593" style="stop-color:#919496"/>
					<stop  offset="0.5622" style="stop-color:#B1B5B8"/>
					<stop  offset="0.8728" style="stop-color:#B1B5B8"/>
					<stop  offset="0.8739" style="stop-color:#ACB0B3"/>
				</linearGradient>
				<path id="XMLID_4001_" fill="url(#XMLID_00000065050637072702790350000009060230436691371949_)" d="M112.03,53.33
					c0,2.36-2.32,5.37-5.19,6.73c-2.86,1.35-5.19,0.55-5.19-1.8c0-0.26,0.03-0.53,0.09-0.8c0.43-2.2,2.56-4.72,5.1-5.93
					c0.21-0.1,0.42-0.19,0.62-0.26C110.03,50.29,112.03,51.15,112.03,53.33z"/>
				<path id="XMLID_4002_" fill="#E3E5E6" d="M109.51,53.09v0.03c0,1.79-1.76,4.06-3.93,5.09c-0.4,0.2-0.78,0.33-1.15,0.41
					c-1.21,0.27-2.17-0.04-2.56-0.84c-0.06-0.1-0.1-0.2-0.13-0.32c0.06-0.32,0.16-0.64,0.29-0.97c0.67-1.71,2.22-3.46,4.08-4.56
					c0.24-0.15,0.49-0.28,0.73-0.4c0.18-0.08,0.35-0.16,0.52-0.22c0.04-0.02,0.07-0.03,0.1-0.04
					C108.66,51.23,109.49,51.88,109.51,53.09z"/>
				
					<linearGradient id="XMLID_00000151502245612519529620000000382271743198920382_" gradientUnits="userSpaceOnUse" x1="107.5726" y1="-16303.4355" x2="103.3982" y2="-16310.666" gradientTransform="matrix(1 0 0 -1 0 -16252)">
					<stop  offset="0.1613" style="stop-color:#797B7D"/>
					<stop  offset="0.1633" style="stop-color:#919496"/>
					<stop  offset="0.5593" style="stop-color:#919496"/>
					<stop  offset="0.5622" style="stop-color:#B1B5B8"/>
					<stop  offset="0.8728" style="stop-color:#B1B5B8"/>
					<stop  offset="0.8739" style="stop-color:#ACB0B3"/>
				</linearGradient>
				<path id="XMLID_4003_" fill="url(#XMLID_00000151502245612519529620000000382271743198920382_)" d="M109.15,52.64
					c0,1.75-2.69,4.94-4.82,5.97c-0.01,0.01-0.02,0.01-0.03,0.02c0,0-0.03-0.01-0.09-0.02c-0.1-0.02-0.19-0.03-0.28-0.07
					c-0.03-0.01-0.07-0.02-0.11-0.03c-0.47-0.14-1.23-0.38-1.95-0.72c-0.06-0.1-0.1-0.2-0.13-0.32c0.06-0.32,0.16-0.64,0.29-0.97
					c0.67-1.71,2.22-3.46,4.08-4.56c0.24-0.15,0.49-0.28,0.73-0.4c0.18-0.08,0.35-0.16,0.52-0.22c0.68,0.41,1.26,0.87,1.57,1.13
					c0,0,0,0,0.01,0.01C109.07,52.57,109.15,52.64,109.15,52.64z"/>
				<path id="XMLID_4004_" fill="#D9DBDD" d="M109.65,53.81c0,1.54-1.51,3.5-3.39,4.39c-1.86,0.88-3.39,0.36-3.39-1.18
					c0-0.17,0.02-0.35,0.06-0.52c0.28-1.43,1.67-3.08,3.33-3.87c0.14-0.06,0.27-0.12,0.4-0.17
					C108.35,51.83,109.65,52.39,109.65,53.81z"/>
				
					<linearGradient id="XMLID_00000005231443341183174730000004265220402318125200_" gradientUnits="userSpaceOnUse" x1="107.3457" y1="-16305.8643" x2="105.4378" y2="-16309.1689" gradientTransform="matrix(1 0 0 -1 0 -16252)">
					<stop  offset="0.1613" style="stop-color:#797B7D"/>
					<stop  offset="0.1633" style="stop-color:#919496"/>
					<stop  offset="0.5593" style="stop-color:#919496"/>
					<stop  offset="0.5622" style="stop-color:#B1B5B8"/>
					<stop  offset="0.8728" style="stop-color:#B1B5B8"/>
					<stop  offset="0.8739" style="stop-color:#ACB0B3"/>
				</linearGradient>
				<path id="XMLID_4005_" fill="url(#XMLID_00000005231443341183174730000004265220402318125200_)" d="M108.04,54.73
					c0,0.75-0.74,1.71-1.65,2.14c-0.91,0.43-1.65,0.17-1.65-0.57c0-0.08,0.01-0.17,0.03-0.25c0.14-0.7,0.81-1.5,1.62-1.89
					c0.07-0.03,0.13-0.06,0.2-0.08C107.41,53.77,108.04,54.04,108.04,54.73z"/>
				<path id="XMLID_4006_" fill="#E3E5E6" d="M106.63,54.91c0,0.3-0.3,0.68-0.66,0.86c-0.36,0.17-0.66,0.07-0.66-0.23
					c0-0.03,0-0.07,0.01-0.1c0.05-0.28,0.33-0.6,0.65-0.76c0.03-0.01,0.05-0.02,0.08-0.03C106.38,54.53,106.63,54.64,106.63,54.91z"
					/>
			</g>
			<g id="XMLID_4007_">
				
					<linearGradient id="XMLID_00000134963296311064477300000006766085802953605011_" gradientUnits="userSpaceOnUse" x1="83.0061" y1="-16304.0205" x2="72.7018" y2="-16321.8682" gradientTransform="matrix(1 0 0 -1 0 -16252)">
					<stop  offset="0.1261" style="stop-color:#68737B"/>
					<stop  offset="0.1272" style="stop-color:#6C7880"/>
					<stop  offset="0.4378" style="stop-color:#6C7880"/>
					<stop  offset="0.4407" style="stop-color:#50585E"/>
					<stop  offset="0.8367" style="stop-color:#50585E"/>
					<stop  offset="0.8387" style="stop-color:#3B4145"/>
				</linearGradient>
				<path id="XMLID_8987_" fill="url(#XMLID_00000134963296311064477300000006766085802953605011_)" d="M67.84,64.59
					c0,1.69,0.71,2.91,1.91,3.57c1.6,0.88,5.02,2.41,5.02,2.41c4.81-2.29,14.26-10.22,14.26-14.18c0-1.72-4.51-3.02-5.74-3.68
					c-1.6-0.85-4.03-0.72-6.74,0.57C71.74,55.57,67.84,60.63,67.84,64.59z"/>
				<path id="XMLID_8986_" fill="#424852" d="M72.56,66.85c0,3.96,3.9,5.31,8.71,3.03c4.81-2.29,8.71-7.35,8.71-11.3
					c0-3.96-3.9-5.31-8.71-3.03C76.46,57.83,72.56,62.89,72.56,66.85z"/>
				
					<linearGradient id="XMLID_00000054983615586085336050000003062380556623680179_" gradientUnits="userSpaceOnUse" x1="88.5707" y1="-16306.6055" x2="78.2665" y2="-16324.4531" gradientTransform="matrix(1 0 0 -1 0 -16252)">
					<stop  offset="0.1261" style="stop-color:#68737B"/>
					<stop  offset="0.1272" style="stop-color:#6C7880"/>
					<stop  offset="0.4378" style="stop-color:#6C7880"/>
					<stop  offset="0.4407" style="stop-color:#50585E"/>
					<stop  offset="0.8367" style="stop-color:#50585E"/>
					<stop  offset="0.8387" style="stop-color:#3B4145"/>
				</linearGradient>
				<path id="XMLID_8985_" fill="url(#XMLID_00000054983615586085336050000003062380556623680179_)" d="M73.41,67.18
					c0,1.69,0.71,2.91,1.91,3.57c1.6,0.88,5.02,2.41,5.02,2.41c4.81-2.29,14.26-10.22,14.26-14.18c0-1.72-4.51-3.02-5.74-3.68
					c-1.6-0.85-4.03-0.72-6.74,0.57C77.31,58.16,73.41,63.22,73.41,67.18z"/>
				
					<ellipse id="XMLID_8984_" transform="matrix(0.7424 -0.6699 0.6699 0.7424 -21.3803 74.9908)" fill="#424852" cx="86.83" cy="65.3" rx="10.41" ry="6"/>
				
					<linearGradient id="XMLID_00000026123251239723534940000007833665170591247267_" gradientUnits="userSpaceOnUse" x1="88.9979" y1="-16320.1787" x2="83.9532" y2="-16313.9932" gradientTransform="matrix(1 0 0 -1 0 -16252)">
					<stop  offset="0.1261" style="stop-color:#DBE0E3"/>
					<stop  offset="0.1272" style="stop-color:#E0E5E8"/>
					<stop  offset="0.4378" style="stop-color:#E0E5E8"/>
					<stop  offset="0.4407" style="stop-color:#C0C4C6"/>
					<stop  offset="0.8367" style="stop-color:#C0C4C6"/>
					<stop  offset="0.8387" style="stop-color:#A8ABAD"/>
				</linearGradient>
				<path id="XMLID_8983_" fill="url(#XMLID_00000026123251239723534940000007833665170591247267_)" d="M80.69,67.83
					c0,2.63,2.59,3.53,5.78,2.01c3.19-1.52,5.78-4.88,5.78-7.5c0-2.63-2.59-3.53-5.78-2.01C83.28,61.85,80.69,65.2,80.69,67.83z"/>
				<path id="XMLID_8982_" fill="#D7D9DB" d="M81.05,68.05c0,2.63,2.59,3.53,5.78,2.01c3.19-1.52,5.78-4.88,5.78-7.5
					s-2.59-3.53-5.78-2.01C83.64,62.06,81.05,65.42,81.05,68.05z"/>
				
					<linearGradient id="XMLID_00000089532404684167756430000004623875063764005804_" gradientUnits="userSpaceOnUse" x1="89.7837" y1="-16312.1904" x2="83.8098" y2="-16322.5371" gradientTransform="matrix(1 0 0 -1 0 -16252)">
					<stop  offset="0.1613" style="stop-color:#797B7D"/>
					<stop  offset="0.1633" style="stop-color:#919496"/>
					<stop  offset="0.5593" style="stop-color:#919496"/>
					<stop  offset="0.5622" style="stop-color:#B1B5B8"/>
					<stop  offset="0.8728" style="stop-color:#B1B5B8"/>
					<stop  offset="0.8739" style="stop-color:#ACB0B3"/>
				</linearGradient>
				<path id="XMLID_4008_" fill="url(#XMLID_00000089532404684167756430000004623875063764005804_)" d="M92.02,62.84
					c0,2.36-2.32,5.37-5.19,6.73c-2.86,1.35-5.19,0.55-5.19-1.8c0-0.26,0.03-0.53,0.09-0.8c0.43-2.2,2.56-4.72,5.1-5.93
					c0.21-0.1,0.42-0.19,0.62-0.26C90.03,59.79,92.02,60.65,92.02,62.84z"/>
				<path id="XMLID_4009_" fill="#E3E5E6" d="M89.5,62.59v0.03c0,1.79-1.76,4.06-3.93,5.09c-0.4,0.2-0.78,0.33-1.15,0.41
					c-1.21,0.27-2.17-0.04-2.56-0.84c-0.06-0.1-0.1-0.2-0.13-0.32c0.06-0.32,0.16-0.64,0.29-0.97c0.67-1.71,2.22-3.46,4.08-4.56
					c0.24-0.15,0.49-0.28,0.73-0.4c0.18-0.08,0.35-0.16,0.52-0.22c0.04-0.02,0.07-0.03,0.1-0.04C88.66,60.73,89.48,61.38,89.5,62.59
					z"/>
				
					<linearGradient id="XMLID_00000096758110882995845090000015020049308210390177_" gradientUnits="userSpaceOnUse" x1="87.5638" y1="-16312.9375" x2="83.3895" y2="-16320.167" gradientTransform="matrix(1 0 0 -1 0 -16252)">
					<stop  offset="0.1613" style="stop-color:#797B7D"/>
					<stop  offset="0.1633" style="stop-color:#919496"/>
					<stop  offset="0.5593" style="stop-color:#919496"/>
					<stop  offset="0.5622" style="stop-color:#B1B5B8"/>
					<stop  offset="0.8728" style="stop-color:#B1B5B8"/>
					<stop  offset="0.8739" style="stop-color:#ACB0B3"/>
				</linearGradient>
				<path id="XMLID_4010_" fill="url(#XMLID_00000096758110882995845090000015020049308210390177_)" d="M89.14,62.14
					c0,1.75-2.69,4.94-4.82,5.97c-0.01,0.01-0.02,0.01-0.03,0.02c0,0-0.03-0.01-0.09-0.02c-0.1-0.02-0.19-0.03-0.28-0.07
					c-0.03-0.01-0.07-0.02-0.11-0.03c-0.47-0.14-1.23-0.38-1.95-0.72c-0.06-0.1-0.1-0.2-0.13-0.32c0.06-0.32,0.16-0.64,0.29-0.97
					c0.67-1.71,2.22-3.46,4.08-4.56c0.24-0.15,0.49-0.28,0.73-0.4c0.18-0.08,0.35-0.16,0.52-0.22c0.68,0.41,1.26,0.87,1.57,1.13
					c0,0,0,0,0.01,0.01C89.06,62.07,89.14,62.14,89.14,62.14z"/>
				<path id="XMLID_4011_" fill="#D9DBDD" d="M89.64,63.32c0,1.54-1.51,3.5-3.39,4.39c-1.86,0.88-3.39,0.36-3.39-1.18
					c0-0.17,0.02-0.35,0.06-0.52c0.28-1.43,1.67-3.08,3.33-3.87c0.14-0.06,0.27-0.12,0.4-0.17C88.34,61.33,89.64,61.89,89.64,63.32z
					"/>
				
					<linearGradient id="XMLID_00000080913878469074316260000005485229682809607613_" gradientUnits="userSpaceOnUse" x1="87.3369" y1="-16315.3662" x2="85.429" y2="-16318.6709" gradientTransform="matrix(1 0 0 -1 0 -16252)">
					<stop  offset="0.1613" style="stop-color:#797B7D"/>
					<stop  offset="0.1633" style="stop-color:#919496"/>
					<stop  offset="0.5593" style="stop-color:#919496"/>
					<stop  offset="0.5622" style="stop-color:#B1B5B8"/>
					<stop  offset="0.8728" style="stop-color:#B1B5B8"/>
					<stop  offset="0.8739" style="stop-color:#ACB0B3"/>
				</linearGradient>
				<path id="XMLID_4012_" fill="url(#XMLID_00000080913878469074316260000005485229682809607613_)" d="M88.03,64.24
					c0,0.75-0.74,1.71-1.65,2.14c-0.91,0.43-1.65,0.17-1.65-0.57c0-0.08,0.01-0.17,0.03-0.25c0.14-0.7,0.81-1.5,1.62-1.89
					c0.07-0.03,0.13-0.06,0.2-0.08C87.4,63.27,88.03,63.54,88.03,64.24z"/>
				<path id="XMLID_4013_" fill="#E3E5E6" d="M86.62,64.42c0,0.3-0.3,0.68-0.66,0.86c-0.36,0.17-0.66,0.07-0.66-0.23
					c0-0.03,0-0.07,0.01-0.1c0.05-0.28,0.33-0.6,0.65-0.76c0.03-0.01,0.05-0.02,0.08-0.03C86.37,64.03,86.62,64.14,86.62,64.42z"/>
			</g>
		</g>
		<polygon id="XMLID_8973_" fill="#725986" points="117.95,56.37 116.55,57.04 116.55,49.74 117.95,49.08 		"/>
		<path id="XMLID_8972_" fill="#ADD1B9" d="M101.9,58.23c0,2.25,2.21,3.01,4.94,1.72c2.73-1.3,4.94-4.17,4.94-6.41
			c0-2.25-2.21-3.01-4.94-1.72C104.11,53.12,101.9,55.99,101.9,58.23z"/>
		<polygon id="XMLID_8971_" fill="#878787" points="139.78,55.61 86.83,78.17 68.36,68.48 112.9,47.33 119.88,46.16 		"/>
		<polygon id="XMLID_4014_" fill="#747474" points="139.78,55.61 131.37,57.02 112.9,47.33 119.88,46.16 		"/>
		<polygon id="XMLID_8969_" fill="#A4A4A4" points="88.13,60.37 109.73,50.11 122.09,55.89 100.49,66.14 		"/>
		<ellipse id="XMLID_4015_" fill="#878787" cx="106.14" cy="56.87" rx="7.37" ry="3.94"/>
		<polygon id="XMLID_8967_" fill="#4F4F4F" points="139.78,58.96 86.83,84.1 86.83,78.17 131.37,57.02 139.78,55.61 		"/>
		<polygon id="XMLID_8966_" fill="#747474" points="100.49,66.14 122.09,55.89 123.39,58 99.19,69.49 		"/>
		<g id="XMLID_4016_">
			
				<linearGradient id="XMLID_00000117638063720148597880000006123534945806044056_" gradientUnits="userSpaceOnUse" x1="132.4173" y1="-16308.5801" x2="122.113" y2="-16326.4277" gradientTransform="matrix(1 0 0 -1 0 -16252)">
				<stop  offset="0.1261" style="stop-color:#68737B"/>
				<stop  offset="0.1272" style="stop-color:#6C7880"/>
				<stop  offset="0.4378" style="stop-color:#6C7880"/>
				<stop  offset="0.4407" style="stop-color:#50585E"/>
				<stop  offset="0.8367" style="stop-color:#50585E"/>
				<stop  offset="0.8387" style="stop-color:#3B4145"/>
			</linearGradient>
			<path id="XMLID_8965_" fill="url(#XMLID_00000117638063720148597880000006123534945806044056_)" d="M117.25,69.15
				c0,1.69,0.71,2.91,1.91,3.57c1.6,0.88,5.02,2.41,5.02,2.41c4.81-2.29,14.26-10.22,14.26-14.18c0-1.72-4.51-3.02-5.74-3.68
				c-1.6-0.85-4.03-0.72-6.74,0.57C121.15,60.13,117.25,65.19,117.25,69.15z"/>
			<path id="XMLID_8964_" fill="#424852" d="M121.97,71.41c0,3.96,3.9,5.31,8.71,3.03c4.81-2.28,8.71-7.35,8.71-11.3
				s-3.9-5.31-8.71-3.03C125.87,62.39,121.97,67.45,121.97,71.41z"/>
			
				<linearGradient id="XMLID_00000013890243102744250470000006326847548301669261_" gradientUnits="userSpaceOnUse" x1="137.9819" y1="-16311.1641" x2="127.6776" y2="-16329.0117" gradientTransform="matrix(1 0 0 -1 0 -16252)">
				<stop  offset="0.1261" style="stop-color:#68737B"/>
				<stop  offset="0.1272" style="stop-color:#6C7880"/>
				<stop  offset="0.4378" style="stop-color:#6C7880"/>
				<stop  offset="0.4407" style="stop-color:#50585E"/>
				<stop  offset="0.8367" style="stop-color:#50585E"/>
				<stop  offset="0.8387" style="stop-color:#3B4145"/>
			</linearGradient>
			<path id="XMLID_8963_" fill="url(#XMLID_00000013890243102744250470000006326847548301669261_)" d="M122.82,71.74
				c0,1.69,0.71,2.91,1.91,3.57c1.6,0.88,5.02,2.41,5.02,2.41c4.81-2.29,14.26-10.22,14.26-14.18c0-1.72-4.51-3.02-5.74-3.68
				c-1.6-0.85-4.03-0.72-6.74,0.57C126.72,62.72,122.82,67.78,122.82,71.74z"/>
			
				<ellipse id="XMLID_8962_" transform="matrix(0.7424 -0.6699 0.6699 0.7424 -11.7074 109.2669)" fill="#424852" cx="136.24" cy="69.86" rx="10.41" ry="6"/>
			
				<linearGradient id="XMLID_00000065046980412495987170000003527302503252973987_" gradientUnits="userSpaceOnUse" x1="139.231" y1="-16315.8525" x2="132.5425" y2="-16327.4375" gradientTransform="matrix(1 0 0 -1 0 -16252)">
				<stop  offset="0.1261" style="stop-color:#DBE0E3"/>
				<stop  offset="0.1272" style="stop-color:#E0E5E8"/>
				<stop  offset="0.4378" style="stop-color:#E0E5E8"/>
				<stop  offset="0.4407" style="stop-color:#C0C4C6"/>
				<stop  offset="0.8367" style="stop-color:#C0C4C6"/>
				<stop  offset="0.8387" style="stop-color:#A8ABAD"/>
			</linearGradient>
			<path id="XMLID_8961_" fill="url(#XMLID_00000065046980412495987170000003527302503252973987_)" d="M130.1,72.39
				c0,2.63,2.59,3.53,5.78,2.01c3.19-1.52,5.78-4.88,5.78-7.5c0-2.63-2.59-3.53-5.78-2.01C132.69,66.4,130.1,69.76,130.1,72.39z"/>
			<path id="XMLID_8960_" fill="#D7D9DB" d="M130.46,72.6c0,2.63,2.59,3.53,5.78,2.01c3.19-1.52,5.78-4.88,5.78-7.5
				c0-2.63-2.59-3.53-5.78-2.01C133.05,66.62,130.46,69.98,130.46,72.6z"/>
			
				<linearGradient id="XMLID_00000079467294122583299680000011807479114962924422_" gradientUnits="userSpaceOnUse" x1="139.1949" y1="-16316.749" x2="133.221" y2="-16327.0957" gradientTransform="matrix(1 0 0 -1 0 -16252)">
				<stop  offset="0.1613" style="stop-color:#797B7D"/>
				<stop  offset="0.1633" style="stop-color:#919496"/>
				<stop  offset="0.5593" style="stop-color:#919496"/>
				<stop  offset="0.5622" style="stop-color:#B1B5B8"/>
				<stop  offset="0.8728" style="stop-color:#B1B5B8"/>
				<stop  offset="0.8739" style="stop-color:#ACB0B3"/>
			</linearGradient>
			<path id="XMLID_4017_" fill="url(#XMLID_00000079467294122583299680000011807479114962924422_)" d="M141.43,67.39
				c0,2.36-2.32,5.37-5.19,6.73c-2.86,1.35-5.19,0.55-5.19-1.8c0-0.26,0.03-0.53,0.09-0.8c0.43-2.2,2.56-4.72,5.1-5.93
				c0.21-0.1,0.42-0.19,0.62-0.26C139.44,64.35,141.43,65.21,141.43,67.39z"/>
			<path id="XMLID_4018_" fill="#E3E5E6" d="M138.91,67.15v0.03c0,1.79-1.76,4.06-3.93,5.09c-0.4,0.2-0.78,0.33-1.15,0.41
				c-1.21,0.27-2.17-0.04-2.56-0.84c-0.06-0.1-0.1-0.2-0.13-0.32c0.06-0.32,0.16-0.64,0.29-0.97c0.67-1.71,2.22-3.46,4.08-4.56
				c0.24-0.15,0.49-0.28,0.73-0.4c0.18-0.08,0.35-0.16,0.52-0.22c0.04-0.02,0.07-0.03,0.1-0.04
				C138.07,65.29,138.89,65.94,138.91,67.15z"/>
			
				<linearGradient id="XMLID_00000016794155416602807910000007078805290168592555_" gradientUnits="userSpaceOnUse" x1="136.9749" y1="-16317.4961" x2="132.8006" y2="-16324.7266" gradientTransform="matrix(1 0 0 -1 0 -16252)">
				<stop  offset="0.1261" style="stop-color:#ACB0B3"/>
				<stop  offset="0.1272" style="stop-color:#B1B5B8"/>
				<stop  offset="0.4378" style="stop-color:#B1B5B8"/>
				<stop  offset="0.4407" style="stop-color:#919496"/>
				<stop  offset="0.8367" style="stop-color:#919496"/>
				<stop  offset="0.8387" style="stop-color:#797B7D"/>
			</linearGradient>
			<path id="XMLID_4019_" fill="url(#XMLID_00000016794155416602807910000007078805290168592555_)" d="M138.55,66.7
				c0,1.75-2.69,4.94-4.82,5.97c-0.01,0.01-0.02,0.01-0.03,0.02c0,0-0.03-0.01-0.09-0.02c-0.1-0.02-0.19-0.03-0.28-0.07
				c-0.03-0.01-0.07-0.02-0.11-0.03c-0.47-0.14-1.23-0.38-1.95-0.72c-0.06-0.1-0.1-0.2-0.13-0.32c0.06-0.32,0.16-0.64,0.29-0.97
				c0.67-1.71,2.22-3.46,4.08-4.56c0.24-0.15,0.49-0.28,0.73-0.4c0.18-0.08,0.35-0.16,0.52-0.22c0.68,0.41,1.26,0.87,1.57,1.13
				c0,0,0,0,0.01,0.01C138.47,66.63,138.55,66.7,138.55,66.7z"/>
			<path id="XMLID_4020_" fill="#D9DBDD" d="M139.05,67.87c0,1.54-1.51,3.5-3.39,4.39c-1.86,0.88-3.39,0.36-3.39-1.18
				c0-0.17,0.02-0.35,0.06-0.52c0.28-1.43,1.67-3.08,3.33-3.87c0.14-0.06,0.27-0.12,0.4-0.17
				C137.75,65.89,139.05,66.45,139.05,67.87z"/>
			
				<linearGradient id="XMLID_00000102545202299864647150000018169698699750887073_" gradientUnits="userSpaceOnUse" x1="136.748" y1="-16319.9248" x2="134.8401" y2="-16323.2295" gradientTransform="matrix(1 0 0 -1 0 -16252)">
				<stop  offset="0.1613" style="stop-color:#797B7D"/>
				<stop  offset="0.1633" style="stop-color:#919496"/>
				<stop  offset="0.5593" style="stop-color:#919496"/>
				<stop  offset="0.5622" style="stop-color:#B1B5B8"/>
				<stop  offset="0.8728" style="stop-color:#B1B5B8"/>
				<stop  offset="0.8739" style="stop-color:#ACB0B3"/>
			</linearGradient>
			<path id="XMLID_4021_" fill="url(#XMLID_00000102545202299864647150000018169698699750887073_)" d="M137.44,68.79
				c0,0.75-0.74,1.71-1.65,2.14c-0.91,0.43-1.65,0.17-1.65-0.57c0-0.08,0.01-0.17,0.03-0.25c0.14-0.7,0.81-1.5,1.62-1.89
				c0.07-0.03,0.13-0.06,0.2-0.08C136.81,67.83,137.44,68.1,137.44,68.79z"/>
			<path id="XMLID_4022_" fill="#E3E5E6" d="M136.03,68.98c0,0.3-0.3,0.68-0.66,0.86c-0.36,0.17-0.66,0.07-0.66-0.23
				c0-0.03,0-0.07,0.01-0.1c0.05-0.28,0.33-0.6,0.65-0.76c0.03-0.01,0.05-0.02,0.08-0.03C135.78,68.59,136.03,68.7,136.03,68.98z"/>
		</g>
		<g id="XMLID_4023_">
			
				<linearGradient id="XMLID_00000121254168886129501120000012375970429366124730_" gradientUnits="userSpaceOnUse" x1="112.4085" y1="-16318.082" x2="102.1042" y2="-16335.9287" gradientTransform="matrix(1 0 0 -1 0 -16252)">
				<stop  offset="0.1261" style="stop-color:#68737B"/>
				<stop  offset="0.1272" style="stop-color:#6C7880"/>
				<stop  offset="0.4378" style="stop-color:#6C7880"/>
				<stop  offset="0.4407" style="stop-color:#50585E"/>
				<stop  offset="0.8367" style="stop-color:#50585E"/>
				<stop  offset="0.8387" style="stop-color:#3B4145"/>
			</linearGradient>
			<path id="XMLID_8952_" fill="url(#XMLID_00000121254168886129501120000012375970429366124730_)" d="M97.24,78.65
				c0,1.69,0.71,2.91,1.91,3.57c1.6,0.88,5.02,2.41,5.02,2.41c4.81-2.29,14.26-10.22,14.26-14.18c0-1.72-4.51-3.02-5.74-3.68
				c-1.6-0.85-4.03-0.72-6.74,0.57C101.15,69.63,97.24,74.7,97.24,78.65z"/>
			<path id="XMLID_8951_" fill="#424852" d="M101.96,80.91c0,3.96,3.9,5.31,8.71,3.03c4.81-2.29,8.71-7.35,8.71-11.3
				c0-3.96-3.9-5.31-8.71-3.03C105.86,71.89,101.96,76.95,101.96,80.91z"/>
			
				<linearGradient id="XMLID_00000042733299496242372210000012225357928809806477_" gradientUnits="userSpaceOnUse" x1="117.9731" y1="-16320.666" x2="107.6688" y2="-16338.5137" gradientTransform="matrix(1 0 0 -1 0 -16252)">
				<stop  offset="0.1261" style="stop-color:#68737B"/>
				<stop  offset="0.1272" style="stop-color:#6C7880"/>
				<stop  offset="0.4378" style="stop-color:#6C7880"/>
				<stop  offset="0.4407" style="stop-color:#50585E"/>
				<stop  offset="0.8367" style="stop-color:#50585E"/>
				<stop  offset="0.8387" style="stop-color:#3B4145"/>
			</linearGradient>
			<path id="XMLID_8950_" fill="url(#XMLID_00000042733299496242372210000012225357928809806477_)" d="M102.81,81.24
				c0,1.69,0.71,2.91,1.91,3.57c1.6,0.88,5.02,2.41,5.02,2.41C114.55,84.93,124,76.99,124,73.04c0-1.72-4.51-3.02-5.74-3.68
				c-1.6-0.85-4.03-0.72-6.74,0.57C106.71,72.22,102.81,77.28,102.81,81.24z"/>
			<path id="XMLID_8949_" fill="#424852" d="M107.52,83.5c0,3.96,3.9,5.31,8.71,3.03c4.81-2.28,8.71-7.35,8.71-11.3
				c0-3.96-3.9-5.31-8.71-3.03C111.42,74.48,107.52,79.54,107.52,83.5z"/>
			
				<linearGradient id="XMLID_00000002385087330834464960000008327242674193103782_" gradientUnits="userSpaceOnUse" x1="119.2221" y1="-16325.3545" x2="112.5336" y2="-16336.9395" gradientTransform="matrix(1 0 0 -1 0 -16252)">
				<stop  offset="0.1261" style="stop-color:#DBE0E3"/>
				<stop  offset="0.1272" style="stop-color:#E0E5E8"/>
				<stop  offset="0.4378" style="stop-color:#E0E5E8"/>
				<stop  offset="0.4407" style="stop-color:#C0C4C6"/>
				<stop  offset="0.8367" style="stop-color:#C0C4C6"/>
				<stop  offset="0.8387" style="stop-color:#A8ABAD"/>
			</linearGradient>
			<path id="XMLID_8948_" fill="url(#XMLID_00000002385087330834464960000008327242674193103782_)" d="M110.1,81.89
				c0,2.63,2.59,3.53,5.78,2.01c3.19-1.52,5.78-4.88,5.78-7.5c0-2.63-2.59-3.53-5.78-2.01C112.68,75.91,110.1,79.27,110.1,81.89z"/>
			
				<ellipse id="XMLID_8947_" transform="matrix(0.7424 -0.6699 0.6699 0.7424 -23.2266 98.3098)" fill="#D7D9DB" cx="116.23" cy="79.36" rx="6.91" ry="3.98"/>
			
				<linearGradient id="XMLID_00000183240811445435241740000013689143967603347080_" gradientUnits="userSpaceOnUse" x1="119.1861" y1="-16326.251" x2="113.2122" y2="-16336.5977" gradientTransform="matrix(1 0 0 -1 0 -16252)">
				<stop  offset="0.1613" style="stop-color:#797B7D"/>
				<stop  offset="0.1633" style="stop-color:#919496"/>
				<stop  offset="0.5593" style="stop-color:#919496"/>
				<stop  offset="0.5622" style="stop-color:#B1B5B8"/>
				<stop  offset="0.8728" style="stop-color:#B1B5B8"/>
				<stop  offset="0.8739" style="stop-color:#ACB0B3"/>
			</linearGradient>
			<path id="XMLID_4024_" fill="url(#XMLID_00000183240811445435241740000013689143967603347080_)" d="M121.42,76.9
				c0,2.36-2.32,5.37-5.19,6.73c-2.86,1.35-5.19,0.55-5.19-1.8c0-0.26,0.03-0.53,0.09-0.8c0.43-2.2,2.56-4.72,5.1-5.93
				c0.21-0.1,0.42-0.19,0.62-0.26C119.43,73.85,121.42,74.71,121.42,76.9z"/>
			<path id="XMLID_4025_" fill="#E3E5E6" d="M118.9,76.65v0.03c0,1.79-1.76,4.06-3.93,5.09c-0.4,0.2-0.78,0.33-1.15,0.41
				c-1.21,0.27-2.17-0.04-2.56-0.84c-0.06-0.1-0.1-0.2-0.13-0.32c0.06-0.32,0.16-0.64,0.29-0.97c0.67-1.71,2.22-3.46,4.08-4.56
				c0.24-0.15,0.49-0.28,0.73-0.4c0.18-0.08,0.35-0.16,0.52-0.22c0.04-0.02,0.07-0.03,0.1-0.04
				C118.06,74.79,118.88,75.44,118.9,76.65z"/>
			
				<linearGradient id="XMLID_00000109724421512185703510000010593847181231423670_" gradientUnits="userSpaceOnUse" x1="116.9661" y1="-16326.998" x2="112.7917" y2="-16334.2275" gradientTransform="matrix(1 0 0 -1 0 -16252)">
				<stop  offset="0.1261" style="stop-color:#ACB0B3"/>
				<stop  offset="0.1272" style="stop-color:#B1B5B8"/>
				<stop  offset="0.4378" style="stop-color:#B1B5B8"/>
				<stop  offset="0.4407" style="stop-color:#919496"/>
				<stop  offset="0.8367" style="stop-color:#919496"/>
				<stop  offset="0.8387" style="stop-color:#797B7D"/>
			</linearGradient>
			<path id="XMLID_4026_" fill="url(#XMLID_00000109724421512185703510000010593847181231423670_)" d="M118.54,76.2
				c0,1.75-2.69,4.94-4.82,5.97c-0.01,0.01-0.02,0.01-0.03,0.02c0,0-0.03-0.01-0.09-0.02c-0.1-0.02-0.19-0.03-0.28-0.07
				c-0.03-0.01-0.07-0.02-0.11-0.03c-0.47-0.14-1.23-0.38-1.95-0.72c-0.06-0.1-0.1-0.2-0.13-0.32c0.06-0.32,0.16-0.64,0.29-0.97
				c0.67-1.71,2.22-3.46,4.08-4.56c0.24-0.15,0.49-0.28,0.73-0.4c0.18-0.08,0.35-0.16,0.52-0.22c0.68,0.41,1.26,0.87,1.57,1.13
				c0,0,0,0,0.01,0.01C118.46,76.13,118.54,76.2,118.54,76.2z"/>
			<path id="XMLID_4027_" fill="#D9DBDD" d="M119.04,77.38c0,1.54-1.51,3.5-3.39,4.39c-1.86,0.88-3.39,0.36-3.39-1.18
				c0-0.17,0.02-0.35,0.06-0.52c0.28-1.43,1.67-3.08,3.33-3.87c0.14-0.06,0.27-0.12,0.4-0.17
				C117.74,75.39,119.04,75.95,119.04,77.38z"/>
			
				<linearGradient id="XMLID_00000044162493139857540560000013292456675682511777_" gradientUnits="userSpaceOnUse" x1="116.7392" y1="-16329.4268" x2="114.8313" y2="-16332.7314" gradientTransform="matrix(1 0 0 -1 0 -16252)">
				<stop  offset="0.1613" style="stop-color:#797B7D"/>
				<stop  offset="0.1633" style="stop-color:#919496"/>
				<stop  offset="0.5593" style="stop-color:#919496"/>
				<stop  offset="0.5622" style="stop-color:#B1B5B8"/>
				<stop  offset="0.8728" style="stop-color:#B1B5B8"/>
				<stop  offset="0.8739" style="stop-color:#ACB0B3"/>
			</linearGradient>
			<path id="XMLID_4028_" fill="url(#XMLID_00000044162493139857540560000013292456675682511777_)" d="M117.43,78.3
				c0,0.75-0.74,1.71-1.65,2.14c-0.91,0.43-1.65,0.17-1.65-0.57c0-0.08,0.01-0.17,0.03-0.25c0.14-0.7,0.81-1.5,1.62-1.89
				c0.07-0.03,0.13-0.06,0.2-0.08C116.8,77.33,117.43,77.6,117.43,78.3z"/>
			<path id="XMLID_4029_" fill="#E3E5E6" d="M116.02,78.48c0,0.3-0.3,0.68-0.66,0.86c-0.36,0.17-0.66,0.07-0.66-0.23
				c0-0.03,0-0.07,0.01-0.1c0.05-0.28,0.33-0.6,0.65-0.76c0.03-0.01,0.05-0.02,0.08-0.03C115.77,78.09,116.02,78.2,116.02,78.48z"/>
		</g>
		<g id="XMLID_4030_">
			<g id="XMLID_4031_">
				<path id="XMLID_4032_" fill="#D9483D" d="M112.3,71.83c-0.02,0.37-3.18,3.09-6.01,7.22c-1.23,1.81-2.4,3.89-3.21,6.15
					l-7.69-4.02c0.26-2.27,1.17-4.37,2.34-6.2c2.66-4.22,6.65-7,6.89-7.17L112.3,71.83z"/>
			</g>
			<path id="XMLID_4033_" fill="#FF574C" d="M112.3,71.83c-0.02,0.37-3.18,3.09-6.01,7.22l-8.56-4.07c2.66-4.22,6.65-7,6.89-7.17
				L112.3,71.83z"/>
			<path id="XMLID_4034_" fill="#B23625" d="M104.06,84.91l-0.99,0.29c0.84-7.52,8.89-13.14,9.23-13.37l0.46,0.54
				C112.68,72.42,104.84,77.9,104.06,84.91z"/>
		</g>
		<polygon id="XMLID_4035_" fill="#4F4F4F" points="88.13,60.37 100.49,66.14 99.19,69.49 86.83,63.72 		"/>
		<polygon id="XMLID_8933_" fill="#BDC1C4" points="88.18,58.8 89.81,65.47 89.81,72.64 92.57,71.34 92.57,75.32 89.81,76.62 
			89.05,76.98 86.55,78.17 86.55,59.57 		"/>
		<g id="XMLID_4036_">
			
				<linearGradient id="XMLID_00000164482336750296883350000007851927919215061432_" gradientUnits="userSpaceOnUse" x1="102.1691" y1="-16310.127" x2="110.1066" y2="-16310.127" gradientTransform="matrix(1 0 0 -1 0 -16252)">
				<stop  offset="0.1613" style="stop-color:#4D4E4F"/>
				<stop  offset="0.1633" style="stop-color:#646668"/>
				<stop  offset="0.5593" style="stop-color:#646668"/>
				<stop  offset="0.5622" style="stop-color:#85888A"/>
				<stop  offset="0.8728" style="stop-color:#85888A"/>
				<stop  offset="0.8739" style="stop-color:#808385"/>
			</linearGradient>
			<path id="XMLID_4037_" fill="url(#XMLID_00000164482336750296883350000007851927919215061432_)" d="M102.17,56.25v1.73
				c0,1.17,1.78,2.13,3.97,2.13c2.19,0,3.97-0.95,3.97-2.13v-1.84L102.17,56.25z"/>
			
				<linearGradient id="XMLID_00000060746371426704699350000004702408546479899791_" gradientUnits="userSpaceOnUse" x1="108.3616" y1="-16303.4404" x2="103.5888" y2="-16311.707" gradientTransform="matrix(1 0 0 -1 0 -16252)">
				<stop  offset="0.1613" style="stop-color:#797B7D"/>
				<stop  offset="0.1633" style="stop-color:#919496"/>
				<stop  offset="0.5593" style="stop-color:#919496"/>
				<stop  offset="0.5622" style="stop-color:#B1B5B8"/>
				<stop  offset="0.8728" style="stop-color:#B1B5B8"/>
				<stop  offset="0.8739" style="stop-color:#ACB0B3"/>
			</linearGradient>
			<path id="XMLID_4038_" fill="url(#XMLID_00000060746371426704699350000004702408546479899791_)" d="M98.77,54.61v0.77
				c0,2.18,3.3,3.94,7.37,3.94c4.07,0,7.37-1.77,7.37-3.94v-0.97L98.77,54.61z"/>
			<ellipse id="XMLID_4039_" fill="#BBBBBB" cx="106.14" cy="54.61" rx="7.37" ry="3.94"/>
		</g>
		<polygon id="XMLID_4040_" fill="#A6A9AB" points="92.57,71.34 89.81,69.58 89.81,72.64 		"/>
		<polygon id="XMLID_4041_" fill="#A6A9AB" points="88.18,58.8 87.53,58.04 87.53,59.11 		"/>
	</g>
	<g id="XMLID_12501_">
		<g id="XMLID_12514_">
			<g id="XMLID_12515_">
				<g id="XMLID_12518_">
					<polygon id="XMLID_12521_" fill="#A17F4C" points="93.37,78.02 61.52,62.91 61.52,34.72 93.37,49.83 					"/>
					<polygon id="XMLID_12520_" fill="#D2B371" points="149.1,23.37 93.37,49.83 93.37,78.02 149.1,51.64 					"/>
					<polygon id="XMLID_12519_" fill="none" stroke="#A05E00" stroke-width="1.1449" stroke-miterlimit="10" points="104.13,48.34 
						96.41,52.03 96.41,60.64 104.13,56.97 					"/>
				</g>
				<polygon id="XMLID_12517_" fill="#A05E00" points="101.47,53.05 101.45,57.34 99.04,58.46 99.06,54.18 97.86,54.74 
					100.28,50.52 102.68,52.49 				"/>
				<polygon id="XMLID_12_" fill="#F5DF95" points="149.09,23.38 93.38,49.83 78.43,42.73 73.57,40.44 61.52,34.71 89.1,21.62 
					93.96,19.31 117.23,8.26 129.31,13.99 134.17,16.3 				"/>
			</g>
		</g>
		<polygon id="XMLID_12513_" fill="#FEE9AB" points="78.42,42.73 73.58,40.44 129.31,13.99 134.17,16.3 		"/>
		<polygon id="XMLID_10_" fill="#FEF1CB" points="125.81,34.43 120.96,36.72 89.1,21.62 93.96,19.31 		"/>
		<g id="XMLID_12506_">
			<polygon id="XMLID_12512_" fill="#ABABAB" points="73.01,65.92 63.87,61.62 63.87,55.13 73.01,59.43 			"/>
			<polygon id="XMLID_12511_" fill="#595959" points="72.5,65.1 64.37,61.28 64.37,60.98 72.5,64.8 			"/>
			<polygon id="XMLID_12510_" fill="#595959" points="72.5,64.28 64.37,60.46 64.37,60.17 72.5,63.99 			"/>
			<polygon id="XMLID_12509_" fill="#595959" points="72.5,63.47 64.37,59.65 64.37,59.35 72.5,63.17 			"/>
			<polygon id="XMLID_12508_" fill="#595959" points="72.5,62.65 64.37,58.83 64.37,58.54 72.5,62.36 			"/>
			<polygon id="XMLID_12507_" fill="#595959" points="72.5,61.12 64.37,57.3 64.37,56.37 72.5,60.19 			"/>
		</g>
		<polygon id="XMLID_12505_" fill="#DBC68A" points="73.58,40.44 73.55,49.94 74.55,47.71 75.6,50.86 77.01,48.82 78.27,52.06 
			78.42,42.73 		"/>
		<polygon id="XMLID_3_" fill="#E6CF91" points="125.81,34.43 125.83,43.93 124.83,41.71 123.79,44.85 122.37,42.82 121.11,46.05 
			120.96,36.72 		"/>
		<polygon id="XMLID_12504_" fill="#A05E00" points="140.33,31.58 138.02,32.69 138.02,35.23 140.33,34.13 		"/>
		<polygon id="XMLID_12503_" fill="#A05E00" points="143.57,30.04 141.26,31.15 141.26,33.7 143.57,32.59 		"/>
		<polygon id="XMLID_12502_" fill="#A05E00" points="146.82,28.5 144.51,29.62 144.51,32.16 146.82,31.05 		"/>
	</g>
	<g id="XMLID_4122_">
		
			<linearGradient id="XMLID_00000130605043101832941710000003228298788721832066_" gradientUnits="userSpaceOnUse" x1="39.2284" y1="-16316.374" x2="43.3314" y2="-16316.374" gradientTransform="matrix(1 0 0 -1 0 -16252)">
			<stop  offset="0.1613" style="stop-color:#A7AAAC"/>
			<stop  offset="0.1633" style="stop-color:#BEC2C5"/>
			<stop  offset="0.5593" style="stop-color:#BEC2C5"/>
			<stop  offset="0.5622" style="stop-color:#DEE3E7"/>
			<stop  offset="0.8728" style="stop-color:#DEE3E7"/>
			<stop  offset="0.8739" style="stop-color:#D9DEE2"/>
		</linearGradient>
		<path id="XMLID_4123_" fill="url(#XMLID_00000130605043101832941710000003228298788721832066_)" d="M39.23,53.23v21.24
			c0,0.61,0.92,1.1,2.05,1.1c1.13,0,2.05-0.49,2.05-1.1v-21.3L39.23,53.23z"/>
		<path id="XMLID_4124_" fill="#E1F0F0" d="M43.33,53.23c0,0.61-0.92,1.1-2.05,1.1c-1.13,0-2.05-0.49-2.05-1.1
			c0-0.61,0.92-1.1,2.05-1.1C42.41,52.13,43.33,52.62,43.33,53.23z"/>
		<g id="XMLID_4125_">
			<path id="XMLID_4126_" fill="#B9C6C7" d="M44.66,43.99c0.13,1.2-1.01,1.86-1.01,1.86l-0.55,0.37c-0.48,0.31-0.75,0.79-0.75,1.29
				v5.45c-0.11,0.26-0.55,0.45-1.07,0.45c-0.5,0-0.91-0.17-1.04-0.42v-5.93c0-0.87,0.48-1.69,1.29-2.24l2.26-1.68
				C43.79,43.15,44.56,42.99,44.66,43.99z"/>
			<path id="XMLID_4127_" fill="#DDE2E6" d="M40.67,53.27v-5.93c0-0.87,0.48-1.69,1.29-2.24l2.26-1.68c0,0,0.11-0.02,0.26,0.01
				c-0.26-0.37-0.69-0.29-0.69-0.29l-2.26,1.68c-0.81,0.55-1.29,1.36-1.29,2.24v5.93c0.07,0.14,0.25,0.25,0.47,0.33
				C40.7,53.3,40.68,53.29,40.67,53.27z"/>
			<path id="XMLID_4128_" fill="#A6A9AB" d="M44.3,45.23l-1.21,0.9c-0.81,0.55-1.29,1.36-1.29,2.24v4.96
				c0.27-0.08,0.47-0.21,0.54-0.37v-5.45c0-0.5,0.28-0.98,0.75-1.29l0.55-0.37C43.65,45.85,44.01,45.63,44.3,45.23z"/>
		</g>
	</g>
	<g id="XMLID_4129_">
		
			<linearGradient id="XMLID_00000101065927298439236470000013677021455183080887_" gradientUnits="userSpaceOnUse" x1="19.6039" y1="-16334.5586" x2="25.8882" y2="-16334.5586" gradientTransform="matrix(1 0 0 -1 0 -16252)">
			<stop  offset="0.1613" style="stop-color:#A7AAAC"/>
			<stop  offset="0.1633" style="stop-color:#BEC2C5"/>
			<stop  offset="0.5593" style="stop-color:#BEC2C5"/>
			<stop  offset="0.5622" style="stop-color:#DEE3E7"/>
			<stop  offset="0.8728" style="stop-color:#DEE3E7"/>
			<stop  offset="0.8739" style="stop-color:#D9DEE2"/>
		</linearGradient>
		<path id="XMLID_4130_" fill="url(#XMLID_00000101065927298439236470000013677021455183080887_)" d="M19.6,81.34v0.84
			c0,0.93,1.41,1.68,3.14,1.68s3.14-0.75,3.14-1.68v-0.93L19.6,81.34z"/>
		
			<linearGradient id="XMLID_00000126324841921618399650000010856659714802231449_" gradientUnits="userSpaceOnUse" x1="19.2512" y1="-16333.3643" x2="26.241" y2="-16333.3643" gradientTransform="matrix(1 0 0 -1 0 -16252)">
			<stop  offset="0.1613" style="stop-color:#BCC0C2"/>
			<stop  offset="0.1633" style="stop-color:#D3D7DB"/>
			<stop  offset="0.5593" style="stop-color:#D3D7DB"/>
			<stop  offset="0.5622" style="stop-color:#F3F8FD"/>
			<stop  offset="0.8728" style="stop-color:#F3F8FD"/>
			<stop  offset="0.8739" style="stop-color:#EEF3F8"/>
		</linearGradient>
		<path id="XMLID_4131_" fill="url(#XMLID_00000126324841921618399650000010856659714802231449_)" d="M19.25,80.01v0.94
			c0,1.03,1.56,1.87,3.49,1.87c1.93,0,3.49-0.84,3.49-1.87v-1.03L19.25,80.01z"/>
		<path id="XMLID_4132_" fill="#BFCCCC" d="M26.24,80.01c0,1.03-1.56,1.87-3.49,1.87c-1.93,0-3.49-0.84-3.49-1.87
			c0-1.03,1.56-1.87,3.49-1.87C24.68,78.14,26.24,78.97,26.24,80.01z"/>
		
			<linearGradient id="XMLID_00000028285958305295964610000002243839954626531256_" gradientUnits="userSpaceOnUse" x1="19.6039" y1="-16331.3154" x2="25.8882" y2="-16331.3154" gradientTransform="matrix(1 0 0 -1 0 -16252)">
			<stop  offset="0.1613" style="stop-color:#A7AAAC"/>
			<stop  offset="0.1633" style="stop-color:#BEC2C5"/>
			<stop  offset="0.5593" style="stop-color:#BEC2C5"/>
			<stop  offset="0.5622" style="stop-color:#DEE3E7"/>
			<stop  offset="0.8728" style="stop-color:#DEE3E7"/>
			<stop  offset="0.8739" style="stop-color:#D9DEE2"/>
		</linearGradient>
		<path id="XMLID_4133_" fill="url(#XMLID_00000028285958305295964610000002243839954626531256_)" d="M19.6,77.35v2.32
			c0,0.93,1.41,1.68,3.14,1.68s3.14-0.75,3.14-1.68v-2.41L19.6,77.35z"/>
		
			<linearGradient id="XMLID_00000170986967534827399340000008963084696779527071_" gradientUnits="userSpaceOnUse" x1="19.2512" y1="-16329.0537" x2="26.241" y2="-16329.0537" gradientTransform="matrix(1 0 0 -1 0 -16252)">
			<stop  offset="0.1613" style="stop-color:#BCC0C2"/>
			<stop  offset="0.1633" style="stop-color:#D3D7DB"/>
			<stop  offset="0.5593" style="stop-color:#D3D7DB"/>
			<stop  offset="0.5622" style="stop-color:#F3F8FD"/>
			<stop  offset="0.8728" style="stop-color:#F3F8FD"/>
			<stop  offset="0.8739" style="stop-color:#EEF3F8"/>
		</linearGradient>
		<path id="XMLID_4134_" fill="url(#XMLID_00000170986967534827399340000008963084696779527071_)" d="M19.25,75.7v0.94
			c0,1.03,1.56,1.87,3.49,1.87c1.93,0,3.49-0.84,3.49-1.87V75.6L19.25,75.7z"/>
		<path id="XMLID_4135_" fill="#BFCCCC" d="M26.24,75.7c0,1.03-1.56,1.87-3.49,1.87c-1.93,0-3.49-0.84-3.49-1.87
			c0-1.03,1.56-1.87,3.49-1.87C24.68,73.83,26.24,74.66,26.24,75.7z"/>
		
			<linearGradient id="XMLID_00000011028157836830708620000011457389692753578172_" gradientUnits="userSpaceOnUse" x1="19.6039" y1="-16327.876" x2="25.8882" y2="-16327.876" gradientTransform="matrix(1 0 0 -1 0 -16252)">
			<stop  offset="0.1613" style="stop-color:#A7AAAC"/>
			<stop  offset="0.1633" style="stop-color:#BEC2C5"/>
			<stop  offset="0.5593" style="stop-color:#BEC2C5"/>
			<stop  offset="0.5622" style="stop-color:#DEE3E7"/>
			<stop  offset="0.8728" style="stop-color:#DEE3E7"/>
			<stop  offset="0.8739" style="stop-color:#D9DEE2"/>
		</linearGradient>
		<path id="XMLID_4136_" fill="url(#XMLID_00000011028157836830708620000011457389692753578172_)" d="M19.6,74.66v0.84
			c0,0.93,1.41,1.68,3.14,1.68s3.14-0.75,3.14-1.68v-0.93L19.6,74.66z"/>
		<path id="XMLID_4137_" fill="#E1F0F0" d="M25.89,74.66c0,0.93-1.41,1.68-3.14,1.68c-1.74,0-5.1-0.54-5.1-1.47s3.37-1.9,5.1-1.9
			C24.48,72.97,25.89,73.73,25.89,74.66z"/>
	</g>
	<path id="XMLID_8768_" fill="#ADD1B9" d="M10.29,101.66c0,2.38,2.34,3.19,5.23,1.82c2.89-1.37,5.23-5.57,5.23-7.95
		c0-2.38-2.34-2.03-5.23-0.66C16.39,94.46,10.29,103.11,10.29,101.66z"/>
	<g id="XMLID_4138_">
		<g id="XMLID_4139_">
			<path id="XMLID_4140_" fill="#C4372A" d="M30.77,91.43c-0.86-4.02-2.82-6.06-5.8-6.07c-0.17,0-0.35,0.01-0.53,0.02
				c-0.31-0.44-3.48,0.12-3.92,0.36c-0.22,0.12-3.97,4.11-10.39,13.44l-5.88-2.69C5.39,91.55,13.16,82,20.2,82h0.05
				c0.8,0,1.7,0.12,2.57,0.47c1.02,0.4,3.47,3.36,4.33,4.52L27.16,87C27.93,88.04,30.36,89.52,30.77,91.43z"/>
		</g>
	</g>
	<g id="XMLID_4141_">
		<g id="XMLID_4142_">
			
				<linearGradient id="XMLID_00000142163171485272066390000006588212226677329817_" gradientUnits="userSpaceOnUse" x1="6.5075" y1="-16346.124" x2="8.5445" y2="-16349.6523" gradientTransform="matrix(1 0 0 -1 0 -16252)">
				<stop  offset="0.1261" style="stop-color:#D9DEE2"/>
				<stop  offset="0.1272" style="stop-color:#DEE3E7"/>
				<stop  offset="0.4378" style="stop-color:#DEE3E7"/>
				<stop  offset="0.4407" style="stop-color:#BEC2C5"/>
				<stop  offset="0.8367" style="stop-color:#BEC2C5"/>
				<stop  offset="0.8387" style="stop-color:#A7AAAC"/>
			</linearGradient>
			<path id="XMLID_4143_" fill="url(#XMLID_00000142163171485272066390000006588212226677329817_)" d="M9.86,95.43v1.09
				c0,0.19-0.13,0.35-0.32,0.43c-0.16,0.07-1.05,0.61-1.23,0.53l-2.93-2.92C4.9,94.32,4.6,93.9,4.6,93.44l-1.56-0.53
				c0-0.17,0.95-0.5,1.09-0.59c0.02-0.01,0.04-0.02,0.05-0.03c0.17-0.08,0.38-0.09,0.57,0l4.32,2.03
				C9.57,94.55,9.86,94.97,9.86,95.43z"/>
			<path id="XMLID_4144_" fill="#828282" d="M8.79,95.95v1.09c0,0.37-0.48,0.6-0.87,0.42L3.6,95.42c-0.48-0.23-0.78-0.65-0.78-1.11
				v-1.09c0-0.37,0.48-0.6,0.87-0.42l4.32,2.03C8.49,95.07,8.79,95.49,8.79,95.95z"/>
		</g>
		<path id="XMLID_4145_" fill="#BDCEDF" d="M5.47,95.06c0,0.13-0.03,0.24-0.09,0.32c-0.17,0.25-0.58,0.3-1.04,0.07
			c-0.63-0.29-1.14-0.95-1.14-1.48c0-0.37,0.26-0.57,0.64-0.53c0.15,0.01,0.32,0.06,0.5,0.14C4.96,93.87,5.47,94.53,5.47,95.06z"/>
		<path id="XMLID_4146_" fill="#BDCEDF" d="M8,96.31c0,0.13-0.03,0.24-0.09,0.32c-0.18,0.25-0.58,0.3-1.05,0.08
			c-0.63-0.3-1.13-0.96-1.13-1.48c0-0.38,0.26-0.57,0.63-0.54c0.15,0.01,0.32,0.06,0.5,0.14C7.49,95.14,8,95.8,8,96.31z"/>
		<path id="XMLID_4147_" fill="#E2E9EC" d="M5.47,95.06c0,0.13-0.03,0.24-0.09,0.32c-0.15-0.01-0.32-0.06-0.5-0.14
			c-0.63-0.29-1.13-0.96-1.13-1.48c0-0.13,0.03-0.24,0.09-0.32c0.15,0.01,0.32,0.06,0.5,0.14C4.96,93.87,5.47,94.53,5.47,95.06z"/>
		<path id="XMLID_4148_" fill="#E2E9EC" d="M8,96.31c0,0.13-0.03,0.24-0.09,0.32c-0.15,0-0.32-0.05-0.5-0.13
			c-0.63-0.3-1.14-0.96-1.14-1.48c0-0.13,0.03-0.24,0.09-0.33c0.15,0.01,0.32,0.06,0.5,0.14C7.49,95.14,8,95.8,8,96.31z"/>
	</g>
	<polygon id="XMLID_8756_" fill="#AE6800" points="10,99.58 67.52,70.06 67.52,62.42 10,91.94 	"/>
	<polygon id="XMLID_8755_" fill="#74C7AC" points="27.3,88.79 42.04,83.2 42.04,78.2 25.1,86.24 	"/>
	<polygon id="XMLID_8754_" fill="#74C7AC" points="42.41,86.46 67.52,74.53 67.52,66.67 42.41,78.6 	"/>
	<polygon id="XMLID_8753_" fill="#74C7AC" points="67.52,62.75 43.52,74.14 43.52,76.34 67.52,64.94 	"/>
	<path id="XMLID_4519_" fill="#D9483D" d="M87.53,52.73L72.83,69.54l-29.3,4.6V53.7c0-1.67,1.85-5.1,3.08-6.43
		c4.6-4.99,6.77-6.65,11.53-8.51L87.53,52.73z"/>
	<path id="XMLID_4149_" fill="#B23625" d="M65.74,65.9c0-1.67,1.89-5.69,2.99-7.1c4.22-5.38,7.72-7.1,12.42-8.95v-0.91L62.75,41.1
		c-4.76,1.86-8.5,5.57-11.01,10.84c-0.74,1.56-2.06,4.45-2.06,6.12l-1.53,18.42l18.47-2.9L65.74,65.9z"/>
	<path id="XMLID_4150_" fill="#FF574C" d="M65.74,64.99c0-1.67,1.89-5.69,2.99-7.1c4.22-5.38,7.72-7.1,12.42-8.95l-18.39-8.74
		c-4.76,1.86-8.5,5.57-11.01,10.84c-0.74,1.56-2.06,4.45-2.06,6.12l-1.53,18.42l18.47-2.9L65.74,64.99z"/>
	<polygon id="XMLID_8749_" fill="#4F4F4F" points="35.1,114.77 88.13,89.45 88.13,84.43 35.1,107.58 	"/>
	<g id="XMLID_4151_">
		
			<linearGradient id="XMLID_00000095305913234144644630000012492734318816830382_" gradientUnits="userSpaceOnUse" x1="87.8653" y1="-16346.2334" x2="82.5027" y2="-16336.9453" gradientTransform="matrix(1 0 0 -1 0 -16252)">
			<stop  offset="0.1613" style="stop-color:#A7AAAC"/>
			<stop  offset="0.1633" style="stop-color:#BEC2C5"/>
			<stop  offset="0.5593" style="stop-color:#BEC2C5"/>
			<stop  offset="0.5622" style="stop-color:#DEE3E7"/>
			<stop  offset="0.8728" style="stop-color:#DEE3E7"/>
			<stop  offset="0.8739" style="stop-color:#D9DEE2"/>
		</linearGradient>
		<path id="XMLID_8748_" fill="url(#XMLID_00000095305913234144644630000012492734318816830382_)" d="M80.2,97.47l13.05-6.35
			c1.74-0.83,1.9-3.27,0.36-5.47c-1.54-2.2-4.2-3.31-5.94-2.48l-13.21,6.43L80.2,97.47z"/>
		<path id="XMLID_8747_" fill="#8D9296" d="M74.62,89.51c1.74-0.83,4.4,0.29,5.94,2.48s1.38,4.65-0.36,5.47
			c-1.74,0.83-4.4-0.29-5.94-2.48C72.72,92.79,72.88,90.34,74.62,89.51z"/>
		<path id="XMLID_8746_" fill="#80898A" d="M74.54,90.61c1.39-0.66,3.52,0.23,4.75,1.99c1.23,1.76,1.11,3.72-0.28,4.38
			c-1.39,0.66-3.52-0.23-4.75-1.99C73.03,93.23,73.15,91.27,74.54,90.61z"/>
	</g>
	<polygon id="XMLID_8744_" fill="#9FAAAB" points="54.5,107.84 71.44,99.79 71.44,94.79 54.5,102.84 	"/>
	<polygon id="XMLID_4152_" fill="#80898A" points="70.5,98.09 70.5,95.8 68.5,96.67 68.5,97.18 68.5,99.41 70.5,100.04 	"/>
	<polygon id="XMLID_8742_" fill="#DDE2E6" points="71.49,99.58 55.65,107.1 57.57,108.01 73.41,100.49 	"/>
	<polygon id="XMLID_8741_" fill="#BDC1C4" points="69.51,93.86 53.68,101.39 55.6,102.3 71.44,94.78 	"/>
	<polygon id="XMLID_8740_" fill="#888888" points="55.65,107.1 55.65,107.47 57.57,108.38 57.57,108.01 	"/>
	<polygon id="XMLID_8739_" fill="#B2B2B2" points="73.41,100.86 57.57,108.38 57.57,108.01 73.41,100.49 	"/>
	<polygon id="XMLID_8738_" fill="#DDE2E6" points="68.57,97.18 52.74,104.7 54.66,105.62 70.5,98.09 	"/>
	<polygon id="XMLID_8737_" fill="#B2B2B2" points="70.5,98.46 54.66,105.98 54.66,105.62 70.5,98.09 	"/>
	<polygon id="XMLID_4517_" fill="#B23625" points="56.87,100.56 72.93,92.93 72.93,67.41 57.6,74.91 58.04,79.03 58.87,77.77 
		56.87,88.36 	"/>
	<path id="XMLID_4088_" fill="#AA2513" d="M33.36,108.13l23.51-7.58V88.36c-5.89-2.57-23.51,8.2-23.51,8.2V108.13z"/>
	<path id="XMLID_4153_" fill="#3A4044" d="M61.5,108.39l-4.72-2.13c-0.36-1.63-0.88-2.94-1.61-3.92c0.18-0.02,0.36-0.02,0.53-0.02
		C58.68,102.34,60.64,104.38,61.5,108.39z"/>
	<g id="XMLID_4154_">
		
			<linearGradient id="XMLID_00000042734195105130150790000010484845378979245985_" gradientUnits="userSpaceOnUse" x1="52.5787" y1="-16352.6924" x2="42.2744" y2="-16370.54" gradientTransform="matrix(1 0 0 -1 0 -16252)">
			<stop  offset="0.1261" style="stop-color:#68737B"/>
			<stop  offset="0.1272" style="stop-color:#6C7880"/>
			<stop  offset="0.4378" style="stop-color:#6C7880"/>
			<stop  offset="0.4407" style="stop-color:#50585E"/>
			<stop  offset="0.8367" style="stop-color:#50585E"/>
			<stop  offset="0.8387" style="stop-color:#3B4145"/>
		</linearGradient>
		<path id="XMLID_8733_" fill="url(#XMLID_00000042734195105130150790000010484845378979245985_)" d="M37.42,113.26
			c0,1.69,0.71,2.91,1.91,3.57c1.6,0.88,5.02,2.41,5.02,2.41c4.81-2.29,14.26-10.22,14.26-14.18c0-1.72-4.51-3.02-5.74-3.68
			c-1.6-0.85-4.03-0.72-6.74,0.57C41.32,104.25,37.42,109.31,37.42,113.26z"/>
		<path id="XMLID_8732_" fill="#424852" d="M42.13,115.52c0,3.96,3.9,5.31,8.71,3.03c4.81-2.29,8.71-7.35,8.71-11.3
			c0-3.96-3.9-5.31-8.71-3.03C46.03,106.5,42.13,111.57,42.13,115.52z"/>
		
			<linearGradient id="XMLID_00000172400398429743652460000011127363174753598653_" gradientUnits="userSpaceOnUse" x1="53.8277" y1="-16357.3809" x2="47.1392" y2="-16368.9658" gradientTransform="matrix(1 0 0 -1 0 -16252)">
			<stop  offset="0.1261" style="stop-color:#DBE0E3"/>
			<stop  offset="0.1272" style="stop-color:#E0E5E8"/>
			<stop  offset="0.4378" style="stop-color:#E0E5E8"/>
			<stop  offset="0.4407" style="stop-color:#C0C4C6"/>
			<stop  offset="0.8367" style="stop-color:#C0C4C6"/>
			<stop  offset="0.8387" style="stop-color:#A8ABAD"/>
		</linearGradient>
		<path id="XMLID_8731_" fill="url(#XMLID_00000172400398429743652460000011127363174753598653_)" d="M44.7,113.92
			c0,2.63,2.59,3.53,5.78,2.01s5.78-4.88,5.78-7.5c0-2.63-2.59-3.53-5.78-2.01C47.29,107.93,44.7,111.29,44.7,113.92z"/>
		
			<ellipse id="XMLID_8730_" transform="matrix(0.7424 -0.6699 0.6699 0.7424 -61.5258 62.7495)" fill="#D7D9DB" cx="50.84" cy="111.39" rx="6.91" ry="3.98"/>
		
			<linearGradient id="XMLID_00000180360652495234645500000003490577683957378239_" gradientUnits="userSpaceOnUse" x1="53.7916" y1="-16358.2773" x2="47.8178" y2="-16368.624" gradientTransform="matrix(1 0 0 -1 0 -16252)">
			<stop  offset="0.1613" style="stop-color:#797B7D"/>
			<stop  offset="0.1633" style="stop-color:#919496"/>
			<stop  offset="0.5593" style="stop-color:#919496"/>
			<stop  offset="0.5622" style="stop-color:#B1B5B8"/>
			<stop  offset="0.8728" style="stop-color:#B1B5B8"/>
			<stop  offset="0.8739" style="stop-color:#ACB0B3"/>
		</linearGradient>
		<path id="XMLID_4155_" fill="url(#XMLID_00000180360652495234645500000003490577683957378239_)" d="M56.03,108.92
			c0,2.36-2.32,5.37-5.19,6.73c-2.86,1.35-5.19,0.55-5.19-1.8c0-0.26,0.03-0.53,0.09-0.8c0.43-2.2,2.56-4.72,5.1-5.93
			c0.21-0.1,0.42-0.19,0.62-0.26C54.03,105.88,56.03,106.74,56.03,108.92z"/>
		<path id="XMLID_4156_" fill="#E3E5E6" d="M53.51,108.68v0.03c0,1.79-1.76,4.06-3.93,5.09c-0.4,0.2-0.78,0.33-1.15,0.41
			c-1.21,0.27-2.17-0.04-2.56-0.84c-0.06-0.1-0.1-0.2-0.13-0.32c0.06-0.32,0.16-0.64,0.29-0.97c0.67-1.71,2.22-3.46,4.08-4.56
			c0.24-0.15,0.49-0.28,0.73-0.4c0.18-0.08,0.35-0.16,0.52-0.22c0.04-0.02,0.07-0.03,0.1-0.04
			C52.66,106.82,53.49,107.47,53.51,108.68z"/>
		
			<linearGradient id="XMLID_00000001641544495263792150000013022864806729097909_" gradientUnits="userSpaceOnUse" x1="51.5717" y1="-16359.0244" x2="47.3974" y2="-16366.2539" gradientTransform="matrix(1 0 0 -1 0 -16252)">
			<stop  offset="0.1261" style="stop-color:#ACB0B3"/>
			<stop  offset="0.1272" style="stop-color:#B1B5B8"/>
			<stop  offset="0.4378" style="stop-color:#B1B5B8"/>
			<stop  offset="0.4407" style="stop-color:#919496"/>
			<stop  offset="0.8367" style="stop-color:#919496"/>
			<stop  offset="0.8387" style="stop-color:#797B7D"/>
		</linearGradient>
		<path id="XMLID_4157_" fill="url(#XMLID_00000001641544495263792150000013022864806729097909_)" d="M53.15,108.23
			c0,1.75-2.69,4.94-4.82,5.97c-0.01,0.01-0.02,0.01-0.03,0.02c0,0-0.03-0.01-0.09-0.02c-0.1-0.02-0.19-0.03-0.28-0.07
			c-0.03-0.01-0.07-0.02-0.11-0.03c-0.47-0.14-1.23-0.38-1.95-0.72c-0.06-0.1-0.1-0.2-0.13-0.32c0.06-0.32,0.16-0.64,0.29-0.97
			c0.67-1.71,2.22-3.46,4.08-4.56c0.24-0.15,0.49-0.28,0.73-0.4c0.18-0.08,0.35-0.16,0.52-0.22c0.68,0.41,1.26,0.87,1.57,1.13
			c0,0,0,0,0.01,0.01C53.07,108.16,53.15,108.23,53.15,108.23z"/>
		<path id="XMLID_4158_" fill="#D9DBDD" d="M53.65,109.4c0,1.54-1.51,3.5-3.39,4.39c-1.86,0.88-3.39,0.36-3.39-1.18
			c0-0.17,0.02-0.35,0.06-0.52c0.28-1.43,1.67-3.08,3.33-3.87c0.14-0.06,0.27-0.12,0.4-0.17C52.35,107.42,53.65,107.98,53.65,109.4z
			"/>
		
			<linearGradient id="XMLID_00000114785245897870404250000013353276001132006567_" gradientUnits="userSpaceOnUse" x1="51.3448" y1="-16361.4531" x2="49.4369" y2="-16364.7578" gradientTransform="matrix(1 0 0 -1 0 -16252)">
			<stop  offset="0.1613" style="stop-color:#797B7D"/>
			<stop  offset="0.1633" style="stop-color:#919496"/>
			<stop  offset="0.5593" style="stop-color:#919496"/>
			<stop  offset="0.5622" style="stop-color:#B1B5B8"/>
			<stop  offset="0.8728" style="stop-color:#B1B5B8"/>
			<stop  offset="0.8739" style="stop-color:#ACB0B3"/>
		</linearGradient>
		<path id="XMLID_4159_" fill="url(#XMLID_00000114785245897870404250000013353276001132006567_)" d="M52.04,110.32
			c0,0.75-0.74,1.71-1.65,2.14c-0.91,0.43-1.65,0.17-1.65-0.57c0-0.08,0.01-0.17,0.03-0.25c0.14-0.7,0.81-1.5,1.62-1.89
			c0.07-0.03,0.13-0.06,0.2-0.08C51.41,109.35,52.04,109.63,52.04,110.32z"/>
		<path id="XMLID_4160_" fill="#E3E5E6" d="M50.63,110.5c0,0.3-0.3,0.68-0.66,0.86c-0.36,0.17-0.66,0.07-0.66-0.23
			c0-0.03,0-0.07,0.01-0.1c0.05-0.28,0.33-0.6,0.65-0.76c0.03-0.01,0.05-0.02,0.08-0.03C50.37,110.12,50.63,110.23,50.63,110.5z"/>
	</g>
	<path id="XMLID_4161_" fill="#DDE2E6" d="M59.76,85.86c-0.36,0-0.71-0.14-0.94-0.37c-0.23-0.23-0.31-0.53-0.23-0.83l1.27-6.92
		c0.26-0.98,0.98-1.83,1.99-2.36l4.29-2.25c0.22-0.12,0.48-0.18,0.73-0.18c0.76,0,1.37,0.51,1.37,1.13v6.23c0,1.04-0.68,2-1.77,2.52
		l-6.11,2.9C60.17,85.81,59.96,85.86,59.76,85.86L59.76,85.86z"/>
	<path id="XMLID_8721_" fill="#6BA9B0" d="M60.16,85.44l6.12-2.9c0.97-0.46,1.57-1.31,1.57-2.24v-6.23c0-0.63-0.85-1.01-1.5-0.67
		l-4.29,2.25c-0.93,0.49-1.58,1.25-1.81,2.14l-1.27,6.94C58.82,85.29,59.55,85.73,60.16,85.44z"/>
	<path id="XMLID_4162_" fill="#DDE2E6" d="M60.09,95.12c-0.62,0-1.13-0.42-1.13-0.93v-4.76c0-0.49,0.32-0.94,0.83-1.18l2.33-1.11
		c0.17-0.08,0.37-0.13,0.56-0.13c0.62,0,1.13,0.42,1.13,0.93v4.76c0,0.49-0.32,0.94-0.83,1.18L60.65,95
		C60.48,95.08,60.29,95.12,60.09,95.12z"/>
	<path id="XMLID_8719_" fill="#4E98A1" d="M62.79,93.61l-2.33,1.11c-0.49,0.23-1.1-0.06-1.1-0.52v-4.76c0-0.37,0.24-0.72,0.63-0.9
		l2.33-1.11c0.49-0.23,1.1,0.06,1.1,0.52v4.76C63.42,93.08,63.18,93.42,62.79,93.61z"/>
	<polygon id="XMLID_8718_" fill="#DDE2E6" points="87.5,83.14 69.7,91.65 69.7,93.85 70.34,94.17 88.13,83.47 	"/>
	<polygon id="XMLID_8717_" fill="#A6A9AB" points="88.13,83.47 70.34,91.98 70.34,94.17 88.13,85.66 	"/>
	<g id="XMLID_4163_">
		<path id="XMLID_4164_" fill="#80898A" d="M74.55,91.01l-0.01,0.35c0,0.16-0.11,0.3-0.27,0.38l-1.81,0.87
			c-0.15,0.07-0.33-0.02-0.32-0.15l0-0.1l1.51-0.72c0.17-0.08,0.27-0.22,0.27-0.38l0-0.25l0.29-0.14
			C74.37,90.79,74.55,90.87,74.55,91.01z"/>
		<path id="XMLID_4165_" fill="#EAC72F" d="M73.93,90.99l0,0.25c0,0.16-0.11,0.3-0.27,0.38l-1.51,0.72l0-0.25
			c0-0.16,0.11-0.3,0.27-0.38L73.93,90.99z"/>
	</g>
	<g id="XMLID_4166_">
		<path id="XMLID_4167_" fill="#80898A" d="M87.29,84.81l-0.01,0.35c0,0.16-0.11,0.3-0.27,0.38l-1.81,0.87
			c-0.15,0.07-0.33-0.02-0.32-0.15l0-0.1l1.51-0.72c0.17-0.08,0.27-0.22,0.27-0.38l0-0.25l0.29-0.14
			C87.12,84.59,87.3,84.67,87.29,84.81z"/>
		<path id="XMLID_4168_" fill="#EAC72F" d="M86.68,84.8l0,0.25c0,0.16-0.11,0.3-0.27,0.38l-1.51,0.72l0-0.25
			c0-0.16,0.11-0.3,0.27-0.38L86.68,84.8z"/>
	</g>
	<g id="XMLID_4169_">
		<path id="XMLID_4170_" fill="#80898A" d="M83.05,86.87l-0.01,0.35c0,0.16-0.11,0.3-0.27,0.38l-1.81,0.87
			c-0.15,0.07-0.33-0.02-0.32-0.15l0-0.1l1.51-0.72c0.17-0.08,0.27-0.22,0.27-0.38l0-0.25l0.29-0.14
			C82.87,86.65,83.05,86.74,83.05,86.87z"/>
		<path id="XMLID_4171_" fill="#EAC72F" d="M82.43,86.86l0,0.25c0,0.16-0.11,0.3-0.27,0.38l-1.51,0.72l0-0.25
			c0-0.16,0.11-0.3,0.27-0.38L82.43,86.86z"/>
	</g>
	<g id="XMLID_4172_">
		<path id="XMLID_4173_" fill="#80898A" d="M78.8,88.94l-0.01,0.35c0,0.16-0.11,0.3-0.27,0.38l-1.81,0.87
			c-0.15,0.07-0.33-0.02-0.32-0.15l0-0.1l1.51-0.72c0.17-0.08,0.27-0.22,0.27-0.38l0-0.25l0.29-0.14
			C78.62,88.72,78.8,88.81,78.8,88.94z"/>
		<path id="XMLID_4174_" fill="#EAC72F" d="M78.18,88.93l0,0.25c0,0.16-0.11,0.3-0.27,0.38l-1.51,0.72l0-0.25
			c0-0.16,0.11-0.3,0.27-0.38L78.18,88.93z"/>
	</g>
	<path id="XMLID_4175_" fill="#FF7660" d="M28.64,62.44c0.39,6.98,31.66,20.7,29.4,13.97c-0.66-1.98,14.88-8.65,14.88-8.65
		s-16.81-4.78-29.4-13.97C43.52,53.79,28.43,58.69,28.64,62.44z"/>
	<path id="XMLID_4176_" fill="#B23625" d="M66.49,65.59c-5.51-2.04-13.67-5.09-20.88-9.93c-5.29,2.17-15.45,6.7-15.29,9.47
		c0.02,0.36,0.12,0.73,0.26,1.1c3.52,3.69,11.24,7.93,17.63,10.38c2.91,0.44,4.78-0.12,4.06-2.23
		C51.68,72.65,63.87,67.41,66.49,65.59z"/>
	<path id="XMLID_4177_" fill="#FF8C6F" d="M66.49,65.59c-5.51-2.04-13.67-5.52-20.88-10.35c-5.29,2.17-15.45,6.7-15.29,9.47
		c0.02,0.36,0.12,0.73,0.26,1.1c3.52,3.69,11.24,7.93,17.63,10.38c2.91,0.44,4.78-0.12,4.06-2.23
		C51.68,72.22,63.53,66.89,66.49,65.59z"/>
	<path id="XMLID_4178_" fill="#FF6056" d="M56.57,88.41c-5.94,1.38-21.22,6.87-21.22,6.87L12.74,84.13c0,0,6.09-3.74,14.71-9.74
		c6.44-4.48,28.09,12.93,29.35,13.92C56.73,88.34,56.65,88.38,56.57,88.41z"/>
	<polygon id="XMLID_4087_" fill="#B23625" points="50.54,85.85 30.85,95.57 14.6,85.43 33.12,72.92 	"/>
	<polygon id="XMLID_4086_" fill="#FF7660" points="52.81,84.66 30.85,94.88 14.6,84.74 33.12,72.23 	"/>
	<polygon id="XMLID_4082_" fill="#FF8C6F" points="50.72,80.84 28.68,92.99 14.49,87.7 36.21,74.07 	"/>
	<path id="XMLID_8697_" fill="#C6D4D4" d="M20.75,88.91l3.66-2.35c-3.1-1.72-7.03-2.48-9.35-2.8c-1.19-0.16-2.39,0.21-3.17,0.98
		l-1.36,1.34L20.75,88.91z"/>
	<path id="XMLID_4179_" fill="#E1F0F0" d="M36.45,96.71v9.95l-3.1,1.48l-0.54-11.21l-0.02-0.42l-12.05-7.6l3.66-2.35
		c2.58,0.95,7.45,4.51,10.14,6.56c0.87,0.67,1.48,1.53,1.74,2.46C36.39,95.94,36.45,96.32,36.45,96.71z"/>
	<path id="XMLID_4180_" fill="#CEDBDB" d="M36.45,96.71v9.95l-3.1,1.48l-0.54-11.21l3.46-1.35C36.39,95.94,36.45,96.32,36.45,96.71z
		"/>
	<path id="XMLID_4181_" fill="#99AFBA" d="M12.2,85.64l2.82,0.44c4.33,1.2,8.38,3.02,11.95,5.36l5.19,4
		c0.76,0.59,1.19,1.4,1.19,2.26v16.41L10,103.05V87.14C10,86.19,11.06,85.47,12.2,85.64z"/>
	<polygon id="XMLID_4182_" fill="#E1F0F0" points="2.73,95.56 39.9,113.2 42.21,112.88 43.34,113.42 40.63,114.79 1.42,96.18 	"/>
	<path id="XMLID_4183_" fill="#99AFBA" d="M43.34,113.42l-0.83,7.22l-0.68,0.34c-0.41,0.2-0.86,0.3-1.32,0.28
		c-0.38-0.01-0.75-0.09-1.08-0.24L2.28,103.38c-0.54-0.24-0.86-0.71-0.86-1.22v-5.98l38,18.04c0.33,0.16,0.7,0.24,1.08,0.24
		c0.46,0.02,0.91-0.07,1.32-0.28L43.34,113.42z"/>
	<path id="XMLID_4184_" fill="#CEDBDB" d="M43.34,113.42l-0.83,7.22l-0.68,0.34c-0.41,0.2-0.86,0.3-1.32,0.28v-6.8
		c0.46,0.02,0.91-0.07,1.32-0.28L43.34,113.42z"/>
	<path id="XMLID_4185_" fill="#D84E42" d="M42.5,119.55l-0.68,0.34c-0.73,0.37-1.66,0.38-2.4,0.03l-38-18.04v0.28
		c0,0.5,0.33,0.97,0.86,1.22l37.14,17.63c0.75,0.35,1.67,0.34,2.4-0.03l0.68-0.34l0.13-1.15L42.5,119.55z"/>
	<polygon id="XMLID_4186_" fill="#E1F0F0" points="7.9,106.03 4.27,104.32 4.27,103.23 7.9,104.95 	"/>
	<g id="XMLID_4187_">
		
			<linearGradient id="XMLID_00000039115551530476003360000013770456834341588096_" gradientUnits="userSpaceOnUse" x1="51.8234" y1="-16350.9346" x2="58.1076" y2="-16350.9346" gradientTransform="matrix(1 0 0 -1 0 -16252)">
			<stop  offset="0.1613" style="stop-color:#A7AAAC"/>
			<stop  offset="0.1633" style="stop-color:#BEC2C5"/>
			<stop  offset="0.5593" style="stop-color:#BEC2C5"/>
			<stop  offset="0.5622" style="stop-color:#DEE3E7"/>
			<stop  offset="0.8728" style="stop-color:#DEE3E7"/>
			<stop  offset="0.8739" style="stop-color:#D9DEE2"/>
		</linearGradient>
		<path id="XMLID_4188_" fill="url(#XMLID_00000039115551530476003360000013770456834341588096_)" d="M51.82,97.71v0.84
			c0,0.93,1.41,1.68,3.14,1.68s3.14-0.75,3.14-1.68v-0.93L51.82,97.71z"/>
		
			<linearGradient id="XMLID_00000008859657663123659210000006314764164039355567_" gradientUnits="userSpaceOnUse" x1="51.4705" y1="-16349.7402" x2="58.4604" y2="-16349.7402" gradientTransform="matrix(1 0 0 -1 0 -16252)">
			<stop  offset="0.1613" style="stop-color:#BCC0C2"/>
			<stop  offset="0.1633" style="stop-color:#D3D7DB"/>
			<stop  offset="0.5593" style="stop-color:#D3D7DB"/>
			<stop  offset="0.5622" style="stop-color:#F3F8FD"/>
			<stop  offset="0.8728" style="stop-color:#F3F8FD"/>
			<stop  offset="0.8739" style="stop-color:#EEF3F8"/>
		</linearGradient>
		<path id="XMLID_4189_" fill="url(#XMLID_00000008859657663123659210000006314764164039355567_)" d="M51.47,96.38v0.94
			c0,1.03,1.56,1.87,3.49,1.87c1.93,0,3.49-0.84,3.49-1.87v-1.03L51.47,96.38z"/>
		<path id="XMLID_4190_" fill="#BFCCCC" d="M58.46,96.38c0,1.03-1.56,1.87-3.49,1.87c-1.93,0-3.49-0.84-3.49-1.87
			c0-1.03,1.56-1.87,3.49-1.87C56.9,94.51,58.46,95.35,58.46,96.38z"/>
		
			<linearGradient id="XMLID_00000050649106632960517700000000315992485560505258_" gradientUnits="userSpaceOnUse" x1="51.8234" y1="-16347.6914" x2="58.1076" y2="-16347.6914" gradientTransform="matrix(1 0 0 -1 0 -16252)">
			<stop  offset="0.1613" style="stop-color:#A7AAAC"/>
			<stop  offset="0.1633" style="stop-color:#BEC2C5"/>
			<stop  offset="0.5593" style="stop-color:#BEC2C5"/>
			<stop  offset="0.5622" style="stop-color:#DEE3E7"/>
			<stop  offset="0.8728" style="stop-color:#DEE3E7"/>
			<stop  offset="0.8739" style="stop-color:#D9DEE2"/>
		</linearGradient>
		<path id="XMLID_4191_" fill="url(#XMLID_00000050649106632960517700000000315992485560505258_)" d="M51.82,93.73v2.32
			c0,0.93,1.41,1.68,3.14,1.68s3.14-0.75,3.14-1.68v-2.41L51.82,93.73z"/>
		
			<linearGradient id="XMLID_00000128465400068787226740000010519968452776651649_" gradientUnits="userSpaceOnUse" x1="51.4705" y1="-16345.4297" x2="58.4604" y2="-16345.4297" gradientTransform="matrix(1 0 0 -1 0 -16252)">
			<stop  offset="0.1613" style="stop-color:#BCC0C2"/>
			<stop  offset="0.1633" style="stop-color:#D3D7DB"/>
			<stop  offset="0.5593" style="stop-color:#D3D7DB"/>
			<stop  offset="0.5622" style="stop-color:#F3F8FD"/>
			<stop  offset="0.8728" style="stop-color:#F3F8FD"/>
			<stop  offset="0.8739" style="stop-color:#EEF3F8"/>
		</linearGradient>
		<path id="XMLID_4192_" fill="url(#XMLID_00000128465400068787226740000010519968452776651649_)" d="M51.47,92.07v0.94
			c0,1.03,1.56,1.87,3.49,1.87c1.93,0,3.49-0.84,3.49-1.87v-1.03L51.47,92.07z"/>
		<path id="XMLID_4193_" fill="#BFCCCC" d="M58.46,92.07c0,1.03-1.56,1.87-3.49,1.87c-1.93,0-3.49-0.84-3.49-1.87
			c0-1.03,1.56-1.87,3.49-1.87C56.9,90.2,58.46,91.04,58.46,92.07z"/>
		
			<linearGradient id="XMLID_00000143575995265872893770000007104934325918042261_" gradientUnits="userSpaceOnUse" x1="51.8234" y1="-16344.252" x2="58.1076" y2="-16344.252" gradientTransform="matrix(1 0 0 -1 0 -16252)">
			<stop  offset="0.1613" style="stop-color:#A7AAAC"/>
			<stop  offset="0.1633" style="stop-color:#BEC2C5"/>
			<stop  offset="0.5593" style="stop-color:#BEC2C5"/>
			<stop  offset="0.5622" style="stop-color:#DEE3E7"/>
			<stop  offset="0.8728" style="stop-color:#DEE3E7"/>
			<stop  offset="0.8739" style="stop-color:#D9DEE2"/>
		</linearGradient>
		<path id="XMLID_4194_" fill="url(#XMLID_00000143575995265872893770000007104934325918042261_)" d="M51.82,91.03v0.84
			c0,0.93,1.41,1.68,3.14,1.68s3.14-0.75,3.14-1.68v-0.93L51.82,91.03z"/>
		<path id="XMLID_4195_" fill="#E1F0F0" d="M58.11,91.03c0,0.93-1.41,1.68-3.14,1.68s-3.14-0.75-3.14-1.68
			c0-0.93,1.41-1.68,3.14-1.68S58.11,90.1,58.11,91.03z"/>
	</g>
	<g id="XMLID_4196_">
		<path id="XMLID_4197_" fill="#D9483D" d="M61.5,108.39c-0.35-1.58-0.85-2.86-1.54-3.83c-1.02-1.49-2.46-2.24-4.27-2.24
			c-0.17,0-0.35,0.01-0.53,0.02c-0.31-0.44-3.47,0.12-3.92,0.37c-0.16,0.08-3.13,1.34-7.03,5.07c-1.83,1.75-1.66,2.77-3.72,5.74
			l-7.45-3.41c0.5-2.14,2.99-4.74,6.24-7.02c4.28-3,7.65-4.13,11.64-4.13h0.05c0.8,0,1.7,0.12,2.57,0.47
			c1.02,0.4,5.68,2.07,6.54,3.23l0.01,0.01c0.21,0.28,0.37,0.67,0.51,1.14C61,105.12,61.2,106.99,61.5,108.39z"/>
	</g>
	<path id="XMLID_4198_" fill="#FF574C" d="M60.61,103.81c-0.22,0.24-0.43,0.5-0.64,0.75c-1.02-1.49-2.46-2.24-4.27-2.24
		c-0.17,0-0.35,0.01-0.53,0.02c-0.31-0.44-3.47,0.12-3.92,0.37c-0.16,0.08-3.13,1.34-7.03,5.07l-4.93-4.69
		c4.28-3,7.65-4.13,11.64-4.13h0.05c0.8,0,1.7,0.12,2.57,0.47c1.02,0.4,5.68,2.07,6.54,3.23l0.01,0.01
		C60.31,102.95,60.47,103.34,60.61,103.81z"/>
	<polygon id="XMLID_4199_" fill="#B03A28" points="49.09,100.66 47.57,101.38 46.35,100.8 47.88,100.08 	"/>
	<g id="XMLID_4200_">
		<path id="XMLID_4201_" fill="#B23625" d="M62.97,108.18l-1.47,0.21c-0.86-4.02-2.82-6.06-5.8-6.07c-0.17,0-0.35,0.01-0.53,0.02
			c-6.03,0.44-11.96,6.22-12.96,10.53l-1.71,0.65c1.06-4.58,6.84-11.19,13.62-12.3c0.53-0.08,1.04-0.13,1.55-0.13h0.04
			c1.39,0.01,3,0.36,4.39,1.57l0.01,0.01C61.33,103.73,62.37,105.46,62.97,108.18z"/>
	</g>
	<polygon id="XMLID_4202_" fill="#D9483D" points="58.87,77.77 56.87,88.36 40.24,81.75 38.5,81.08 38.22,80.98 27.46,74.39 
		29.8,63.31 41.1,69.97 42.8,70.78 	"/>
	<polygon id="XMLID_4203_" fill="#538B94" points="58.07,78.02 56.17,87.2 40.24,80.85 38.49,80.18 38.45,80.17 28.57,74.06 
		30.46,64.9 31.86,65.57 38.13,68.55 41.1,69.96 42.8,70.77 	"/>
	<polygon id="XMLID_4204_" fill="#75A2A9" points="42.22,78.94 40.47,78.28 40.43,78.26 30.55,72.16 28.78,73.04 28.57,74.06 
		38.45,80.17 38.49,80.18 40.24,80.85 56.17,87.2 56.69,84.7 	"/>
	<path id="XMLID_4205_" fill="#B5D6C7" d="M38.13,68.55c-0.15,0.11-0.31,0.2-0.49,0.29l-6.12,2.91c-0.61,0.29-1.34-0.15-1.19-0.71
		l1.28-4.82c0.06-0.22,0.14-0.44,0.26-0.64L38.13,68.55z"/>
	<g id="XMLID_4206_">
		<polygon id="XMLID_4207_" fill="#CF9219" points="49.86,100.31 48.33,101.03 47.11,100.46 48.64,99.74 		"/>
		<polygon id="XMLID_4208_" fill="#EAC72F" points="49.86,100.31 49.86,101.02 48.33,101.74 48.33,101.03 49.86,100.31 		"/>
		<polygon id="XMLID_4209_" fill="#B06A00" points="48.33,101.03 48.33,101.74 47.11,101.17 47.11,100.46 		"/>
	</g>
	<g id="XMLID_4210_">
		<g id="XMLID_4211_">
			
				<linearGradient id="XMLID_00000168097847985674477150000009558103334660240308_" gradientUnits="userSpaceOnUse" x1="36.9227" y1="-16360.5752" x2="38.9597" y2="-16364.1035" gradientTransform="matrix(1 0 0 -1 0 -16252)">
				<stop  offset="0.1261" style="stop-color:#D9DEE2"/>
				<stop  offset="0.1272" style="stop-color:#DEE3E7"/>
				<stop  offset="0.4378" style="stop-color:#DEE3E7"/>
				<stop  offset="0.4407" style="stop-color:#BEC2C5"/>
				<stop  offset="0.8367" style="stop-color:#BEC2C5"/>
				<stop  offset="0.8387" style="stop-color:#A7AAAC"/>
			</linearGradient>
			<path id="XMLID_4212_" fill="url(#XMLID_00000168097847985674477150000009558103334660240308_)" d="M40.28,109.88v1.09
				c0,0.19-0.13,0.35-0.32,0.43c-0.16,0.07-1.05,0.61-1.23,0.53L35.8,109c-0.48-0.23-0.78-0.65-0.78-1.11l-1.56-0.53
				c0-0.17,0.95-0.5,1.09-0.59c0.02-0.01,0.04-0.02,0.05-0.03c0.17-0.08,0.38-0.09,0.57,0l4.32,2.03
				C39.98,109,40.28,109.42,40.28,109.88z"/>
			<path id="XMLID_4213_" fill="#828282" d="M39.2,110.4v1.09c0,0.37-0.48,0.6-0.87,0.42l-4.32-2.03c-0.48-0.23-0.78-0.65-0.78-1.11
				v-1.09c0-0.37,0.48-0.6,0.87-0.42l4.32,2.03C38.91,109.52,39.2,109.94,39.2,110.4z"/>
		</g>
		<path id="XMLID_4214_" fill="#BDCEDF" d="M35.88,109.51c0,0.13-0.03,0.24-0.09,0.32c-0.17,0.25-0.58,0.3-1.04,0.07
			c-0.64-0.29-1.14-0.96-1.14-1.48c0-0.37,0.26-0.57,0.64-0.53c0.15,0.01,0.32,0.06,0.5,0.14
			C35.38,108.32,35.88,108.98,35.88,109.51z"/>
		<path id="XMLID_4215_" fill="#BDCEDF" d="M38.41,110.76c0,0.13-0.03,0.24-0.09,0.32c-0.18,0.25-0.58,0.3-1.05,0.08
			c-0.63-0.3-1.13-0.96-1.13-1.48c0-0.38,0.26-0.57,0.63-0.54c0.15,0.01,0.32,0.06,0.5,0.14C37.91,109.59,38.41,110.25,38.41,110.76
			z"/>
		<path id="XMLID_4216_" fill="#E2E9EC" d="M35.88,109.51c0,0.13-0.03,0.24-0.09,0.32c-0.15-0.01-0.32-0.06-0.5-0.14
			c-0.63-0.29-1.13-0.95-1.13-1.48c0-0.13,0.03-0.24,0.09-0.32c0.15,0.01,0.32,0.06,0.5,0.14
			C35.38,108.32,35.88,108.98,35.88,109.51z"/>
		<path id="XMLID_4217_" fill="#E2E9EC" d="M38.41,110.76c0,0.13-0.03,0.24-0.09,0.32c-0.15,0-0.32-0.05-0.5-0.13
			c-0.63-0.3-1.14-0.96-1.14-1.48c0-0.13,0.03-0.24,0.09-0.33c0.15,0.01,0.32,0.06,0.5,0.14C37.91,109.59,38.41,110.25,38.41,110.76
			z"/>
	</g>
	<polygon id="XMLID_4218_" fill="#D9483D" points="42.8,70.77 42.8,70.78 40.24,80.85 39.96,81.64 38.22,80.97 38.49,80.18 
		41.1,69.97 41.1,69.96 	"/>
	<g id="XMLID_4219_">
		
			<linearGradient id="XMLID_00000111168371003776835270000000507839636616658872_" gradientUnits="userSpaceOnUse" x1="69.7028" y1="-16332.4297" x2="73.8059" y2="-16332.4297" gradientTransform="matrix(1 0 0 -1 0 -16252)">
			<stop  offset="0.1613" style="stop-color:#A7AAAC"/>
			<stop  offset="0.1633" style="stop-color:#BEC2C5"/>
			<stop  offset="0.5593" style="stop-color:#BEC2C5"/>
			<stop  offset="0.5622" style="stop-color:#DEE3E7"/>
			<stop  offset="0.8728" style="stop-color:#DEE3E7"/>
			<stop  offset="0.8739" style="stop-color:#D9DEE2"/>
		</linearGradient>
		<path id="XMLID_4220_" fill="url(#XMLID_00000111168371003776835270000000507839636616658872_)" d="M69.7,67.97v23.87
			c0,0.61,0.92,1.1,2.05,1.1c1.13,0,2.05-0.49,2.05-1.1V67.92L69.7,67.97z"/>
		<path id="XMLID_4221_" fill="#E1F0F0" d="M73.81,67.97c0,0.61-0.92,1.1-2.05,1.1c-1.13,0-2.05-0.49-2.05-1.1s0.92-1.1,2.05-1.1
			C72.89,66.88,73.81,67.37,73.81,67.97z"/>
		<g id="XMLID_4222_">
			<path id="XMLID_4223_" fill="#B9C6C7" d="M75.13,58.73c0.13,1.2-1.01,1.86-1.01,1.86l-0.55,0.37c-0.48,0.31-0.75,0.79-0.75,1.29
				v5.45c-0.11,0.26-0.55,0.45-1.07,0.45c-0.5,0-0.91-0.17-1.04-0.42v-5.93c0-0.87,0.48-1.69,1.29-2.24l2.26-1.68
				C74.26,57.89,75.03,57.74,75.13,58.73z"/>
			<path id="XMLID_4224_" fill="#DDE2E6" d="M71.14,68.02v-5.93c0-0.87,0.48-1.69,1.29-2.24l2.26-1.68c0,0,0.11-0.02,0.26,0.01
				c-0.26-0.37-0.69-0.29-0.69-0.29L72,59.58c-0.81,0.55-1.29,1.36-1.29,2.24v5.93c0.07,0.14,0.25,0.25,0.47,0.33
				C71.17,68.05,71.15,68.03,71.14,68.02z"/>
			<path id="XMLID_4225_" fill="#A6A9AB" d="M74.78,59.98l-1.21,0.9c-0.81,0.55-1.29,1.36-1.29,2.24v4.96
				c0.27-0.08,0.47-0.21,0.54-0.37v-5.45c0-0.5,0.28-0.98,0.75-1.29l0.55-0.37C74.12,60.6,74.48,60.38,74.78,59.98z"/>
		</g>
	</g>
	<path id="XMLID_4226_" fill="#A83832" d="M28.64,62.44c0,0,0.42,0.96,0.83,1.37c5.38,5.4,29.4,13.97,29.4,13.97l-0.83-1.37
		C58.04,76.41,35.06,67.76,28.64,62.44z"/>
	<g id="XMLID_4227_">
		<path id="XMLID_8648_" fill="#A93E38" d="M38.83,61.05l-0.79,0.42c-0.22,0.11-0.23,0.31-0.46,0.2l-0.35-0.23
			c-0.24-0.12-0.51-0.54-0.27-0.66l0.8-0.41c0.22-0.11,1.08-0.42,1.31-0.32l0.09,0.03C39.39,60.2,39.06,60.94,38.83,61.05z"/>
		<path id="XMLID_8647_" fill="#ED8333" d="M39.96,61.15l-1.27,0.66c-0.24,0.12-0.55,0.13-0.8,0.01l-0.3-0.14
			c-0.27-0.13,0.08-1.05,0.35-1.19l0.91-0.07c0.24-0.12,0.62-0.44,0.87-0.32l0.21,0.13C40.18,60.35,40.22,61.01,39.96,61.15z"/>
		<path id="XMLID_8646_" fill="#EDBD51" d="M39.64,60.56l-0.79,0.42c-0.22,0.11-0.49,0.11-0.72,0.01l-0.1-0.03
			c-0.24-0.12-0.25-0.41-0.02-0.53l0.8-0.41c0.22-0.11,0.49-0.11,0.72,0l0.09,0.03C39.86,60.15,39.87,60.44,39.64,60.56z"/>
	</g>
	<g id="XMLID_4228_">
		<path id="XMLID_8644_" fill="#A93E38" d="M46.08,64.51l-0.79,0.42c-0.22,0.11-0.23,0.31-0.46,0.2l-0.35-0.23
			c-0.24-0.12-0.51-0.54-0.27-0.66l0.8-0.41c0.22-0.11,1.08-0.42,1.31-0.32l0.09,0.03C46.64,63.66,46.32,64.4,46.08,64.51z"/>
		<path id="XMLID_8643_" fill="#ED8333" d="M47.21,64.6l-1.27,0.66c-0.24,0.12-0.55,0.13-0.8,0.01l-0.3-0.14
			c-0.27-0.13,0.08-1.05,0.35-1.19l0.91-0.07c0.24-0.12,0.62-0.44,0.87-0.32l0.21,0.13C47.44,63.81,47.47,64.47,47.21,64.6z"/>
		<path id="XMLID_8642_" fill="#EDBD51" d="M46.89,64.02l-0.79,0.42c-0.22,0.11-0.49,0.11-0.72,0.01l-0.1-0.03
			c-0.24-0.12-0.25-0.41-0.02-0.53l0.8-0.41c0.22-0.11,0.49-0.11,0.72,0l0.09,0.03C47.11,63.61,47.12,63.9,46.89,64.02z"/>
	</g>
	<g id="XMLID_4229_">
		<path id="XMLID_8640_" fill="#A93E38" d="M53.34,67.97l-0.79,0.42c-0.22,0.11-0.23,0.31-0.46,0.2l-0.35-0.23
			c-0.24-0.12-0.51-0.54-0.27-0.66l0.8-0.41c0.22-0.11,1.08-0.42,1.31-0.32L53.65,67C53.9,67.12,53.57,67.86,53.34,67.97z"/>
		<path id="XMLID_8639_" fill="#ED8333" d="M54.46,68.06l-1.27,0.66c-0.24,0.12-0.55,0.13-0.81,0.01l-0.3-0.14
			c-0.27-0.13,0.08-1.05,0.35-1.19l0.91-0.07c0.24-0.12,0.62-0.44,0.87-0.32l0.21,0.13C54.69,67.27,54.73,67.93,54.46,68.06z"/>
		<path id="XMLID_8638_" fill="#EDBD51" d="M54.14,67.48l-0.79,0.42c-0.22,0.11-0.49,0.11-0.72,0.01l-0.1-0.03
			c-0.24-0.12-0.25-0.41-0.02-0.53l0.8-0.41c0.22-0.11,0.49-0.11,0.72,0l0.09,0.03C54.37,67.07,54.38,67.36,54.14,67.48z"/>
	</g>
	<path id="XMLID_4230_" fill="#CF5633" d="M22.98,90.83c0,0.13-0.05,0.23-0.14,0.3c-0.28,0.22-0.91,0.21-1.66-0.1
		c-0.99-0.41-1.79-1.15-1.79-1.67c0-0.38,0.41-0.53,1-0.43c0.24,0.03,0.5,0.11,0.78,0.22C22.18,89.57,22.98,90.31,22.98,90.83z"/>
	<path id="XMLID_8635_" fill="#7895A4" d="M12.8,99.41l17.18,8.13c0.54,0.26,1.22-0.07,1.22-0.58V98.2c0-0.59-0.38-1.14-1.01-1.43
		l-17.18-8.13c-0.54-0.26-1.22,0.07-1.22,0.58v8.76C11.8,98.57,12.18,99.12,12.8,99.41z"/>
	<path id="XMLID_4231_" fill="#CEDBDB" d="M30.4,107.39l-17.18-8.13c-0.62-0.3-1.01-0.84-1.01-1.43v-8.76
		c0-0.21,0.12-0.39,0.29-0.51c-0.38,0.05-0.7,0.3-0.7,0.66v8.76c0,0.59,0.38,1.14,1.01,1.43l17.18,8.13
		c0.32,0.15,0.69,0.1,0.93-0.08C30.75,107.48,30.56,107.46,30.4,107.39z"/>
	<g id="XMLID_4232_">
		<path id="XMLID_4081_" fill="#B23625" d="M87.53,83.81l-14.6,6.92V70.49c0-1.81,0.41-3.88,1.26-5.56
			c1.67-3.31,8.72-11.14,13.35-12.2V83.81z"/>
	</g>
	<polygon id="XMLID_4233_" fill="#E1F0F0" points="15.17,109.47 11.54,107.75 11.54,106.67 15.17,108.39 	"/>
	<polygon id="XMLID_4234_" fill="#E1F0F0" points="22.44,112.91 18.81,111.19 18.81,110.1 22.44,111.82 	"/>
	<polygon id="XMLID_4235_" fill="#E1F0F0" points="29.71,116.34 26.08,114.63 26.08,113.54 29.71,115.26 	"/>
	<polygon id="XMLID_4236_" fill="#E1F0F0" points="36.99,119.78 33.35,118.06 33.35,116.98 36.99,118.7 	"/>
	<g id="XMLID_4237_">
		<path id="XMLID_4238_" fill="#8B8B8B" d="M14.68,108.76c-0.53-0.26-0.96-0.85-0.96-1.33l0-2.43c0-0.48,0.43-0.66,0.96-0.4
			l7.13,3.43c0.53,0.25,0.96,0.85,0.96,1.33l0,2.43c0,0.48-0.43,0.66-0.96,0.4L14.68,108.76z"/>
		<path id="XMLID_4239_" fill="#F9FCFC" d="M14.96,108.35c-0.53-0.26-0.96-0.85-0.96-1.33l0-2.43c0-0.48,0.43-0.66,0.96-0.4
			l7.13,3.43c0.53,0.25,0.96,0.85,0.96,1.33l0,2.43c0,0.48-0.43,0.66-0.96,0.4L14.96,108.35z"/>
		<path id="XMLID_4240_" fill="#E0E0E0" d="M14.68,108.43c-0.53-0.26-0.96-0.85-0.96-1.33l0-2.43c0-0.48,0.43-0.66,0.96-0.4
			l7.13,3.43c0.53,0.25,0.96,0.85,0.96,1.33l0,2.43c0,0.48-0.43,0.66-0.96,0.4L14.68,108.43z"/>
		<path id="XMLID_4241_" fill="#F8FFFF" d="M21.81,111.69l-7.13-3.43c-0.43-0.21-0.78-0.69-0.78-1.08l0-2.43
			c0-0.39,0.35-0.53,0.78-0.33l7.13,3.43c0.43,0.21,0.78,0.69,0.78,1.08l0,2.43C22.6,111.75,22.25,111.9,21.81,111.69z"/>
		<g id="XMLID_4242_">
			<path id="XMLID_4243_" fill="#6BB5FF" d="M22.59,108.91c-0.01-0.38-0.35-0.86-0.78-1.06l-7.13-3.43
				c-0.42-0.2-0.77-0.06-0.78,0.31L22.59,108.91z"/>
			<path id="XMLID_4244_" fill="#6BB5FF" d="M13.91,107.2c0.01,0.38,0.35,0.86,0.78,1.06l7.13,3.43c0.43,0.2,0.77,0.06,0.78-0.31
				L13.91,107.2z"/>
		</g>
	</g>
	<g id="XMLID_4245_">
		<path id="XMLID_4246_" fill="#981500" d="M78.93,79.98c-0.62,0-1.13-0.42-1.13-0.93V69.3c0-0.49,0.32-0.94,0.83-1.18l2.33-1.11
			c0.17-0.08,0.37-0.13,0.56-0.13c0.62,0,1.13,0.42,1.13,0.93v9.75c0,0.49-0.32,0.94-0.83,1.18l-2.33,1.11
			C79.32,79.94,79.13,79.98,78.93,79.98z"/>
		<path id="XMLID_4080_" fill="#B23625" d="M81.71,78.46l-2.33,1.11c-0.49,0.23-1.1-0.06-1.1-0.52V69.3c0-0.37,0.24-0.72,0.63-0.9
			l2.33-1.11c0.49-0.23,1.1,0.06,1.1,0.52v9.75C82.34,77.93,82.1,78.28,81.71,78.46z"/>
	</g>
	<g id="XMLID_4247_">
		<path id="XMLID_4248_" fill="#ED8333" d="M41.31,95.05l-0.72,0.22c-0.19,0.06-0.31,0.22-0.31,0.4v0.22c0,0.2,0.26,0.36,0.47,0.29
			l0.72-0.23c0.19-0.06,0.31-0.22,0.31-0.4v-0.22C41.78,95.14,41.52,94.98,41.31,95.05z"/>
		<path id="XMLID_4249_" fill="#EDBD51" d="M41.49,95.21l-0.72,0.22c-0.19,0.06-0.31,0.22-0.31,0.4v0.22c0,0.2,0.26,0.36,0.47,0.29
			l0.72-0.23c0.19-0.06,0.31-0.22,0.31-0.4V95.5C41.96,95.31,41.7,95.14,41.49,95.21z"/>
	</g>
	<g id="XMLID_7271_">
		<path id="XMLID_5175_" fill="#73818E" d="M31.2,105.76v0.73c-3.97-1.57-13.72-5.73-19.44-8.77v-0.73
			C17.48,100.02,27.23,104.18,31.2,105.76z"/>
		<path id="XMLID_5176_" fill="#73818E" d="M31.2,104.38v0.73c-3.97-1.58-13.72-5.74-19.44-8.78V95.6
			C17.48,98.64,27.23,102.81,31.2,104.38z"/>
		<path id="XMLID_5177_" fill="#73818E" d="M31.2,102.99v0.73c-3.97-1.57-13.72-5.73-19.44-8.78v-0.73
			C17.48,97.26,27.23,101.43,31.2,102.99z"/>
		<path id="XMLID_5178_" fill="#73818E" d="M31.2,101.57v0.73c-3.97-1.57-13.72-5.73-19.44-8.78v-0.69
			C17.48,95.87,27.23,100.01,31.2,101.57z"/>
		<g id="XMLID_5179_">
			<path id="XMLID_5180_" fill="#99AFBA" d="M31.2,106.14v0.73c-4.38-1.77-14.05-5.98-19.44-8.82v-0.73
				C17.15,100.17,26.83,104.37,31.2,106.14z"/>
			<path id="XMLID_5181_" fill="#99AFBA" d="M31.2,104.76v0.73c-3.97-1.58-13.72-5.74-19.44-8.78v-0.73
				C17.48,99.02,27.23,103.18,31.2,104.76z"/>
			<path id="XMLID_5182_" fill="#99AFBA" d="M31.2,103.38v0.73c-4.38-1.77-14.05-5.98-19.44-8.82v-0.73
				C17.15,97.41,26.83,101.61,31.2,103.38z"/>
			<path id="XMLID_5183_" fill="#99AFBA" d="M31.2,101.95v0.73c-3.97-1.57-13.72-5.73-19.44-8.78v-0.73
				C17.48,96.22,27.23,100.38,31.2,101.95z"/>
		</g>
		<path id="XMLID_5184_" fill="#73818E" d="M31.2,100.14v0.73c-3.97-1.57-13.72-5.73-19.44-8.78v-0.73
			C17.48,94.41,27.23,98.57,31.2,100.14z"/>
		<path id="XMLID_5185_" fill="#73818E" d="M31.2,98.76v0.73c-3.97-1.58-13.72-5.74-19.44-8.79v-0.73
			C17.48,93.03,27.23,97.19,31.2,98.76z"/>
		<path id="XMLID_5186_" fill="#73818E" d="M31.14,98.09c-3.97-1.57-13.66-5.71-19.34-8.74c0.04-0.11,0.11-0.2,0.21-0.27
			c0.11-0.08,0.24-0.14,0.37-0.16c0.28,0.15,2.81,1.43,4.06,2.08c0.04,0.02,0.07,0.03,0.11,0.06c1.98,0.94,3.98,1.84,5.87,2.66
			c0.05,0.02,0.1,0.04,0.15,0.07c2.56,1.04,7.8,3.47,7.8,3.47c0.2,0.1,0.37,0.22,0.5,0.38C30.99,97.76,31.09,97.92,31.14,98.09z"/>
		<g id="XMLID_5187_">
			<path id="XMLID_5188_" fill="#99AFBA" d="M31.2,100.53v0.73c-4.38-1.77-14.05-5.98-19.44-8.82V91.7
				C17.15,94.55,26.83,98.76,31.2,100.53z"/>
			<path id="XMLID_5189_" fill="#99AFBA" d="M31.2,99.14v0.73c-3.97-1.58-13.72-5.74-19.44-8.79v-0.73
				C17.48,93.4,27.23,97.57,31.2,99.14z"/>
			<path id="XMLID_5190_" fill="#99AFBA" d="M31.2,98.45v0.04c-4.38-1.76-14.05-5.97-19.44-8.82v-0.16c0-0.06,0.01-0.11,0.04-0.17
				c0.04-0.11,0.11-0.2,0.21-0.27c1.43,0.75,2.92,1.56,4.43,2.28c0.04,0.02,0.07,0.03,0.11,0.06c1.98,0.94,3.98,1.84,5.87,2.66
				c0.05,0.02,0.1,0.04,0.15,0.07c1.83,0.79,6.79,2.87,8.29,3.49c0.13,0.13,0.23,0.29,0.28,0.46C31.18,98.2,31.2,98.32,31.2,98.45z"
				/>
		</g>
	</g>
	<g id="XMLID_6111_">
		<g id="XMLID_6112_">
			<path id="XMLID_6136_" fill="#4B4146" d="M45.89,85.43l-0.43,0.24c-0.22,0.12-0.68,0.13-0.99,0.01l-4.62-1.7
				c-0.58-0.21-0.63-0.56-0.12-0.75l0.42-0.16c0.24-0.09,0.63-0.08,0.91,0.02l4.56,1.65C46.14,84.93,46.26,85.23,45.89,85.43z"/>
			<g id="XMLID_6113_">
				<polygon id="XMLID_6135_" fill="#FF8C6F" points="43.88,85.61 44.25,85.7 46.2,84.79 45.89,84.65 				"/>
				<polygon id="XMLID_6131_" fill="#FF8C6F" points="42.9,85.3 43.27,85.39 45.21,84.48 44.91,84.34 				"/>
				<polygon id="XMLID_6127_" fill="#FF8C6F" points="41.91,84.99 42.28,85.08 44.23,84.17 43.92,84.04 				"/>
				<polygon id="XMLID_6119_" fill="#FF8C6F" points="40.93,84.68 41.3,84.77 43.25,83.86 42.94,83.73 				"/>
				<polygon id="XMLID_6117_" fill="#FF8C6F" points="40.01,84.35 40.38,84.44 42.32,83.53 42.02,83.39 				"/>
				<polygon id="XMLID_6114_" fill="#FF8C6F" points="39.23,83.94 39.6,84.03 41.55,83.12 41.24,82.99 				"/>
			</g>
		</g>
		<g id="XMLID_6115_">
			<path id="XMLID_6124_" fill="#4B4146" d="M29.57,77.82l0.44-0.23c0.23-0.12,0.62-0.09,0.85,0.05l3.45,2.12
				c0.43,0.27,0.38,0.65-0.11,0.82l-0.41,0.14c-0.23,0.08-0.56,0.05-0.77-0.08l-3.42-2.06C29.21,78.35,29.2,78.02,29.57,77.82z"/>
			<g id="XMLID_6125_">
				<polygon id="XMLID_6126_" fill="#FF8C6F" points="31.33,77.76 31.05,77.64 29.12,78.5 29.34,78.66 				"/>
				<polygon id="XMLID_6128_" fill="#FF8C6F" points="32.08,78.16 31.8,78.04 29.87,78.89 30.09,79.06 				"/>
				<polygon id="XMLID_6129_" fill="#FF8C6F" points="32.84,78.55 32.55,78.43 30.62,79.28 30.84,79.45 				"/>
				<polygon id="XMLID_6130_" fill="#FF8C6F" points="33.59,78.94 33.3,78.82 31.37,79.68 31.59,79.84 				"/>
				<polygon id="XMLID_6132_" fill="#FF8C6F" points="34.27,79.36 33.99,79.24 32.06,80.1 32.28,80.26 				"/>
				<polygon id="XMLID_6133_" fill="#FF8C6F" points="34.82,79.85 34.53,79.73 32.6,80.58 32.82,80.75 				"/>
			</g>
		</g>
	</g>
</g>
</svg>
