<?xml version="1.0" encoding="utf-8"?>
<!-- Generator: Adobe Illustrator 26.0.0, SVG Export Plug-In . SVG Version: 6.00 Build 0)  -->
<svg version="1.1" id="Capa_1" xmlns="http://www.w3.org/2000/svg" xmlns:xlink="http://www.w3.org/1999/xlink" x="0px" y="0px"
	 viewBox="0 0 120 140" enable-background="new 0 0 120 140" xml:space="preserve">
<g>
	<g>
		<g>
			<g>
				<g>
					<g>
						<path fill="#FCFDFE" d="M51.01,111.62l0.19-0.2C15.45,85.14,1.35,43.13,13.5-0.98L13.2-1.04c-5.75,20.9-5.58,42.15,0.5,61.43
							C20.1,80.67,32.99,98.38,51.01,111.62z"/>
						<path fill="#FCFDFE" d="M32.77,94.51l0.15-0.23"/>
						<path fill="#FCFDFE" d="M-11.18,84.87l0.02,0.26"/>
						<path fill="#FCFDFE" d="M44.06,106.39l0.25-0.15c-3.88-5.05-4.69-11.63-2.42-19.55c1.66-5.81,4.92-12.19,9.67-18.96
							l-0.26-0.14c-4.77,6.8-8.04,13.2-9.71,19.04C39.3,94.62,40.13,101.27,44.06,106.39z"/>
						<path fill="#FCFDFE" d="M12.96,57.62l0.26-0.14"/>
						<path fill="#FCFDFE" d="M8.98,31.54l0.3,0.05C11.81,18.83,23.17,9.58,29.72,5.21L29.54,5C22.95,9.4,11.52,18.7,8.98,31.54z"/>
					</g>
				</g>
			</g>
		</g>
	</g>
	<g>
		<g>
			<g>
				<defs>
					<path id="SVGID_1_" d="M11.6,73.88"/>
				</defs>
				<defs>
					<path id="SVGID_00000134225700659245268780000017947687907965450941_" d="M57.95,134.63c2.86-4.89,8.89-13.75,7.24-19.38
						c-0.28-0.96-5.44-1.02-6.34-1.79c-3.28-0.73-4.47-0.81-7.2-2.85c-8.05-6.03,3.7-21.94-14.5-23.71"/>
				</defs>
				<defs>
					<path id="SVGID_00000059268593341060490470000001158626157110244000_" d="M-6.22,119.46"/>
				</defs>
				
					<linearGradient id="SVGID_00000063610660681482640110000007565155882184030597_" gradientUnits="userSpaceOnUse" x1="11.5983" y1="73.8774" x2="11.5983" y2="73.8774">
					<stop  offset="3.597120e-03" style="stop-color:#E38DDD"/>
					<stop  offset="1" style="stop-color:#9571F6"/>
				</linearGradient>
				<use xlink:href="#SVGID_1_"  overflow="visible" fill="url(#SVGID_00000063610660681482640110000007565155882184030597_)"/>
				
					<linearGradient id="SVGID_00000104673234301242165450000015064477737759952257_" gradientUnits="userSpaceOnUse" x1="48.9233" y1="86.5297" x2="63.7621" y2="181.3927">
					<stop  offset="3.597120e-03" style="stop-color:#E38DDD"/>
					<stop  offset="1" style="stop-color:#9571F6"/>
				</linearGradient>
				
					<use xlink:href="#SVGID_00000134225700659245268780000017947687907965450941_"  overflow="visible" fill="url(#SVGID_00000104673234301242165450000015064477737759952257_)"/>
				
					<linearGradient id="SVGID_00000150802481017884934220000012768849009720906626_" gradientUnits="userSpaceOnUse" x1="-6.2175" y1="119.4646" x2="-6.2175" y2="119.4646">
					<stop  offset="3.597120e-03" style="stop-color:#E38DDD"/>
					<stop  offset="1" style="stop-color:#9571F6"/>
				</linearGradient>
				
					<use xlink:href="#SVGID_00000059268593341060490470000001158626157110244000_"  overflow="visible" fill="url(#SVGID_00000150802481017884934220000012768849009720906626_)"/>
				<clipPath id="SVGID_00000078026246272526542440000014021199348896539316_">
					<use xlink:href="#SVGID_1_"  overflow="visible"/>
				</clipPath>
				
					<clipPath id="SVGID_00000142152386391610190680000009986476702820003237_" clip-path="url(#SVGID_00000078026246272526542440000014021199348896539316_)">
					<use xlink:href="#SVGID_00000134225700659245268780000017947687907965450941_"  overflow="visible"/>
				</clipPath>
				
					<clipPath id="SVGID_00000179620136200822290580000014094406772302867620_" clip-path="url(#SVGID_00000142152386391610190680000009986476702820003237_)">
					<use xlink:href="#SVGID_00000059268593341060490470000001158626157110244000_"  overflow="visible"/>
				</clipPath>
				<g clip-path="url(#SVGID_00000179620136200822290580000014094406772302867620_)">
					<g>
						<path fill="#FCFDFE" d="M61.5,125.46l0.08-0.26"/>
						<path fill="#FCFDFE" d="M-26.86,37.37l-0.3,0.05"/>
						<path fill="#FCFDFE" d="M-7.75,124.3l0.15,0.23"/>
						<path fill="#FCFDFE" d="M36.72,116.73l0.03-0.26"/>
						<path fill="#FCFDFE" d="M52.68,123.3l0.16-0.23c-5.95-3.14-9.87-8.79-11.64-16.81c-1.3-5.88-1.43-12.87-0.4-20.77l-0.3-0.03
							c-1.04,7.93-0.9,14.94,0.4,20.85C42.69,114.41,46.65,120.12,52.68,123.3z"/>
						<path fill="#FCFDFE" d="M-9.18,36.95l-0.27-0.12"/>
					</g>
				</g>
			</g>
		</g>
	</g>
	<g>
		<g>
			
				<linearGradient id="SVGID_00000010998845501579606450000003538197581162154161_" gradientUnits="userSpaceOnUse" x1="82.6439" y1="-1.8633" x2="0.283" y2="169.6276">
				<stop  offset="0" style="stop-color:#444B8C"/>
				<stop  offset="0.9964" style="stop-color:#3E4177"/>
			</linearGradient>
			<path fill="url(#SVGID_00000010998845501579606450000003538197581162154161_)" d="M109.56,49.82c0,20.57-30.69,69.97-43.42,87.19
				c-2.16,2.93-11.06,2.38-13.22-0.54C40.19,119.25,5.49,70.4,5.49,49.82c0-25.19,23.3-45.61,52.04-45.61S109.56,24.63,109.56,49.82
				z"/>
			
				<linearGradient id="SVGID_00000083059962566319175470000012538844668915655339_" gradientUnits="userSpaceOnUse" x1="87.859" y1="-2.085" x2="5.4057" y2="169.5985">
				<stop  offset="0" style="stop-color:#AA80F9"/>
				<stop  offset="0.9964" style="stop-color:#6165D7"/>
			</linearGradient>
			<path fill="url(#SVGID_00000083059962566319175470000012538844668915655339_)" d="M115.21,49.82c0,20.57-34.71,69.43-47.43,86.65
				c-2.16,2.93-7.05,2.93-9.21,0C45.84,119.25,11.14,70.4,11.14,49.82c0-25.19,23.3-45.61,52.04-45.61
				C91.91,4.21,115.21,24.63,115.21,49.82z"/>
			<ellipse opacity="0.7" fill="#FFFFFF" cx="63.17" cy="49.82" rx="42.79" ry="37.51"/>
			<ellipse opacity="0.7" fill="#FFFFFF" cx="63.17" cy="49.82" rx="40.25" ry="35.28"/>
		</g>
		<g>
			
				<linearGradient id="SVGID_00000045609986731615061520000006907112488362446225_" gradientUnits="userSpaceOnUse" x1="91.2628" y1="-38.0955" x2="-13.3381" y2="291.8004">
				<stop  offset="0" style="stop-color:#FF9085"/>
				<stop  offset="1" style="stop-color:#FB6FBB"/>
			</linearGradient>
			<path fill="url(#SVGID_00000045609986731615061520000006907112488362446225_)" d="M99.59,47.14c-0.59-9.66-8.07-17.77-17.4-18.8
				c-7.42-0.82-14.01,2.86-17.53,8.8c-3.52-6.24-10.18-10.49-17.74-10.31c-9.61,0.23-17.42,7.88-18.03,17.72
				c-0.41,6.5,2.29,12.48,6.71,16.51l27.13,19.37c1.17,0.84,2.7,0.87,3.87,0.1l26.57-17.67C97.41,59.18,99.98,53.51,99.59,47.14z"/>
			<g>
				<g>
					
						<ellipse transform="matrix(0.4513 -0.8923 0.8923 0.4513 0.6721 87.7357)" fill="#FFFFFF" cx="71.68" cy="43.32" rx="5.67" ry="5.05"/>
					
						<ellipse transform="matrix(0.7932 -0.609 0.609 0.7932 -15.0368 59.7574)" fill="#FFFFFF" cx="80.46" cy="52.02" rx="5.02" ry="4.06"/>
					
						<ellipse transform="matrix(0.8923 -0.4513 0.4513 0.8923 -13.3279 30.7628)" fill="#FFFFFF" cx="57.83" cy="43.32" rx="5.05" ry="5.67"/>
					
						<ellipse transform="matrix(0.609 -0.7932 0.7932 0.609 -22.0799 59.2432)" fill="#FFFFFF" cx="49.05" cy="52.02" rx="4.06" ry="5.02"/>
				</g>
				<path fill="#FFFFFF" d="M75.62,57.02c-0.63-0.34-1.09-0.89-1.25-1.52c-0.94-3.72-4.72-6.5-9.25-6.5c-4.56,0-8.37,2.83-9.27,6.6
					c-0.15,0.62-0.53,1.18-1.14,1.53c-2.37,1.37-3.88,3.81-3.61,6.54c0.33,3.43,3.51,6.19,7.42,6.45c1.93,0.13,3.73-0.34,5.19-1.21
					c0.93-0.56,2.15-0.56,3.08,0c1.37,0.82,3.03,1.28,4.83,1.23c4.1-0.12,7.5-2.98,7.8-6.57C79.65,60.8,78.08,58.35,75.62,57.02z"/>
			</g>
		</g>
	</g>
</g>
</svg>
