<?xml version="1.0" encoding="utf-8"?>
<!-- Generator: Adobe Illustrator 26.0.0, SVG Export Plug-In . SVG Version: 6.00 Build 0)  -->
<svg version="1.1" id="Capa_1" xmlns="http://www.w3.org/2000/svg" xmlns:xlink="http://www.w3.org/1999/xlink" x="0px" y="0px"
	 viewBox="0 0 150 150" enable-background="new 0 0 150 150" xml:space="preserve">
<g>
	<polygon fill="#121720" points="68.18,111.84 25.01,114.81 24.97,112.99 68.14,110.02 	"/>
	<ellipse opacity="0.15" fill="#404041" cx="77" cy="140.56" rx="69.41" ry="7.24"/>
	<polygon fill="#303740" points="91.78,34.31 85.19,34.31 85.19,30.96 91.78,30.23 	"/>
	<path fill="#ACC8C4" d="M91.83,30.25l-6.67,0.72c-0.1,0.01-0.18-0.13-0.18-0.3v-1.48c0-0.15,0.07-0.29,0.15-0.3l6.67-0.72
		c0.1-0.01,0.18,0.13,0.18,0.3v1.47C91.99,30.11,91.92,30.24,91.83,30.25z"/>
	<polygon fill="#121720" points="75.26,112.12 71.72,112.12 70.89,112.12 69.75,112.12 68.92,112.12 66.72,112.12 66.72,113.8 
		68.92,113.8 68.92,114.81 69.75,114.81 69.75,113.8 70.89,113.8 70.89,114.81 71.72,114.81 71.72,113.8 75.26,113.8 75.26,114.81 
		78.13,114.81 78.13,112.12 	"/>
	<path fill="#63807D" d="M101.77,98.36c-0.12-3.63-1.45-7.12-2.8-8.47c-0.84-0.84-2.19-1.34-3.15-1.44l-2.99-0.32l0.56,4.73
		c1.55-0.16,3.33,0.66,3.33,0.66c0.91,0.86,1.46,2.1,1.78,3.4c0.67,2.75,0.35,5.93-0.75,8.2l-6.75,12.58
		c-2.51,5.74-7.17,4.4-7.17,4.4l-25.1-4.79c-4.44-0.66-6.95-4.91-6.95-4.91l-8.01-14.4c-1.39-2.43-2.29-3.55-3.07-3.86
		c-0.77-0.32-1.57,0.36-1.86,1.65c-0.74,3.3,1.65,7.1,1.65,7.1l7.4,12.41c3.15,6.53,7.27,7.06,7.27,7.06s23.04,5.37,28.03,5.98
		c1.81,0.22,3.67,0.04,5.41-0.9c1.6-0.85,2.8-2.58,4-4.57c2.08-3.43,3.74-7.62,5.53-11.51C102.26,102.43,101.77,98.36,101.77,98.36z
		"/>
	<g>
		<path fill="#121720" d="M28.28,115.2l-0.29-0.04l-0.03,0.66l-0.27-0.19l-0.5,2.16l-0.78-1.37l-0.21,0.37l0.87,1.51l-0.66,2.83
			l-2.15-4.19l-0.22,0.34l2.24,4.37l-1.85,7.95l0.27,0.19l1.79-7.72l1.09,2.13l-0.25,6.02l0.29,0.04l0.24-5.53l1.93,3.76l0.22-0.34
			l-2.11-4.12l0.17-3.98l4.22,7.38l0.21-0.36l-4.4-7.68L28.28,115.2z M27.97,115.84l-0.13,3.06l-0.42-0.72L27.97,115.84z
			 M27.64,123.49l-1-1.95l0.66-2.85l0.51,0.87L27.64,123.49z"/>
		<path fill="#121720" d="M18.62,109.52l0.02-0.51l-0.37-0.05l0.11-0.47l-1.22-0.88l0.77-1.37l-0.2-0.36l-0.86,1.53l-1.6-1.16
			l2.38-3.78l-0.19-0.38l-2.49,3.94l-4.51-3.26l-0.11,0.47l4.38,3.17l-1.21,1.92l-3.42-0.46l-0.02,0.51l3.14,0.42l-2.14,3.39
			l0.19,0.38l2.35-3.71l2.26,0.3l-4.2,7.42l0.21,0.36l4.37-7.73L18.62,109.52z M18.26,108.95l-1.74-0.23l0.41-0.72L18.26,108.95z
			 M13.91,108.37l1.11-1.76l1.62,1.17l-0.5,0.89L13.91,108.37z"/>
		<path fill="#121720" d="M22.97,89.52l0.66-2.87l2.09,3.99l0.21-0.35l-2.18-4.18l1.78-7.81l-0.27-0.19l-1.73,7.58l-1.08-2.07
			l0.24-6.47l-0.29-0.03l-0.23,5.99l-2.05-3.92l-0.22,0.35l2.24,4.28l-0.15,3.94l-3.86-6.97l-0.21,0.36l4.04,7.3l-0.14,3.74
			l0.29,0.03v-0.04l0.21,0.15l0.52-2.28l1.06,1.92l0.21-0.35L22.97,89.52z M22.42,84.33l0.99,1.89l-0.66,2.89l-0.48-0.86
			L22.42,84.33z M22.13,91.82l0.11-2.88l0.39,0.7L22.13,91.82z"/>
		<path fill="#121720" d="M18.1,99.5l0.22-0.33l0-0.01l0.15-0.11l-0.57-2.43h1.37V96.1h-1.49l-0.64-2.71l3.24,0.26l0.01-0.51
			l-3.37-0.27l-1.84-7.76l-0.27,0.2l1.79,7.54l-1.57-0.13l-2.44-4.92l-0.22,0.34l2.26,4.55l-2.9-0.23l-0.01,0.52l3.18,0.25
			l1.43,2.88h-5.72v0.52h5.98L18.1,99.5z M18.05,98.63l-1.01-2.01h0.53L18.05,98.63z M15.38,93.25l1.43,0.11l0.64,2.74h-0.66
			L15.38,93.25z"/>
		<path fill="#121720" d="M27.54,91.6L27.54,91.6l0.06,0.27l1.4-0.95l-0.04,2.41l0.29,0.01l0.04-2.62l1.55-1.06l-0.23,5.7l0.29,0.04
			l0.24-5.93l4.46-3.02l-0.11-0.48l-4.32,2.94l0.11-2.77l2.86-4.17l-0.18-0.4l-2.64,3.86l0.21-5.08l-0.29-0.04L31,85.87l-1.68,2.45
			l0.16-10.08l-0.29-0.01l-0.16,10.53l-1.67,2.45L27.54,91.6z M30.97,86.58l-0.1,2.51l-1.57,1.07L29.32,89L30.97,86.58z M29,90.36
			l-1.16,0.79l1.17-1.71L29,90.36z"/>
		<path fill="#121720" d="M40.34,99.25l0.02-0.51l-3.25-0.36l2.08-3.29l-0.2-0.38l-2.3,3.63l-2.25-0.24l4.06-7.01l-0.2-0.37
			l-4.24,7.34l-2.25-0.25l-0.02,0.51l1.99,0.22l-0.68,1.18l-1.13-0.77l-0.11,0.48l1.01,0.69l-0.69,1.18l0.2,0.36l0.78-1.35l1.6,1.09
			l-2.15,3.4l0.2,0.38l2.26-3.58l4.77,3.26l0.11-0.48l-4.64-3.17l1.49-2.36L40.34,99.25z M35.01,101.01l-1.62-1.1l0.78-1.34
			l2.23,0.24L35.01,101.01z"/>
		<path fill="#121720" d="M22.71,115.46l-0.07-0.31l-1.71,1.27l-0.02-3.32l-0.29,0.01l0.02,3.53l-1.49,1.12l0.14-6.8L19,110.95
			l-0.14,7.03l-4.32,3.23l0.11,0.47l4.2-3.13l-0.05,2.76l-2.1,3.12l0.19,0.4l1.9-2.82l-0.12,5.8l0.29,0.02l0.13-6.27l1.59-2.37
			l0.05,9.02l0.29-0.01l-0.06-9.44l1.96-2.9L22.71,115.46z M19.08,120.87l0.05-2.54l1.52-1.13l0.01,1.33L19.08,120.87z
			 M20.94,116.98l1.51-1.13l-1.51,2.25L20.94,116.98z"/>
		<path fill="#121720" d="M32.19,107.68l-0.23,0.31l0,0l-0.18,0.12l0.65,3.06l-1.89-0.11l-0.01,0.51l2,0.12l0.57,2.68l-3.85-0.54
			l-0.02,0.51l3.98,0.56l1.65,7.75l0.27-0.18l-1.6-7.52l1.57,0.22l1.68,3.82l0.23-0.31l-1.52-3.46l3.29,0.46l0.02-0.51l-3.55-0.5
			l-1.28-2.9l5.12,0.3l0.01-0.52l-5.36-0.31L32.19,107.68z M32.17,108.47l1.21,2.76l-0.63-0.04L32.17,108.47z M34.87,114.61
			l-1.44-0.2l-0.57-2.71l0.75,0.05L34.87,114.61z"/>
	</g>
	<path fill="#353633" d="M24.98,67.61c-11.44,0-20.72,16.33-20.72,36.49c0,20.15,9.28,36.48,20.72,36.48
		c11.44,0,20.72-16.33,20.72-36.48C45.7,83.95,36.42,67.61,24.98,67.61z M24.98,129.52c-7.98,0-14.44-11.39-14.44-25.42
		c0-14.04,6.46-25.43,14.44-25.43c7.98,0,14.44,11.39,14.44,25.43C39.42,118.14,32.95,129.52,24.98,129.52z"/>
	<path fill="#474749" d="M24.99,67.61c-11.44,0-20.71,16.33-20.71,36.49c0,20.15,9.27,36.48,20.71,36.48
		c11.45,0,20.72-16.33,20.72-36.48C45.71,83.95,36.43,67.61,24.99,67.61z M24.99,138.68c-10.84,0-19.64-15.48-19.64-34.58
		c0-19.1,8.8-34.58,19.64-34.58c10.85,0,19.64,15.48,19.64,34.58C44.63,123.19,35.84,138.68,24.99,138.68z"/>
	<path fill="#474749" d="M24.99,76.06c-8.79,0-15.92,12.55-15.92,28.04c0,15.49,7.13,28.04,15.92,28.04
		c8.8,0,15.93-12.55,15.93-28.04C40.92,88.61,33.78,76.06,24.99,76.06z M24.99,129.52c-7.97,0-14.43-11.39-14.43-25.42
		c0-14.04,6.46-25.43,14.43-25.43c7.98,0,14.44,11.39,14.44,25.43C39.43,118.14,32.97,129.52,24.99,129.52z"/>
	<path fill="#474749" d="M24.99,136.37c3.23,0,6.39-1.48,9.16-4.3l-0.38-0.67c-2.66,2.66-5.7,4.06-8.78,4.06
		c-9.82,0-17.81-14.07-17.81-31.36c0-5.42,0.8-10.76,2.31-15.45l-0.38-0.67c-1.6,4.89-2.45,10.45-2.45,16.12
		C6.66,121.89,14.88,136.37,24.99,136.37z"/>
	<g>
		<path fill="#121720" d="M129.75,114l-0.26-0.04l-0.03,0.58l-0.24-0.17l-0.45,1.93l-0.7-1.22l-0.18,0.33l0.78,1.35l-0.59,2.53
			l-1.92-3.75l-0.19,0.31l2.01,3.91l-1.65,7.12l0.24,0.17l1.6-6.91l0.98,1.9l-0.23,5.39l0.26,0.03l0.21-4.95l1.73,3.37l0.2-0.31
			l-1.89-3.69l0.15-3.56l3.78,6.61l0.18-0.33l-3.94-6.88L129.75,114z M129.47,114.57l-0.12,2.73l-0.37-0.64L129.47,114.57z
			 M129.17,121.42l-0.89-1.74l0.59-2.56l0.45,0.79L129.17,121.42z"/>
		<path fill="#121720" d="M121.1,108.91l0.02-0.46l-0.33-0.05l0.1-0.42l-1.09-0.79l0.69-1.23l-0.18-0.32l-0.77,1.36l-1.43-1.03
			l2.13-3.38l-0.17-0.34l-2.23,3.53l-4.04-2.92l-0.1,0.42l3.93,2.84l-1.08,1.71l-3.06-0.41l-0.02,0.46l2.81,0.38l-1.91,3.04
			l0.17,0.34l2.1-3.33l2.02,0.27l-3.75,6.65l0.19,0.33l3.91-6.93L121.1,108.91z M120.77,108.41l-1.55-0.21l0.37-0.65L120.77,108.41z
			 M116.88,107.88l0.99-1.57l1.45,1.05l-0.45,0.79L116.88,107.88z"/>
		<path fill="#121720" d="M124.99,91l0.59-2.57l2.3,4.36l0.19-0.31l-2.38-4.52l1.59-6.99l-0.24-0.17l-1.55,6.79l-0.97-1.85l0.22-5.8
			l-0.26-0.03l-0.21,5.37l-1.83-3.51l-0.2,0.31l2.01,3.83l-0.13,3.53l-3.46-6.24l-0.19,0.32l3.62,6.54l-0.13,3.35l0.26,0.03l0-0.05
			l0.19,0.14l0.47-2.04l0.95,1.71l0.19-0.32L124.99,91z M124.5,86.36l0.89,1.69l-0.59,2.59l-0.43-0.77L124.5,86.36z M124.24,93.06
			l0.1-2.58l0.35,0.62L124.24,93.06z"/>
		<path fill="#121720" d="M120.63,99.94l0.2-0.3v-0.01l0.13-0.09l-0.52-2.18h1.23V96.9h-1.33l-0.58-2.43l2.9,0.23l0.01-0.46
			L119.65,94l-1.64-6.95l-0.24,0.18l1.6,6.75l-1.41-0.11l-2.19-4.4l-0.19,0.3l2.02,4.07L115,93.63l-0.01,0.46l2.84,0.23l1.28,2.58
			h-5.12v0.45h5.35L120.63,99.94z M120.59,99.16l-0.9-1.81h0.47L120.59,99.16z M118.19,94.35l1.28,0.1l0.58,2.45h-0.59L118.19,94.35
			z"/>
		<path fill="#121720" d="M129,92.97l0.08-0.12l0.05,0.24l1.25-0.85l-0.03,2.15l0.26,0.01l0.03-2.34l1.39-0.95l-0.22,5.36l0.26,0.03
			l0.23-5.58l3.99-2.7l-0.09-0.43l-3.87,2.63l0.1-2.48l2.56-3.73l-0.17-0.35l-2.36,3.45l0.19-4.55l-0.26-0.03l-0.21,4.99l-1.5,2.19
			l0.14-9.02l-0.26-0.01l-0.14,9.42l-1.58,2.31L129,92.97z M132.16,88.37l-0.09,2.26l-1.4,0.95l0.02-1.04L132.16,88.37z
			 M130.4,91.76l-1.04,0.7l1.05-1.53L130.4,91.76z"/>
		<path fill="#121720" d="M140.55,99.71l0.02-0.45l-2.91-0.33l1.86-2.95l-0.17-0.34l-2.05,3.25l-2.02-0.22l3.63-6.28l-0.18-0.33
			l-3.8,6.57l-2.17-0.25l-0.02,0.46l1.94,0.22l-0.61,1.06l-1.01-0.7l-0.1,0.43l0.91,0.61l-0.62,1.06l0.18,0.33l0.7-1.21l1.44,0.98
			l-2.23,3.53l0.17,0.35l2.32-3.69l4.28,2.92l0.09-0.43l-4.16-2.84l1.33-2.11L140.55,99.71z M135.77,101.29l-1.44-0.99l0.69-1.2
			l2,0.22L135.77,101.29z"/>
		<path fill="#121720" d="M124.76,114.23l-0.06-0.27l-1.53,1.14l-0.02-2.98l-0.26,0l0.02,3.17l-1.34,1l0.12-6.09l-0.26-0.01
			l-0.13,6.3l-3.87,2.89l0.1,0.42l3.76-2.81l-0.05,2.47l-1.88,2.8l0.17,0.36l1.7-2.53l-0.11,5.19l0.26,0.02l0.11-5.61l1.43-2.12
			l0.05,8.07l0.26,0l-0.05-8.45l1.75-2.6L124.76,114.23z M121.51,119.07l0.05-2.27l1.36-1.02l0.01,1.19L121.51,119.07z
			 M123.17,115.59l1.36-1.02l-1.35,2.01L123.17,115.59z"/>
		<path fill="#121720" d="M133.25,107.26l-0.21,0.28l0,0l-0.16,0.11l0.58,2.73l-1.69-0.1l-0.01,0.46l1.79,0.11l0.51,2.4l-3.45-0.48
			l-0.02,0.46l3.57,0.5l1.47,6.94l0.25-0.16l-1.43-6.73l1.4,0.19l1.51,3.43l0.2-0.28l-1.36-3.09l2.94,0.41l0.02-0.45l-3.18-0.45
			l-1.14-2.6l4.58,0.27l0.01-0.46l-4.79-0.28L133.25,107.26z M133.23,107.97l1.08,2.46l-0.56-0.03L133.23,107.97z M135.64,113.47
			l-1.29-0.18l-0.51-2.42l0.67,0.04L135.64,113.47z"/>
	</g>
	<path fill="#252B34" d="M126.77,78.67c-7.97,0-14.44,11.39-14.44,25.43c0,14.04,6.47,25.42,14.44,25.42
		c7.97,0,14.44-11.39,14.44-25.42C141.2,90.06,134.74,78.67,126.77,78.67z M126.77,126.44c-7.01,0-12.69-10-12.69-22.34
		s5.68-22.34,12.69-22.34c7.01,0,12.69,10,12.69,22.34S133.77,126.44,126.77,126.44z"/>
	<path fill="#353633" d="M126.77,67.61c-11.45,0-20.72,16.33-20.72,36.49c0,20.15,9.27,36.48,20.72,36.48
		c11.44,0,20.72-16.33,20.72-36.48C147.48,83.95,138.21,67.61,126.77,67.61z M126.77,129.52c-7.97,0-14.44-11.39-14.44-25.42
		c0-14.04,6.47-25.43,14.44-25.43c7.97,0,14.44,11.39,14.44,25.43C141.2,118.14,134.74,129.52,126.77,129.52z"/>
	<path fill="#474749" d="M126.77,67.61c-11.45,0-20.72,16.33-20.72,36.49c0,20.15,9.27,36.48,20.72,36.48
		c11.44,0,20.72-16.33,20.72-36.48C147.48,83.95,138.21,67.61,126.77,67.61z M126.77,138.68c-10.85,0-19.64-15.48-19.64-34.58
		c0-19.1,8.8-34.58,19.64-34.58c10.85,0,19.64,15.48,19.64,34.58C146.4,123.19,137.61,138.68,126.77,138.68z"/>
	<path fill="#474749" d="M126.77,76.06c-8.8,0-15.92,12.55-15.92,28.04c0,15.49,7.13,28.04,15.92,28.04
		c8.79,0,15.92-12.55,15.92-28.04C142.69,88.61,135.56,76.06,126.77,76.06z M126.77,129.52c-7.97,0-14.44-11.39-14.44-25.42
		c0-14.04,6.47-25.43,14.44-25.43c7.97,0,14.44,11.39,14.44,25.43C141.2,118.14,134.74,129.52,126.77,129.52z"/>
	<rect x="57.45" y="57.02" fill="#121720" width="4.93" height="4.46"/>
	<path fill="#252B34" d="M24.98,78.67c-7.98,0-14.44,11.39-14.44,25.43c0,14.04,6.46,25.42,14.44,25.42
		c7.98,0,14.44-11.39,14.44-25.42C39.42,90.06,32.95,78.67,24.98,78.67z M24.98,126.44c-7.01,0-12.69-10-12.69-22.34
		s5.68-22.34,12.69-22.34c7.01,0,12.69,10,12.69,22.34S31.99,126.44,24.98,126.44z"/>
	<path fill="#7F2A25" d="M35.69,87.78h-4.51v1.18h4.51c0.6,0,1.09,0.86,1.09,1.91v3.8h0.67v-3.8
		C37.45,89.17,36.66,87.78,35.69,87.78z"/>
	<path fill="#7F2A25" d="M108.32,25.32l-4.12,3.21l0.28,1.08l4.11-3.21c0.55-0.42,1.19,0.01,1.43,0.98l0.87,3.47l0.61-0.48
		l-0.87-3.48C110.24,25.34,109.2,24.63,108.32,25.32z"/>
	<polygon fill="#121720" points="68.08,95.8 24.92,92.83 24.88,94.65 68.04,97.62 	"/>
	<path fill="#121720" d="M24.98,92.66c-3.58,0-6.49,5.14-6.49,11.44c0,6.3,2.91,11.43,6.49,11.43c3.58,0,6.5-5.13,6.5-11.43
		C31.47,97.79,28.56,92.66,24.98,92.66z M26.02,101.5c-0.21-0.27-0.47-0.46-0.75-0.54V99.8c0.45,0.1,0.87,0.41,1.21,0.88
		L26.02,101.5z M24.62,100.97c-0.26,0.09-0.51,0.29-0.72,0.57l-0.46-0.82c0.33-0.47,0.74-0.79,1.18-0.91V100.97z M23.45,102.39
		c-0.13,0.37-0.22,0.79-0.26,1.24h-0.66c0.05-0.76,0.21-1.47,0.45-2.06L23.45,102.39z M23.21,104.79c0.05,0.42,0.15,0.81,0.29,1.15
		l-0.46,0.82c-0.24-0.56-0.41-1.24-0.48-1.96H23.21z M23.98,106.75c0.19,0.23,0.41,0.39,0.64,0.48v1.16
		c-0.41-0.11-0.79-0.4-1.11-0.82L23.98,106.75z M25.28,107.24c0.25-0.08,0.47-0.23,0.67-0.46l0.47,0.82
		c-0.33,0.42-0.71,0.69-1.14,0.79V107.24z M26.43,105.99c0.15-0.35,0.26-0.76,0.31-1.2h0.67c-0.07,0.75-0.25,1.45-0.51,2.02
		L26.43,105.99z M26.77,103.63c-0.04-0.47-0.14-0.92-0.28-1.3l0.46-0.82c0.26,0.61,0.43,1.33,0.47,2.11H26.77z M27.38,99.12
		c-0.58-0.86-1.3-1.42-2.1-1.54v-1.03c0.96,0.12,1.83,0.8,2.52,1.84L27.38,99.12z M24.62,97.59c-0.79,0.13-1.51,0.7-2.07,1.57
		l-0.42-0.73c0.68-1.06,1.54-1.74,2.49-1.88V97.59z M22.09,99.99c-0.47,1.01-0.76,2.27-0.82,3.64h-0.58
		c0.05-1.65,0.42-3.17,0.99-4.37L22.09,99.99z M21.29,104.79c0.08,1.34,0.39,2.56,0.86,3.54l-0.42,0.73
		c-0.57-1.17-0.95-2.64-1.04-4.26H21.29z M22.61,109.14c0.56,0.81,1.25,1.34,2.01,1.47v1.03c-0.92-0.13-1.76-0.77-2.42-1.76
		L22.61,109.14z M25.28,110.62c0.77-0.11,1.47-0.63,2.03-1.43l0.42,0.73c-0.68,0.99-1.52,1.62-2.45,1.74V110.62z M27.78,108.37
		c0.49-0.98,0.81-2.22,0.89-3.58h0.59c-0.09,1.65-0.47,3.14-1.06,4.31L27.78,108.37z M28.68,103.63c-0.06-1.39-0.36-2.67-0.84-3.69
		l0.42-0.73c0.58,1.2,0.95,2.74,1.01,4.42H28.68z"/>
	<g>
		<path fill="#84A7A3" d="M126.77,85.82c-5.73,0-10.38,8.2-10.38,18.28c0,10.08,4.66,18.28,10.38,18.28
			c5.72,0,10.38-8.2,10.38-18.28C137.14,94.02,132.49,85.82,126.77,85.82z M132.1,114.02c-0.52-0.91-1.19-2.26-1.96-1.47
			c-0.33,0.33-0.39,1.01-0.33,1.63c0.07,0.72,0.27,1.44,0.45,2.12c-1.05,0.94-2.24,1.46-3.49,1.46c-1.47,0-2.84-0.72-4.01-1.96
			c0.39-1.1,0.97-2.52,0.37-3.65c-0.26-0.49-0.65-0.45-0.98-0.21c-0.41,0.3-0.78,0.84-1.14,1.32c-1.25-2.43-2.01-5.65-2.01-9.16
			c0-0.47,0.01-0.94,0.04-1.39c0.69,0.16,1.51,0.29,1.8-0.99c0.14-0.62-0.03-1.23-0.3-1.65c-0.28-0.46-0.63-0.79-0.98-1.11
			c0.95-4.1,2.99-7.21,5.49-8.2c0.12,0.81,0.22,1.71,0.45,2.44c0.17,0.55,0.46,1,0.84,0.9c0.94-0.24,0.92-2.28,1.03-3.58
			c0-0.02,0-0.03,0-0.05c2.93,0.41,5.41,3.69,6.51,8.24c-0.41,0.41-0.87,0.78-1.22,1.35c-0.26,0.42-0.44,1.03-0.3,1.65
			c0.35,1.48,1.37,1.08,2.11,0.91c0.03,0.49,0.05,0.97,0.05,1.47C134.53,108,133.6,111.52,132.1,114.02z"/>
		<path fill="#A5BAB3" d="M126.77,85.82c-5.73,0-10.38,8.2-10.38,18.28c0,10.08,4.66,18.28,10.38,18.28
			c5.72,0,10.38-8.2,10.38-18.28C137.14,94.02,132.49,85.82,126.77,85.82z M126.77,121.19c-5.36,0-9.71-7.67-9.71-17.1
			c0-9.43,4.36-17.1,9.71-17.1c5.36,0,9.71,7.67,9.71,17.1C136.47,113.52,132.12,121.19,126.77,121.19z"/>
	</g>
	<path fill="#252B34" d="M126.77,91.98c-3.79,0-6.88,5.44-6.88,12.12c0,6.68,3.09,12.12,6.88,12.12c3.79,0,6.88-5.43,6.88-12.12
		C133.65,97.42,130.56,91.98,126.77,91.98z M127.88,101.35c-0.23-0.29-0.5-0.49-0.79-0.57v-1.23c0.48,0.11,0.92,0.44,1.28,0.94
		L127.88,101.35z M126.39,100.79c-0.28,0.1-0.54,0.31-0.77,0.6l-0.49-0.86c0.35-0.5,0.78-0.84,1.26-0.96V100.79z M125.15,102.29
		c-0.14,0.39-0.24,0.84-0.28,1.32h-0.69c0.05-0.81,0.22-1.55,0.48-2.19L125.15,102.29z M124.89,104.83
		c0.06,0.44,0.16,0.86,0.31,1.22l-0.49,0.86c-0.26-0.59-0.45-1.3-0.51-2.08H124.89z M125.7,106.91c0.2,0.24,0.44,0.42,0.69,0.5v1.22
		c-0.44-0.11-0.84-0.41-1.18-0.86L125.7,106.91z M127.09,107.43c0.26-0.08,0.5-0.24,0.71-0.48l0.49,0.87
		c-0.35,0.44-0.76,0.74-1.2,0.83V107.43z M128.3,106.11c0.16-0.37,0.28-0.81,0.33-1.28h0.7c-0.07,0.8-0.26,1.53-0.54,2.14
		L128.3,106.11z M128.66,103.6c-0.04-0.5-0.14-0.97-0.3-1.38l0.49-0.87c0.27,0.64,0.45,1.41,0.5,2.24H128.66z M129.31,98.82
		c-0.61-0.91-1.38-1.51-2.22-1.63V96.1c1.01,0.12,1.94,0.84,2.66,1.94L129.31,98.82z M126.39,97.2c-0.84,0.14-1.6,0.74-2.2,1.66
		l-0.44-0.78c0.72-1.11,1.63-1.84,2.64-1.98V97.2z M123.71,99.74c-0.49,1.07-0.81,2.4-0.87,3.86h-0.62
		c0.06-1.76,0.44-3.36,1.04-4.63L123.71,99.74z M122.85,104.83c0.08,1.42,0.42,2.72,0.91,3.75l-0.44,0.77
		c-0.61-1.24-1.01-2.8-1.1-4.52H122.85z M124.26,109.44c0.59,0.86,1.32,1.42,2.13,1.56v1.1c-0.98-0.14-1.86-0.82-2.57-1.87
		L124.26,109.44z M127.09,111c0.81-0.12,1.55-0.66,2.15-1.52l0.44,0.78c-0.71,1.05-1.61,1.72-2.59,1.84V111z M129.74,108.63
		c0.51-1.04,0.86-2.36,0.94-3.8h0.62c-0.08,1.75-0.5,3.33-1.12,4.57L129.74,108.63z M130.69,103.6c-0.06-1.48-0.38-2.83-0.89-3.91
		l0.44-0.78c0.61,1.28,1.01,2.91,1.07,4.69H130.69z"/>
	<g>
		<path fill="#374B60" d="M134.38,67.9c-14.05-6.4-23.22,8.67-25.59,13.21c-0.23,0.43-0.03,1.12,0.3,1.06l3.12-0.61
			c2.12-2.89,5.73-6.42,5.73-6.42c0.6-0.43,1.12-0.67,1.58-0.79c1.24-0.32,2.45,0.81,2.99,2.8l3.74,17.11
			c0.13,0.5,0.48,0.7,0.76,0.46l0.91-0.8c0.27-0.23,0.39-0.79,0.27-1.28l-3.39-17.91c-0.07-1.09,0.14-1.84,0.4-2.35
			c0.3-0.58,0.73-0.9,1.18-0.94c1.97-0.19,4.07,0.24,5.04,0.49c0.36,0.09,0.71-0.07,1-0.44l2.06-2.7
			C134.67,68.53,134.61,68.01,134.38,67.9z"/>
		<g>
			<path fill="#2A3C4B" d="M128.13,92.29l-0.6,0.52c-0.28,0.25-0.63,0.04-0.76-0.46l-3.73-17.11c-0.55-1.98-1.76-3.12-2.99-2.79
				c-0.45,0.12-0.98,0.36-1.58,0.79c0,0-3.62,3.53-5.73,6.41l-3.13,0.61c-0.11,0.02-0.21-0.05-0.28-0.16c-0.21,0.37-0.39,0.7-0.54,1
				c-0.23,0.43-0.03,1.12,0.3,1.06l3.12-0.61c2.12-2.89,5.73-6.42,5.73-6.42c0.6-0.43,1.12-0.67,1.58-0.79
				c1.24-0.32,2.45,0.81,2.99,2.8l3.74,17.11c0.13,0.5,0.48,0.7,0.76,0.46l0.91-0.8c0.27-0.23,0.39-0.79,0.27-1.28L128.13,92.29z"/>
		</g>
		<g>
			<path fill="#445C6C" d="M134.38,67.91c-6.27-2.86-11.57-1.45-15.72,1.41c3.86-2.08,8.55-2.8,13.96-0.33
				c0.23,0.11,0.28,0.63,0.1,0.88l-1.53,2.01c0.08,0.02,0.16,0.04,0.24,0.06c0.36,0.09,0.71-0.07,1-0.44l2.06-2.7
				C134.67,68.53,134.61,68.01,134.38,67.91z"/>
		</g>
	</g>
	<g>
		<polygon fill="#303740" points="89.38,86.59 93.45,91.96 100.77,74.73 96.7,69.37 		"/>
		<path fill="#404853" d="M102.01,72.55l-4.44-5.85c-0.16-0.21-0.39-0.15-0.51,0.13l-0.9,2.13c-0.12,0.28-0.09,0.69,0.07,0.9
			l4.44,5.86c0.16,0.22,0.39,0.15,0.51-0.13l0.9-2.13C102.21,73.17,102.18,72.77,102.01,72.55z"/>
		<path fill="#404853" d="M94.19,90.78L89.81,85c-0.05-0.08-0.15-0.03-0.2,0.1l-0.11,0.25c-0.06,0.13-0.05,0.3,0.01,0.38l4.38,5.79
			c0.06,0.07,0.15,0.03,0.21-0.1l0.11-0.25C94.25,91.02,94.25,90.85,94.19,90.78z"/>
		<path fill="#404853" d="M94.74,89.5l-4.38-5.78c-0.06-0.07-0.15-0.03-0.21,0.1l-0.11,0.25c-0.06,0.13-0.05,0.3,0.01,0.38
			l4.38,5.78c0.06,0.08,0.15,0.03,0.21-0.1l0.11-0.26C94.8,89.74,94.8,89.58,94.74,89.5z"/>
		<path fill="#404853" d="M95.29,88.22l-4.39-5.78c-0.06-0.08-0.15-0.04-0.2,0.09l-0.11,0.26c-0.06,0.14-0.06,0.3,0,0.37l4.39,5.79
			c0.05,0.08,0.15,0.03,0.2-0.1l0.11-0.25C95.35,88.47,95.35,88.3,95.29,88.22z"/>
		<path fill="#404853" d="M95.83,86.94l-4.39-5.78c-0.06-0.07-0.15-0.03-0.21,0.1l-0.11,0.26c-0.05,0.13-0.05,0.3,0,0.38l4.39,5.78
			c0.05,0.08,0.15,0.03,0.2-0.1l0.11-0.26C95.89,87.19,95.89,87.02,95.83,86.94z"/>
		<path fill="#404853" d="M96.37,85.66l-4.39-5.78c-0.06-0.08-0.15-0.04-0.2,0.1l-0.11,0.26c-0.06,0.13-0.05,0.3,0,0.38l4.39,5.78
			c0.06,0.07,0.15,0.03,0.21-0.1l0.11-0.26C96.43,85.91,96.43,85.74,96.37,85.66z"/>
		<path fill="#404853" d="M96.92,84.38l-4.38-5.78c-0.06-0.08-0.15-0.03-0.21,0.1l-0.11,0.26c-0.06,0.13-0.05,0.3,0.01,0.38
			l4.39,5.78c0.06,0.08,0.15,0.03,0.21-0.1l0.11-0.25C96.98,84.63,96.97,84.46,96.92,84.38z"/>
		<path fill="#404853" d="M97.46,83.11l-4.39-5.79c-0.06-0.08-0.15-0.03-0.21,0.1l-0.11,0.26c-0.06,0.13-0.06,0.3,0,0.38l4.38,5.78
			c0.06,0.08,0.15,0.03,0.21-0.09l0.11-0.26C97.52,83.35,97.52,83.18,97.46,83.11z"/>
		<path fill="#404853" d="M98,81.83l-4.39-5.79c-0.05-0.08-0.15-0.03-0.2,0.1l-0.11,0.25c-0.06,0.13-0.06,0.3,0,0.38l4.38,5.79
			c0.06,0.07,0.15,0.03,0.2-0.1l0.11-0.26C98.06,82.07,98.06,81.9,98,81.83z"/>
		<path fill="#404853" d="M98.55,80.54l-4.39-5.78c-0.06-0.07-0.15-0.03-0.21,0.1l-0.11,0.26c-0.06,0.13-0.05,0.3,0,0.37l4.39,5.79
			c0.06,0.07,0.15,0.03,0.21-0.1l0.11-0.26C98.61,80.79,98.61,80.62,98.55,80.54z"/>
		<path fill="#404853" d="M99.09,79.27l-4.38-5.78c-0.06-0.08-0.15-0.03-0.21,0.09l-0.11,0.26c-0.06,0.13-0.05,0.3,0,0.37L98.78,80
			c0.06,0.08,0.15,0.03,0.21-0.1l0.11-0.25C99.15,79.51,99.15,79.34,99.09,79.27z"/>
		<path fill="#404853" d="M99.64,77.99l-4.39-5.78c-0.06-0.08-0.15-0.03-0.21,0.1l-0.11,0.25c-0.06,0.13-0.06,0.29,0,0.37l4.38,5.78
			c0.06,0.08,0.15,0.03,0.21-0.1l0.11-0.25C99.69,78.23,99.69,78.06,99.64,77.99z"/>
		<path fill="#404853" d="M100.18,76.71l-4.39-5.78c-0.06-0.08-0.15-0.03-0.21,0.1l-0.11,0.26c-0.06,0.13-0.06,0.3,0.01,0.37
			l4.39,5.79c0.05,0.07,0.15,0.03,0.2-0.1l0.11-0.25C100.24,76.96,100.24,76.79,100.18,76.71z"/>
	</g>
	<rect x="41.6" y="63.52" fill="#252B34" width="11.72" height="3.41"/>
	<rect x="78.98" y="74.85" fill="#252B34" width="9.9" height="4.35"/>
	<rect x="86" y="61.47" fill="#121720" width="4.96" height="34.15"/>
	<rect x="97.75" y="33.4" fill="#121720" width="6.56" height="8.62"/>
	<polygon fill="#121720" points="107.95,53.26 98.78,57.89 98.03,53.27 107.19,48.63 	"/>
	<rect x="79.41" y="61.47" fill="#121720" width="4.96" height="34.15"/>
	<path fill="#252B34" d="M81.37,80.66H58.25c-0.47,0-0.88-0.57-1-1.37l-1.63-11.65h25.74V80.66z"/>
	<path fill="#252B34" d="M81.37,107.77H57.45V87.13c0-2.3,1.86-4.16,4.16-4.16h19.75V107.77z"/>
	<rect x="99.99" y="43.56" fill="#7F2A25" width="10.26" height="1.71"/>
	<rect x="99.99" y="46.65" fill="#7F2A25" width="10.26" height="1.7"/>
	<rect x="83.62" y="70.04" fill="#7F2A25" width="12.47" height="1.7"/>
	<polygon fill="#7F2A25" points="51.61,92.63 58.8,69.77 59.64,70.59 52.46,93.46 	"/>
	<g>
		<path fill="#84A7A3" d="M24.98,88.09c-5.01,0-9.1,7.18-9.1,16.01c0,8.83,4.08,16.01,9.1,16.01c5.01,0,9.09-7.18,9.09-16.01
			C34.07,95.27,29.99,88.09,24.98,88.09z M29.65,112.79c-0.46-0.8-1.04-1.98-1.71-1.29c-0.29,0.29-0.35,0.89-0.3,1.43
			c0.06,0.64,0.24,1.26,0.39,1.86c-0.92,0.82-1.96,1.28-3.05,1.28c-1.28,0-2.48-0.63-3.51-1.72c0.34-0.96,0.85-2.21,0.32-3.2
			c-0.23-0.43-0.57-0.39-0.86-0.18c-0.36,0.27-0.68,0.74-1,1.15c-1.09-2.13-1.76-4.94-1.76-8.03c0-0.41,0.01-0.82,0.03-1.22
			c0.61,0.15,1.32,0.26,1.58-0.87c0.13-0.54-0.03-1.07-0.26-1.44c-0.24-0.4-0.55-0.69-0.85-0.98c0.83-3.59,2.62-6.32,4.81-7.17
			c0.11,0.71,0.2,1.49,0.4,2.13c0.15,0.48,0.41,0.88,0.74,0.79c0.82-0.22,0.81-2,0.9-3.13c0-0.02,0-0.03,0-0.04
			c2.56,0.36,4.73,3.23,5.71,7.22c-0.36,0.36-0.77,0.69-1.07,1.18c-0.23,0.37-0.39,0.91-0.26,1.44c0.31,1.29,1.2,0.95,1.85,0.8
			c0.03,0.43,0.04,0.85,0.04,1.29C31.78,107.52,30.96,110.6,29.65,112.79z"/>
		<g>
			<path fill="#A5BAB3" d="M24.98,88.09c-5.01,0-9.1,7.18-9.1,16.01c0,8.83,4.08,16.01,9.1,16.01c5.01,0,9.09-7.18,9.09-16.01
				C34.07,95.27,29.99,88.09,24.98,88.09z M24.98,118.91c-4.64,0-8.41-6.65-8.41-14.81c0-8.17,3.78-14.82,8.41-14.82
				c4.64,0,8.41,6.65,8.41,14.82C33.39,112.27,29.62,118.91,24.98,118.91z"/>
		</g>
	</g>
	<path fill="#252B34" d="M24.98,94.05c-3.14,0-5.71,4.51-5.71,10.05c0,5.54,2.56,10.04,5.71,10.04c3.15,0,5.71-4.51,5.71-10.04
		C30.68,98.56,28.12,94.05,24.98,94.05z M25.9,101.82c-0.19-0.24-0.41-0.4-0.65-0.48v-1.02c0.4,0.09,0.76,0.36,1.06,0.77
		L25.9,101.82z M24.66,101.35c-0.23,0.08-0.45,0.26-0.63,0.5l-0.41-0.71c0.3-0.42,0.65-0.7,1.04-0.8V101.35z M23.64,102.6
		c-0.12,0.32-0.2,0.69-0.23,1.09h-0.58c0.04-0.67,0.19-1.29,0.4-1.81L23.64,102.6z M23.42,104.7c0.05,0.37,0.14,0.71,0.25,1.01
		l-0.4,0.72c-0.22-0.49-0.37-1.08-0.43-1.73H23.42z M24.09,106.43c0.17,0.2,0.37,0.34,0.57,0.41v1.02c-0.36-0.09-0.7-0.35-0.98-0.71
		L24.09,106.43z M25.24,106.86c0.21-0.07,0.41-0.2,0.59-0.4l0.41,0.72c-0.29,0.37-0.63,0.61-1,0.69V106.86z M26.25,105.76
		c0.13-0.31,0.23-0.67,0.28-1.06h0.58c-0.06,0.66-0.22,1.28-0.45,1.78L26.25,105.76z M26.55,103.69c-0.04-0.42-0.12-0.81-0.25-1.14
		l0.41-0.72c0.22,0.53,0.37,1.16,0.42,1.86H26.55z M27.09,99.72c-0.51-0.76-1.15-1.25-1.85-1.35v-0.91c0.84,0.11,1.61,0.7,2.21,1.62
		L27.09,99.72z M24.66,98.37c-0.69,0.12-1.32,0.62-1.82,1.38l-0.36-0.64c0.6-0.93,1.35-1.53,2.19-1.65V98.37z M22.44,100.49
		c-0.41,0.89-0.67,1.99-0.72,3.2h-0.52c0.05-1.46,0.37-2.79,0.87-3.84L22.44,100.49z M21.73,104.7c0.07,1.18,0.34,2.25,0.76,3.11
		l-0.37,0.64c-0.5-1.02-0.84-2.32-0.91-3.75H21.73z M22.9,108.53c0.49,0.71,1.1,1.17,1.76,1.29v0.91c-0.81-0.12-1.54-0.68-2.13-1.56
		L22.9,108.53z M25.24,109.82c0.67-0.1,1.29-0.55,1.78-1.26l0.37,0.64c-0.59,0.87-1.33,1.42-2.15,1.52V109.82z M27.44,107.86
		c0.43-0.87,0.71-1.96,0.78-3.16h0.52c-0.08,1.45-0.42,2.76-0.93,3.8L27.44,107.86z M28.23,103.69c-0.05-1.23-0.32-2.35-0.74-3.25
		l0.37-0.63c0.51,1.06,0.84,2.41,0.89,3.88H28.23z"/>
	<g>
		<polygon fill="#121720" points="50.58,100.92 47.19,100.04 50.51,60.26 53.9,61.14 		"/>
		<path fill="#ACC8C4" d="M53.23,72.89l-3.99-1.04c-0.25-0.06-0.48,0.24-0.52,0.68l-0.03,0.42c-0.04,0.44,0.13,0.85,0.38,0.91
			l3.99,1.04c0.25,0.07,0.48-0.23,0.52-0.68l0.03-0.42C53.65,73.37,53.48,72.96,53.23,72.89z"/>
		<path fill="#ACC8C4" d="M52.93,76.54l-3.99-1.04c-0.25-0.06-0.48,0.24-0.52,0.68l-0.03,0.42c-0.04,0.44,0.14,0.85,0.39,0.91
			l3.99,1.03c0.25,0.07,0.48-0.24,0.52-0.68l0.04-0.42C53.35,77.01,53.17,76.6,52.93,76.54z"/>
		<path fill="#ACC8C4" d="M52.62,80.18l-3.99-1.03c-0.25-0.07-0.48,0.24-0.52,0.68l-0.03,0.42c-0.04,0.44,0.14,0.85,0.39,0.91
			l3.99,1.04c0.25,0.06,0.48-0.24,0.52-0.68l0.04-0.42C53.04,80.65,52.87,80.24,52.62,80.18z"/>
		<path fill="#ACC8C4" d="M52.32,83.82l-3.99-1.03c-0.25-0.07-0.48,0.23-0.52,0.67l-0.03,0.42c-0.03,0.44,0.14,0.85,0.39,0.91
			l3.99,1.03c0.25,0.06,0.48-0.24,0.52-0.68l0.04-0.42C52.74,84.29,52.57,83.88,52.32,83.82z"/>
		<path fill="#ACC8C4" d="M52.01,87.46l-3.99-1.03c-0.25-0.07-0.48,0.23-0.52,0.67l-0.03,0.42c-0.04,0.44,0.13,0.85,0.38,0.91
			l3.99,1.03c0.25,0.06,0.48-0.24,0.52-0.68l0.04-0.42C52.43,87.93,52.26,87.53,52.01,87.46z"/>
		<path fill="#ACC8C4" d="M51.71,91.1l-3.99-1.04c-0.25-0.06-0.48,0.24-0.52,0.68l-0.04,0.42c-0.04,0.44,0.14,0.84,0.38,0.91l4,1.03
			c0.25,0.06,0.48-0.24,0.52-0.67l0.03-0.42C52.13,91.57,51.96,91.17,51.71,91.1z"/>
		<path fill="#ACC8C4" d="M51.4,94.74l-3.99-1.04c-0.25-0.06-0.48,0.24-0.52,0.68l-0.03,0.42c-0.04,0.44,0.14,0.85,0.39,0.91
			l3.99,1.03c0.25,0.06,0.48-0.24,0.52-0.68l0.03-0.42C51.83,95.22,51.65,94.81,51.4,94.74z"/>
	</g>
	<g>
		<path fill="#303740" d="M115.64,25.36v23.26c0,0-8.23-0.98-8.23-13.31C107.41,35.32,107.13,25.76,115.64,25.36z"/>
		<path fill="#404853" d="M115.64,25.36c0,0,1.85,1.33,2.13,3.15v17.2c0,0-0.53,2.42-2.13,2.91V25.36z"/>
		<path fill="#1E242D" d="M115.64,28.51v16.97c0,0-8.23-0.72-8.23-9.71C107.41,35.78,107.13,28.8,115.64,28.51z"/>
		<polygon fill="#545C66" points="115.64,32.73 117.77,32.73 117.77,29.86 115.64,28.42 		"/>
		<rect x="115.64" y="39.19" fill="#545C66" width="2.13" height="1.62"/>
		<polygon fill="#545C66" points="115.64,46.05 117.77,44.61 117.77,41.74 115.64,41.74 		"/>
		<path fill="#303740" d="M115.64,33.4v7.18c0,0-8.23-0.31-8.23-4.1C107.41,36.48,107.13,33.53,115.64,33.4z"/>
	</g>
	<path fill="#121720" d="M53.47,93.63l-0.84,6.25H50.8v8.03l6.94,1.05l5.38,1.47c0.35,0.1,0.67-0.33,0.72-0.95l1.22-15.86H53.47z"/>
	<polygon fill="#121720" points="65.59,100 64.47,112.42 81.69,112.42 83.16,100 	"/>
	<polygon fill="#303740" points="84.59,113.59 59.03,103.66 59.45,100.21 85.02,110.14 	"/>
	<polygon fill="#C6D1C5" points="51.4,63.51 74.38,77.18 79.11,75.81 89.89,62.62 	"/>
	<polygon opacity="0.15" fill="#404041" points="89.89,62.62 51.4,63.51 51.59,63.63 85.11,68.47 	"/>
	<g>
		<polygon fill="#303740" points="80.78,115.98 91.8,119.29 94.71,89.18 83.7,85.86 		"/>
		<path fill="#404853" d="M92.46,116.99l-11.88-3.57c-0.15-0.05-0.3,0.1-0.32,0.33l-0.04,0.45c-0.03,0.23,0.08,0.45,0.24,0.5
			l11.87,3.56c0.16,0.05,0.31-0.1,0.33-0.33l0.04-0.45C92.73,117.26,92.62,117.04,92.46,116.99z"/>
		<path fill="#404853" d="M92.67,114.75l-11.87-3.57c-0.16-0.05-0.31,0.1-0.33,0.33l-0.05,0.45c-0.02,0.23,0.09,0.45,0.25,0.5
			l11.87,3.56c0.16,0.05,0.3-0.09,0.33-0.33l0.04-0.45C92.95,115.02,92.84,114.8,92.67,114.75z"/>
		<path fill="#404853" d="M92.9,112.52l-11.88-3.56c-0.16-0.05-0.3,0.1-0.32,0.33l-0.04,0.45c-0.03,0.23,0.09,0.45,0.24,0.5
			l11.88,3.57c0.15,0.05,0.3-0.1,0.32-0.33l0.04-0.45C93.16,112.79,93.06,112.56,92.9,112.52z"/>
		<path fill="#404853" d="M93.11,110.28l-11.87-3.57c-0.16-0.05-0.31,0.1-0.33,0.33l-0.04,0.45c-0.02,0.23,0.08,0.45,0.24,0.5
			l11.87,3.57c0.16,0.05,0.31-0.1,0.33-0.33l0.05-0.45C93.38,110.55,93.27,110.33,93.11,110.28z"/>
		<path fill="#404853" d="M93.33,108.04l-11.87-3.57c-0.16-0.05-0.31,0.1-0.33,0.33l-0.05,0.45c-0.02,0.23,0.09,0.46,0.24,0.5
			l11.88,3.57c0.16,0.05,0.3-0.1,0.32-0.33l0.04-0.44C93.6,108.31,93.49,108.09,93.33,108.04z"/>
		<path fill="#404853" d="M93.55,105.81l-11.88-3.57c-0.16-0.05-0.3,0.1-0.32,0.33l-0.04,0.44c-0.02,0.23,0.08,0.45,0.25,0.51
			l11.87,3.56c0.16,0.05,0.3-0.1,0.32-0.33l0.05-0.45C93.81,106.08,93.7,105.85,93.55,105.81z"/>
		<path fill="#404853" d="M93.76,103.57L81.89,100c-0.16-0.05-0.3,0.1-0.33,0.33l-0.04,0.45c-0.02,0.23,0.09,0.45,0.25,0.5
			l11.88,3.57c0.16,0.05,0.3-0.1,0.33-0.33l0.04-0.45C94.03,103.84,93.92,103.62,93.76,103.57z"/>
		<path fill="#404853" d="M93.98,101.33L82.1,97.77c-0.16-0.05-0.31,0.1-0.33,0.32l-0.04,0.45c-0.02,0.23,0.09,0.46,0.25,0.5
			l11.88,3.57c0.16,0.05,0.31-0.1,0.32-0.33l0.05-0.45C94.25,101.61,94.14,101.38,93.98,101.33z"/>
		<path fill="#404853" d="M94.19,99.1l-11.87-3.57c-0.16-0.05-0.31,0.09-0.33,0.33l-0.04,0.45c-0.02,0.23,0.09,0.45,0.25,0.5
			l11.87,3.57c0.16,0.05,0.3-0.1,0.33-0.33l0.04-0.44C94.46,99.37,94.35,99.14,94.19,99.1z"/>
		<path fill="#404853" d="M94.41,96.87L82.54,93.3c-0.16-0.05-0.31,0.1-0.33,0.33l-0.04,0.45c-0.02,0.23,0.09,0.45,0.25,0.5
			l11.87,3.57c0.16,0.05,0.31-0.1,0.33-0.33l0.04-0.44C94.68,97.14,94.57,96.91,94.41,96.87z"/>
		<path fill="#404853" d="M94.63,94.63l-11.87-3.57c-0.16-0.05-0.3,0.1-0.33,0.33l-0.04,0.45c-0.02,0.23,0.09,0.45,0.25,0.5
			l11.87,3.57c0.16,0.05,0.31-0.1,0.33-0.33l0.04-0.44C94.89,94.9,94.79,94.67,94.63,94.63z"/>
		<path fill="#404853" d="M94.84,92.39l-11.88-3.57c-0.16-0.05-0.31,0.1-0.32,0.33L82.6,89.6c-0.02,0.23,0.09,0.45,0.25,0.5
			l11.87,3.56c0.16,0.05,0.3-0.1,0.33-0.33l0.04-0.45C95.11,92.66,95,92.44,94.84,92.39z"/>
	</g>
	<polygon fill="#303740" points="102.2,33.64 96.54,36.24 96.03,32.83 101.69,30.23 	"/>
	<polygon fill="#303740" points="105.89,42.73 94.18,63.52 92.76,61.04 104.46,40.24 	"/>
	<polygon fill="#303740" points="92.11,63.34 60.03,102.21 58.9,99.31 90.97,60.43 	"/>
	<polygon fill="#303740" points="59.48,103.98 48.99,61.76 50.82,60.34 61.32,102.56 	"/>
	<polygon fill="#303740" points="77.12,81.1 50.15,65.4 50.78,62.06 77.75,77.75 	"/>
	<rect x="51.4" y="59.99" fill="#303740" width="50.55" height="3.53"/>
	<rect x="51.4" y="61.76" opacity="0.2" fill="#404041" width="50.55" height="1.76"/>
	<path fill="#303740" d="M19.19,56.08l-0.07,1.82c-0.03,0.94,0.37,1.75,0.9,1.81L49,63.08l0.13-3.52L19.19,56.08z"/>
	<polygon fill="#303740" points="109.47,52.35 93.11,77.89 91.78,75.25 108.14,49.72 	"/>
	<polygon fill="#121720" points="109.9,54.03 92.89,80.6 92.45,79.73 109.46,53.17 	"/>
	<polygon fill="#303740" points="94.64,61.44 91.98,77.19 90.06,76.19 92.72,60.43 	"/>
	<polygon fill="#303740" points="108.68,41.51 105.61,44.06 104.69,40.64 107.77,38.09 	"/>
	<path fill="#303740" d="M110.63,19.19l-1.43-5.35c-0.17-0.61-0.58-0.87-0.93-0.58l-5.02,4.17c-0.35,0.29-0.5,1.03-0.34,1.64
		l1.44,5.35c0.16,0.62,0.58,0.88,0.93,0.59l5.02-4.17C110.64,20.54,110.8,19.81,110.63,19.19z"/>
	<polygon fill="#404853" points="109.62,14.27 102.82,19.92 102.35,18.17 109.16,12.52 	"/>
	<polygon fill="#303740" points="111.08,50.02 107.29,53.17 106.05,48.5 109.83,45.36 	"/>
	<polygon fill="#303740" points="105.27,29.68 102.04,32.37 101.26,29.46 104.49,26.77 	"/>
	<polygon fill="#121720" points="106.46,32.66 103.38,35.21 102.39,31.5 105.46,28.94 	"/>
	<polygon fill="#303740" points="116.48,70.17 114.32,71.97 108.92,51.82 111.08,50.02 	"/>
	<polygon fill="#404853" points="107.02,22.6 103.48,25.54 102.37,21.4 105.9,18.46 	"/>
	<polygon fill="#121720" points="106.73,24.15 104.34,26.13 104.05,25.06 106.44,23.08 	"/>
	<path fill="#ACC8C4" d="M118.89,65.29l-1-3.72c-0.03-0.12-0.11-0.16-0.17-0.11l-4,3.33c-0.06,0.06-0.09,0.2-0.06,0.32l1,3.72
		c0.03,0.12,0.11,0.16,0.18,0.11l4-3.33C118.89,65.54,118.92,65.4,118.89,65.29z"/>
	<polygon fill="#ACC8C4" points="120.42,74.43 117.68,76.7 122.87,96.02 125.6,93.74 	"/>
	<polygon opacity="0.15" fill="#404041" points="119.09,75.53 117.68,76.7 122.87,96.02 124.27,94.85 	"/>
	<polygon fill="#404853" points="118.54,65.83 115.11,68.69 117.34,76.99 120.77,74.14 	"/>
	<path fill="#404853" d="M127.63,107.68l0.05-0.05c0.93-0.77,1.34-2.74,0.89-4.37l-2.63-9.8l-3.44,2.85l2.63,9.8
		C125.58,107.75,126.7,108.46,127.63,107.68z"/>
	<path fill="#303740" d="M53.49,61.76c0,2.62-1.2,4.74-2.69,4.74c-1.48,0-2.69-2.12-2.69-4.74c0-2.62,1.21-4.74,2.69-4.74
		C52.29,57.02,53.49,59.14,53.49,61.76z"/>
	<path opacity="0.2" fill="#404041" d="M52.74,61.76c0,1.89-0.87,3.41-1.94,3.41c-1.07,0-1.94-1.53-1.94-3.41
		c0-1.88,0.87-3.42,1.94-3.42C51.87,58.34,52.74,59.87,52.74,61.76z"/>
	<path fill="#303740" d="M93.32,78.74c0,2.35-1.08,4.26-2.42,4.26c-1.34,0-2.42-1.91-2.42-4.26c0-2.35,1.08-4.26,2.42-4.26
		C92.23,74.48,93.32,76.39,93.32,78.74z"/>
	<g>
		<path fill="#404853" d="M78.55,72.48H77.3c-0.3,0-0.55,0.43-0.55,0.97v7.46c0,0.54,0.25,0.97,0.55,0.97h1.25
			c0.3,0,0.55-0.43,0.55-0.97v-7.46C79.11,72.92,78.86,72.48,78.55,72.48z"/>
		<path fill="#404853" d="M75.01,72.48h-1.25c-0.3,0-0.55,0.43-0.55,0.97v7.46c0,0.54,0.25,0.97,0.55,0.97h1.25
			c0.31,0,0.55-0.43,0.55-0.97v-7.46C75.56,72.92,75.31,72.48,75.01,72.48z"/>
	</g>
	<polygon fill="#404853" points="66.66,88.68 75.43,92.29 76.65,83.15 67.88,79.52 	"/>
	<polygon opacity="0.2" fill="#404041" points="67.31,83.75 76.09,87.37 76.45,84.71 67.67,81.09 	"/>
	<polygon opacity="0.2" fill="#404041" points="66.66,88.68 75.43,92.29 75.79,89.65 67.01,86.03 	"/>
	<rect x="75.56" y="73.86" fill="#303740" width="1.2" height="8.02"/>
	<g>
		<path fill="#404853" d="M71.21,97.56h-4.94c-0.19,0-0.34,0.27-0.34,0.6v3.67c0,0.33,0.15,0.6,0.34,0.6h4.94
			c0.19,0,0.34-0.27,0.34-0.6v-3.67C71.55,97.83,71.4,97.56,71.21,97.56z"/>
		<path fill="#404853" d="M75.16,97.56h-2.7c-0.19,0-0.34,0.27-0.34,0.6v3.67c0,0.33,0.15,0.6,0.34,0.6h2.7
			c0.19,0,0.34-0.27,0.34-0.6v-3.67C75.5,97.83,75.35,97.56,75.16,97.56z"/>
	</g>
	<path fill="#121720" d="M53.49,71.09l0.38-0.57c0.26-0.4,0.6-0.58,0.95-0.52l4.67,0.83l-7.09-4.13L53.49,71.09z"/>
	<polygon fill="#6B5561" points="66.6,89.44 59.34,85.56 60.52,76.57 67.99,78.82 	"/>
	<polygon fill="#404853" points="117.08,61.98 114.35,64.26 104.17,26.28 106.9,24.01 	"/>
	<polygon fill="#525A66" points="117.08,61.98 115.72,63.12 105.53,25.14 106.9,24.01 	"/>
	<polygon fill="#525A66" points="118.54,65.83 116.92,67.18 119.14,75.49 120.77,74.14 	"/>
	<rect x="20.94" y="99.89" fill="#121720" width="31.43" height="8.03"/>
	<rect x="20.94" y="101.67" fill="#303740" width="31.43" height="4.49"/>
	<polygon fill="#121720" points="58.01,98 27.84,98 27.84,90.7 56.2,90.7 	"/>
	<polygon fill="#121720" points="28.43,97.8 25.24,99.89 20.94,99.89 27.84,95.23 	"/>
	<polygon fill="#404853" points="128.12,106.52 119.65,110.54 119.39,108.83 127.86,104.81 	"/>
	<polygon fill="#404853" points="126.31,99.99 119.96,96.63 120.25,94.94 126.6,98.29 	"/>
	<path fill="#7F2A25" d="M117.06,80.22l-8.76-33.15l-0.61,0.49l8.76,33.16c0.4,1.51,0.61,3.2,0.61,4.87v9.34h0.67V85.6
		C117.74,83.75,117.5,81.89,117.06,80.22z"/>
	<polygon fill="#404853" points="109.32,49.87 106.85,51.91 100.73,29.09 103.19,27.04 	"/>
	<polygon opacity="0.15" fill="#404041" points="108.08,50.89 106.85,51.91 100.73,29.09 101.96,28.07 	"/>
	<polygon fill="#5B3F4F" points="66.7,88.64 59.43,84.9 60.44,77.25 67.89,79.61 	"/>
	<polygon fill="#6B5561" points="66.81,87.85 59.51,84.24 60.34,77.93 67.78,80.41 	"/>
	<polygon fill="#5B3F4F" points="66.91,87.08 59.6,83.6 60.25,78.59 67.68,81.17 	"/>
	<polygon fill="#6B5561" points="67.02,86.23 59.69,82.88 60.16,79.32 67.57,82.03 	"/>
	<polygon fill="#5B3F4F" points="67.12,85.45 59.78,82.23 60.07,80 67.47,82.81 	"/>
	<polygon fill="#6B5561" points="67.22,84.67 59.87,81.58 59.98,80.66 67.37,83.59 	"/>
	<polygon fill="#7C6270" points="64.9,88.53 65.39,88.79 66.72,78.44 66.22,78.28 	"/>
	<polygon fill="#7C6270" points="60.12,85.98 60.61,86.24 61.8,76.96 61.3,76.8 	"/>
	<g>
		<path fill="#374B60" d="M101.27,37.15c-0.44-4.44-2.68-5.12-2.68-5.12c-3.47-0.77-11.03-1.19-11.03-1.19
			C69.21,31.8,62.19,47.31,61.21,50.1c-0.08,0.22-0.13,0.45-0.17,0.7l-1.18,7.7c-0.17,1.51,1.53,1.53,1.53,1.53h37.73
			c2.99,0,3.12-5.04,3.12-5.04L101.27,37.15z"/>
		<path fill="#243543" d="M99.11,60.03c1.88,0,2.63-1.99,2.92-3.47c0.15-0.74,0.2-1.52,0.15-2.3l-0.41-7.63l-4.79,13.4H99.11z"/>
		<path fill="#445C6C" d="M87.23,34.33c0,0,7.87,0.42,11.48,1.19c0,0,2.15,0.64,2.72,4.62l-0.16-2.98
			c-0.44-4.44-2.68-5.12-2.68-5.12c-3.47-0.77-11.03-1.19-11.03-1.19C69.21,31.8,62.19,47.31,61.21,50.1
			c-0.08,0.22-0.13,0.45-0.17,0.7L61.01,51C63.85,45.68,71.58,35.12,87.23,34.33z"/>
		<path fill="#243543" d="M101.17,58.68H59.85c-0.01,1.32,1.53,1.35,1.53,1.35h37.73c0.94,0,1.6-0.5,2.06-1.19V58.68z"/>
		<path opacity="0.15" fill="#404041" d="M61.21,50.1c-0.08,0.22-0.13,0.45-0.17,0.7l-1.18,7.7c-0.17,1.51,1.53,1.53,1.53,1.53
			h37.73c2.99,0,3.12-5.04,3.12-5.04l-0.41-7.76H62.5C61.82,48.54,61.4,49.56,61.21,50.1z"/>
		<path fill="#2A3C4B" d="M63.24,57.02c0,0-1.38-1.02-0.23-3.91c0,0,6-14.1,18.15-15.65c0,0,2.41-0.19,2.5,3.67
			c0,0,0.18,7.28-1.83,10.97c0,0-0.96,2.34-3.91,3.05C77.91,55.14,68.7,57.04,63.24,57.02z"/>
		<path fill="#243543" d="M83.65,41.12c-0.09-3.86-2.5-3.67-2.5-3.67C70.7,38.79,64.8,49.42,63.36,52.35
			c2.12-3.89,7.83-12.57,17.2-13.76c0,0,2.41-0.19,2.5,3.67c0,0,0.16,6.55-1.54,10.38c0.2-0.32,0.3-0.54,0.3-0.54
			C83.83,48.4,83.65,41.12,83.65,41.12z"/>
	</g>
	<path fill="#748484" d="M127.74,92.46c0,0.63-0.29,1.15-0.65,1.15c-0.36,0-0.65-0.51-0.65-1.15c0-0.63,0.29-1.14,0.65-1.14
		C127.45,91.32,127.74,91.83,127.74,92.46z"/>
	<path fill="#ACC8C4" d="M128.17,104.43c0,1.31-0.61,2.38-1.35,2.38c-0.74,0-1.35-1.07-1.35-2.38c0-1.32,0.61-2.39,1.35-2.39
		C127.56,102.04,128.17,103.11,128.17,104.43z"/>
	<path fill="#84A7A3" d="M127.79,104.43c0,0.95-0.44,1.72-0.98,1.72c-0.54,0-0.98-0.77-0.98-1.72c0-0.95,0.44-1.72,0.98-1.72
		C127.36,102.71,127.79,103.48,127.79,104.43z"/>
	<path fill="#ACC8C4" d="M26.08,103.91c0,1.07-0.49,1.93-1.09,1.93c-0.6,0-1.09-0.86-1.09-1.93c0-1.06,0.49-1.92,1.09-1.92
		C25.6,101.99,26.08,102.85,26.08,103.91z"/>
	<path fill="#84A7A3" d="M25.78,103.91c0,0.77-0.35,1.38-0.79,1.38c-0.43,0-0.78-0.61-0.78-1.38c0-0.76,0.35-1.38,0.78-1.38
		C25.43,102.53,25.78,103.15,25.78,103.91z"/>
	<g>
		<polygon fill="#94745A" points="121.22,94.89 119.33,110.65 115.28,109.14 117.17,93.37 		"/>
		<g>
			<path fill="#94745A" d="M119.77,97.68l1.78,0.66c0.14,0.05,0.27-0.11,0.3-0.35l0.28-2.31c0.03-0.24-0.06-0.48-0.2-0.54
				l-1.78-0.66L119.77,97.68z"/>
			<path fill="#94745A" d="M120.88,103.84c0.14,0.05,0.28-0.11,0.3-0.35l0.28-2.31c0.03-0.24-0.06-0.48-0.2-0.53l-1.78-0.66
				l-0.38,3.19L120.88,103.84z"/>
			<path fill="#94745A" d="M120.04,110.91c0.13,0.05,0.27-0.1,0.3-0.35l0.28-2.31c0.03-0.25-0.06-0.48-0.2-0.53l-1.78-0.66
				l-0.38,3.19L120.04,110.91z"/>
		</g>
		<g>
			<path fill="#CA9978" d="M116.38,93.05l-0.65,5.36c-0.03,0.3,0.07,0.59,0.24,0.65l2.83,1.05c0.17,0.06,0.33-0.13,0.37-0.42
				l0.64-5.36c0.04-0.3-0.07-0.58-0.24-0.64l-2.82-1.05C116.57,92.56,116.41,92.75,116.38,93.05z"/>
			<path fill="#CA9978" d="M115.77,101.83l-0.88,7.36c-0.04,0.3,0.07,0.59,0.24,0.65l2.4,0.89c0.17,0.06,0.33-0.13,0.37-0.42
				l0.88-7.37c0.04-0.29-0.07-0.59-0.24-0.65l-2.4-0.89C115.97,101.35,115.8,101.53,115.77,101.83z"/>
		</g>
	</g>
	<g>
		<polygon fill="#94745A" points="31.4,93.15 23.02,90.89 23.6,84.2 31.99,86.47 		"/>
		<g>
			<path fill="#94745A" d="M29.86,90.92l-0.26,2.94c-0.02,0.23,0.07,0.44,0.2,0.47l1.23,0.33c0.13,0.04,0.25-0.12,0.27-0.35
				l0.25-2.93L29.86,90.92z"/>
			<path fill="#94745A" d="M26.68,93.06c-0.02,0.23,0.07,0.44,0.2,0.48l1.22,0.33c0.13,0.04,0.26-0.12,0.27-0.35l0.26-2.93
				l-1.69-0.46L26.68,93.06z"/>
			<path fill="#94745A" d="M22.92,92.05c-0.02,0.23,0.07,0.44,0.2,0.48l1.23,0.33c0.13,0.04,0.25-0.12,0.27-0.35l0.26-2.93
				l-1.7-0.46L22.92,92.05z"/>
		</g>
		<g>
			<path fill="#CA9978" d="M32.12,85.15l-2.85-0.77c-0.16-0.04-0.3,0.15-0.33,0.43l-0.41,4.66c-0.02,0.28,0.09,0.53,0.24,0.58
				l2.85,0.77c0.16,0.04,0.31-0.15,0.33-0.43l0.41-4.66C32.38,85.46,32.27,85.19,32.12,85.15z"/>
			<path fill="#CA9978" d="M27.47,84.62l-3.92-1.06c-0.16-0.04-0.31,0.15-0.33,0.43l-0.34,3.95c-0.03,0.28,0.08,0.54,0.24,0.58
				l3.91,1.06c0.16,0.04,0.31-0.15,0.33-0.43l0.34-3.95C27.73,84.92,27.63,84.67,27.47,84.62z"/>
		</g>
	</g>
	<polygon fill="#303740" points="57,101.78 38.46,61.44 40.02,59.22 58.56,99.56 	"/>
	<polygon fill="#3B434C" points="57.78,100.67 40.03,62.04 41.39,62.2 58.56,99.56 	"/>
	<path fill="#303740" d="M61.72,100.84c0,2.62-1.21,4.74-2.69,4.74c-1.49,0-2.7-2.12-2.7-4.74c0-2.62,1.21-4.74,2.7-4.74
		C60.51,96.1,61.72,98.22,61.72,100.84z"/>
	<path fill="#474749" d="M126.77,136.37c3.22,0,6.38-1.48,9.15-4.3l-0.38-0.67c-2.66,2.66-5.69,4.06-8.77,4.06
		c-9.82,0-17.81-14.07-17.81-31.36c0-5.42,0.8-10.76,2.31-15.45l-0.38-0.67c-1.6,4.89-2.45,10.45-2.45,16.12
		C108.43,121.89,116.66,136.37,126.77,136.37z"/>
	<g>
		<path fill="#282E37" d="M101.66,23.3c0,0,1.31-1.07,2.47-0.76c0,0,1.25,0.37,1.54,2.58c0,0,0.3,2.67-0.71,4.42l-0.04,2.63
			c0,0.19-0.04,0.37-0.12,0.51c-0.14,0.29-0.42,0.82-0.78,1.43l-3.5,5.46c-0.3,0.47-0.36,0.97-0.37,1.67c0,0.29,0.01,0.59,0.02,0.82
			c0.01,0.21-0.13,0.6-0.21,0.76c-0.09,0.16-0.21,0.25-0.38-0.02c0,0-0.65-1.9-0.02-3.39l3.44-5.36c0,0,1-2.16,0.64-3.46
			L101.66,23.3z"/>
		<path fill="#6D7784" d="M104.5,27.57c0,2.55-1.16,4.62-2.6,4.63c-1.45,0.01-2.63-2.05-2.63-4.6c-0.01-2.54,1.16-4.62,2.6-4.63
			C103.32,22.96,104.5,25.02,104.5,27.57z"/>
		<path fill="#404853" d="M101.88,23.66c-1.23,0.01-2.23,1.77-2.22,3.94c0,2.17,1,3.92,2.24,3.91c1.23-0.01,2.22-1.78,2.22-3.94
			C104.11,25.4,103.11,23.65,101.88,23.66z M101.89,30.66c-0.97,0-1.75-1.37-1.76-3.06c0-1.7,0.78-3.08,1.74-3.09
			c0.97-0.01,1.75,1.36,1.76,3.06C103.63,29.27,102.86,30.65,101.89,30.66z"/>
		<path fill="#282E37" d="M95.18,33.94l6.05-7.93c0,0,1-0.6,1.45,0.91c0,0,0.37,1.22,0.11,2.2l-5.4,8.91L95.18,33.94z"/>
		<path fill="#6D7784" d="M97.94,35.87c0.01,1.56-0.71,2.83-1.6,2.84c-0.89,0-1.6-1.25-1.61-2.81c0-1.56,0.71-2.83,1.6-2.84
			C97.22,33.06,97.94,34.32,97.94,35.87z"/>
		<path fill="#404853" d="M96.33,33.77c-0.66,0.01-1.2,0.96-1.2,2.13c0,1.17,0.54,2.11,1.21,2.11c0.66,0,1.2-0.95,1.2-2.12
			C97.54,34.71,97,33.77,96.33,33.77z M96.34,37.35c-0.46,0.01-0.83-0.64-0.83-1.45c0-0.81,0.37-1.46,0.82-1.46
			c0.46-0.01,0.83,0.64,0.83,1.45C97.17,36.69,96.8,37.34,96.34,37.35z"/>
		<path fill="#404853" d="M96.34,35.17c-0.22,0-0.4,0.33-0.4,0.73c0,0.4,0.18,0.72,0.41,0.72c0.22,0,0.41-0.32,0.41-0.73
			C96.75,35.49,96.56,35.17,96.34,35.17z"/>
	</g>
	<path fill="#C99D67" d="M59.07,50.82L59.07,50.82c-2.13-1.07-3.74-0.1-3.75-0.09l0,0c-1.72-1.04-3.7-0.26-3.7-0.26c0,0,0,0,0,0
		c-1.63-1.05-3.53-0.43-3.54-0.43l0,0c-1.94-1.19-3.43-0.64-3.44-0.64l0,0c-1.34-1.44-3.6-1.04-3.6-1.03l0,0
		c-1.65-1.59-3.5-1.67-3.5-1.67l-1.62-2.71c-0.55-0.93-1.3-1.38-2.06-1.23c-3.09,0.6-11.25,3.13-14.66,13.32l33.66,3.91h6.81
		l1.38-9.19C60.23,50.35,59.08,50.81,59.07,50.82z"/>
	<path fill="#DDB483" d="M34.47,43.91l1.72,3.37c0,0,1.97,0.1,3.72,2.08l0,0c0.01,0,2.42-0.51,3.84,1.28c0,0,0,0,0,0
		c0.01,0,1.59-0.69,3.66,0.8l0,0c0.01,0,2.03-0.78,3.77,0.53l0,0c0.01,0,2.11-0.98,3.94,0.32l0,0c0.01-0.01,1.72-1.22,3.99,0.12l0,0
		c0-0.01,0.89-0.42,1.7-0.21l0.21-1.4c-0.81-0.44-1.97,0.01-1.97,0.02l0,0c-2.13-1.07-3.74-0.1-3.75-0.09l0,0
		c-1.73-1.04-3.7-0.26-3.71-0.26l0,0c-1.64-1.05-3.53-0.43-3.54-0.43l0,0c-1.95-1.19-3.43-0.64-3.44-0.64l0,0
		c-1.34-1.44-3.6-1.04-3.61-1.03l0,0c-1.65-1.59-3.49-1.67-3.49-1.67l-1.62-2.71c-0.55-0.93-1.3-1.38-2.06-1.23
		c-0.06,0.01-0.12,0.02-0.19,0.04C33.95,43.06,34.23,43.43,34.47,43.91z"/>
	<path fill="#B1804A" d="M59.65,59.99l0.33-2.22c-13.13,0.3-33.48-3.95-39.28-5.23c-0.57,1.06-1.08,2.24-1.52,3.54l33.66,3.91H59.65
		z"/>
	<polygon fill="#545C66" points="108.63,15.09 107.92,15.68 107.45,13.93 108.16,13.34 	"/>
	<polygon fill="#545C66" points="107.58,15.96 107.05,16.41 106.58,14.65 107.11,14.21 	"/>
	<polygon fill="#545C66" points="104.43,18.58 103.55,19.32 103.07,17.57 103.96,16.83 	"/>
	<g>
		<path fill="#ACC8C4" d="M61.36,105.17l-3.99,0.57v-1.28l-3.07-1.49l-5.13,2.55v1.14l0.64,0.86l1.87-0.73l2.58,5.27l0.22,0.84
			l6.98-5.81C61.46,107.07,62.36,105.67,61.36,105.17z M55.9,110.16l-0.38-2.25l4.15-0.89L55.9,110.16z"/>
	</g>
	<path fill="#84A7A3" d="M100.65,95.26c-0.12-3.63-1.46-7.12-2.8-8.47c-0.83-0.84-2.19-1.33-3.15-1.43l-2.99-0.32l0.55,4.72
		c1.55-0.16,3.33,0.66,3.33,0.66c0.92,0.85,1.46,2.1,1.78,3.4c0.67,2.75,0.35,5.93-0.75,8.2l-5.74,12.58
		c-2.51,5.74-7.17,4.39-7.17,4.39l-25.1-4.78c-4.44-0.66-6.95-4.92-6.95-4.92L43.8,94.96c-1.4-2.43-2.25-3.26-3.03-3.58
		c-0.77-0.31-1.79,0.1-2.08,1.4c-0.74,3.3,1.67,7.01,1.67,7.01l7.39,12.42c3.15,6.53,7.27,7.06,7.27,7.06s23.04,5.37,28.03,5.98
		c3.66,0.45,6.43-1.92,7.65-3.23c0.42-0.44,0.78-1.01,1.09-1.67l5.53-11.93C100.93,100.77,100.65,95.26,100.65,95.26z"/>
	<g>
		<path fill="#9AB9B5" d="M39.26,91.99c0.78,0.32,1.63,1.14,3.02,3.57l7.86,14.35c0,0,2.51,4.25,6.95,4.92l25.1,4.78
			c0,0,1.99,0.57,4.06-0.63c-1.43,0.34-2.55,0.02-2.55,0.02l-25.1-4.78c-4.44-0.66-6.95-4.92-6.95-4.92L43.8,94.96
			c-1.4-2.43-2.25-3.26-3.03-3.58c-0.56-0.23-1.26-0.06-1.71,0.54C39.13,91.95,39.19,91.97,39.26,91.99z"/>
		<path fill="#9AB9B5" d="M100.65,95.26c-0.12-3.63-1.46-7.12-2.8-8.47c-0.83-0.84-2.19-1.33-3.15-1.43l-2.99-0.32l0.09,0.77
			l1.38,0.15c0.96,0.11,2.32,0.6,3.15,1.44c1.35,1.35,2.68,4.84,2.8,8.47c0,0,0.28,5.5-3.31,13.15l-5.54,11.94
			c-0.3,0.66-0.67,1.23-1.09,1.67c-0.64,0.68-1.7,1.66-3.1,2.37c2.15-0.62,3.77-2.06,4.62-2.98c0.42-0.44,0.78-1.01,1.09-1.67
			l5.53-11.93C100.93,100.77,100.65,95.26,100.65,95.26z"/>
	</g>
	<g>
		<polygon fill="#6F8D8A" points="48.79,104.07 45.8,108.92 46.16,109.52 49.18,104.78 		"/>
		<polygon fill="#6F8D8A" points="46.6,110.26 46.96,110.86 49.94,106.18 49.56,105.47 		"/>
		<path fill="#6F8D8A" d="M60.96,114.67l-0.67,5.81c0.16,0.04,0.33,0.08,0.49,0.11l0.74-5.82L60.96,114.67z"/>
		<path fill="#6F8D8A" d="M61.39,120.73c0.16,0.04,0.33,0.07,0.49,0.11l0.74-5.86l-0.55-0.11L61.39,120.73z"/>
		<polygon fill="#6F8D8A" points="91.18,113.95 93.41,116.88 93.72,116.22 91.52,113.21 		"/>
		<polygon fill="#6F8D8A" points="91.88,112.43 94.1,115.38 94.42,114.71 92.21,111.7 		"/>
		<path fill="#6F8D8A" d="M97.69,95.86c0.03,0.32,0.03,0.64,0.03,0.96l2.87,0.12c0.02-0.34,0.04-0.63,0.05-0.87L97.69,95.86z"/>
		<path fill="#6F8D8A" d="M97.58,98.75l2.77,0.12c0.05-0.3,0.09-0.6,0.13-0.87l-2.8-0.2C97.67,98.13,97.63,98.44,97.58,98.75z"/>
		<path fill="#6F8D8A" d="M95.39,90.35c0.13,0.05,0.2,0.08,0.2,0.08c0.11,0.1,0.21,0.2,0.3,0.31l1.38-4.41
			c-0.15-0.11-0.31-0.2-0.48-0.29L95.39,90.35z"/>
		<path fill="#6F8D8A" d="M95.68,85.57l-1.43,4.4c0.21,0.06,0.4,0.11,0.57,0.17l1.38-4.38C96.03,85.69,95.85,85.62,95.68,85.57z"/>
	</g>
	<path fill="#494A4C" d="M43.82,99.88c-0.67,1.35-2.25,0.84-3.53-1.14c-1.28-1.97-1.78-4.67-1.1-6.02c0.67-1.35,2.25-0.84,3.53,1.14
		C44,95.83,44.49,98.53,43.82,99.88z"/>
	<g>
		<path fill="#ACC8C4" d="M74.89,83.07c0,0,3.15-5.88,4.85-7.26c0,0,4.91,0.64,8.91,3.62l0.61,1.82l2.73,2.35
			c0,0,1.52,6.4,1.64,10.04c0,0-1.58,4.06-3.76,8.22c0,0-6.85,1.17-12.79-2.03c0,0-2.25-6.83-2.67-9.19
			C74.4,90.64,74.22,86.91,74.89,83.07z"/>
		<path fill="#8EA6A3" d="M76.31,97.46c0.43,1.37,0.76,2.37,0.76,2.37c5.94,3.2,12.79,2.03,12.79,2.03
			c0.56-1.08,1.09-2.15,1.56-3.15C89.05,98.88,82.65,99.13,76.31,97.46z"/>
		<path fill="#C6D1C5" d="M74.4,90.64c0.02,0.1,0.04,0.21,0.06,0.32l18.01,5.41c0.72-1.64,1.15-2.74,1.15-2.74
			c-0.03-1.02-0.18-2.25-0.37-3.5c-7.53-3.43-18.36-7.06-18.36-7.06C74.22,86.91,74.4,90.64,74.4,90.64z"/>
		<path fill="#A5B7B1" d="M74.89,83.07c-0.03,0.2-0.07,0.39-0.1,0.59l18.57,7.17c-0.03-0.2-0.06-0.41-0.09-0.62l-0.12-0.12
			C85.63,86.66,74.89,83.07,74.89,83.07z"/>
		<path fill="#A5B7B1" d="M92.74,95.76l-18.35-5.55c0.01,0.28,0.01,0.43,0.01,0.43c0.02,0.1,0.04,0.21,0.06,0.32l18.01,5.41
			C92.57,96.16,92.66,95.95,92.74,95.76z"/>
		<path fill="#BDD6D2" d="M90.51,88.99l2.65,0.5c-0.49-3-1.17-5.89-1.17-5.89l-2.73-2.35l-0.61-1.82c-4.01-2.98-8.91-3.62-8.91-3.62
			c-0.34,0.27-0.74,0.73-1.15,1.28c4.94,1.38,8.89,3.87,8.89,3.87L90.51,88.99z"/>
		<g>
			<path fill="#84A7A3" d="M77.63,87.46c0,1.28-0.59,2.32-1.32,2.32c-0.72,0-1.31-1.04-1.31-2.32c0-1.27,0.59-2.31,1.31-2.31
				C77.04,85.15,77.63,86.19,77.63,87.46z"/>
			<path fill="#6E8C88" d="M77.26,87.46c0,0.92-0.42,1.67-0.95,1.67c-0.52,0-0.95-0.74-0.95-1.67c0-0.92,0.43-1.66,0.95-1.66
				C76.83,85.8,77.26,86.55,77.26,87.46z"/>
			<path fill="#56716E" d="M76.1,89.09c0.07,0.03,0.14,0.04,0.21,0.04c0.08,0,0.15-0.01,0.22-0.04v-3.24
				c-0.07-0.03-0.14-0.04-0.22-0.04c-0.07,0-0.14,0.01-0.21,0.04V89.09z"/>
		</g>
		<g>
			<path fill="#84A7A3" d="M90.25,91.91c0,1.27-0.59,2.31-1.32,2.31c-0.72,0-1.31-1.04-1.31-2.31c0-1.28,0.59-2.32,1.31-2.32
				C89.66,89.59,90.25,90.63,90.25,91.91z"/>
			<path fill="#6E8C88" d="M89.88,91.91c0,0.92-0.43,1.66-0.95,1.66c-0.52,0-0.94-0.74-0.94-1.66c0-0.92,0.42-1.67,0.94-1.67
				C89.46,90.25,89.88,90.99,89.88,91.91z"/>
			<path fill="#56716E" d="M88.73,93.53c0.07,0.03,0.14,0.04,0.21,0.04c0.08,0,0.15-0.01,0.22-0.04v-3.25
				c-0.07-0.03-0.14-0.04-0.22-0.04c-0.07,0-0.14,0.01-0.21,0.04V93.53z"/>
		</g>
		<g>
			<path fill="#9DB7B4" d="M91.99,83.6l-2.7-2.33c0.44,2.35,1.48,8.19,1.58,11.84c0,0-1.38,4.21-3.38,8.94
				c1.46-0.05,2.38-0.2,2.38-0.2c2.18-4.16,3.76-8.22,3.76-8.22C93.5,90,91.99,83.6,91.99,83.6z"/>
		</g>
	</g>
	<g>
		<path fill="#84A7A3" d="M61.5,106.28c0,0.49-0.22,0.89-0.5,0.89c-0.28,0-0.51-0.4-0.51-0.89c0-0.49,0.22-0.89,0.51-0.89
			C61.28,105.4,61.5,105.8,61.5,106.28z"/>
		<path fill="#6E8C88" d="M61.36,106.28c0,0.35-0.16,0.64-0.36,0.64c-0.2,0-0.36-0.29-0.36-0.64c0-0.35,0.16-0.64,0.36-0.64
			C61.2,105.65,61.36,105.93,61.36,106.28z"/>
	</g>
	<g>
		<path fill="#84A7A3" d="M55.04,104.69c0,0.61-0.28,1.09-0.62,1.09c-0.34,0-0.62-0.49-0.62-1.09c0-0.61,0.28-1.09,0.62-1.09
			C54.76,103.59,55.04,104.08,55.04,104.69z"/>
		<path fill="#6E8C88" d="M54.86,104.69c0,0.44-0.2,0.79-0.45,0.79c-0.25,0-0.45-0.35-0.45-0.79c0-0.44,0.2-0.79,0.45-0.79
			C54.66,103.9,54.86,104.25,54.86,104.69z"/>
	</g>
	<g>
		<path fill="#ACC8C4" d="M60.87,100.84c0,1.8-0.83,3.25-1.85,3.25c-1.02,0-1.85-1.45-1.85-3.25c0-1.8,0.83-3.25,1.85-3.25
			C60.04,97.59,60.87,99.04,60.87,100.84z"/>
		<path fill="#84A7A3" d="M60.32,100.84c0,1.25-0.58,2.27-1.29,2.27c-0.72,0-1.3-1.02-1.3-2.27c0-1.26,0.58-2.27,1.3-2.27
			C59.74,98.57,60.32,99.58,60.32,100.84z"/>
		<path opacity="0.2" fill="#404041" d="M60.1,102.1l-2.14-2.54c-0.14,0.36-0.23,0.8-0.23,1.28c0,1.25,0.58,2.27,1.3,2.27
			C59.48,103.11,59.87,102.71,60.1,102.1z"/>
	</g>
	<g>
		<path fill="#ACC8C4" d="M92.74,78.74c0,1.8-0.83,3.25-1.85,3.25c-1.02,0-1.85-1.45-1.85-3.25c0-1.8,0.82-3.25,1.85-3.25
			C91.92,75.49,92.74,76.94,92.74,78.74z"/>
		<path fill="#84A7A3" d="M92.19,78.74c0,1.25-0.57,2.27-1.29,2.27c-0.71,0-1.29-1.02-1.29-2.27c0-1.25,0.58-2.27,1.29-2.27
			C91.61,76.47,92.19,77.49,92.19,78.74z"/>
		<path opacity="0.2" fill="#404041" d="M91.98,80l-2.14-2.54c-0.14,0.36-0.23,0.81-0.23,1.29c0,1.25,0.58,2.27,1.29,2.27
			C91.35,81.01,91.74,80.61,91.98,80z"/>
	</g>
	<g>
		<path fill="#FFFFFF" d="M88.93,41.61c-0.85,0-1.32,0.89-1.32,2.44v1.77c0,1.42,0.33,2.21,0.96,2.21c0.38,0,0.65-0.31,0.8-0.86
			v1.77c0,0.93-0.17,1.19-0.47,1.19c-0.28,0-0.45-0.26-0.45-0.96v-0.35h-0.82v0.24c0,1.56,0.44,2.44,1.29,2.44
			c0.89,0,1.32-0.88,1.32-2.52v-4.96C90.24,42.5,89.78,41.61,88.93,41.61z M89.38,45.7c0,0.69-0.17,0.95-0.44,0.95
			c-0.28,0-0.45-0.26-0.45-0.95v-1.75c0-0.69,0.18-0.94,0.45-0.94c0.27,0,0.44,0.25,0.44,0.94V45.7z"/>
		<path fill="#FFFFFF" d="M92.04,41.61c-0.84,0-1.31,0.89-1.31,2.44v1.77c0,1.42,0.32,2.21,0.96,2.21c0.39,0,0.65-0.31,0.8-0.86
			v1.77c0,0.93-0.17,1.19-0.47,1.19c-0.28,0-0.45-0.26-0.45-0.96v-0.35h-0.82v0.24c0,1.56,0.44,2.44,1.29,2.44
			c0.9,0,1.32-0.88,1.32-2.52v-4.96C93.35,42.5,92.89,41.61,92.04,41.61z M92.49,45.7c0,0.69-0.17,0.95-0.45,0.95
			c-0.27,0-0.44-0.26-0.44-0.95v-1.75c0-0.69,0.17-0.94,0.44-0.94c0.28,0,0.45,0.25,0.45,0.94V45.7z"/>
		<path fill="#FFFFFF" d="M90.48,38.02c-2.66,0-4.83,3.82-4.83,8.51c0,4.69,2.17,8.51,4.83,8.51c2.66,0,4.83-3.82,4.83-8.51
			C95.31,41.84,93.14,38.02,90.48,38.02z M90.48,54.37c-2.46,0-4.45-3.51-4.45-7.84c0-4.32,2-7.84,4.45-7.84
			c2.45,0,4.45,3.52,4.45,7.84C94.93,50.85,92.93,54.37,90.48,54.37z"/>
	</g>
	<g>
		<g>
			<path fill="#404853" d="M75.38,114.99l7.43,7.38l0.43-0.77l3.14-5.55l2.07,1.08l0.75-0.86l0.27-1.36l-5.86-3.52l-3.51,1.24
				l-0.06,1.44l-4.46-1.21C74.43,113.29,75.38,114.99,75.38,114.99z M77.39,115.19l4.62,1.58l-0.53,2.48L77.39,115.19z"/>
		</g>
		<g>
			<path fill="#84A7A3" d="M82.89,113.13c-0.02,0.6,0.23,1.13,0.58,1.17c0.34,0.05,0.64-0.41,0.67-1.01
				c0.03-0.61-0.23-1.13-0.58-1.17C83.21,112.08,82.91,112.53,82.89,113.13z"/>
			<path fill="#6E8C88" d="M83.06,113.15c-0.02,0.43,0.17,0.81,0.42,0.84c0.25,0.03,0.46-0.3,0.48-0.73
				c0.02-0.43-0.17-0.81-0.42-0.84C83.3,112.39,83.08,112.72,83.06,113.15z"/>
		</g>
		<g>
			<path fill="#84A7A3" d="M81.98,120.04c-0.02,0.6,0.23,1.13,0.57,1.17c0.34,0.05,0.64-0.41,0.67-1.01
				c0.03-0.61-0.23-1.13-0.57-1.17C82.31,118.98,82.01,119.44,81.98,120.04z"/>
			<path fill="#6E8C88" d="M82.16,120.06c-0.02,0.44,0.17,0.81,0.42,0.85c0.24,0.03,0.46-0.3,0.47-0.73
				c0.02-0.44-0.16-0.81-0.41-0.85C82.39,119.3,82.18,119.63,82.16,120.06z"/>
		</g>
		<g>
			<path fill="#565E6B" d="M86.5,116.72c-0.07,1.79,0.69,3.35,1.71,3.48c1.02,0.13,1.9-1.22,1.98-3.01
				c0.07-1.79-0.69-3.35-1.71-3.48C87.45,113.58,86.57,114.93,86.5,116.72z"/>
			<path fill="#84A7A3" d="M87.05,116.79c-0.05,1.25,0.49,2.34,1.2,2.43c0.71,0.09,1.33-0.85,1.38-2.1c0.05-1.25-0.48-2.34-1.2-2.43
				C87.72,114.59,87.1,115.53,87.05,116.79z"/>
			<path opacity="0.2" fill="#404041" d="M87.21,118.07l2.24-2.26c0.13,0.38,0.19,0.83,0.17,1.31c-0.05,1.25-0.67,2.2-1.38,2.1
				C87.8,119.16,87.42,118.71,87.21,118.07z"/>
		</g>
	</g>
</g>
</svg>
