<?xml version="1.0" encoding="utf-8"?>
<!-- Generator: Adobe Illustrator 26.0.0, SVG Export Plug-In . SVG Version: 6.00 Build 0)  -->
<svg version="1.1" id="Layer_1" xmlns="http://www.w3.org/2000/svg" xmlns:xlink="http://www.w3.org/1999/xlink" x="0px" y="0px"
	 viewBox="0 0 200 200" enable-background="new 0 0 200 200" xml:space="preserve">
<g>
	<g>
		<path fill="#FFFFFF" d="M180.76,116.77l-48.6-23.19c-2.64-1.27-5.9-1.26-8.53,0.01l-5.87,2.82l23.38-41.05
			c0.01-0.02,0.03-0.05,0.04-0.07c0.11-0.19,0.2-0.39,0.29-0.59c2.3-4.25,3.47-8.78,3.47-13.47C144.94,23,127,8.18,104.95,8.18
			C82.9,8.18,64.96,23,64.96,41.23c0,4.89,1.27,9.61,3.77,14.02c0.02,0.03,0.03,0.06,0.05,0.08l0.07,0.13
			c0.01,0.02,0.02,0.04,0.04,0.06l28.38,49.83c0.13,0.24,0.29,0.46,0.45,0.67l-1.86,0.89l-13.19-6.34
			c-2.63-1.27-5.89-1.27-8.51-0.02l-32.7,15.6c-1.29,0.62-2.37,1.52-3.08,2.56c-0.26,0.38-0.48,0.78-0.66,1.2
			c-0.31,0.73-0.47,1.48-0.48,2.25c0,0.02,0,0.05,0,0.07l0.03,7.95l-8.11,3.87c-2.63,1.24-4.27,3.57-4.27,6.1l0.1,27.62
			c0.04,2.45,1.65,4.74,4.22,5.97l34.34,16.49c2.59,1.24,5.96,1.25,8.58-0.03l4.55-2.17l22.87,10.99c1.3,0.63,2.78,0.96,4.3,0.96
			c1.51,0,2.99-0.33,4.29-0.97l41.19-19.65c2.6-1.25,4.22-3.57,4.22-6.08l-0.02-5.62l27.12-13.03c2.6-1.23,4.23-3.54,4.26-6.06
			l0.09-25.75C185,120.34,183.38,118.02,180.76,116.77z"/>
		<path fill="#F1F1F1" d="M179.86,116.03l-48.6-23.19c-2.64-1.27-5.9-1.26-8.53,0.01l-5.87,2.82l23.38-41.05
			c0.01-0.02,0.03-0.05,0.04-0.07c0.11-0.19,0.2-0.39,0.29-0.59c2.3-4.25,3.47-8.78,3.47-13.47c0-18.22-17.94-33.05-39.99-33.05
			C82,7.44,64.06,22.26,64.06,40.48c0,4.89,1.31,9.6,3.77,14.02c0.02,0.03,0.03,0.06,0.05,0.08l0.07,0.13
			c0.01,0.02,0.02,0.04,0.04,0.06l28.38,49.83c0.13,0.24,0.29,0.46,0.45,0.67l-1.86,0.89l-13.19-6.34
			c-2.63-1.27-5.89-1.27-8.51-0.02l-32.7,15.6c-1.29,0.62-2.36,1.52-3.08,2.56c-0.26,0.38-0.48,0.78-0.66,1.2
			c-0.31,0.73-0.47,1.48-0.48,2.25c0,0.02,0,0.05,0,0.07l0.03,7.95l-8.11,3.87c-2.63,1.24-4.27,3.57-4.27,6.1l0.1,27.62
			c0.04,2.45,1.65,4.74,4.22,5.97l34.34,16.49c2.59,1.24,5.96,1.25,8.58-0.03l4.55-2.17l22.87,10.99c1.3,0.63,2.78,0.96,4.3,0.96
			c1.51,0,2.99-0.33,4.29-0.97l41.19-19.65c2.6-1.25,4.22-3.57,4.22-6.08l-0.02-5.62l27.12-13.03c2.6-1.23,4.23-3.54,4.26-6.06
			l0.09-25.75C184.1,119.6,182.48,117.28,179.86,116.03z"/>
		<path fill="#E2E2E2" d="M178.96,115.29l-48.6-23.19c-2.64-1.27-5.9-1.26-8.53,0.01l-5.87,2.82l23.38-41.05
			c0.01-0.02,0.03-0.05,0.04-0.07c0.11-0.19,0.2-0.39,0.29-0.59c2.3-4.25,3.47-8.78,3.47-13.47c0-18.22-17.94-33.05-39.99-33.05
			c-22.05,0-39.99,14.83-39.99,33.05c0,4.89,1.31,9.6,3.77,14.02c0.02,0.03,0.03,0.06,0.05,0.08l0.07,0.13
			c0.01,0.02,0.02,0.04,0.04,0.06l28.38,49.83c0.13,0.24,0.29,0.46,0.45,0.67l-1.86,0.89l-13.19-6.34
			c-2.63-1.27-5.89-1.27-8.51-0.02l-32.7,15.6c-1.29,0.62-2.36,1.52-3.08,2.56c-0.26,0.38-0.48,0.78-0.66,1.2
			c-0.31,0.73-0.47,1.48-0.48,2.25c0,0.02,0,0.05,0,0.07l0.03,7.95l-8.11,3.87c-2.63,1.24-4.27,3.57-4.27,6.1l0.1,27.62
			c0.04,2.45,1.65,4.74,4.22,5.97l34.34,16.49c2.59,1.24,5.96,1.25,8.58-0.03l4.55-2.17l22.87,10.99c1.3,0.63,2.78,0.96,4.3,0.96
			c1.51,0,2.99-0.33,4.29-0.97l41.19-19.65c2.6-1.25,4.22-3.57,4.22-6.08l-0.02-5.62l27.12-13.03c2.6-1.23,4.23-3.54,4.26-6.06
			l0.09-25.75C183.2,118.86,181.58,116.53,178.96,115.29z"/>
		<path fill="#D4D4D4" d="M178.06,114.54l-48.6-23.19c-2.64-1.27-5.9-1.26-8.53,0.01l-5.87,2.82l23.38-41.05
			c0.01-0.02,0.03-0.05,0.04-0.07c0.11-0.19,0.2-0.39,0.29-0.59c2.3-4.25,3.47-8.78,3.47-13.47c0-18.22-17.94-33.05-39.99-33.05
			C80.2,5.95,62.26,20.77,62.26,39c0,4.89,1.31,9.6,3.77,14.02c0.02,0.03,0.03,0.06,0.05,0.08l0.07,0.13
			c0.01,0.02,0.02,0.04,0.04,0.06l28.38,49.83c0.13,0.24,0.29,0.46,0.45,0.67l-1.86,0.89l-13.19-6.34
			c-2.63-1.27-5.89-1.27-8.51-0.02l-32.7,15.6c-1.29,0.62-2.36,1.52-3.08,2.56c-0.26,0.38-0.48,0.78-0.66,1.2
			c-0.31,0.73-0.47,1.48-0.48,2.25c0,0.02,0,0.05,0,0.07l0.03,7.95l-8.11,3.87c-2.63,1.24-4.27,3.57-4.27,6.1l0.1,27.62
			c0.04,2.45,1.65,4.74,4.22,5.97l34.34,16.49c2.59,1.24,5.96,1.25,8.58-0.03l4.55-2.17l22.87,10.99c1.3,0.63,2.78,0.96,4.3,0.96
			c1.51,0,2.99-0.33,4.29-0.97l41.19-19.65c2.6-1.25,4.22-3.57,4.22-6.08l-0.02-5.62l27.12-13.03c2.6-1.23,4.23-3.54,4.26-6.06
			l0.09-25.75C182.3,118.11,180.68,115.79,178.06,114.54z"/>
		<path fill="#C5C5C5" d="M177.16,113.8l-48.6-23.19c-2.64-1.27-5.9-1.26-8.53,0.01l-5.87,2.82l23.38-41.05
			c0.01-0.02,0.03-0.05,0.04-0.07c0.11-0.19,0.2-0.39,0.29-0.59c2.3-4.25,3.47-8.78,3.47-13.47c0-18.22-17.94-33.05-39.99-33.05
			c-22.05,0-39.99,14.83-39.99,33.05c0,4.89,1.31,9.6,3.77,14.02c0.02,0.03,0.03,0.06,0.05,0.08l0.07,0.13
			c0.01,0.02,0.02,0.04,0.04,0.06l28.38,49.83c0.13,0.24,0.29,0.46,0.45,0.67l-1.86,0.89l-13.19-6.34
			c-2.63-1.27-5.89-1.27-8.51-0.02l-32.7,15.6c-1.29,0.62-2.36,1.52-3.08,2.56c-0.26,0.38-0.48,0.78-0.66,1.2
			c-0.31,0.73-0.47,1.48-0.48,2.25c0,0.02,0,0.05,0,0.07l0.03,7.95l-8.11,3.87c-2.63,1.24-4.27,3.57-4.27,6.1l0.1,27.62
			c0.04,2.45,1.65,4.74,4.22,5.97l34.34,16.49c2.59,1.24,5.96,1.25,8.58-0.03l4.55-2.17l22.87,10.99c1.3,0.63,2.78,0.96,4.3,0.96
			c1.51,0,2.99-0.34,4.29-0.97l41.19-19.65c2.6-1.25,4.22-3.57,4.22-6.08l-0.02-5.62l27.12-13.03c2.6-1.23,4.23-3.54,4.26-6.06
			l0.09-25.75C181.4,117.37,179.78,115.05,177.16,113.8z"/>
		<path fill="#B7B7B7" d="M176.26,113.06l-48.6-23.19c-2.64-1.27-5.9-1.26-8.53,0.01l-5.87,2.82l23.38-41.05
			c0.01-0.02,0.03-0.05,0.04-0.07c0.11-0.19,0.2-0.39,0.29-0.59c2.3-4.25,3.47-8.78,3.47-13.47c0-18.22-17.94-33.05-39.99-33.05
			c-22.05,0-39.99,14.83-39.99,33.05c0,4.89,1.31,9.6,3.77,14.02c0.02,0.03,0.03,0.06,0.05,0.08l0.07,0.13
			c0.01,0.02,0.02,0.04,0.04,0.06l28.38,49.83c0.13,0.24,0.29,0.46,0.45,0.67l-1.86,0.89l-13.19-6.34
			c-2.63-1.27-5.89-1.27-8.51-0.02l-32.7,15.6c-1.29,0.62-2.36,1.52-3.08,2.56c-0.26,0.38-0.48,0.78-0.66,1.2
			c-0.31,0.73-0.47,1.48-0.48,2.25c0,0.02,0,0.05,0,0.07l0.03,7.95l-8.11,3.87c-2.63,1.24-4.27,3.57-4.27,6.1l0.1,27.62
			c0.04,2.45,1.65,4.74,4.22,5.97l34.34,16.49c2.59,1.24,5.96,1.25,8.58-0.03l4.55-2.17l22.87,10.99c1.3,0.63,2.78,0.96,4.3,0.96
			c1.51,0,2.99-0.33,4.29-0.97l41.19-19.65c2.6-1.25,4.22-3.57,4.22-6.08l-0.02-5.62l27.12-13.03c2.6-1.23,4.23-3.54,4.26-6.06
			l0.09-25.75C180.5,116.63,178.88,114.3,176.26,113.06z"/>
		<path fill="#A8A8A8" d="M175.36,112.31l-48.6-23.19c-2.64-1.27-5.9-1.26-8.53,0.01l-5.87,2.82l23.38-41.05
			c0.01-0.02,0.03-0.05,0.04-0.07c0.11-0.19,0.2-0.39,0.29-0.59c2.3-4.25,3.47-8.78,3.47-13.47c0-18.22-17.94-33.05-39.99-33.05
			c-22.05,0-39.99,14.83-39.99,33.05c0,4.89,1.31,9.6,3.77,14.02c0.02,0.03,0.03,0.06,0.05,0.08L63.46,51
			c0.01,0.02,0.02,0.04,0.04,0.06l28.38,49.83c0.13,0.24,0.29,0.46,0.45,0.67l-1.86,0.89l-13.19-6.34
			c-2.63-1.27-5.89-1.27-8.51-0.02l-32.7,15.6c-1.29,0.62-2.36,1.52-3.08,2.56c-0.26,0.38-0.48,0.78-0.66,1.2
			c-0.31,0.73-0.47,1.48-0.48,2.25c0,0.02,0,0.05,0,0.07l0.03,7.95l-8.11,3.87c-2.63,1.24-4.27,3.57-4.27,6.1l0.1,27.62
			c0.04,2.45,1.65,4.74,4.22,5.97l34.34,16.49c2.59,1.24,5.96,1.25,8.58-0.03l4.55-2.17l22.87,10.99c1.3,0.63,2.78,0.96,4.3,0.96
			c1.51,0,2.99-0.33,4.29-0.97l41.19-19.65c2.6-1.25,4.22-3.57,4.22-6.08l-0.02-5.62l27.12-13.03c2.6-1.23,4.23-3.54,4.26-6.06
			l0.09-25.75C179.6,115.88,177.98,113.56,175.36,112.31z"/>
		<path fill="#9A9A9A" d="M174.46,111.57l-48.6-23.19c-2.64-1.27-5.9-1.26-8.53,0.01l-5.87,2.82l23.38-41.05
			c0.01-0.02,0.03-0.05,0.04-0.07c0.11-0.19,0.2-0.39,0.29-0.59c2.3-4.25,3.47-8.78,3.47-13.47c0-18.22-17.94-33.05-39.99-33.05
			c-22.05,0-39.99,14.83-39.99,33.05c0,4.89,1.31,9.6,3.77,14.02c0.02,0.03,0.03,0.06,0.05,0.08l0.07,0.13
			c0.01,0.02,0.02,0.04,0.04,0.06l28.38,49.83c0.13,0.24,0.29,0.46,0.45,0.67l-1.86,0.89l-13.19-6.34
			c-2.63-1.27-5.89-1.27-8.51-0.02l-32.7,15.6c-1.29,0.62-2.36,1.52-3.08,2.56c-0.26,0.38-0.48,0.78-0.66,1.2
			c-0.31,0.73-0.47,1.48-0.48,2.25c0,0.02,0,0.05,0,0.07l0.03,7.95l-8.11,3.87c-2.63,1.24-4.27,3.57-4.27,6.1l0.1,27.62
			c0.04,2.45,1.65,4.74,4.22,5.97l34.34,16.49c2.59,1.24,5.96,1.25,8.58-0.03l4.55-2.17l22.87,10.99c1.3,0.63,2.78,0.96,4.3,0.96
			c1.51,0,2.99-0.33,4.29-0.97l41.19-19.65c2.6-1.25,4.22-3.57,4.22-6.08l-0.02-5.62l27.12-13.03c2.6-1.23,4.23-3.54,4.26-6.06
			l0.09-25.75C178.7,115.14,177.08,112.82,174.46,111.57z"/>
		<path fill="#8B8B8B" d="M173.56,110.82l-48.6-23.19c-2.64-1.27-5.9-1.26-8.53,0.01l-5.87,2.82l23.38-41.05
			c0.01-0.02,0.03-0.05,0.04-0.07c0.11-0.19,0.2-0.39,0.29-0.59c2.3-4.25,3.47-8.78,3.47-13.47c0-18.22-17.94-33.05-39.99-33.05
			c-22.05,0-39.99,14.83-39.99,33.05c0,4.89,1.31,9.6,3.77,14.02c0.02,0.03,0.03,0.06,0.05,0.08l0.07,0.13
			c0.01,0.02,0.02,0.04,0.04,0.06l28.38,49.83c0.13,0.24,0.29,0.46,0.45,0.67l-1.86,0.89l-13.19-6.34
			c-2.63-1.27-5.89-1.27-8.51-0.02l-32.7,15.6c-1.29,0.62-2.36,1.52-3.08,2.56c-0.26,0.38-0.48,0.78-0.66,1.2
			c-0.31,0.73-0.47,1.48-0.48,2.25c0,0.02,0,0.05,0,0.07l0.03,7.95l-8.11,3.87c-2.63,1.24-4.27,3.57-4.27,6.1l0.1,27.62
			c0.04,2.45,1.65,4.74,4.22,5.97l34.34,16.49c2.59,1.24,5.96,1.25,8.58-0.03l4.55-2.17l22.87,10.99c1.3,0.63,2.78,0.96,4.3,0.96
			c1.51,0,2.99-0.33,4.29-0.97l41.19-19.65c2.6-1.25,4.22-3.57,4.22-6.08l-0.02-5.62l27.12-13.03c2.6-1.23,4.23-3.54,4.26-6.06
			l0.09-25.75C177.8,114.39,176.18,112.07,173.56,110.82z"/>
		<path fill="#7D7D7D" d="M172.66,110.08l-48.6-23.19c-2.64-1.27-5.9-1.26-8.53,0.01l-5.87,2.82l23.38-41.05
			c0.01-0.02,0.03-0.05,0.04-0.07c0.11-0.19,0.2-0.39,0.29-0.59c2.3-4.25,3.47-8.78,3.47-13.47c0-18.22-17.94-33.05-39.99-33.05
			c-22.05,0-39.99,14.83-39.99,33.05c0,4.89,1.31,9.6,3.77,14.02c0.02,0.03,0.03,0.06,0.05,0.08l0.07,0.13
			c0.01,0.02,0.02,0.04,0.04,0.06l28.38,49.83c0.13,0.24,0.29,0.46,0.45,0.67l-1.86,0.89L74.58,93.9c-2.63-1.27-5.89-1.27-8.51-0.02
			l-32.7,15.6c-1.29,0.62-2.36,1.52-3.08,2.56c-0.26,0.38-0.48,0.78-0.66,1.2c-0.31,0.73-0.47,1.48-0.48,2.25c0,0.02,0,0.05,0,0.07
			l0.03,7.95l-8.11,3.87c-2.63,1.24-4.27,3.57-4.27,6.1l0.1,27.62c0.04,2.45,1.65,4.74,4.22,5.97l34.34,16.49
			c2.59,1.24,5.96,1.25,8.58-0.03l4.55-2.17l22.87,10.99c1.3,0.63,2.78,0.96,4.3,0.96c1.51,0,2.99-0.33,4.29-0.97l41.19-19.65
			c2.6-1.25,4.22-3.57,4.22-6.08l-0.02-5.62l27.12-13.03c2.6-1.23,4.23-3.54,4.26-6.06l0.09-25.75
			C176.9,113.65,175.28,111.33,172.66,110.08z"/>
		<path fill="#6E6E6E" d="M171.76,109.34l-48.6-23.19c-2.64-1.27-5.9-1.26-8.53,0.01l-5.87,2.82l23.38-41.05
			c0.01-0.02,0.03-0.05,0.04-0.07c0.11-0.19,0.2-0.39,0.29-0.59c2.3-4.25,3.47-8.78,3.47-13.47c0-18.22-17.94-33.05-39.99-33.05
			c-22.05,0-39.99,14.83-39.99,33.05c0,4.89,1.31,9.6,3.77,14.02c0.02,0.03,0.03,0.06,0.05,0.08l0.07,0.13
			c0.01,0.02,0.02,0.04,0.04,0.06l28.38,49.83c0.13,0.24,0.29,0.46,0.45,0.67l-1.86,0.89l-13.19-6.34
			c-2.63-1.27-5.89-1.27-8.51-0.02l-32.7,15.6c-1.29,0.62-2.36,1.52-3.08,2.56c-0.26,0.38-0.48,0.78-0.66,1.2
			c-0.31,0.73-0.47,1.48-0.48,2.25c0,0.02,0,0.05,0,0.07l0.03,7.95l-8.11,3.87c-2.63,1.24-4.27,3.57-4.27,6.1l0.1,27.62
			c0.04,2.45,1.65,4.74,4.22,5.97l34.34,16.49c2.59,1.24,5.96,1.25,8.58-0.03l4.55-2.17l22.87,10.99c1.3,0.63,2.78,0.96,4.3,0.96
			c1.51,0,2.99-0.33,4.29-0.97l41.19-19.65c2.6-1.25,4.22-3.57,4.22-6.08l-0.02-5.62l27.12-13.03c2.6-1.23,4.23-3.54,4.26-6.06
			L176,115.4C176,112.91,174.38,110.59,171.76,109.34z"/>
		<path fill="#606060" d="M170.86,108.59l-48.6-23.19c-2.64-1.27-5.9-1.26-8.53,0.01l-5.87,2.82l23.38-41.05
			c0.01-0.02,0.03-0.05,0.04-0.07c0.11-0.19,0.2-0.39,0.29-0.59c2.3-4.25,3.47-8.78,3.47-13.47C135.04,14.83,117.1,0,95.05,0
			C73,0,55.06,14.83,55.06,33.05c0,4.89,1.27,9.61,3.77,14.02c0.02,0.03,0.03,0.06,0.05,0.08l0.07,0.13
			c0.01,0.02,0.02,0.04,0.04,0.06l28.38,49.83c0.13,0.24,0.29,0.46,0.45,0.67l-1.86,0.89l-13.19-6.34
			c-2.63-1.27-5.89-1.27-8.51-0.02L31.57,108c-1.29,0.62-2.37,1.52-3.08,2.56c-0.26,0.38-0.48,0.78-0.66,1.2
			c-0.31,0.73-0.47,1.48-0.48,2.25c0,0.02,0,0.05,0,0.07l0.03,7.95l-8.11,3.87c-2.63,1.24-4.27,3.57-4.27,6.1l0.1,27.62
			c0.04,2.45,1.65,4.74,4.22,5.97l34.34,16.49c2.59,1.24,5.96,1.25,8.58-0.03l4.55-2.17l22.87,10.99c1.3,0.63,2.78,0.96,4.3,0.96
			c1.51,0,2.99-0.33,4.29-0.97l41.19-19.65c2.6-1.25,4.22-3.57,4.22-6.08l-0.02-5.62l27.12-13.03c2.6-1.23,4.23-3.54,4.26-6.06
			l0.09-25.75C175.1,112.16,173.48,109.84,170.86,108.59z"/>
	</g>
	<path fill="#FFFFFF" d="M170.86,108.59l-48.6-23.19c-2.64-1.27-5.9-1.26-8.53,0.01l-5.87,2.82l23.38-41.05
		c0.01-0.02,0.03-0.05,0.04-0.07c0.11-0.19,0.2-0.39,0.29-0.59c2.3-4.25,3.47-8.78,3.47-13.47C135.04,14.83,117.1,0,95.05,0
		C73,0,55.06,14.83,55.06,33.05c0,4.89,1.27,9.61,3.77,14.02c0.02,0.03,0.03,0.06,0.05,0.08l0.07,0.13
		c0.01,0.02,0.02,0.04,0.04,0.06l28.38,49.83c0.13,0.24,0.29,0.46,0.45,0.67l-1.86,0.89l-13.19-6.34c-2.63-1.27-5.89-1.27-8.51-0.02
		L31.57,108c-1.29,0.62-2.37,1.52-3.08,2.56c-0.26,0.38-0.48,0.78-0.66,1.2c-0.31,0.73-0.47,1.48-0.48,2.25c0,0.02,0,0.05,0,0.07
		l0.03,7.95l-8.11,3.87c-2.63,1.24-4.27,3.57-4.27,6.1l0.1,27.62c0.04,2.45,1.65,4.74,4.22,5.97l34.34,16.49
		c2.59,1.24,5.96,1.25,8.58-0.03l4.55-2.17l22.87,10.99c1.3,0.63,2.78,0.96,4.3,0.96c1.51,0,2.99-0.33,4.29-0.97l41.19-19.65
		c2.6-1.25,4.22-3.57,4.22-6.08l-0.02-5.62l27.12-13.03c2.6-1.23,4.23-3.54,4.26-6.06l0.09-25.75
		C175.1,112.16,173.48,109.84,170.86,108.59z"/>
	<g>
		<g>
			<g>
				<g>
					<g enable-background="new    ">
						<g>
							<g>
								<polygon fill="#C1763C" points="85.94,106.87 85.85,132.6 134.47,155.8 134.56,130.06 								"/>
								<path fill="#734028" d="M134.47,156.09c-0.06,0-0.12-0.01-0.18-0.04l-48.62-23.2c-0.11-0.05-0.18-0.15-0.18-0.26l0.09-25.73
									c0-0.11,0.07-0.2,0.18-0.26c0.11-0.05,0.25-0.05,0.36,0l48.62,23.2c0.11,0.05,0.18,0.15,0.18,0.26l-0.09,25.73
									c0,0.11-0.07,0.2-0.18,0.26C134.59,156.08,134.53,156.09,134.47,156.09z M86.21,132.43l47.9,22.86l0.09-25.05l-47.9-22.85
									L86.21,132.43z"/>
							</g>
						</g>
						<g>
							<g>
								<polygon fill="#DC8F46" points="134.47,155.8 166.54,140.4 166.63,114.66 134.56,130.06 								"/>
								<path fill="#734028" d="M134.47,156.09c-0.06,0-0.12-0.01-0.18-0.04c-0.11-0.05-0.18-0.15-0.18-0.26l0.09-25.73
									c0-0.11,0.07-0.2,0.18-0.25l32.07-15.4c0.11-0.05,0.25-0.05,0.36,0c0.11,0.05,0.18,0.15,0.18,0.26l-0.09,25.73
									c0,0.11-0.07,0.2-0.18,0.25l-32.07,15.4C134.59,156.08,134.53,156.09,134.47,156.09z M134.92,130.23l-0.09,25.05
									l31.35-15.06l0.08-25.05L134.92,130.23z"/>
							</g>
						</g>
						<g>
							<g>
								<polygon fill="#F8B76A" points="134.56,130.06 166.63,114.66 118.01,91.46 85.94,106.87 								"/>
								<path fill="#734028" d="M134.56,130.36c-0.06,0-0.12-0.01-0.18-0.04l-48.62-23.2c-0.11-0.05-0.18-0.15-0.18-0.26
									c0-0.11,0.07-0.2,0.18-0.26l32.07-15.4c0.11-0.05,0.25-0.05,0.36,0l48.62,23.2c0.11,0.05,0.18,0.15,0.18,0.26
									c0,0.11-0.07,0.2-0.18,0.26l-32.07,15.4C134.68,130.35,134.62,130.36,134.56,130.36z M86.66,106.87l47.9,22.86l31.35-15.06
									l-47.9-22.86L86.66,106.87z"/>
							</g>
						</g>
					</g>
				</g>
				<g>
					<g>
						<polygon fill="#A86932" points="154.31,120.58 154.31,132.35 149.98,134.41 149.98,122.66 154.31,120.58 						"/>
						<path fill="#734028" d="M149.98,134.7c-0.06,0-0.12-0.01-0.18-0.04c-0.11-0.05-0.18-0.15-0.18-0.26v-11.75
							c0-0.11,0.07-0.2,0.18-0.26l4.32-2.08c0.11-0.05,0.25-0.05,0.36,0c0.11,0.05,0.18,0.15,0.18,0.26l0,11.77
							c0,0.11-0.07,0.2-0.18,0.26l-4.32,2.06C150.11,134.69,150.04,134.7,149.98,134.7z M150.34,122.82v11.07l3.61-1.72v-11.08
							L150.34,122.82z"/>
					</g>
					<g>
						<polygon fill="#A86932" points="149.98,122.66 149.98,122.64 100.64,99.81 104.94,97.74 154.31,120.58 						"/>
						<path fill="#734028" d="M149.98,122.95c-0.06,0-0.12-0.01-0.18-0.04c-0.03-0.01-0.06-0.03-0.08-0.05l-49.26-22.79
							c-0.11-0.05-0.18-0.15-0.18-0.26c0-0.11,0.07-0.2,0.18-0.26l4.31-2.07c0.11-0.05,0.24-0.05,0.35,0l49.36,22.84
							c0.11,0.05,0.18,0.15,0.18,0.26c0,0.11-0.07,0.21-0.18,0.26l-4.32,2.08C150.11,122.94,150.05,122.95,149.98,122.95z
							 M101.36,99.8l48.64,22.5l3.59-1.72l-48.63-22.5L101.36,99.8z"/>
					</g>
				</g>
			</g>
			<g>
				<g>
					<g>
						<g enable-background="new    ">
							<g>
								<g>
									<polygon fill="#C1763C" points="109.86,123.63 109.95,151.18 57.91,176.02 57.81,148.47 									"/>
									<path fill="#734028" d="M57.91,176.31c-0.06,0-0.12-0.01-0.18-0.04c-0.11-0.05-0.18-0.15-0.18-0.26l-0.1-27.55
										c0-0.11,0.07-0.2,0.18-0.26l52.05-24.84c0.11-0.05,0.25-0.05,0.36,0c0.11,0.05,0.18,0.15,0.18,0.26l0.09,27.55
										c0,0.11-0.07,0.2-0.18,0.26l-52.05,24.84C58.03,176.3,57.97,176.31,57.91,176.31z M58.17,148.64l0.09,26.87l51.33-24.49
										l-0.09-26.87L58.17,148.64z"/>
								</g>
							</g>
							<g>
								<g>
									<polygon fill="#DC8F46" points="57.91,176.02 23.57,159.53 23.48,131.98 57.81,148.47 									"/>
									<path fill="#734028" d="M57.92,176.31c0,0-0.01,0-0.01,0c-0.06,0-0.12-0.01-0.18-0.04l-34.33-16.49
										c-0.11-0.05-0.18-0.15-0.18-0.26l-0.09-27.55c0-0.11,0.07-0.2,0.18-0.26c0.11-0.05,0.25-0.05,0.36,0l34.33,16.49
										c0.11,0.05,0.18,0.15,0.18,0.26l0.09,27.47c0.01,0.03,0.01,0.05,0.01,0.08C58.28,176.18,58.12,176.31,57.92,176.31z
										 M23.93,159.36l33.62,16.14l-0.09-26.86l-33.62-16.14L23.93,159.36z"/>
								</g>
							</g>
							<g>
								<g>
									<polygon fill="#F8B76A" points="57.81,148.47 23.48,131.98 75.53,107.14 109.86,123.63 									"/>
									<path fill="#734028" d="M57.81,148.76c-0.06,0-0.12-0.01-0.18-0.04L23.3,132.23c-0.11-0.05-0.18-0.15-0.18-0.26
										c0-0.11,0.07-0.2,0.18-0.26l52.05-24.84c0.11-0.05,0.25-0.05,0.36,0l34.33,16.49c0.11,0.05,0.18,0.15,0.18,0.26
										c0,0.11-0.07,0.2-0.18,0.26l-52.05,24.84C57.94,148.75,57.87,148.76,57.81,148.76z M24.19,131.98l33.62,16.15l51.33-24.49
										l-33.62-16.15L24.19,131.98z"/>
								</g>
							</g>
						</g>
					</g>
					<g>
						<g>
							<polygon fill="#A86932" points="36.67,138.31 36.67,150.91 41.29,153.12 41.29,140.53 36.67,138.31 							"/>
							<path fill="#734028" d="M41.29,153.41c-0.06,0-0.12-0.01-0.18-0.04l-4.63-2.21c-0.11-0.05-0.18-0.15-0.18-0.26v-12.6
								c0-0.11,0.07-0.2,0.18-0.26c0.11-0.05,0.25-0.05,0.36,0l4.63,2.22c0.11,0.05,0.18,0.15,0.18,0.26v12.58
								c0,0.11-0.07,0.2-0.18,0.26C41.42,153.4,41.36,153.41,41.29,153.41z M37.03,150.74l3.91,1.87v-11.9l-3.91-1.88V150.74z"/>
						</g>
						<g>
							<polygon fill="#A86932" points="41.29,140.53 41.29,140.52 94.13,116.07 89.51,113.86 36.67,138.31 							"/>
							<path fill="#734028" d="M41.28,140.83c-0.06,0-0.12-0.01-0.17-0.04l-4.63-2.22c-0.11-0.05-0.18-0.15-0.18-0.26
								c0-0.11,0.07-0.2,0.18-0.26l52.85-24.45c0.11-0.05,0.25-0.05,0.36,0l4.61,2.22c0.11,0.05,0.18,0.15,0.18,0.26
								c0,0.11-0.07,0.2-0.18,0.26l-52.77,24.42c-0.02,0.01-0.04,0.02-0.06,0.03C41.41,140.81,41.35,140.83,41.28,140.83z
								 M37.39,138.32l3.89,1.87l52.12-24.11l-3.89-1.87L37.39,138.32z"/>
						</g>
					</g>
				</g>
				<g>
					<g>
						<g enable-background="new    ">
							<g>
								<g>
									<polygon fill="#C1763C" points="135.1,143.31 135.18,165.14 93.94,184.81 93.87,162.99 									"/>
									<path fill="#734028" d="M93.94,185.11c-0.06,0-0.12-0.01-0.18-0.04c-0.11-0.05-0.18-0.15-0.18-0.26l-0.08-21.83
										c0-0.11,0.07-0.2,0.18-0.26l41.23-19.68c0.11-0.05,0.25-0.05,0.36,0c0.11,0.05,0.18,0.15,0.18,0.26l0.08,21.83
										c0,0.11-0.07,0.2-0.18,0.26l-41.23,19.68C94.07,185.1,94,185.11,93.94,185.11z M94.23,163.16l0.07,21.14l40.52-19.33
										l-0.07-21.14L94.23,163.16z"/>
								</g>
							</g>
							<g>
								<g>
									<polygon fill="#DC8F46" points="93.94,184.81 66.74,171.75 66.67,149.92 93.87,162.99 									"/>
									<path fill="#734028" d="M93.96,185.11c0,0-0.01,0-0.01,0c-0.06,0-0.12-0.01-0.18-0.04l-27.2-13.06
										c-0.11-0.05-0.18-0.15-0.18-0.25l-0.07-21.83c0-0.11,0.07-0.2,0.18-0.26c0.11-0.05,0.25-0.05,0.36,0l27.2,13.06
										c0.11,0.05,0.18,0.15,0.18,0.25l0.08,21.74c0.01,0.03,0.01,0.05,0.01,0.08C94.32,184.98,94.16,185.11,93.96,185.11z
										 M67.1,171.58l26.48,12.72l-0.07-21.14l-26.48-12.72L67.1,171.58z"/>
								</g>
							</g>
							<g>
								<g>
									<polygon fill="#F8B76A" points="93.87,162.99 66.67,149.92 107.9,130.25 135.1,143.31 									"/>
									<path fill="#734028" d="M93.87,163.28c-0.06,0-0.12-0.01-0.18-0.04l-27.2-13.06c-0.11-0.05-0.18-0.15-0.18-0.26
										c0-0.11,0.07-0.2,0.18-0.26l41.24-19.68c0.11-0.05,0.25-0.05,0.36,0l27.2,13.06c0.11,0.05,0.18,0.15,0.18,0.26
										c0,0.11-0.07,0.2-0.18,0.26l-41.24,19.68C93.99,163.27,93.93,163.28,93.87,163.28z M67.38,149.93l26.49,12.72l40.52-19.33
										l-26.49-12.72L67.38,149.93z"/>
								</g>
							</g>
						</g>
					</g>
					<g>
						<g>
							<polygon fill="#A86932" points="77.12,154.94 77.12,164.92 80.78,166.67 80.78,156.7 77.12,154.94 							"/>
							<path fill="#734028" d="M80.78,166.97c-0.06,0-0.12-0.01-0.18-0.04l-3.67-1.75c-0.11-0.05-0.18-0.15-0.18-0.26v-9.98
								c0-0.11,0.07-0.2,0.18-0.26c0.11-0.05,0.25-0.05,0.36,0l3.67,1.76c0.11,0.05,0.18,0.15,0.18,0.26v9.97
								c0,0.11-0.07,0.2-0.18,0.26C80.91,166.96,80.85,166.97,80.78,166.97z M77.48,164.75l2.95,1.41v-9.29l-2.95-1.42L77.48,164.75
								z"/>
						</g>
						<g>
							<polygon fill="#A86932" points="80.78,156.7 80.78,156.69 122.64,137.33 118.98,135.57 77.12,154.94 							"/>
							<path fill="#734028" d="M80.77,157c-0.06,0-0.12-0.01-0.17-0.04l-3.67-1.76c-0.11-0.05-0.18-0.15-0.18-0.26
								c0-0.11,0.07-0.2,0.18-0.26l41.87-19.37c0.11-0.05,0.25-0.05,0.36,0l3.65,1.75c0.11,0.05,0.18,0.15,0.18,0.26
								c0,0.11-0.07,0.2-0.18,0.26l-41.8,19.34c-0.02,0.01-0.03,0.02-0.05,0.03C80.9,156.98,80.84,157,80.77,157z M77.84,154.95
								l2.93,1.41l41.14-19.04l-2.93-1.41L77.84,154.95z"/>
						</g>
					</g>
				</g>
			</g>
			<g>
				<g>
					<g enable-background="new    ">
						<g>
							<g>
								<polygon fill="#C1763C" points="90.05,108.82 90.11,126.11 57.44,141.7 57.38,124.41 								"/>
								<path fill="#734028" d="M57.44,142c-0.06,0-0.12-0.01-0.18-0.04c-0.11-0.05-0.18-0.15-0.18-0.26l-0.06-17.29
									c0-0.11,0.07-0.2,0.18-0.26l32.67-15.59c0.11-0.05,0.25-0.05,0.36,0c0.11,0.05,0.18,0.15,0.18,0.26l0.06,17.29
									c0,0.11-0.07,0.2-0.18,0.26l-32.67,15.59C57.56,141.98,57.5,142,57.44,142z M57.74,124.58l0.06,16.61l31.96-15.25
									l-0.06-16.61L57.74,124.58z"/>
							</g>
						</g>
						<g>
							<g>
								<polygon fill="#DC8F46" points="57.44,141.7 35.89,131.35 35.83,114.05 57.38,124.41 								"/>
								<path fill="#734028" d="M57.44,142c-0.06,0-0.12-0.01-0.18-0.04L35.71,131.6c-0.11-0.05-0.18-0.15-0.18-0.26l-0.06-17.29
									c0-0.11,0.07-0.2,0.18-0.26c0.11-0.05,0.25-0.05,0.36,0l21.55,10.35c0.11,0.05,0.18,0.15,0.18,0.25l0.06,17.21
									c0.01,0.03,0.01,0.05,0.01,0.08c0,0.16-0.16,0.3-0.36,0.3C57.45,141.99,57.44,141.99,57.44,142z M36.25,131.18l20.83,10.01
									l-0.06-16.61l-20.83-10.01L36.25,131.18z"/>
							</g>
						</g>
						<g>
							<g>
								<polygon fill="#F8B76A" points="57.38,124.41 35.83,114.05 68.5,98.47 90.05,108.82 								"/>
								<path fill="#734028" d="M57.38,124.7c-0.06,0-0.12-0.01-0.18-0.04l-21.55-10.35c-0.11-0.05-0.18-0.15-0.18-0.26
									c0-0.11,0.07-0.2,0.18-0.26l32.67-15.59c0.11-0.05,0.25-0.05,0.36,0l21.55,10.35c0.11,0.05,0.18,0.15,0.18,0.26
									c0,0.11-0.07,0.2-0.18,0.26l-32.67,15.59C57.51,124.69,57.44,124.7,57.38,124.7z M36.55,114.06l20.84,10.01l31.96-15.25
									L68.5,98.81L36.55,114.06z"/>
							</g>
						</g>
					</g>
				</g>
				<g>
					<g>
						<polygon fill="#A86932" points="44.11,118.03 44.11,125.94 47.01,127.32 47.01,119.43 44.11,118.03 						"/>
						<path fill="#734028" d="M47.01,127.62c-0.06,0-0.12-0.01-0.18-0.04l-2.91-1.38c-0.11-0.05-0.18-0.15-0.18-0.26v-7.91
							c0-0.11,0.07-0.2,0.18-0.26c0.11-0.05,0.25-0.05,0.36,0l2.9,1.4c0.11,0.05,0.18,0.15,0.18,0.26v7.9c0,0.11-0.07,0.2-0.18,0.26
							C47.14,127.61,47.08,127.62,47.01,127.62z M44.47,125.77l2.19,1.04v-7.21l-2.19-1.05V125.77z"/>
					</g>
					<g>
						<polygon fill="#A86932" points="47.01,119.43 47.01,119.42 80.18,104.07 77.28,102.68 44.11,118.03 						"/>
						<path fill="#734028" d="M47,119.72c-0.06,0-0.12-0.01-0.17-0.04l-2.9-1.4c-0.11-0.05-0.18-0.15-0.18-0.26
							c0-0.11,0.07-0.2,0.18-0.26l33.17-15.35c0.11-0.05,0.25-0.05,0.36,0l2.89,1.39c0.11,0.05,0.18,0.15,0.18,0.26
							c0,0.11-0.07,0.2-0.18,0.26l-33.11,15.32c-0.01,0.01-0.03,0.02-0.05,0.03C47.13,119.71,47.07,119.72,47,119.72z M44.83,118.04
							l2.17,1.04l32.45-15.01l-2.17-1.04L44.83,118.04z"/>
					</g>
				</g>
			</g>
		</g>
		<g>
			<g>
				<g>
					<path fill="#B31E23" d="M126.56,33.05c0-14.38-14.11-26.04-31.51-26.04c-17.4,0-31.51,11.66-31.51,26.04
						c0,3.99,1.09,7.77,3.03,11.16h0l0.07,0.13c0,0,0,0,0,0l28.42,49.91l28.5-50.04l-0.04-0.01
						C125.47,40.82,126.56,37.04,126.56,33.05z"/>
					<path fill="#FFFFFF" d="M95.07,94.54c-0.14,0-0.27-0.07-0.32-0.17l-28.42-49.9c0,0,0-0.01,0-0.01l-0.07-0.13
						c0-0.01-0.01-0.02-0.01-0.03c-2.02-3.53-3.05-7.32-3.05-11.25c0-14.52,14.3-26.34,31.87-26.34c17.57,0,31.87,11.82,31.87,26.34
						c0,3.9-1.01,7.65-3,11.16c0,0.04,0,0.08-0.02,0.12l-28.5,50.04C95.34,94.48,95.21,94.54,95.07,94.54z M66.98,44.22l28.09,49.33
						l28.11-49.36c0-0.04,0-0.08,0.03-0.12c1.99-3.46,2.99-7.17,2.99-11.02c0-14.2-13.97-25.75-31.15-25.75
						C77.87,7.3,63.9,18.85,63.9,33.05c0,3.86,1.01,7.57,3,11.03c0.01,0.01,0.01,0.02,0.01,0.03l0.06,0.1
						C66.97,44.21,66.97,44.21,66.98,44.22z"/>
				</g>
				<path fill="#EE1927" d="M124.08,33.45c0-13.96-13-25.27-29.03-25.27c-16.03,0-29.03,11.31-29.03,25.27c0,3.88,1,7.55,2.79,10.83
					l0,0l0.07,0.13c0,0,0,0,0,0l26.18,38.02l26.25-38.15l-0.04-0.01C123.07,40.99,124.08,37.33,124.08,33.45z"/>
				<path fill="#FFFFFF" d="M115.93,30.46c0,9.53-9.35,17.25-20.87,17.25c-11.53,0-20.87-7.72-20.87-17.25
					c0-9.53,9.35-17.25,20.87-17.25C106.58,13.21,115.93,20.93,115.93,30.46z"/>
			</g>
		</g>
	</g>
</g>
</svg>
