<?xml version="1.0" encoding="utf-8"?>
<!-- Generator: Adobe Illustrator 26.0.0, SVG Export Plug-In . SVG Version: 6.00 Build 0)  -->
<svg version="1.1" id="Capa_1" xmlns="http://www.w3.org/2000/svg" xmlns:xlink="http://www.w3.org/1999/xlink" x="0px" y="0px"
	 viewBox="0 0 150 150" enable-background="new 0 0 150 150" xml:space="preserve">
<g>
	<path fill="#FF8732" d="M61.71,1.03c-11.17,0-20.23,6.61-20.23,14.76c0,8.15,20.23,21.18,20.23,21.18s20.23-13.03,20.23-21.18
		C81.94,7.64,72.88,1.03,61.71,1.03z M61.71,23.01c-6.6,0-11.92-3.61-11.92-8.09c0-4.46,5.32-8.09,11.92-8.09
		c6.57,0,11.92,3.63,11.92,8.09C73.63,19.4,68.28,23.01,61.71,23.01z"/>
</g>
<g>
	<path fill="#132C4F" d="M59.29,144.46c0,0-0.53,3.49,0.63,3.87c1.17,0.38,14.96,0.05,14.96,0.05s-0.04-1.18-2.42-1.4
		c-2.38-0.23-6.58-1.13-7.35-3.25C64.34,141.61,59.29,144.46,59.29,144.46z"/>
	<path fill="#FFAE73" d="M56.02,55.7c0,0,9.03,2.4,9.98,1.02c0.14-0.56,0.25-1.06,0.33-1.51c0.31-1.63,0.32-2.57,0.32-2.57
		l-5.96-3.26l-1.34-0.73c0.04,0.77-0.03,1.49-0.18,2.15c-0.01,0.05-0.02,0.1-0.04,0.16C58.18,54.89,56.02,55.7,56.02,55.7z"/>
	<path fill="#F48F4E" d="M59.1,50.9c0,0,0.02,0.02,0.05,0.06c0.38,0.46,2.95,3.41,7.19,4.25c0.31-1.63,0.32-2.57,0.32-2.57
		l-5.96-3.26c-0.79,0.63-1.32,1.2-1.52,1.42C59.13,50.87,59.1,50.9,59.1,50.9z"/>
	<path fill="#FFAE73" d="M68.38,52.56c0,0-9.28,1.05-10.16-2.89c-0.87-3.93-2.66-6.45,3.23-7.28c5.89-0.83,7.38,0.55,8.14,1.81
		C70.36,45.47,70.77,52.18,68.38,52.56z"/>
	<path fill="#2A3967" d="M59.93,48.66c0,0-1.23-0.85-0.52-1.38c0.71-0.53,1.12,0.28,1.68,0.25c0.56-0.03,1.57-1.14,1.64-2.15
		c0.07-1.01,5.47,0.53,7.63,0.05c2.17-0.48,4.07-2.45,0.68-3.51c-1.99-0.62-11.94-3.83-15.72-0.58c-4.81,4.15,1.62,8.49,2.47,9.15
		c0.86,0.66,1.35,0.46,1.35,0.46S60.66,49.57,59.93,48.66z"/>
	<path fill="#2A3967" d="M55.12,41.73c0.03-0.3,0.12-1.11,0.52-1.6c0,0-0.02,0.83,0.15,1.25C55.97,41.8,55.12,41.73,55.12,41.73z"/>
	<path fill="#2A3967" d="M54.14,41.05c0,0,1.17,0.09,1.24,0.71l-0.42,0.37C54.96,42.13,55.03,41.34,54.14,41.05z"/>
	<path fill="#1E3865" d="M45.56,144.46c0,0-0.55,3.58,0.61,3.96c0.49,0.16,15.54,0.06,15.54,0.06s-0.6-1.28-2.98-1.51
		c-2.38-0.23-6.58-1.13-7.35-3.25C50.6,141.61,45.56,144.46,45.56,144.46z"/>
	<path fill="#25468F" d="M52.7,90.87c0,0,0.01,0.38,0.03,1.07c0.14,4.45,0.7,21.64,1.23,31.22c0.02,0.35,0.04,0.69,0.06,1.01
		c0.01,0.17,0.02,0.35,0.03,0.52c0.32,4.63,1.24,9.17,2.18,12.8c1.19,4.63,2.41,7.78,2.41,7.78c4.55,0.63,7.5-0.55,7.5-0.55
		s1.23-7.18,1.69-11.53c0.15-1.41,0.9-6.22,1.84-12.08c0.73-4.53,1.57-9.68,2.34-14.36c0.04-0.25,0.08-0.5,0.12-0.75
		c1.25-7.57,2.28-13.74,2.28-13.74l-8.04-0.52L52.7,90.87z"/>
	<path fill="#1E3865" d="M56.24,137.5l13.44-16.38c0.73-4.53,1.57-9.68,2.34-14.36c0.04-0.25,0.08-0.5,0.12-0.75
		c1.25-7.57,2.28-13.74,2.28-13.74l-8.04-0.52l-13.65,0.19L56.24,137.5z"/>
	<path fill="#25468F" d="M72.94,92.31c0,0-7.52,25.22-13.65,37.39c-6.13,12.17-6.2,15.55-6.2,15.55s-5.62,0.83-8.1-0.13
		c0,0-1.42-23.08,2.29-29.21c2.45-4.05,4.33-12.68,3.69-15.79c-0.64-3.11-1.23-9.34-1.23-9.34L72.94,92.31z"/>
	<path fill="#C3433B" d="M51.74,93.66c1.78,0.85,4.58,1.16,7.66,1.13c3.6-0.04,7.59-0.54,10.78-1.19c1.71-0.35,3.2-0.74,4.26-1.11
		c4.76-1.69,1.01-26.96-5.31-33.82c-2.9-3.14-11.69-4.11-11.69-4.11c-1.42,0.46-5.3,5.49-5.54,8.96c-0.27,3.86,0.25,8.72,0.25,13.16
		c0,3.67-1.02,6.91-1.76,9.6C49.43,89.76,48.93,92.31,51.74,93.66z"/>
	<path fill="#A1292E" d="M59.4,94.79c3.6-0.04,7.59-0.54,10.78-1.19c1.34-2.18,1.93-5.82,0.69-11.82
		c-0.94-4.58-7.83-22.99-7.83-22.99C57.48,58.3,46.2,84.65,59.4,94.79z"/>
	<g>
		<path fill="#E06B00" d="M57.85,103.88c-0.04-0.94,0.65-1.82,1.81-2.33c1.88-0.83,5.1-1.82,9.51-1.63c7.46,0.32,9.11,3.13,9.35,5.3
			c0.24,2.17,2.72,5.3,3.31,7.71c0.59,2.41,1.58,8.54-3.7,9.02c-5.28,0.48-22.98,0-22.98,0s-4.12-3.28,0-9.58
			C57.61,108.63,57.91,105.52,57.85,103.88z"/>
		<g>
			<g>
				<path fill="#E06B00" d="M60.14,100.64l1.41-0.17c0,0-0.06-0.87,0.44-1.53c0.38-0.5,1.02-0.78,1.9-0.83
					c0.83-0.05,1.48,0.16,1.91,0.62c0.6,0.65,0.61,1.63,0.61,1.64l1.42,0.01c0-0.07,0-1.67-1.04-2.81
					c-0.71-0.79-1.71-1.12-2.97-1.08c-1.28,0.07-2.27,0.55-2.91,1.41C60.01,99.09,60.13,100.57,60.14,100.64z"/>
			</g>
			<g>
				<path fill="#FC9F38" d="M51.55,121.94c0,0,17.7,0.49,22.99,0c5.28-0.48,4.3-6.6,3.69-9.02c-0.59-2.4-3.07-5.54-3.31-7.71
					c-0.04-0.41-0.13-0.86-0.32-1.3c-0.76-1.85-3.01-3.74-9.01-4c-4.43-0.19-7.63,0.8-9.52,1.63c-1.15,0.51-1.86,1.39-1.82,2.33
					c0,0.19,0.02,0.42,0.02,0.65c-0.04,1.76-0.55,4.56-2.71,7.84C47.43,118.66,51.55,121.94,51.55,121.94z"/>
				<path opacity="0.4" fill="#E65F00" d="M75.88,113.81H65.31c0,0-0.71,5.25,4.34,5.41C74.7,119.38,76.04,117.18,75.88,113.81z"/>
				<path fill="#E06B00" d="M75.88,113.81c0,0-1.81,1.87-5.13,1.82c-3.31-0.05-5.44-1.82-5.44-1.82H75.88z"/>
				<path opacity="0.4" fill="#E65F00" d="M63.16,113.81H52.59c0,0-0.71,5.25,4.34,5.41C61.98,119.38,63.32,117.18,63.16,113.81z"/>
				<path fill="#E06B00" d="M63.16,113.81c0,0-1.81,1.87-5.13,1.82c-3.31-0.05-5.44-1.82-5.44-1.82H63.16z"/>
				<path opacity="0.4" fill="#E65F00" d="M54.24,103.88c0,0.19,0.02,0.42,0.02,0.65c1.95,1.66,5.26,3.65,9.71,3.55
					c7.57-0.15,10.62-4.16,10.62-4.16c-0.76-1.85-3.01-3.74-9.01-4c-4.43-0.19-7.63,0.8-9.52,1.63
					C54.91,102.06,54.21,102.94,54.24,103.88z"/>
				<path fill="#E65F00" d="M64.22,109.12L64.22,109.12c0.48,0,0.87-0.26,0.87-0.59V108c0-0.32-0.39-0.59-0.87-0.59l0,0
					c-0.48,0-0.87,0.26-0.87,0.59v0.54C63.35,108.86,63.74,109.12,64.22,109.12z"/>
			</g>
		</g>
	</g>
	<path fill="#E48F4F" d="M65.25,94.88c0,0,2.3,3.01,1.15,4.18c-1.15,1.17-5.25-0.33-5.58-1c-0.33-0.67,0-3.9,0-3.9L65.25,94.88z"/>
	<path fill="#E48F4F" d="M65.62,94.8c0,0,1.03,0.66,1.1,1.16c0.07,0.5,0.88,1.59,0.67,1.69c-0.68,0.32-1.77-1.01-1.77-1.01
		l-0.38-1.48L65.62,94.8z"/>
	<path fill="#C3433B" d="M53.5,64.72c0,0,1.08,10.47,1.07,14.8c-0.01,4.33,5.07,15.86,5.07,15.86s3.36,0.18,4.68,0.07
		c1.52-0.13,2.43-0.61,2.43-0.61S65.62,81.22,67.75,76c2.13-5.22,2.24-15.7,2.24-15.7s-1.18-2.26-8.26-1.55
		C53.33,59.6,53.5,64.72,53.5,64.72z"/>
</g>
<g>
	<path fill="#FFAE73" d="M30.74,109.45"/>
</g>
</svg>
