<?xml version="1.0" encoding="utf-8"?>
<!-- Generator: Adobe Illustrator 26.0.0, SVG Export Plug-In . SVG Version: 6.00 Build 0)  -->
<svg version="1.1" id="Capa_1" xmlns="http://www.w3.org/2000/svg" xmlns:xlink="http://www.w3.org/1999/xlink" x="0px" y="0px"
	 viewBox="0 0 166.32 100" enable-background="new 0 0 166.32 100" xml:space="preserve">
<path fill="#E5EAF4" d="M18.74,75.68"/>
<path fill="#E5EAF4" d="M4.25,73.75"/>
<path fill="#E5EAF4" d="M-4.69,62.02"/>
<g>
	<g>
		<path fill="#342745" d="M149.7,68.62h0.12c0,0-0.04-0.19-0.12-0.5V63h-3.44c-0.14-0.07-0.29-0.13-0.45-0.19
			c-0.38-0.13-0.8-0.21-1.25-0.21h-0.3h-1.14h-4.29h-7.75h-1.3h-4.14c-0.63,0-1.2,0.15-1.7,0.39H79.83
			c-0.14-0.07-0.29-0.13-0.45-0.19c-0.38-0.13-0.8-0.21-1.25-0.21h-0.3h-1.14h-4.29h-7.75h-1.3h-4.14c-0.63,0-1.19,0.15-1.7,0.39H29
			v9.48h24.95v0.28c0,0.94,0.52,1.7,1.16,1.7h0.29c0.52,4.31,2.71,7.55,5.33,7.55h3.38c2.17,0,4.04-2.21,4.92-5.42
			c0.88,3.2,2.75,5.42,4.92,5.42h3.38c3.01,0,5.45-4.26,5.45-9.53h37.61v0.28c0,0.94,0.52,1.7,1.16,1.7h0.29
			c0.52,4.31,2.71,7.55,5.34,7.55h3.38c2.17,0,4.04-2.21,4.92-5.42c0.88,3.2,2.75,5.42,4.92,5.42h3.38c3.01,0,5.45-4.26,5.45-9.53
			h0.48V68.62z"/>
		<g>
			<path fill="#7E94C6" d="M163.72,70.12h-7.2v-4.51h7.2c0.26,0,0.47,0.21,0.47,0.47v3.56C164.19,69.91,163.98,70.12,163.72,70.12z"
				/>
			<path fill="#E7EEF8" d="M163.24,70.12h-7.2v-4.51h7.2c0.26,0,0.47,0.21,0.47,0.47v3.56C163.71,69.91,163.5,70.12,163.24,70.12z"
				/>
		</g>
		<path fill="#493A5B" d="M162.42,64.74H62.21v3.16h100.21c0.33,0,0.6-0.27,0.6-0.6v-1.97C163.02,65,162.75,64.74,162.42,64.74z"/>
		<path fill="#FEB16D" d="M56.15,16.91l-20.54,0c-2.05,0-3.7,2.44-3.7,5.46v49.75h30.31V26.54v-4.17c0-3.01,1.66-5.46,3.7-5.46
			H56.15z"/>
		<rect x="53.74" y="64.74" fill="#493A5B" width="8.47" height="7.39"/>
		<path fill="#C96237" d="M162.08,21.35V62.7c0,1.13-0.62,2.04-1.38,2.04H62.21V22.37c0-3.01,1.66-5.46,3.7-5.46h93.15
			C160.73,16.91,162.08,18.9,162.08,21.35z"/>
		<path fill="#FEB16D" d="M63.6,62.7V22.37c0-1.89,1.04-3.42,2.32-3.42h93.32c0.81,0,1.47,0.97,1.47,2.17v39.42
			c0,1.2-0.66,2.17-1.47,2.17H63.6z"/>
		<path fill="#C96237" d="M157.2,59.79H67.1c-0.85,0-1.54-1.02-1.54-2.26v-33c0-1.48,0.82-2.68,1.82-2.68h89.81
			c0.85,0,1.54,1.02,1.54,2.26v33.41C158.73,58.78,158.04,59.79,157.2,59.79z M67.38,22.05c-0.93,0-1.68,1.11-1.68,2.48v33
			c0,1.14,0.63,2.06,1.4,2.06h90.09c0.77,0,1.4-0.93,1.4-2.06V24.12c0-1.14-0.63-2.06-1.4-2.06H67.38z"/>
		<path fill="#342745" d="M17.17,72.71c0-5.13-2.82-9.29-6.31-9.29c-3.48,0-6.31,4.16-6.31,9.29c0,5.08,2.76,9.2,6.19,9.29
			c0,0,2.96,0,2.96,0s-0.02-0.49-0.06-0.95C15.74,79.53,17.17,76.37,17.17,72.71z"/>
		<rect x="51.12" y="28.99" fill="#7E94C6" width="9.56" height="39.63"/>
		<path fill="#B5C8E8" d="M50.19,20.16v8.83H24.78c0-4.88,2.68-8.83,5.99-8.83H50.19z"/>
		<path fill="#7E94C6" d="M50.19,20.16h-0.07c-3.31,0-5.99,3.95-5.99,8.83h6.06h10.49v-8.83H50.19z"/>
		<polygon fill="#7E94C6" points="51.12,29.7 51.12,67.67 37.67,67.75 37.67,46.31 38.07,43.71 40.04,30.72 40.2,29.7 		"/>
		<path fill="#493A5B" d="M20.02,72.71c0,5.13-2.82,9.29-6.31,9.29s-6.31-4.16-6.31-9.29c0-5.13,2.82-9.29,6.31-9.29
			S20.02,67.58,20.02,72.71z"/>
		<rect x="17.4" y="46.31" fill="#7E94C6" width="20.28" height="24.06"/>
		<g>
			<path fill="#B5C8E8" d="M2.9,67.67c0,0,0.92-6.35,6.46-6.35h5.5c-5.54,0-6.46,6.35-6.46,6.35H2.9z"/>
			<g>
				<path fill="#E7EEF8" d="M9.94,64.23H4.81v-0.76c0-1.19,0.96-2.15,2.15-2.15h0.84c1.19,0,2.15,0.96,2.15,2.15V64.23z"/>
				<path fill="#FFFFFF" d="M9.35,64.23H4.22v-0.76c0-1.19,0.96-2.15,2.15-2.15H7.2c1.19,0,2.15,0.96,2.15,2.15V64.23z"/>
				<path fill="#F18D4F" d="M4.56,63.72v-0.49c0-0.77,0.63-1.4,1.4-1.4h1.65c0.77,0,1.4,0.63,1.4,1.4v0.49H4.56z"/>
			</g>
			<path fill="#E7EEF8" d="M8.68,67.75l-0.56-0.09c0.01-0.07,0.28-1.79,1.24-3.44c0.88-1.51,2.55-3.32,5.52-3.32h0.05
				c2.97,0,4.64,1.8,5.52,3.32c0.96,1.65,1.2,3.28,1.21,3.35l-0.54,0.17c0-0.01-0.24-1.53-1.11-3.02c-1.17-1.99-2.88-3-5.08-3h-0.05
				c-2.2,0-3.91,1.01-5.08,3C8.91,66.22,8.68,67.74,8.68,67.75z"/>
		</g>
		<polygon fill="#E7EEF8" points="20.08,29.7 40.2,29.7 37.67,46.31 17.56,46.31 		"/>
		<path fill="#D0DCF2" d="M39.2,31.61l-1.75,11.52c-0.05,0.34-0.25,0.58-0.49,0.58H19.28c-0.32,0-0.56-0.44-0.49-0.9l1.75-11.52
			c0.05-0.34,0.25-0.58,0.49-0.58h17.68C39.03,30.71,39.27,31.15,39.2,31.61z"/>
		<path fill="#493A5B" d="M19.28,43.2c-0.06,0-0.1-0.05-0.12-0.09c-0.02-0.03-0.04-0.1-0.03-0.19l1.75-11.52
			c0.02-0.11,0.08-0.18,0.15-0.18h17.68c0.06,0,0.1,0.05,0.12,0.09c0.02,0.03,0.04,0.1,0.03,0.19l-1.75,11.52
			c-0.02,0.11-0.08,0.18-0.15,0.18H19.28z"/>
		<path fill="#E3EAF7" d="M17.83,44.49h14.08c0,0,5.76-0.22,5.76,1.82c-2.32,0-16.83,0-16.83,0L17.83,44.49z"/>
		<path fill="#F6F8FC" d="M26.71,70.37H8.41V50.05c0-2.17,1.07-4.01,2.52-4.35c2.28-0.53,5.45-1.21,6.63-1.21
			c1.18,0,4.35,0.68,6.63,1.21c1.45,0.34,2.52,2.18,2.52,4.35V70.37z"/>
		<path fill="#E3EAF7" d="M8.75,69.86V50.05c0-1.93,0.94-3.55,2.23-3.85c3.35-0.78,5.69-1.21,6.58-1.21c0.89,0,3.23,0.43,6.58,1.21
			c1.29,0.3,2.23,1.92,2.23,3.85v19.81H8.75z"/>
		<rect x="9.68" y="48.96" fill="#493A5B" width="15.75" height="18.71"/>
		<g>
			<path fill="#D0DCF2" d="M10.84,67.67h-0.5V49.02c0-0.21,0.11-0.37,0.25-0.37c0.14,0,0.25,0.17,0.25,0.37V67.67z"/>
			<path fill="#D0DCF2" d="M13.16,67.67h-0.5V49.02c0-0.21,0.11-0.37,0.25-0.37c0.14,0,0.25,0.17,0.25,0.37V67.67z"/>
			<path fill="#D0DCF2" d="M15.49,67.67h-0.5V49.02c0-0.21,0.11-0.37,0.25-0.37c0.14,0,0.25,0.17,0.25,0.37V67.67z"/>
			<path fill="#D0DCF2" d="M17.81,67.67h-0.5V49.02c0-0.21,0.11-0.37,0.25-0.37c0.14,0,0.25,0.17,0.25,0.37V67.67z"/>
			<path fill="#D0DCF2" d="M20.13,67.67h-0.5V49.02c0-0.21,0.11-0.37,0.25-0.37c0.14,0,0.25,0.17,0.25,0.37V67.67z"/>
			<path fill="#D0DCF2" d="M22.45,67.67h-0.5V49.02c0-0.21,0.11-0.37,0.25-0.37c0.14,0,0.25,0.17,0.25,0.37V67.67z"/>
			<path fill="#D0DCF2" d="M24.78,67.67h-0.5V49.02c0-0.21,0.11-0.37,0.25-0.37c0.14,0,0.25,0.17,0.25,0.37V67.67z"/>
		</g>
		<path fill="#E7EEF8" d="M50.29,31.71v11c0,0.55-0.3,0.99-0.67,0.99H39.48c-0.43,0-0.75-0.59-0.66-1.21l1.67-11
			c0.07-0.45,0.34-0.78,0.66-0.78h8.47C49.99,30.72,50.29,31.16,50.29,31.71z"/>
		<path fill="#493A5B" d="M39.48,43.2c-0.1,0-0.19-0.07-0.26-0.18c-0.06-0.12-0.09-0.26-0.06-0.41l1.67-11
			c0.03-0.22,0.17-0.38,0.32-0.38h8.47c0.18,0,0.33,0.22,0.33,0.48v11c0,0.27-0.15,0.48-0.33,0.48H39.48z"/>
		<path fill="#B5C8E8" d="M39.82,28.99l-0.41,2.67c-0.27,1.75-1.32,2.99-2.53,2.99H19.34c-0.44,0-0.77-0.6-0.67-1.24l0.25-1.62
			c0.25-1.64,1.23-2.8,2.37-2.8H39.82z"/>
		<path fill="#7E94C6" d="M39.82,28.99h-0.28c-1.14,0-2.12,1.16-2.37,2.8l-0.25,1.62c-0.1,0.63,0.23,1.24,0.67,1.24h0.82
			c0.32,0,0.6-0.33,0.67-0.79c0.28-1.84,1.39-3.15,2.67-3.15h9.37v-1.72H39.82z"/>
		<g>
			<rect x="42.51" y="62.61" fill="#B5C8E8" width="7.09" height="2.13"/>
			<path fill="#B5C8E8" d="M53.74,69.32v2.8h-2.15v-1.66c0-0.98-0.27-1.87-0.7-2.52c-0.43-0.65-1.04-1.05-1.7-1.06v-4.27
				C51.7,62.61,53.74,65.61,53.74,69.32z"/>
			<g>
				<g>
					<path fill="#D0DCF2" d="M49.79,66.64H39.65l2.85-3.51h6.38c0.5,0,0.9,0.6,0.9,1.33V66.64z"/>
					<path fill="#D0DCF2" d="M51.48,69.38H41.34l2.85-3.51h6.38c0.5,0,0.9,0.6,0.9,1.33V69.38z"/>
					<path fill="#D0DCF2" d="M53.17,72.12h-7.29v-3.51h5.52c0.98,0,1.77,0.79,1.77,1.77V72.12z"/>
				</g>
			</g>
			<path fill="#B5C8E8" d="M47.06,69.32v2.8h-5v-1.66c0-0.98-0.27-1.87-0.7-2.52c-0.43-0.65-1.04-1.05-1.7-1.06l2.85-4.27
				C45.02,62.61,47.06,65.61,47.06,69.32z"/>
			<rect x="44.72" y="65.67" fill="#B5C8E8" width="5.07" height="0.21"/>
			<rect x="44.72" y="68.41" fill="#B5C8E8" width="7.12" height="0.21"/>
		</g>
		<g>
			<g>
				<path fill="#7E94C6" d="M45.19,67.67c0,0-0.92-6.35-6.46-6.35h-5.5c5.54,0,6.46,6.35,6.46,6.35H45.19z"/>
			</g>
		</g>
		<g>
			<path fill="#493A5B" d="M44.13,72.48c0,5.26-2.44,9.53-5.45,9.53c-3.01,0-5.45-4.26-5.45-9.53c0-4,1.41-7.42,3.41-8.83
				c0.63-0.45,1.32-0.69,2.04-0.69c2.01,0,3.76,1.89,4.71,4.71C43.85,69.08,44.13,70.72,44.13,72.48z"/>
			<path fill="#E7EEF8" d="M38.67,78.95c-1.83,0-3.38-2.96-3.38-6.47c0-2.69,0.9-5.14,2.23-6.08c0.37-0.26,0.75-0.39,1.15-0.39
				c1.13,0,2.23,1.15,2.85,3.01c0.35,1.04,0.53,2.23,0.53,3.46C42.05,75.98,40.51,78.95,38.67,78.95z"/>
			<path fill="#D0DCF2" d="M38.67,78.44c-1.65,0-3.04-2.73-3.04-5.96c0-2.5,0.82-4.76,2.04-5.62c0.32-0.23,0.66-0.34,1-0.34
				c1,0,1.97,1.05,2.54,2.73c0.32,0.97,0.5,2.08,0.5,3.23C41.71,75.71,40.32,78.44,38.67,78.44z"/>
			<path fill="#E7EEF8" d="M39.08,74.96c-0.69,0-1.26-1.14-1.26-2.48c0-1.04,0.34-1.98,0.85-2.34c0.13-0.09,0.27-0.14,0.42-0.14
				c0.42,0,0.82,0.44,1.06,1.14c0.14,0.4,0.21,0.87,0.21,1.35C40.35,73.82,39.77,74.96,39.08,74.96z"/>
			<path fill="#342745" d="M38.67,82H35.3c-3.01,0-5.45-4.26-5.45-9.53c0-1.75,0.27-3.4,0.75-4.81c0.95-2.82,2.7-4.71,4.71-4.71
				h3.38c-0.72,0-1.41,0.25-2.04,0.69c-2,1.41-3.41,4.83-3.41,8.83C33.22,77.74,35.66,82,38.67,82z"/>
		</g>
		<g>
			<path fill="#B5C8E8" d="M26.71,67.67c0,0,0.92-6.35,6.46-6.35h5.5c-5.54,0-6.46,6.35-6.46,6.35H26.71z"/>
			<g>
				<path fill="#E7EEF8" d="M33.74,64.23h-5.13v-0.76c0-1.19,0.96-2.15,2.15-2.15h0.84c1.19,0,2.15,0.96,2.15,2.15V64.23z"/>
				<path fill="#FFFFFF" d="M33.16,64.23h-5.13v-0.76c0-1.19,0.96-2.15,2.15-2.15h0.84c1.19,0,2.15,0.96,2.15,2.15V64.23z"/>
				<path fill="#F18D4F" d="M28.37,63.72v-0.49c0-0.77,0.63-1.4,1.4-1.4h1.65c0.77,0,1.4,0.63,1.4,1.4v0.49H28.37z"/>
			</g>
			<path fill="#E7EEF8" d="M32.48,67.75l-0.56-0.09c0.01-0.07,0.28-1.79,1.24-3.44c0.88-1.51,2.55-3.32,5.52-3.32h0.05
				c2.97,0,4.64,1.8,5.52,3.32c0.96,1.65,1.2,3.28,1.21,3.35l-0.54,0.17c0-0.01-0.23-1.53-1.11-3.02c-1.17-1.99-2.88-3-5.08-3h-0.05
				c-2.2,0-3.91,1.01-5.08,3C32.72,66.22,32.48,67.74,32.48,67.75z"/>
		</g>
		<g>
			<path fill="#B5C8E8" d="M33.33,75.66h-0.91v-7.99h0.91c0.23,0,0.41,0.18,0.41,0.41v7.17C33.74,75.47,33.56,75.66,33.33,75.66z"/>
			<path fill="#D0DCF2" d="M32.17,75.66H2.9c-0.44,0-0.8-0.36-0.8-0.8v-6.38c0-0.44,0.36-0.8,0.8-0.8h29.27c0.44,0,0.8,0.36,0.8,0.8
				v6.38C32.98,75.3,32.62,75.66,32.17,75.66z"/>
		</g>
		<g>
			<path fill="#C96237" d="M23.31,28.16h-0.84c-0.21,0-0.37,0.17-0.37,0.37v0.46h1.78v-0.26C23.89,28.42,23.63,28.16,23.31,28.16z"
				/>
			<path fill="#F18D4F" d="M22.86,28.16h-0.84c-0.21,0-0.37,0.17-0.37,0.37v0.46h1.78v-0.26C23.43,28.42,23.18,28.16,22.86,28.16z"
				/>
		</g>
		<path fill="#7E94C6" d="M31.87,28.51h-5.18c-0.74,0-1.18-0.88-0.99-1.97c0.19-1.09,0.94-1.97,1.68-1.97h5.18
			c0.74,0,1.18,0.88,0.99,1.97C33.36,27.63,32.61,28.51,31.87,28.51z"/>
		<g>
			<path fill="#E3EAF7" d="M31.62,28.51h-5.18c-0.74,0-1.18-0.88-0.99-1.97c0.19-1.09,0.94-1.97,1.68-1.97h5.18
				c0.74,0,1.18,0.88,0.99,1.97C33.11,27.63,32.36,28.51,31.62,28.51z"/>
			<path fill="#493A5B" d="M26.53,28c-0.55,0-0.87-0.65-0.73-1.46c0.14-0.8,0.7-1.46,1.24-1.46h5.18c0.55,0,0.87,0.65,0.73,1.46
				c-0.14,0.8-0.7,1.46-1.24,1.46H26.53z"/>
		</g>
		<path fill="#7E94C6" d="M41.99,28.51h-5.18c-0.74,0-1.18-0.88-0.99-1.97c0.19-1.09,0.94-1.97,1.68-1.97h5.18
			c0.74,0,1.18,0.88,0.99,1.97C43.47,27.63,42.72,28.51,41.99,28.51z"/>
		<path fill="#E3EAF7" d="M41.74,28.51h-5.18c-0.74,0-1.18-0.88-0.99-1.97c0.19-1.09,0.94-1.97,1.68-1.97h5.18
			c0.74,0,1.18,0.88,0.99,1.97C43.23,27.63,42.47,28.51,41.74,28.51z"/>
		<path fill="#493A5B" d="M36.65,28c-0.55,0-0.88-0.65-0.73-1.46c0.14-0.8,0.7-1.46,1.25-1.46h5.18c0.55,0,0.87,0.65,0.73,1.46
			c-0.14,0.8-0.7,1.46-1.24,1.46H36.65z"/>
		<g>
			<path fill="#C96237" d="M37.7,28.16h-0.84c-0.21,0-0.37,0.17-0.37,0.37v0.46h1.78v-0.26C38.27,28.42,38.02,28.16,37.7,28.16z"/>
			<path fill="#F18D4F" d="M37.25,28.16h-0.84c-0.21,0-0.37,0.17-0.37,0.37v0.46h1.78v-0.26C37.82,28.42,37.56,28.16,37.25,28.16z"
				/>
		</g>
		<g>
			<path fill="#C96237" d="M27.58,28.16h-0.84c-0.21,0-0.37,0.17-0.37,0.37v0.46h1.78v-0.26C28.15,28.42,27.89,28.16,27.58,28.16z"
				/>
			<path fill="#F18D4F" d="M27.12,28.16h-0.84c-0.21,0-0.37,0.17-0.37,0.37v0.46h1.78v-0.26C27.7,28.42,27.44,28.16,27.12,28.16z"/>
		</g>
		<g>
			<path fill="#C96237" d="M34.28,19.33h-0.84c-0.21,0-0.37,0.17-0.37,0.37v0.46h1.78V19.9C34.85,19.58,34.59,19.33,34.28,19.33z"/>
			<path fill="#F18D4F" d="M33.82,19.33h-0.84c-0.21,0-0.37,0.17-0.37,0.37v0.46h1.78V19.9C34.4,19.58,34.14,19.33,33.82,19.33z"/>
		</g>
		<g>
			<path fill="#C96237" d="M40.62,19.33h-0.84c-0.21,0-0.37,0.17-0.37,0.37v0.46h1.78V19.9C41.19,19.58,40.94,19.33,40.62,19.33z"/>
			<path fill="#F18D4F" d="M40.17,19.33h-0.84c-0.21,0-0.37,0.17-0.37,0.37v0.46h1.78V19.9C40.74,19.58,40.48,19.33,40.17,19.33z"/>
		</g>
		<g>
			<path fill="#C96237" d="M46.96,19.33h-0.84c-0.21,0-0.37,0.17-0.37,0.37v0.46h1.78V19.9C47.54,19.58,47.28,19.33,46.96,19.33z"/>
			<path fill="#F18D4F" d="M46.51,19.33h-0.84c-0.21,0-0.37,0.17-0.37,0.37v0.46h1.78V19.9C47.08,19.58,46.83,19.33,46.51,19.33z"/>
		</g>
		<g>
			<path fill="#C96237" d="M30.25,28.16h-0.84c-0.21,0-0.37,0.17-0.37,0.37v0.46h1.78v-0.26C30.83,28.42,30.57,28.16,30.25,28.16z"
				/>
			<path fill="#F18D4F" d="M29.8,28.16h-0.84c-0.21,0-0.37,0.17-0.37,0.37v0.46h1.78v-0.26C30.37,28.42,30.12,28.16,29.8,28.16z"/>
		</g>
		<g>
			<path fill="#7E94C6" d="M58.27,28.63H49.1c-0.78,0-1.42-0.93-1.42-2.09c0-1.15,0.63-2.09,1.42-2.09h9.17
				c0.78,0,1.42,0.93,1.42,2.09C59.68,27.7,59.05,28.63,58.27,28.63z"/>
			<path fill="#D0DCF2" d="M57.93,28.63h-9.17c-0.78,0-1.42-0.93-1.42-2.09c0-1.15,0.63-2.09,1.42-2.09h9.17
				c0.78,0,1.42,0.93,1.42,2.09C59.35,27.7,58.71,28.63,57.93,28.63z"/>
			<path fill="#493A5B" d="M48.76,28.12c-0.59,0-1.07-0.71-1.07-1.58c0-0.87,0.48-1.58,1.07-1.58h9.17c0.59,0,1.07,0.71,1.07,1.58
				c0,0.87-0.48,1.58-1.07,1.58H48.76z"/>
		</g>
		<g>
			<path fill="#C96237" d="M32.93,28.16h-0.84c-0.21,0-0.37,0.17-0.37,0.37v0.46h1.78v-0.26C33.5,28.42,33.25,28.16,32.93,28.16z"/>
			<path fill="#F18D4F" d="M32.48,28.16h-0.84c-0.21,0-0.37,0.17-0.37,0.37v0.46h1.78v-0.26C33.05,28.42,32.79,28.16,32.48,28.16z"
				/>
		</g>
		<g>
			<path fill="#5F6F95" d="M53.63,21.61h-1.34h-0.22c-0.84,0-1.52,1-1.52,2.24v0.32v10.31h1.74v-9.91c0-0.22,0.12-0.4,0.27-0.4h1.07
				c0.11,0,0.2-0.57,0.2-1.28C53.83,22.18,53.74,21.61,53.63,21.61z"/>
			<g>
				<g>
					<rect x="49.82" y="34.48" fill="#B5C8E8" width="3.19" height="19.33"/>
					<path fill="#E7EEF8" d="M52.79,52.37h-2.76c-0.23,0-0.41,0.19-0.41,0.41v0.61c0,0.23,0.19,0.41,0.41,0.41h2.76
						c0.23,0,0.41-0.18,0.41-0.41v-0.61C53.21,52.55,53.02,52.37,52.79,52.37z"/>
					<path fill="#E7EEF8" d="M52.79,33.76h-2.76c-0.23,0-0.41,0.19-0.41,0.41v0.61c0,0.23,0.18,0.41,0.41,0.41h2.76
						c0.23,0,0.41-0.18,0.41-0.41v-0.61C53.21,33.94,53.02,33.76,52.79,33.76z"/>
					<g>
						<g>
							<g>
								<ellipse fill="#7E94C6" cx="50.37" cy="35.79" rx="0.18" ry="0.26"/>
							</g>
							<g>
								<ellipse fill="#7E94C6" cx="51.41" cy="35.79" rx="0.18" ry="0.26"/>
							</g>
							<g>
								<path fill="#7E94C6" d="M52.64,35.79c0,0.15-0.08,0.26-0.18,0.26c-0.1,0-0.18-0.12-0.18-0.26c0-0.14,0.08-0.26,0.18-0.26
									C52.56,35.53,52.64,35.65,52.64,35.79z"/>
							</g>
						</g>
					</g>
					<g>
						<g>
							<g>
								<ellipse fill="#7E94C6" cx="50.37" cy="37.52" rx="0.18" ry="0.26"/>
							</g>
							<g>
								<ellipse fill="#7E94C6" cx="51.41" cy="37.52" rx="0.18" ry="0.26"/>
							</g>
							<g>
								<path fill="#7E94C6" d="M52.64,37.52c0,0.15-0.08,0.26-0.18,0.26c-0.1,0-0.18-0.12-0.18-0.26c0-0.15,0.08-0.26,0.18-0.26
									C52.56,37.26,52.64,37.38,52.64,37.52z"/>
							</g>
						</g>
					</g>
					<g>
						<g>
							<g>
								<path fill="#7E94C6" d="M50.55,39.25c0,0.15-0.08,0.26-0.18,0.26c-0.1,0-0.18-0.12-0.18-0.26c0-0.15,0.08-0.26,0.18-0.26
									C50.47,38.99,50.55,39.11,50.55,39.25z"/>
							</g>
							<g>
								<path fill="#7E94C6" d="M51.59,39.25c0,0.15-0.08,0.26-0.18,0.26c-0.1,0-0.18-0.12-0.18-0.26c0-0.15,0.08-0.26,0.18-0.26
									C51.51,38.99,51.59,39.11,51.59,39.25z"/>
							</g>
							<g>
								<path fill="#7E94C6" d="M52.64,39.25c0,0.15-0.08,0.26-0.18,0.26c-0.1,0-0.18-0.12-0.18-0.26c0-0.15,0.08-0.26,0.18-0.26
									C52.56,38.99,52.64,39.11,52.64,39.25z"/>
							</g>
						</g>
					</g>
					<g>
						<g>
							<g>
								<ellipse fill="#7E94C6" cx="50.37" cy="40.98" rx="0.18" ry="0.26"/>
							</g>
							<g>
								<ellipse fill="#7E94C6" cx="51.41" cy="40.98" rx="0.18" ry="0.26"/>
							</g>
							<g>
								<path fill="#7E94C6" d="M52.64,40.98c0,0.15-0.08,0.26-0.18,0.26c-0.1,0-0.18-0.12-0.18-0.26c0-0.15,0.08-0.26,0.18-0.26
									C52.56,40.72,52.64,40.84,52.64,40.98z"/>
							</g>
						</g>
					</g>
					<g>
						<g>
							<g>
								<path fill="#7E94C6" d="M50.55,42.71c0,0.15-0.08,0.26-0.18,0.26c-0.1,0-0.18-0.12-0.18-0.26c0-0.15,0.08-0.26,0.18-0.26
									C50.47,42.45,50.55,42.57,50.55,42.71z"/>
							</g>
							<g>
								<path fill="#7E94C6" d="M51.59,42.71c0,0.15-0.08,0.26-0.18,0.26c-0.1,0-0.18-0.12-0.18-0.26c0-0.15,0.08-0.26,0.18-0.26
									C51.51,42.45,51.59,42.57,51.59,42.71z"/>
							</g>
							<g>
								<path fill="#7E94C6" d="M52.64,42.71c0,0.15-0.08,0.26-0.18,0.26c-0.1,0-0.18-0.12-0.18-0.26c0-0.15,0.08-0.26,0.18-0.26
									C52.56,42.45,52.64,42.57,52.64,42.71z"/>
							</g>
						</g>
					</g>
					<g>
						<g>
							<g>
								<path fill="#7E94C6" d="M50.55,44.44c0,0.15-0.08,0.26-0.18,0.26c-0.1,0-0.18-0.12-0.18-0.26c0-0.15,0.08-0.26,0.18-0.26
									C50.47,44.18,50.55,44.3,50.55,44.44z"/>
							</g>
							<g>
								<path fill="#7E94C6" d="M51.59,44.44c0,0.15-0.08,0.26-0.18,0.26c-0.1,0-0.18-0.12-0.18-0.26c0-0.15,0.08-0.26,0.18-0.26
									C51.51,44.18,51.59,44.3,51.59,44.44z"/>
							</g>
							<g>
								<path fill="#7E94C6" d="M52.64,44.44c0,0.15-0.08,0.26-0.18,0.26c-0.1,0-0.18-0.12-0.18-0.26c0-0.15,0.08-0.26,0.18-0.26
									C52.56,44.18,52.64,44.3,52.64,44.44z"/>
							</g>
						</g>
					</g>
					<g>
						<g>
							<g>
								<ellipse fill="#7E94C6" cx="50.37" cy="46.17" rx="0.18" ry="0.26"/>
							</g>
							<g>
								<ellipse fill="#7E94C6" cx="51.41" cy="46.17" rx="0.18" ry="0.26"/>
							</g>
							<g>
								<path fill="#7E94C6" d="M52.64,46.17c0,0.15-0.08,0.26-0.18,0.26c-0.1,0-0.18-0.12-0.18-0.26s0.08-0.26,0.18-0.26
									C52.56,45.91,52.64,46.03,52.64,46.17z"/>
							</g>
						</g>
					</g>
					<g>
						<g>
							<g>
								<path fill="#7E94C6" d="M50.55,47.9c0,0.15-0.08,0.26-0.18,0.26c-0.1,0-0.18-0.12-0.18-0.26c0-0.15,0.08-0.26,0.18-0.26
									C50.47,47.64,50.55,47.76,50.55,47.9z"/>
							</g>
							<g>
								<path fill="#7E94C6" d="M51.59,47.9c0,0.15-0.08,0.26-0.18,0.26c-0.1,0-0.18-0.12-0.18-0.26c0-0.15,0.08-0.26,0.18-0.26
									C51.51,47.64,51.59,47.76,51.59,47.9z"/>
							</g>
							<g>
								<path fill="#7E94C6" d="M52.64,47.9c0,0.15-0.08,0.26-0.18,0.26c-0.1,0-0.18-0.12-0.18-0.26c0-0.15,0.08-0.26,0.18-0.26
									C52.56,47.64,52.64,47.76,52.64,47.9z"/>
							</g>
						</g>
					</g>
					<g>
						<g>
							<g>
								<path fill="#7E94C6" d="M50.55,49.63c0,0.15-0.08,0.26-0.18,0.26c-0.1,0-0.18-0.12-0.18-0.26c0-0.14,0.08-0.26,0.18-0.26
									C50.47,49.37,50.55,49.49,50.55,49.63z"/>
							</g>
							<g>
								<path fill="#7E94C6" d="M51.59,49.63c0,0.15-0.08,0.26-0.18,0.26c-0.1,0-0.18-0.12-0.18-0.26c0-0.14,0.08-0.26,0.18-0.26
									C51.51,49.37,51.59,49.49,51.59,49.63z"/>
							</g>
							<g>
								<path fill="#7E94C6" d="M52.64,49.63c0,0.15-0.08,0.26-0.18,0.26c-0.1,0-0.18-0.12-0.18-0.26c0-0.14,0.08-0.26,0.18-0.26
									C52.56,49.37,52.64,49.49,52.64,49.63z"/>
							</g>
						</g>
					</g>
					<g>
						<g>
							<g>
								<path fill="#7E94C6" d="M50.55,51.36c0,0.15-0.08,0.26-0.18,0.26c-0.1,0-0.18-0.12-0.18-0.26c0-0.15,0.08-0.26,0.18-0.26
									C50.47,51.1,50.55,51.22,50.55,51.36z"/>
							</g>
							<g>
								<path fill="#7E94C6" d="M51.59,51.36c0,0.15-0.08,0.26-0.18,0.26c-0.1,0-0.18-0.12-0.18-0.26c0-0.15,0.08-0.26,0.18-0.26
									C51.51,51.1,51.59,51.22,51.59,51.36z"/>
							</g>
							<g>
								<path fill="#7E94C6" d="M52.64,51.36c0,0.15-0.08,0.26-0.18,0.26c-0.1,0-0.18-0.12-0.18-0.26c0-0.15,0.08-0.26,0.18-0.26
									C52.56,51.1,52.64,51.22,52.64,51.36z"/>
							</g>
						</g>
					</g>
				</g>
				<path fill="#5F6F95" d="M50.55,53.81v0.71h-0.66c-0.14,0-0.26,0.57-0.26,1.28c0,0.71,0.12,1.28,0.26,1.28h1.13
					c0.7,0,1.27-0.84,1.27-1.87v-0.69v-0.71H50.55z"/>
			</g>
		</g>
		<g>
			<path fill="#7E94C6" d="M6.82,74.42h-2.5c-0.3,0-0.55-0.25-0.55-0.55v-1.2c0-0.3,0.25-0.55,0.55-0.55h2.5
				c0.3,0,0.55,0.25,0.55,0.55v1.2C7.37,74.18,7.12,74.42,6.82,74.42z"/>
			<path fill="#B5C8E8" d="M7.11,74.42h-2.5c-0.3,0-0.55-0.25-0.55-0.55v-1.2c0-0.3,0.25-0.55,0.55-0.55h2.5
				c0.3,0,0.55,0.25,0.55,0.55v1.2C7.66,74.18,7.42,74.42,7.11,74.42z"/>
		</g>
		<g>
			<path fill="#7E94C6" d="M30.95,74.42h-2.5c-0.3,0-0.55-0.25-0.55-0.55v-1.2c0-0.3,0.25-0.55,0.55-0.55h2.5
				c0.3,0,0.55,0.25,0.55,0.55v1.2C31.49,74.18,31.25,74.42,30.95,74.42z"/>
			<path fill="#B5C8E8" d="M31.24,74.42h-2.5c-0.3,0-0.55-0.25-0.55-0.55v-1.2c0-0.3,0.25-0.55,0.55-0.55h2.5
				c0.3,0,0.55,0.25,0.55,0.55v1.2C31.79,74.18,31.55,74.42,31.24,74.42z"/>
		</g>
		<path fill="#B5C8E8" d="M42.88,50.2c-0.21,0-0.38-0.25-0.38-0.55v-2.03c0-0.31,0.17-0.55,0.38-0.55h3.27
			c0.21,0,0.38,0.25,0.38,0.55v2.03c0,0.31-0.17,0.55-0.38,0.55H42.88z"/>
		<g>
			<path fill="#5F6F95" d="M46.32,47.62v2.03c0,0.14-0.07,0.25-0.17,0.25h-3.27c-0.09,0-0.17-0.11-0.17-0.25v-2.03
				c0-0.14,0.08-0.25,0.17-0.25h3.27C46.24,47.37,46.32,47.48,46.32,47.62z"/>
			<path fill="#7E94C6" d="M46.32,47.62v2.03c0,0.14-0.07,0.25-0.17,0.25h-2.92c-0.09,0-0.17-0.11-0.17-0.25v-2.03
				c0-0.14,0.08-0.25,0.17-0.25h2.92C46.24,47.37,46.32,47.48,46.32,47.62z"/>
			<path fill="#7E94C6" d="M45.86,49.06H43.7c-0.13,0-0.23-0.15-0.23-0.34c0-0.19,0.1-0.34,0.23-0.34h2.16
				c0.13,0,0.23,0.15,0.23,0.34C46.09,48.91,45.99,49.06,45.86,49.06z"/>
			<path fill="#F1F5FB" d="M45.55,49.06h-2.16c-0.13,0-0.23-0.15-0.23-0.34c0-0.19,0.1-0.34,0.23-0.34h2.16
				c0.13,0,0.23,0.15,0.23,0.34C45.78,48.91,45.67,49.06,45.55,49.06z"/>
		</g>
		<g>
			<path fill="#7E94C6" d="M39.39,68.62c0,0.41-0.13,0.75-0.3,0.75c-0.03,0-0.06-0.01-0.09-0.03c-0.12-0.09-0.21-0.38-0.21-0.72
				c0-0.34,0.09-0.63,0.21-0.72c0.03-0.02,0.06-0.03,0.09-0.03C39.25,67.86,39.39,68.2,39.39,68.62z"/>
			<path fill="#7E94C6" d="M39.39,76.16c0,0.42-0.13,0.75-0.3,0.75c-0.03,0-0.06-0.01-0.09-0.03c-0.12-0.09-0.21-0.38-0.21-0.72
				c0-0.34,0.09-0.63,0.21-0.72c0.03-0.02,0.06-0.03,0.09-0.03C39.25,75.41,39.39,75.75,39.39,76.16z"/>
			<path fill="#7E94C6" d="M37.31,72.48c0,0.42-0.13,0.75-0.3,0.75c-0.03,0-0.06-0.01-0.09-0.03c-0.12-0.09-0.21-0.38-0.21-0.72
				c0-0.34,0.09-0.62,0.21-0.72c0.03-0.02,0.06-0.03,0.09-0.03C37.17,71.72,37.31,72.06,37.31,72.48z"/>
			<path fill="#7E94C6" d="M41.22,72.48c0,0.42-0.13,0.75-0.3,0.75c-0.03,0-0.06-0.01-0.09-0.03c-0.12-0.09-0.21-0.38-0.21-0.72
				c0-0.34,0.09-0.62,0.21-0.72c0.03-0.02,0.06-0.03,0.09-0.03C41.08,71.72,41.22,72.06,41.22,72.48z"/>
			<path fill="#7E94C6" d="M40.76,70.12c0,0.42-0.13,0.75-0.3,0.75c-0.03,0-0.06-0.01-0.09-0.03c-0.12-0.09-0.21-0.38-0.21-0.72
				c0-0.34,0.09-0.62,0.21-0.72c0.03-0.02,0.06-0.03,0.09-0.03C40.62,69.37,40.76,69.71,40.76,70.12z"/>
			<path fill="#7E94C6" d="M37.91,70.12c0,0.42-0.13,0.75-0.3,0.75c-0.03,0-0.06-0.01-0.09-0.03c-0.12-0.09-0.21-0.38-0.21-0.72
				c0-0.34,0.09-0.62,0.21-0.72c0.03-0.02,0.06-0.03,0.09-0.03C37.77,69.37,37.91,69.71,37.91,70.12z"/>
			<path fill="#7E94C6" d="M37.91,75.18c0,0.42-0.13,0.75-0.3,0.75c-0.03,0-0.06-0.01-0.09-0.03c-0.12-0.09-0.21-0.38-0.21-0.72
				c0-0.34,0.09-0.63,0.21-0.72c0.03-0.02,0.06-0.03,0.09-0.03C37.77,74.42,37.91,74.76,37.91,75.18z"/>
			<path fill="#7E94C6" d="M40.76,75.18c0,0.42-0.13,0.75-0.3,0.75c-0.03,0-0.06-0.01-0.09-0.03c-0.12-0.09-0.21-0.38-0.21-0.72
				c0-0.34,0.09-0.62,0.21-0.72c0.03-0.02,0.06-0.03,0.09-0.03C40.62,74.42,40.76,74.76,40.76,75.18z"/>
		</g>
		<g>
			<path fill="#B5C8E8" d="M39.21,68.62c0,0.34-0.09,0.62-0.21,0.72c-0.12-0.09-0.21-0.38-0.21-0.72c0-0.34,0.09-0.63,0.21-0.72
				C39.12,67.99,39.21,68.28,39.21,68.62z"/>
			<path fill="#B5C8E8" d="M39.21,76.16c0,0.34-0.09,0.62-0.21,0.72c-0.12-0.09-0.21-0.38-0.21-0.72c0-0.34,0.09-0.63,0.21-0.72
				C39.12,75.54,39.21,75.83,39.21,76.16z"/>
			<path fill="#B5C8E8" d="M37.13,72.48c0,0.34-0.09,0.62-0.21,0.72c-0.12-0.09-0.21-0.38-0.21-0.72c0-0.34,0.09-0.62,0.21-0.72
				C37.04,71.85,37.13,72.14,37.13,72.48z"/>
			<path fill="#B5C8E8" d="M41.04,72.48c0,0.34-0.09,0.62-0.21,0.72c-0.12-0.09-0.21-0.38-0.21-0.72c0-0.34,0.09-0.62,0.21-0.72
				C40.95,71.85,41.04,72.14,41.04,72.48z"/>
			<path fill="#B5C8E8" d="M40.58,70.12c0,0.34-0.09,0.63-0.21,0.72c-0.12-0.09-0.21-0.38-0.21-0.72c0-0.34,0.09-0.62,0.21-0.72
				C40.49,69.5,40.58,69.78,40.58,70.12z"/>
			<path fill="#B5C8E8" d="M37.73,70.12c0,0.34-0.09,0.63-0.21,0.72c-0.12-0.09-0.21-0.38-0.21-0.72c0-0.34,0.09-0.62,0.21-0.72
				C37.64,69.5,37.73,69.78,37.73,70.12z"/>
			<path fill="#B5C8E8" d="M37.73,75.18c0,0.34-0.09,0.62-0.21,0.72c-0.12-0.09-0.21-0.38-0.21-0.72c0-0.34,0.09-0.63,0.21-0.72
				C37.64,74.55,37.73,74.84,37.73,75.18z"/>
			<path fill="#B5C8E8" d="M40.58,75.18c0,0.34-0.09,0.62-0.21,0.72c-0.12-0.09-0.21-0.38-0.21-0.72c0-0.34,0.09-0.62,0.21-0.72
				C40.49,74.55,40.58,74.84,40.58,75.18z"/>
		</g>
		<path fill="#7E94C6" d="M59.05,61.32h-5.77c-0.45,0-0.81-0.36-0.81-0.81V57.9c0-0.45,0.36-0.81,0.81-0.81h5.77
			c0.45,0,0.81,0.36,0.81,0.81v2.61C59.86,60.96,59.5,61.32,59.05,61.32z"/>
		<path fill="#B5C8E8" d="M58.87,61.32H53.1c-0.45,0-0.81-0.36-0.81-0.81V57.9c0-0.45,0.36-0.81,0.81-0.81h5.77
			c0.45,0,0.81,0.36,0.81,0.81v2.61C59.68,60.96,59.32,61.32,58.87,61.32z"/>
		<g>
			<rect x="74.62" y="62.61" fill="#342745" width="13.34" height="7.97"/>
			<g>
				<g>
					<path fill="#FFFFFF" d="M94.37,68.62h-5.14c0,0-0.95-4.75-4.01-5.81h5.14C93.42,63.87,94.37,68.62,94.37,68.62z"/>
					<path d="M94.37,68.67h-5.14c-0.02,0-0.03-0.02-0.03-0.04c-0.01-0.05-0.98-4.73-3.98-5.77c-0.02-0.01-0.03-0.03-0.03-0.06
						c0-0.03,0.02-0.05,0.04-0.05h5.14c3.06,1.05,4.03,5.8,4.04,5.84c0,0.02,0,0.03-0.01,0.05C94.39,68.67,94.38,68.67,94.37,68.67z
						 M89.26,68.57h5.06c-0.13-0.58-1.16-4.73-3.96-5.7H85.5C88.2,64.03,89.16,68.13,89.26,68.57z"/>
				</g>
				<g>
					<path fill="#7E94C6" d="M94.37,68.62h-5.44c0,0-1.2-6.01-5.26-6.01h5.44c0.45,0,0.87,0.07,1.25,0.21
						C93.42,63.87,94.37,68.62,94.37,68.62z"/>
				</g>
				<g>
					<g>
						<path fill="#493A5B" d="M94.06,72.48c0,5.26-2.44,9.53-5.45,9.53c-3.01,0-5.45-4.26-5.45-9.53c0-4,1.41-7.42,3.41-8.83
							c0.63-0.45,1.32-0.69,2.04-0.69c2.01,0,3.76,1.89,4.71,4.71C93.79,69.08,94.06,70.72,94.06,72.48z"/>
						<path fill="#E7EEF8" d="M88.61,78.95c-1.83,0-3.38-2.96-3.38-6.47c0-2.69,0.9-5.14,2.23-6.08c0.37-0.26,0.75-0.39,1.15-0.39
							c1.13,0,2.23,1.15,2.85,3.01c0.35,1.04,0.53,2.23,0.53,3.46C91.99,75.98,90.44,78.95,88.61,78.95z"/>
						<path fill="#D0DCF2" d="M88.61,78.44c-1.65,0-3.04-2.73-3.04-5.96c0-2.5,0.82-4.76,2.04-5.62c0.32-0.23,0.66-0.34,1-0.34
							c1,0,1.98,1.05,2.54,2.73c0.32,0.97,0.5,2.08,0.5,3.23C91.64,75.71,90.25,78.44,88.61,78.44z"/>
						<path fill="#E7EEF8" d="M89.02,74.96c-0.69,0-1.26-1.14-1.26-2.48c0-1.04,0.34-1.98,0.85-2.34c0.13-0.09,0.27-0.14,0.42-0.14
							c0.42,0,0.82,0.44,1.06,1.14c0.14,0.4,0.21,0.87,0.21,1.35C90.28,73.82,89.71,74.96,89.02,74.96z"/>
						<path fill="#342745" d="M88.61,82h-3.38c-3.01,0-5.45-4.26-5.45-9.53c0-1.75,0.27-3.4,0.75-4.81c0.95-2.82,2.7-4.71,4.71-4.71
							h3.38c-0.72,0-1.41,0.25-2.04,0.69c-2,1.41-3.41,4.83-3.41,8.83C83.16,77.74,85.6,82,88.61,82z"/>
					</g>
					<g>
						<path fill="#7E94C6" d="M89.32,68.62c0,0.41-0.13,0.75-0.3,0.75c-0.03,0-0.06-0.01-0.09-0.03c-0.12-0.09-0.21-0.38-0.21-0.72
							c0-0.34,0.09-0.63,0.21-0.72c0.03-0.02,0.06-0.03,0.09-0.03C89.19,67.86,89.32,68.2,89.32,68.62z"/>
						<path fill="#7E94C6" d="M89.32,76.16c0,0.42-0.13,0.75-0.3,0.75c-0.03,0-0.06-0.01-0.09-0.03c-0.12-0.09-0.21-0.38-0.21-0.72
							c0-0.34,0.09-0.63,0.21-0.72c0.03-0.02,0.06-0.03,0.09-0.03C89.19,75.41,89.32,75.75,89.32,76.16z"/>
						<path fill="#7E94C6" d="M87.24,72.48c0,0.42-0.13,0.75-0.3,0.75c-0.03,0-0.06-0.01-0.09-0.03c-0.12-0.09-0.21-0.38-0.21-0.72
							c0-0.34,0.09-0.62,0.21-0.72c0.03-0.02,0.06-0.03,0.09-0.03C87.11,71.72,87.24,72.06,87.24,72.48z"/>
						<path fill="#7E94C6" d="M91.15,72.48c0,0.42-0.13,0.75-0.3,0.75c-0.03,0-0.06-0.01-0.09-0.03c-0.12-0.09-0.21-0.38-0.21-0.72
							c0-0.34,0.09-0.62,0.21-0.72c0.03-0.02,0.06-0.03,0.09-0.03C91.02,71.72,91.15,72.06,91.15,72.48z"/>
						<path fill="#7E94C6" d="M90.69,70.12c0,0.42-0.13,0.75-0.3,0.75c-0.03,0-0.06-0.01-0.09-0.03c-0.12-0.09-0.21-0.38-0.21-0.72
							c0-0.34,0.09-0.62,0.21-0.72c0.03-0.02,0.06-0.03,0.09-0.03C90.56,69.37,90.69,69.71,90.69,70.12z"/>
						<path fill="#7E94C6" d="M87.84,70.12c0,0.42-0.13,0.75-0.3,0.75c-0.03,0-0.06-0.01-0.09-0.03c-0.12-0.09-0.21-0.38-0.21-0.72
							c0-0.34,0.09-0.62,0.21-0.72c0.03-0.02,0.06-0.03,0.09-0.03C87.71,69.37,87.84,69.71,87.84,70.12z"/>
						<path fill="#7E94C6" d="M87.84,75.18c0,0.42-0.13,0.75-0.3,0.75c-0.03,0-0.06-0.01-0.09-0.03c-0.12-0.09-0.21-0.38-0.21-0.72
							c0-0.34,0.09-0.63,0.21-0.72c0.03-0.02,0.06-0.03,0.09-0.03C87.71,74.42,87.84,74.76,87.84,75.18z"/>
						<path fill="#7E94C6" d="M90.69,75.18c0,0.42-0.13,0.75-0.3,0.75c-0.03,0-0.06-0.01-0.09-0.03c-0.12-0.09-0.21-0.38-0.21-0.72
							c0-0.34,0.09-0.62,0.21-0.72c0.03-0.02,0.06-0.03,0.09-0.03C90.56,74.42,90.69,74.76,90.69,75.18z"/>
					</g>
					<g>
						<path fill="#B5C8E8" d="M89.14,68.62c0,0.34-0.09,0.62-0.21,0.72c-0.12-0.09-0.21-0.38-0.21-0.72c0-0.34,0.09-0.63,0.21-0.72
							C89.05,67.99,89.14,68.28,89.14,68.62z"/>
						<path fill="#B5C8E8" d="M89.14,76.16c0,0.34-0.09,0.62-0.21,0.72c-0.12-0.09-0.21-0.38-0.21-0.72c0-0.34,0.09-0.63,0.21-0.72
							C89.05,75.54,89.14,75.83,89.14,76.16z"/>
						<path fill="#B5C8E8" d="M87.06,72.48c0,0.34-0.09,0.62-0.21,0.72c-0.12-0.09-0.21-0.38-0.21-0.72c0-0.34,0.09-0.62,0.21-0.72
							C86.98,71.85,87.06,72.14,87.06,72.48z"/>
						<path fill="#B5C8E8" d="M90.98,72.48c0,0.34-0.09,0.62-0.21,0.72c-0.12-0.09-0.21-0.38-0.21-0.72c0-0.34,0.09-0.62,0.21-0.72
							C90.89,71.85,90.98,72.14,90.98,72.48z"/>
						<path fill="#B5C8E8" d="M90.52,70.12c0,0.34-0.09,0.63-0.21,0.72c-0.12-0.09-0.21-0.38-0.21-0.72c0-0.34,0.09-0.62,0.21-0.72
							C90.43,69.5,90.52,69.78,90.52,70.12z"/>
						<path fill="#B5C8E8" d="M87.67,70.12c0,0.34-0.09,0.63-0.21,0.72c-0.12-0.09-0.21-0.38-0.21-0.72c0-0.34,0.09-0.62,0.21-0.72
							C87.58,69.5,87.67,69.78,87.67,70.12z"/>
						<path fill="#B5C8E8" d="M87.67,75.18c0,0.34-0.09,0.62-0.21,0.72c-0.12-0.09-0.21-0.38-0.21-0.72c0-0.34,0.09-0.63,0.21-0.72
							C87.58,74.55,87.67,74.84,87.67,75.18z"/>
						<path fill="#B5C8E8" d="M90.52,75.18c0,0.34-0.09,0.62-0.21,0.72c-0.12-0.09-0.21-0.38-0.21-0.72c0-0.34,0.09-0.62,0.21-0.72
							C90.43,74.55,90.52,74.84,90.52,75.18z"/>
					</g>
				</g>
			</g>
			<g>
				<g>
					<path fill="#493A5B" d="M80.84,72.48c0,5.26-2.44,9.53-5.45,9.53c-3.01,0-5.45-4.26-5.45-9.53c0-4,1.41-7.42,3.41-8.83
						c0.63-0.45,1.32-0.69,2.04-0.69c2.01,0,3.76,1.89,4.71,4.71C80.57,69.08,80.84,70.72,80.84,72.48z"/>
					<path fill="#E7EEF8" d="M75.39,78.95c-1.83,0-3.38-2.96-3.38-6.47c0-2.69,0.9-5.14,2.23-6.08c0.37-0.26,0.75-0.39,1.15-0.39
						c1.13,0,2.23,1.15,2.85,3.01c0.35,1.04,0.53,2.23,0.53,3.46C78.77,75.98,77.22,78.95,75.39,78.95z"/>
					<path fill="#D0DCF2" d="M75.39,78.44c-1.65,0-3.04-2.73-3.04-5.96c0-2.5,0.82-4.76,2.04-5.62c0.32-0.23,0.66-0.34,1-0.34
						c1,0,1.97,1.05,2.54,2.73c0.32,0.97,0.5,2.08,0.5,3.23C78.43,75.71,77.04,78.44,75.39,78.44z"/>
					<path fill="#E7EEF8" d="M75.8,74.96c-0.69,0-1.26-1.14-1.26-2.48c0-1.04,0.34-1.98,0.85-2.34c0.13-0.09,0.27-0.14,0.42-0.14
						c0.42,0,0.82,0.44,1.06,1.14c0.14,0.4,0.21,0.87,0.21,1.35C77.07,73.82,76.49,74.96,75.8,74.96z"/>
					<path fill="#342745" d="M75.39,82h-3.38c-3.01,0-5.45-4.26-5.45-9.53c0-1.75,0.27-3.4,0.75-4.81c0.95-2.82,2.7-4.71,4.71-4.71
						h3.38c-0.72,0-1.41,0.25-2.04,0.69c-2,1.41-3.41,4.83-3.41,8.83C69.94,77.74,72.38,82,75.39,82z"/>
				</g>
				<g>
					<path fill="#7E94C6" d="M76.1,68.62c0,0.41-0.13,0.75-0.3,0.75c-0.03,0-0.06-0.01-0.09-0.03c-0.12-0.09-0.21-0.38-0.21-0.72
						c0-0.34,0.09-0.63,0.21-0.72c0.03-0.02,0.06-0.03,0.09-0.03C75.97,67.86,76.1,68.2,76.1,68.62z"/>
					<path fill="#7E94C6" d="M76.1,76.16c0,0.42-0.13,0.75-0.3,0.75c-0.03,0-0.06-0.01-0.09-0.03c-0.12-0.09-0.21-0.38-0.21-0.72
						c0-0.34,0.09-0.63,0.21-0.72c0.03-0.02,0.06-0.03,0.09-0.03C75.97,75.41,76.1,75.75,76.1,76.16z"/>
					<path fill="#7E94C6" d="M74.02,72.48c0,0.42-0.13,0.75-0.3,0.75c-0.03,0-0.06-0.01-0.09-0.03c-0.12-0.09-0.21-0.38-0.21-0.72
						c0-0.34,0.09-0.62,0.21-0.72c0.03-0.02,0.06-0.03,0.09-0.03C73.89,71.72,74.02,72.06,74.02,72.48z"/>
					<path fill="#7E94C6" d="M77.93,72.48c0,0.42-0.13,0.75-0.3,0.75c-0.03,0-0.06-0.01-0.09-0.03c-0.12-0.09-0.21-0.38-0.21-0.72
						c0-0.34,0.09-0.62,0.21-0.72c0.03-0.02,0.06-0.03,0.09-0.03C77.8,71.72,77.93,72.06,77.93,72.48z"/>
					<path fill="#7E94C6" d="M77.47,70.12c0,0.42-0.13,0.75-0.3,0.75c-0.03,0-0.06-0.01-0.09-0.03c-0.12-0.09-0.21-0.38-0.21-0.72
						c0-0.34,0.09-0.62,0.21-0.72c0.03-0.02,0.06-0.03,0.09-0.03C77.34,69.37,77.47,69.71,77.47,70.12z"/>
					<path fill="#7E94C6" d="M74.62,70.12c0,0.42-0.13,0.75-0.3,0.75c-0.03,0-0.06-0.01-0.09-0.03c-0.12-0.09-0.21-0.38-0.21-0.72
						c0-0.34,0.09-0.62,0.21-0.72c0.03-0.02,0.06-0.03,0.09-0.03C74.49,69.37,74.62,69.71,74.62,70.12z"/>
					<path fill="#7E94C6" d="M74.62,75.18c0,0.42-0.13,0.75-0.3,0.75c-0.03,0-0.06-0.01-0.09-0.03c-0.12-0.09-0.21-0.38-0.21-0.72
						c0-0.34,0.09-0.63,0.21-0.72c0.03-0.02,0.06-0.03,0.09-0.03C74.49,74.42,74.62,74.76,74.62,75.18z"/>
					<path fill="#7E94C6" d="M77.47,75.18c0,0.42-0.13,0.75-0.3,0.75c-0.03,0-0.06-0.01-0.09-0.03c-0.12-0.09-0.21-0.38-0.21-0.72
						c0-0.34,0.09-0.62,0.21-0.72c0.03-0.02,0.06-0.03,0.09-0.03C77.34,74.42,77.47,74.76,77.47,75.18z"/>
				</g>
				<g>
					<g>
						<path fill="#B5C8E8" d="M75.93,68.62c0,0.34-0.09,0.62-0.21,0.72c-0.12-0.09-0.21-0.38-0.21-0.72c0-0.34,0.09-0.63,0.21-0.72
							C75.84,67.99,75.93,68.28,75.93,68.62z"/>
						<path fill="#B5C8E8" d="M75.93,76.16c0,0.34-0.09,0.62-0.21,0.72c-0.12-0.09-0.21-0.38-0.21-0.72c0-0.34,0.09-0.63,0.21-0.72
							C75.84,75.54,75.93,75.83,75.93,76.16z"/>
						<path fill="#B5C8E8" d="M73.85,72.48c0,0.34-0.09,0.62-0.21,0.72c-0.12-0.09-0.21-0.38-0.21-0.72c0-0.34,0.09-0.62,0.21-0.72
							C73.76,71.85,73.85,72.14,73.85,72.48z"/>
						<path fill="#B5C8E8" d="M77.76,72.48c0,0.34-0.09,0.62-0.21,0.72c-0.12-0.09-0.21-0.38-0.21-0.72c0-0.34,0.09-0.62,0.21-0.72
							C77.67,71.85,77.76,72.14,77.76,72.48z"/>
						<path fill="#B5C8E8" d="M77.3,70.12c0,0.34-0.09,0.63-0.21,0.72c-0.12-0.09-0.21-0.38-0.21-0.72c0-0.34,0.09-0.62,0.21-0.72
							C77.21,69.5,77.3,69.78,77.3,70.12z"/>
						<path fill="#B5C8E8" d="M74.45,70.12c0,0.34-0.09,0.63-0.21,0.72c-0.12-0.09-0.21-0.38-0.21-0.72c0-0.34,0.09-0.62,0.21-0.72
							C74.36,69.5,74.45,69.78,74.45,70.12z"/>
						<path fill="#B5C8E8" d="M74.45,75.18c0,0.34-0.09,0.62-0.21,0.72c-0.12-0.09-0.21-0.38-0.21-0.72c0-0.34,0.09-0.63,0.21-0.72
							C74.36,74.55,74.45,74.84,74.45,75.18z"/>
						<path fill="#B5C8E8" d="M77.3,75.18c0,0.34-0.09,0.62-0.21,0.72c-0.12-0.09-0.21-0.38-0.21-0.72c0-0.34,0.09-0.62,0.21-0.72
							C77.21,74.55,77.3,74.84,77.3,75.18z"/>
					</g>
				</g>
			</g>
			<path fill="#E7EEF8" d="M75.93,62.61c-0.05,0-0.1,0-0.15,0c-0.04,0-0.08,0-0.13,0.01c-0.03,0-0.06,0-0.09,0.01
				c-0.03,0-0.06,0.01-0.09,0.01c-0.02,0-0.03,0-0.05,0.01c-0.03,0-0.06,0.01-0.08,0.01c-0.02,0-0.05,0.01-0.07,0.01
				c-0.09,0.02-0.18,0.03-0.27,0.06c-0.02,0.01-0.05,0.01-0.07,0.02c-0.03,0.01-0.06,0.02-0.08,0.02c-0.06,0.02-0.11,0.03-0.15,0.05
				c-0.04,0.01-0.08,0.03-0.12,0.05c-0.01,0-0.02,0.01-0.03,0.01c-0.04,0.02-0.08,0.03-0.12,0.05c-0.1,0.04-0.19,0.09-0.28,0.14
				c-0.04,0.02-0.08,0.04-0.12,0.07c-0.04,0.02-0.09,0.05-0.13,0.08c-0.03,0.02-0.07,0.04-0.1,0.07c-0.05,0.03-0.1,0.07-0.15,0.1
				c-0.04,0.03-0.08,0.06-0.11,0.09c-0.04,0.03-0.08,0.06-0.12,0.09c-0.04,0.03-0.08,0.07-0.12,0.11c-0.03,0.02-0.06,0.05-0.09,0.08
				c-0.08,0.07-0.16,0.15-0.23,0.23c-0.03,0.03-0.06,0.06-0.09,0.1c-0.03,0.03-0.06,0.07-0.09,0.1c-0.01,0.01-0.01,0.01-0.02,0.02
				c-0.03,0.03-0.06,0.06-0.08,0.1c-0.03,0.04-0.06,0.08-0.09,0.11c-0.03,0.04-0.06,0.08-0.09,0.12c-0.03,0.04-0.06,0.08-0.09,0.12
				c-0.03,0.04-0.06,0.08-0.09,0.12c-0.04,0.06-0.09,0.12-0.13,0.19c-0.67,1.03-1.13,2.31-1.35,3.69c-0.1,0.63-0.16,1.29-0.16,1.95
				v3.89h-4.28c-0.64,0-1.16-0.76-1.16-1.7v-2.18c0-2.31,0.64-4.53,1.81-6.06c0.81-1.06,1.93-1.9,3.45-1.9H75.93z"/>
			<path fill="#D0DCF2" d="M94.67,68.62h-0.3c0,0-0.51-2.56-1.99-4.34c-0.8-0.96-1.81-1.47-2.84-1.47H76.26
				c-1.81,0-3.51,1.34-4.49,3.59c-0.01,0.01-0.01,0.02-0.02,0.04c-0.47,1.08-0.71,2.34-0.71,3.62v4.39h-0.39v-3.89
				c0-0.66,0.05-1.32,0.16-1.95c0.22-1.38,0.68-2.65,1.35-3.69c0.04-0.06,0.08-0.13,0.13-0.19c0.03-0.04,0.06-0.08,0.09-0.12
				c0.06-0.08,0.12-0.16,0.18-0.24c0.03-0.04,0.06-0.08,0.09-0.11c0.03-0.03,0.06-0.07,0.08-0.1c0.01-0.01,0.01-0.02,0.02-0.02
				c0.03-0.03,0.06-0.07,0.09-0.1c0.03-0.03,0.06-0.07,0.09-0.1c0.07-0.08,0.15-0.16,0.23-0.23c0.03-0.03,0.06-0.05,0.09-0.08
				c0.04-0.04,0.08-0.07,0.12-0.11c0.04-0.03,0.08-0.06,0.12-0.09c0.04-0.03,0.08-0.06,0.11-0.09c0.05-0.03,0.1-0.07,0.15-0.1
				c0.03-0.02,0.07-0.04,0.1-0.07c0.04-0.03,0.08-0.05,0.13-0.08c0.04-0.02,0.08-0.05,0.12-0.07c0.09-0.05,0.18-0.09,0.28-0.14
				c0.04-0.02,0.08-0.03,0.12-0.05c0.01,0,0.02-0.01,0.03-0.01c0.04-0.02,0.08-0.03,0.12-0.05c0.04-0.02,0.09-0.03,0.14-0.04
				c0.04-0.01,0.07-0.02,0.1-0.03c0.02-0.01,0.05-0.01,0.07-0.02c0.09-0.02,0.18-0.04,0.27-0.06c0.02-0.01,0.05-0.01,0.07-0.01
				c0.03,0,0.06-0.01,0.08-0.01c0.02,0,0.03-0.01,0.05-0.01c0.03,0,0.06-0.01,0.09-0.01c0.03,0,0.06-0.01,0.09-0.01
				c0.04,0,0.08-0.01,0.13-0.01c0.05,0,0.1,0,0.15,0h13.48c0.45,0,0.87,0.07,1.25,0.21C93.72,63.87,94.67,68.62,94.67,68.62z"/>
		</g>
		<g>
			<rect x="138.75" y="62.61" fill="#342745" width="13.34" height="7.97"/>
			<g>
				<g>
					<g>
						<path fill="#7E94C6" d="M158.5,68.62h-5.44c0,0-1.2-6.01-5.26-6.01h5.44c0.45,0,0.87,0.07,1.25,0.21
							C157.55,63.87,158.5,68.62,158.5,68.62z"/>
					</g>
				</g>
				<g>
					<g>
						<path fill="#493A5B" d="M158.19,72.48c0,5.26-2.44,9.53-5.45,9.53c-3.01,0-5.45-4.26-5.45-9.53c0-4,1.41-7.42,3.41-8.83
							c0.63-0.45,1.32-0.69,2.04-0.69c2.01,0,3.76,1.89,4.71,4.71C157.92,69.08,158.19,70.72,158.19,72.48z"/>
						<path fill="#E7EEF8" d="M152.74,78.95c-1.83,0-3.38-2.96-3.38-6.47c0-2.69,0.9-5.14,2.23-6.08c0.37-0.26,0.75-0.39,1.15-0.39
							c1.13,0,2.23,1.15,2.85,3.01c0.35,1.04,0.53,2.23,0.53,3.46C156.12,75.98,154.57,78.95,152.74,78.95z"/>
						<path fill="#D0DCF2" d="M152.74,78.44c-1.65,0-3.04-2.73-3.04-5.96c0-2.5,0.82-4.76,2.04-5.62c0.32-0.23,0.66-0.34,1-0.34
							c1,0,1.97,1.05,2.54,2.73c0.32,0.97,0.5,2.08,0.5,3.23C155.77,75.71,154.38,78.44,152.74,78.44z"/>
						<path fill="#E7EEF8" d="M153.15,74.96c-0.69,0-1.26-1.14-1.26-2.48c0-1.04,0.34-1.98,0.85-2.34c0.13-0.09,0.27-0.14,0.42-0.14
							c0.42,0,0.82,0.44,1.06,1.14c0.13,0.4,0.21,0.87,0.21,1.35C154.41,73.82,153.83,74.96,153.15,74.96z"/>
						<path fill="#342745" d="M152.74,82h-3.38c-3.01,0-5.45-4.26-5.45-9.53c0-1.75,0.27-3.4,0.75-4.81
							c0.95-2.82,2.7-4.71,4.71-4.71h3.38c-0.72,0-1.41,0.25-2.04,0.69c-2,1.41-3.41,4.83-3.41,8.83
							C147.29,77.74,149.73,82,152.74,82z"/>
					</g>
					<g>
						<path fill="#7E94C6" d="M153.45,68.62c0,0.41-0.13,0.75-0.3,0.75c-0.03,0-0.06-0.01-0.09-0.03c-0.12-0.09-0.21-0.38-0.21-0.72
							c0-0.34,0.09-0.63,0.21-0.72c0.03-0.02,0.06-0.03,0.09-0.03C153.32,67.86,153.45,68.2,153.45,68.62z"/>
						<path fill="#7E94C6" d="M153.45,76.16c0,0.42-0.13,0.75-0.3,0.75c-0.03,0-0.06-0.01-0.09-0.03c-0.12-0.09-0.21-0.38-0.21-0.72
							c0-0.34,0.09-0.63,0.21-0.72c0.03-0.02,0.06-0.03,0.09-0.03C153.32,75.41,153.45,75.75,153.45,76.16z"/>
						<path fill="#7E94C6" d="M151.37,72.48c0,0.42-0.13,0.75-0.3,0.75c-0.03,0-0.06-0.01-0.09-0.03c-0.12-0.09-0.21-0.38-0.21-0.72
							c0-0.34,0.09-0.62,0.21-0.72c0.03-0.02,0.06-0.03,0.09-0.03C151.24,71.72,151.37,72.06,151.37,72.48z"/>
						<path fill="#7E94C6" d="M155.28,72.48c0,0.42-0.13,0.75-0.3,0.75c-0.03,0-0.06-0.01-0.09-0.03c-0.12-0.09-0.21-0.38-0.21-0.72
							c0-0.34,0.09-0.62,0.21-0.72c0.03-0.02,0.06-0.03,0.09-0.03C155.15,71.72,155.28,72.06,155.28,72.48z"/>
						<path fill="#7E94C6" d="M154.82,70.12c0,0.42-0.13,0.75-0.3,0.75c-0.03,0-0.06-0.01-0.09-0.03c-0.12-0.09-0.21-0.38-0.21-0.72
							c0-0.34,0.09-0.62,0.21-0.72c0.03-0.02,0.06-0.03,0.09-0.03C154.69,69.37,154.82,69.71,154.82,70.12z"/>
						<path fill="#7E94C6" d="M151.97,70.12c0,0.42-0.13,0.75-0.3,0.75c-0.03,0-0.06-0.01-0.09-0.03c-0.12-0.09-0.21-0.38-0.21-0.72
							c0-0.34,0.09-0.62,0.21-0.72c0.03-0.02,0.06-0.03,0.09-0.03C151.84,69.37,151.97,69.71,151.97,70.12z"/>
						<path fill="#7E94C6" d="M151.97,75.18c0,0.42-0.13,0.75-0.3,0.75c-0.03,0-0.06-0.01-0.09-0.03c-0.12-0.09-0.21-0.38-0.21-0.72
							c0-0.34,0.09-0.63,0.21-0.72c0.03-0.02,0.06-0.03,0.09-0.03C151.84,74.42,151.97,74.76,151.97,75.18z"/>
						<path fill="#7E94C6" d="M154.82,75.18c0,0.42-0.13,0.75-0.3,0.75c-0.03,0-0.06-0.01-0.09-0.03c-0.12-0.09-0.21-0.38-0.21-0.72
							c0-0.34,0.09-0.62,0.21-0.72c0.03-0.02,0.06-0.03,0.09-0.03C154.69,74.42,154.82,74.76,154.82,75.18z"/>
					</g>
					<g>
						<path fill="#B5C8E8" d="M153.27,68.62c0,0.34-0.09,0.62-0.21,0.72c-0.12-0.09-0.21-0.38-0.21-0.72c0-0.34,0.09-0.63,0.21-0.72
							C153.18,67.99,153.27,68.28,153.27,68.62z"/>
						<path fill="#B5C8E8" d="M153.27,76.16c0,0.34-0.09,0.62-0.21,0.72c-0.12-0.09-0.21-0.38-0.21-0.72c0-0.34,0.09-0.63,0.21-0.72
							C153.18,75.54,153.27,75.83,153.27,76.16z"/>
						<path fill="#B5C8E8" d="M151.19,72.48c0,0.34-0.09,0.62-0.21,0.72c-0.12-0.09-0.21-0.38-0.21-0.72c0-0.34,0.09-0.62,0.21-0.72
							C151.1,71.85,151.19,72.14,151.19,72.48z"/>
						<path fill="#B5C8E8" d="M155.11,72.48c0,0.34-0.09,0.62-0.21,0.72c-0.12-0.09-0.21-0.38-0.21-0.72c0-0.34,0.09-0.62,0.21-0.72
							C155.02,71.85,155.11,72.14,155.11,72.48z"/>
						<path fill="#B5C8E8" d="M154.64,70.12c0,0.34-0.09,0.63-0.21,0.72c-0.12-0.09-0.21-0.38-0.21-0.72c0-0.34,0.09-0.62,0.21-0.72
							C154.56,69.5,154.64,69.78,154.64,70.12z"/>
						<path fill="#B5C8E8" d="M151.8,70.12c0,0.34-0.09,0.63-0.21,0.72c-0.12-0.09-0.21-0.38-0.21-0.72c0-0.34,0.09-0.62,0.21-0.72
							C151.71,69.5,151.8,69.78,151.8,70.12z"/>
						<path fill="#B5C8E8" d="M151.8,75.18c0,0.34-0.09,0.62-0.21,0.72c-0.12-0.09-0.21-0.38-0.21-0.72c0-0.34,0.09-0.63,0.21-0.72
							C151.71,74.55,151.8,74.84,151.8,75.18z"/>
						<path fill="#B5C8E8" d="M154.64,75.18c0,0.34-0.09,0.62-0.21,0.72c-0.12-0.09-0.21-0.38-0.21-0.72c0-0.34,0.09-0.62,0.21-0.72
							C154.56,74.55,154.64,74.84,154.64,75.18z"/>
					</g>
				</g>
			</g>
			<g>
				<g>
					<path fill="#493A5B" d="M144.97,72.48c0,5.26-2.44,9.53-5.45,9.53c-3.01,0-5.45-4.26-5.45-9.53c0-4,1.41-7.42,3.41-8.83
						c0.63-0.45,1.32-0.69,2.04-0.69c2.01,0,3.76,1.89,4.71,4.71C144.7,69.08,144.97,70.72,144.97,72.48z"/>
					<path fill="#E7EEF8" d="M139.52,78.95c-1.83,0-3.38-2.96-3.38-6.47c0-2.69,0.9-5.14,2.23-6.08c0.37-0.26,0.75-0.39,1.15-0.39
						c1.13,0,2.23,1.15,2.85,3.01c0.35,1.04,0.53,2.23,0.53,3.46C142.9,75.98,141.35,78.95,139.52,78.95z"/>
					<path fill="#D0DCF2" d="M139.52,78.44c-1.65,0-3.04-2.73-3.04-5.96c0-2.5,0.82-4.76,2.04-5.62c0.32-0.23,0.66-0.34,1-0.34
						c1,0,1.97,1.05,2.54,2.73c0.32,0.97,0.5,2.08,0.5,3.23C142.56,75.71,141.17,78.44,139.52,78.44z"/>
					<path fill="#E7EEF8" d="M139.93,74.96c-0.69,0-1.26-1.14-1.26-2.48c0-1.04,0.34-1.98,0.85-2.34c0.13-0.09,0.27-0.14,0.42-0.14
						c0.42,0,0.82,0.44,1.06,1.14c0.14,0.4,0.21,0.87,0.21,1.35C141.2,73.82,140.62,74.96,139.93,74.96z"/>
					<path fill="#342745" d="M139.52,82h-3.38c-3.01,0-5.45-4.26-5.45-9.53c0-1.75,0.27-3.4,0.75-4.81c0.95-2.82,2.7-4.71,4.71-4.71
						h3.38c-0.72,0-1.41,0.25-2.04,0.69c-2,1.41-3.41,4.83-3.41,8.83C134.07,77.74,136.51,82,139.52,82z"/>
				</g>
				<g>
					<path fill="#7E94C6" d="M140.23,68.62c0,0.41-0.13,0.75-0.3,0.75c-0.03,0-0.06-0.01-0.09-0.03c-0.12-0.09-0.21-0.38-0.21-0.72
						c0-0.34,0.09-0.63,0.21-0.72c0.03-0.02,0.06-0.03,0.09-0.03C140.1,67.86,140.23,68.2,140.23,68.62z"/>
					<path fill="#7E94C6" d="M140.23,76.16c0,0.42-0.13,0.75-0.3,0.75c-0.03,0-0.06-0.01-0.09-0.03c-0.12-0.09-0.21-0.38-0.21-0.72
						c0-0.34,0.09-0.63,0.21-0.72c0.03-0.02,0.06-0.03,0.09-0.03C140.1,75.41,140.23,75.75,140.23,76.16z"/>
					<path fill="#7E94C6" d="M138.15,72.48c0,0.42-0.13,0.75-0.3,0.75c-0.03,0-0.06-0.01-0.09-0.03c-0.12-0.09-0.21-0.38-0.21-0.72
						c0-0.34,0.09-0.62,0.21-0.72c0.03-0.02,0.06-0.03,0.09-0.03C138.02,71.72,138.15,72.06,138.15,72.48z"/>
					<path fill="#7E94C6" d="M142.06,72.48c0,0.42-0.13,0.75-0.3,0.75c-0.03,0-0.06-0.01-0.09-0.03c-0.12-0.09-0.21-0.38-0.21-0.72
						c0-0.34,0.09-0.62,0.21-0.72c0.03-0.02,0.06-0.03,0.09-0.03C141.93,71.72,142.06,72.06,142.06,72.48z"/>
					<path fill="#7E94C6" d="M141.6,70.12c0,0.42-0.13,0.75-0.3,0.75c-0.03,0-0.06-0.01-0.09-0.03c-0.12-0.09-0.21-0.38-0.21-0.72
						c0-0.34,0.09-0.62,0.21-0.72c0.03-0.02,0.06-0.03,0.09-0.03C141.47,69.37,141.6,69.71,141.6,70.12z"/>
					<path fill="#7E94C6" d="M138.75,70.12c0,0.42-0.13,0.75-0.3,0.75c-0.03,0-0.06-0.01-0.09-0.03c-0.12-0.09-0.21-0.38-0.21-0.72
						c0-0.34,0.09-0.62,0.21-0.72c0.03-0.02,0.06-0.03,0.09-0.03C138.62,69.37,138.75,69.71,138.75,70.12z"/>
					<path fill="#7E94C6" d="M138.75,75.18c0,0.42-0.13,0.75-0.3,0.75c-0.03,0-0.06-0.01-0.09-0.03c-0.12-0.09-0.21-0.38-0.21-0.72
						c0-0.34,0.09-0.63,0.21-0.72c0.03-0.02,0.06-0.03,0.09-0.03C138.62,74.42,138.75,74.76,138.75,75.18z"/>
					<path fill="#7E94C6" d="M141.6,75.18c0,0.42-0.13,0.75-0.3,0.75c-0.03,0-0.06-0.01-0.09-0.03c-0.12-0.09-0.21-0.38-0.21-0.72
						c0-0.34,0.09-0.62,0.21-0.72c0.03-0.02,0.06-0.03,0.09-0.03C141.47,74.42,141.6,74.76,141.6,75.18z"/>
				</g>
				<g>
					<path fill="#B5C8E8" d="M140.06,68.62c0,0.34-0.09,0.62-0.21,0.72c-0.12-0.09-0.21-0.38-0.21-0.72c0-0.34,0.09-0.63,0.21-0.72
						C139.97,67.99,140.06,68.28,140.06,68.62z"/>
					<path fill="#B5C8E8" d="M140.06,76.16c0,0.34-0.09,0.62-0.21,0.72c-0.12-0.09-0.21-0.38-0.21-0.72c0-0.34,0.09-0.63,0.21-0.72
						C139.97,75.54,140.06,75.83,140.06,76.16z"/>
					<path fill="#B5C8E8" d="M137.98,72.48c0,0.34-0.09,0.62-0.21,0.72c-0.12-0.09-0.21-0.38-0.21-0.72c0-0.34,0.09-0.62,0.21-0.72
						C137.89,71.85,137.98,72.14,137.98,72.48z"/>
					<path fill="#B5C8E8" d="M141.89,72.48c0,0.34-0.09,0.62-0.21,0.72c-0.12-0.09-0.21-0.38-0.21-0.72c0-0.34,0.09-0.62,0.21-0.72
						C141.8,71.85,141.89,72.14,141.89,72.48z"/>
					<path fill="#B5C8E8" d="M141.43,70.12c0,0.34-0.09,0.63-0.21,0.72c-0.12-0.09-0.21-0.38-0.21-0.72c0-0.34,0.09-0.62,0.21-0.72
						C141.34,69.5,141.43,69.78,141.43,70.12z"/>
					<path fill="#B5C8E8" d="M138.58,70.12c0,0.34-0.09,0.63-0.21,0.72c-0.12-0.09-0.21-0.38-0.21-0.72c0-0.34,0.09-0.62,0.21-0.72
						C138.49,69.5,138.58,69.78,138.58,70.12z"/>
					<path fill="#B5C8E8" d="M138.58,75.18c0,0.34-0.09,0.62-0.21,0.72c-0.12-0.09-0.21-0.38-0.21-0.72c0-0.34,0.09-0.63,0.21-0.72
						C138.49,74.55,138.58,74.84,138.58,75.18z"/>
					<path fill="#B5C8E8" d="M141.43,75.18c0,0.34-0.09,0.62-0.21,0.72c-0.12-0.09-0.21-0.38-0.21-0.72c0-0.34,0.09-0.62,0.21-0.72
						C141.34,74.55,141.43,74.84,141.43,75.18z"/>
				</g>
			</g>
			<path fill="#E7EEF8" d="M140.06,62.61c-0.05,0-0.1,0-0.15,0c-0.04,0-0.08,0-0.13,0.01c-0.03,0-0.06,0-0.09,0.01
				c-0.03,0-0.06,0.01-0.09,0.01c-0.02,0-0.03,0-0.05,0.01c-0.03,0-0.06,0.01-0.08,0.01c-0.02,0-0.05,0.01-0.07,0.01
				c-0.09,0.02-0.18,0.03-0.27,0.06c-0.02,0.01-0.05,0.01-0.07,0.02c-0.03,0.01-0.06,0.02-0.08,0.02c-0.06,0.02-0.11,0.03-0.15,0.05
				c-0.04,0.01-0.08,0.03-0.12,0.05c-0.01,0-0.02,0.01-0.03,0.01c-0.04,0.02-0.08,0.03-0.12,0.05c-0.1,0.04-0.19,0.09-0.28,0.14
				c-0.04,0.02-0.08,0.04-0.12,0.07c-0.04,0.02-0.09,0.05-0.13,0.08c-0.03,0.02-0.07,0.04-0.1,0.07c-0.05,0.03-0.1,0.07-0.15,0.1
				c-0.04,0.03-0.08,0.06-0.11,0.09c-0.04,0.03-0.08,0.06-0.12,0.09c-0.04,0.03-0.08,0.07-0.12,0.11c-0.03,0.02-0.06,0.05-0.08,0.08
				c-0.08,0.07-0.16,0.15-0.23,0.23c-0.03,0.03-0.06,0.06-0.09,0.1c-0.03,0.03-0.06,0.07-0.09,0.1c-0.01,0.01-0.01,0.01-0.02,0.02
				c-0.03,0.03-0.06,0.06-0.08,0.1c-0.03,0.04-0.06,0.08-0.09,0.11c-0.03,0.04-0.06,0.08-0.09,0.12c-0.03,0.04-0.06,0.08-0.09,0.12
				c-0.03,0.04-0.06,0.08-0.09,0.12c-0.04,0.06-0.09,0.12-0.13,0.19c-0.67,1.03-1.13,2.31-1.35,3.69c-0.1,0.63-0.16,1.29-0.16,1.95
				v3.89h-4.28c-0.64,0-1.16-0.76-1.16-1.7v-2.18c0-2.31,0.64-4.53,1.81-6.06c0.81-1.06,1.93-1.9,3.45-1.9H140.06z"/>
			<path fill="#D0DCF2" d="M158.8,68.62h-0.3c0,0-0.51-2.56-1.99-4.34c-0.8-0.96-1.81-1.47-2.84-1.47h-13.27
				c-1.81,0-3.51,1.34-4.48,3.59c-0.01,0.01-0.01,0.02-0.02,0.04c-0.47,1.08-0.71,2.34-0.71,3.62v4.39h-0.39v-3.89
				c0-0.66,0.05-1.32,0.16-1.95c0.22-1.38,0.68-2.65,1.35-3.69c0.04-0.06,0.08-0.13,0.13-0.19c0.03-0.04,0.06-0.08,0.09-0.12
				c0.06-0.08,0.12-0.16,0.18-0.24c0.03-0.04,0.06-0.08,0.09-0.11c0.03-0.03,0.06-0.07,0.08-0.1c0.01-0.01,0.01-0.02,0.02-0.02
				c0.03-0.03,0.06-0.07,0.09-0.1c0.03-0.03,0.06-0.07,0.09-0.1c0.08-0.08,0.15-0.16,0.23-0.23c0.03-0.03,0.06-0.05,0.08-0.08
				c0.04-0.04,0.08-0.07,0.12-0.11c0.04-0.03,0.08-0.06,0.12-0.09c0.04-0.03,0.08-0.06,0.11-0.09c0.05-0.03,0.1-0.07,0.15-0.1
				c0.03-0.02,0.07-0.04,0.1-0.07c0.04-0.03,0.08-0.05,0.13-0.08c0.04-0.02,0.08-0.05,0.12-0.07c0.09-0.05,0.18-0.09,0.28-0.14
				c0.04-0.02,0.08-0.03,0.12-0.05c0.01,0,0.02-0.01,0.03-0.01c0.04-0.02,0.08-0.03,0.12-0.05c0.04-0.02,0.09-0.03,0.14-0.04
				c0.04-0.01,0.07-0.02,0.1-0.03c0.02-0.01,0.05-0.01,0.07-0.02c0.09-0.02,0.18-0.04,0.27-0.06c0.02-0.01,0.05-0.01,0.07-0.01
				c0.03,0,0.06-0.01,0.08-0.01c0.02,0,0.03-0.01,0.05-0.01c0.03,0,0.06-0.01,0.09-0.01c0.03,0,0.06-0.01,0.09-0.01
				c0.04,0,0.08-0.01,0.13-0.01c0.05,0,0.1,0,0.15,0h13.48c0.45,0,0.87,0.07,1.25,0.21C157.85,63.87,158.8,68.62,158.8,68.62z"/>
		</g>
		<g>
			<path fill="#D0DCF2" d="M119.1,64.04v5.22c0,1.72-0.94,3.11-2.11,3.11h-15.73V60.93h15.73C118.15,60.93,119.1,62.32,119.1,64.04z
				"/>
			<path fill="#7E94C6" d="M115.47,63.89v5.52c0,1.22-0.41,2.3-1.03,2.96h-1.54c0.03-0.02,0.07-0.03,0.1-0.03
				c1.1,0,1.99-1.31,1.99-2.93v-5.52c0-1.61-0.89-2.93-1.99-2.93c-0.04,0-0.07-0.01-0.1-0.03h1.54
				C115.06,61.59,115.47,62.67,115.47,63.89z"/>
			<path fill="#B5C8E8" d="M115.19,63.89v5.52c0,1.22-0.41,2.3-1.03,2.96h-1.54c0.03-0.02,0.07-0.03,0.1-0.03
				c1.1,0,1.99-1.31,1.99-2.93v-5.52c0-1.61-0.89-2.93-1.99-2.93c-0.04,0-0.07-0.01-0.1-0.03h1.54
				C114.78,61.59,115.19,62.67,115.19,63.89z"/>
			<path fill="#7E94C6" d="M108.41,63.89v5.52c0,1.22-0.41,2.3-1.03,2.96h-1.54c0.03-0.02,0.07-0.03,0.1-0.03
				c1.1,0,1.99-1.31,1.99-2.93v-5.52c0-1.61-0.89-2.93-1.99-2.93c-0.04,0-0.07-0.01-0.1-0.03h1.54
				C108,61.59,108.41,62.67,108.41,63.89z"/>
			<path fill="#B5C8E8" d="M108.14,63.89v5.52c0,1.22-0.41,2.3-1.03,2.96h-1.54c0.03-0.02,0.07-0.03,0.1-0.03
				c1.1,0,1.99-1.31,1.99-2.93v-5.52c0-1.61-0.89-2.93-1.99-2.93c-0.04,0-0.07-0.01-0.1-0.03h1.54
				C107.73,61.59,108.14,62.67,108.14,63.89z"/>
			<path fill="#F1F5FB" d="M102.14,72.36h-0.73c-1.76,0-3.18-1.42-3.18-3.18v-5.09c0-1.75,1.42-3.18,3.18-3.18h0.73
				c1.76,0,3.18,1.42,3.18,3.18v5.09C105.32,70.93,103.9,72.36,102.14,72.36z"/>
			<g>
				<path fill="#B5C8E8" d="M99.25,68.51v-3.76c0-1.19,0.96-2.15,2.15-2.15h0.49c1.19,0,2.15,0.96,2.15,2.15v3.76
					c0,1.19-0.96,2.15-2.15,2.15h-0.49C100.21,70.66,99.25,69.7,99.25,68.51z"/>
				<path fill="#D3DEF1" d="M98.97,68.51v-3.76c0-1.19,0.96-2.15,2.15-2.15h0.49c1.19,0,2.15,0.96,2.15,2.15v3.76
					c0,1.19-0.96,2.15-2.15,2.15h-0.49C99.93,70.66,98.97,69.7,98.97,68.51z"/>
			</g>
		</g>
		<path fill="#B5C8E8" d="M31.15,58.21h-1.1l0.35-8.84h2.54c1.16,0,2.11,1.39,2.11,3.1C35.04,55.64,33.3,58.21,31.15,58.21z"/>
		<path fill="#E3EAF7" d="M30.05,58.21c-0.49,0-0.89-0.59-0.89-1.32v-5.54c0-1.09,0.6-1.98,1.34-1.98c0.2,0,0.36,0.24,0.36,0.53
			v7.12C30.86,57.67,30.49,58.21,30.05,58.21z"/>
		<g>
			<g>
				<path fill="#F18D4F" d="M30.44,51.03c0,0.27-0.11,0.49-0.25,0.49c-0.14,0-0.25-0.22-0.25-0.49c0-0.27,0.11-0.49,0.25-0.49
					C30.33,50.55,30.44,50.77,30.44,51.03z"/>
				<path fill="#F18D4F" d="M30.44,52.95c0,0.27-0.11,0.49-0.25,0.49c-0.14,0-0.25-0.22-0.25-0.49c0-0.27,0.11-0.49,0.25-0.49
					C30.33,52.46,30.44,52.68,30.44,52.95z"/>
				<path fill="#F18D4F" d="M30.44,54.86c0,0.27-0.11,0.49-0.25,0.49c-0.14,0-0.25-0.22-0.25-0.49c0-0.27,0.11-0.49,0.25-0.49
					C30.33,54.37,30.44,54.59,30.44,54.86z"/>
				<path fill="#F18D4F" d="M30.44,56.77c0,0.27-0.11,0.49-0.25,0.49c-0.14,0-0.25-0.22-0.25-0.49c0-0.27,0.11-0.49,0.25-0.49
					C30.33,56.28,30.44,56.5,30.44,56.77z"/>
			</g>
			<g>
				<path fill="#FED0A7" d="M30.29,51.03c0,0.27-0.11,0.49-0.25,0.49c-0.14,0-0.25-0.22-0.25-0.49c0-0.27,0.11-0.49,0.25-0.49
					C30.18,50.55,30.29,50.77,30.29,51.03z"/>
				<path fill="#FED0A7" d="M30.29,52.95c0,0.27-0.11,0.49-0.25,0.49c-0.14,0-0.25-0.22-0.25-0.49c0-0.27,0.11-0.49,0.25-0.49
					C30.18,52.46,30.29,52.68,30.29,52.95z"/>
				<path fill="#FED0A7" d="M30.29,54.86c0,0.27-0.11,0.49-0.25,0.49c-0.14,0-0.25-0.22-0.25-0.49c0-0.27,0.11-0.49,0.25-0.49
					C30.18,54.37,30.29,54.59,30.29,54.86z"/>
				<path fill="#FED0A7" d="M30.29,56.77c0,0.27-0.11,0.49-0.25,0.49c-0.14,0-0.25-0.22-0.25-0.49c0-0.27,0.11-0.49,0.25-0.49
					C30.18,56.28,30.29,56.5,30.29,56.77z"/>
			</g>
		</g>
	</g>
	<g>
		<path fill="#FFFFFF" d="M148.1,45.45H78.48c-0.69,0-1.26-0.83-1.26-1.85v-5.44c0-1.02,0.56-1.85,1.26-1.85h69.62
			c0.69,0,1.26,0.83,1.26,1.85v5.44C149.36,44.62,148.79,45.45,148.1,45.45z M78.48,36.74c-0.53,0-0.96,0.64-0.96,1.42v5.44
			c0,0.78,0.43,1.42,0.96,1.42h69.62c0.53,0,0.96-0.64,0.96-1.42v-5.44c0-0.78-0.43-1.42-0.96-1.42H78.48z"/>
		<path fill="#FFFFFF" d="M81.07,44.3h-1.84c-0.26,0-0.46-0.21-0.46-0.46v-5.92c0-0.26,0.21-0.46,0.46-0.46h1.84
			c0.26,0,0.46,0.21,0.46,0.46v5.91C81.54,44.1,81.33,44.3,81.07,44.3z"/>
		<path fill="#FFFFFF" d="M85.47,44.3h-1.84c-0.26,0-0.46-0.21-0.46-0.46v-5.91c0-0.26,0.21-0.46,0.46-0.46h1.84
			c0.26,0,0.46,0.21,0.46,0.46v5.92C85.93,44.1,85.72,44.3,85.47,44.3z"/>
		<path fill="#FFFFFF" d="M89.86,44.3h-1.84c-0.26,0-0.46-0.21-0.46-0.46v-5.91c0-0.26,0.21-0.46,0.46-0.46h1.84
			c0.26,0,0.46,0.21,0.46,0.46v5.91C90.32,44.1,90.12,44.3,89.86,44.3z"/>
		<path fill="#FFFFFF" d="M94.25,44.3h-1.84c-0.26,0-0.46-0.21-0.46-0.46v-5.91c0-0.26,0.21-0.46,0.46-0.46h1.84
			c0.26,0,0.46,0.21,0.46,0.46v5.92C94.72,44.1,94.51,44.3,94.25,44.3z"/>
		<path fill="#FFFFFF" d="M98.65,44.3h-1.84c-0.26,0-0.46-0.21-0.46-0.46v-5.91c0-0.26,0.21-0.46,0.46-0.46h1.84
			c0.26,0,0.46,0.21,0.46,0.46v5.91C99.11,44.1,98.9,44.3,98.65,44.3z"/>
		<path fill="#FFFFFF" d="M103.04,44.3h-1.84c-0.26,0-0.46-0.21-0.46-0.46v-5.91c0-0.26,0.21-0.46,0.46-0.46h1.84
			c0.26,0,0.46,0.21,0.46,0.46v5.91C103.5,44.1,103.3,44.3,103.04,44.3z"/>
		<path fill="#FFFFFF" d="M107.43,44.3h-1.84c-0.26,0-0.46-0.21-0.46-0.46v-5.91c0-0.26,0.21-0.46,0.46-0.46h1.84
			c0.26,0,0.46,0.21,0.46,0.46v5.92C107.9,44.1,107.69,44.3,107.43,44.3z"/>
		<path fill="#FFFFFF" d="M111.82,44.3h-1.84c-0.26,0-0.46-0.21-0.46-0.46v-5.92c0-0.26,0.21-0.46,0.46-0.46h1.84
			c0.26,0,0.46,0.21,0.46,0.46v5.91C112.29,44.1,112.08,44.3,111.82,44.3z"/>
		<path fill="#FFFFFF" d="M116.22,44.3h-1.84c-0.26,0-0.46-0.21-0.46-0.46v-5.91c0-0.26,0.21-0.46,0.46-0.46h1.84
			c0.26,0,0.46,0.21,0.46,0.46v5.92C116.68,44.1,116.47,44.3,116.22,44.3z"/>
		<path fill="#FFFFFF" d="M120.61,44.3h-1.84c-0.26,0-0.46-0.21-0.46-0.46v-5.91c0-0.26,0.21-0.46,0.46-0.46h1.84
			c0.26,0,0.46,0.21,0.46,0.46v5.91C121.07,44.1,120.87,44.3,120.61,44.3z"/>
		<path fill="#FFFFFF" d="M125,44.3h-1.84c-0.26,0-0.46-0.21-0.46-0.46v-5.91c0-0.26,0.21-0.46,0.46-0.46H125
			c0.26,0,0.46,0.21,0.46,0.46v5.91C125.47,44.1,125.26,44.3,125,44.3z"/>
	</g>
</g>
<path fill="#E5EAF4" d="M0.59,41.49"/>
<path fill="#E5EAF4" d="M-6.05,53.68"/>
</svg>
